<?xml version="1.0" encoding="UTF-8"?>
<svg viewBox="0 0 334 180" xmlns="http://www.w3.org/2000/svg">
<path d="m297.34 138.42c0.75 1.459 1.979 2.616 3.48 3.276s3.183 0.783 4.765 0.349c1.581-0.434 2.965-1.399 3.92-2.733s1.422-2.956 1.324-4.594c-0.099-1.638-0.757-3.192-1.864-4.402-1.108-1.21-2.598-2.002-4.219-2.243-1.622-0.241-3.278 0.083-4.689 0.918s-2.493 2.13-3.063 3.669l4.465 3.636-4.912-1.139c-1e-3 1.135 0.271 2.255 0.793 3.263z" fill="#57B894"/>
<path d="m242.8 28.797c0.862 3.3962 0.205 7.0485-1.253 10.234-1.459 3.1854-3.675 5.9618-6.02 8.5637-1.18 1.3091-2.457 2.7006-2.708 4.4458-0.333 2.3267 1.234 4.4324 2.287 6.5335 0.921 1.8402 1.48 3.8405 1.646 5.8918 0.141 1.7615-0.079 3.7028-1.312 4.9679-1.189 1.2198-3.014 1.515-4.709 1.6727-4.669 0.4337-9.373 0.3199-14.015-0.339 1.3-1.7315 0.812-2.8057 0.689-4.9686-0.239-4.243-3.325-8.0845-3.924-12.292-0.477-3.3449 1.736-6.4156 3.827-9.0681l9.59-12.162c1.589-2.0153 3.171-4.0911 4.312-6.4017 0.816-1.6512 0.969-4.7511 3.02-5.3017 3.865-1.0373 7.818 5.2618 8.57 8.224z" fill="#47465A"/>
<path d="m195.74 38.821s-6.615 19.529-9.922 20.853c-3.308 1.324 19.845 25.156 19.845 25.156l16.869-8.2751 0.662-15.888-6.616-0.331s-0.992-6.6201 2.316-9.9301c3.307-3.3101-23.154-11.585-23.154-11.585z" fill="#FBBEBE"/>
<path d="m195.74 38.821s-6.615 19.529-9.922 20.853c-3.308 1.324 19.845 25.156 19.845 25.156l16.869-8.2751 0.662-15.888-6.616-0.331s-0.992-6.6201 2.316-9.9301c3.307-3.3101-23.154-11.585-23.154-11.585z" opacity=".1"/>
<path d="m203.35 71.922s-14.223-9.5991-14.884-17.543c0 0-10.585 6.9511-13.892 6.6201-3.308-0.3311-12.239 1.655-12.239 2.979s8.27 38.727 8.27 38.727-5.954 15.889-2.977 20.854 4.63 28.135 4.63 28.135h68.799s-9.261-16.219-4.3-27.804c4.962-11.586 6.946-60.243 6.946-60.243s-3.638-2.648-7.277-1.986c-3.638 0.662-7.938-1.9861-10.584-2.3171s-8.643 1.024-8.643 1.024l-13.849 11.554z" fill="#03C6AF"/>
<path d="m333.01 151.34v14.564c0 2.564-1.009 5.023-2.809 6.847-1.8 1.823-4.245 2.864-6.806 2.895l-306.23 3.783c-0.74 0.01-1.4745-0.128-2.1608-0.405s-1.3109-0.688-1.8374-1.209c-0.5266-0.52-0.9446-1.14-1.2299-1.823-0.2854-0.684-0.4323-1.417-0.4323-2.158v-16.099c0-1.441 0.5607-2.826 1.5633-3.861s2.3684-1.638 3.808-1.683l307.23-9.489c1.156-0.036 2.308 0.161 3.386 0.579 1.079 0.418 2.062 1.049 2.892 1.855 0.831 0.805 1.491 1.77 1.942 2.835 0.451 1.066 0.683 2.212 0.683 3.369z" fill="#47465A"/>
<path d="m333.01 161.96v3.949c0 2.563-1.009 5.022-2.809 6.846-1.8 1.823-4.245 2.864-6.806 2.895l-306.23 3.784c-0.74 9e-3 -1.4745-0.129-2.1608-0.406s-1.3109-0.688-1.8374-1.208c-0.5266-0.521-0.9446-1.141-1.2299-1.824-0.2854-0.684-0.4323-1.417-0.4323-2.157v-0.519l321.5-11.36z" opacity=".1"/>
<path d="m272.81 151.69-38.745-5.031-68.897 2.515 24.952 7.812 82.69-5.296z" fill="#F2F2F2"/>
<path d="m169.94 149.38v3.972l-37.707 8.606-3.684-0.851-0.616-0.142-27.122-14.564 69.129 2.979z" fill="#9493B6"/>
<path d="m169.94 149.38v3.972l-37.707 8.606-3.684-0.851-0.616-4.114 42.007-7.613z" opacity=".1"/>
<path d="m126.61 155.67c0.662-0.331 14.554-2.979 14.554-2.979l-25.138-2.317 10.584 5.296z" fill="#47465A"/>
<path d="m213.6 55.703c11.874 0 21.499-9.6327 21.499-21.515s-9.625-21.515-21.499-21.515-21.5 9.6327-21.5 21.515 9.626 21.515 21.5 21.515z" fill="#FBBEBE"/>
<path d="m151.09 131.5s-19.184 8.275-23.814 5.958c-4.631-2.317-18.523-8.275-22.823 3.972-3.468 9.876 16.775 10.497 24.741 10.367 0.964-0.016 1.912-0.241 2.78-0.659s1.635-1.02 2.248-1.764l27.618-9.434s-6.119-10.426-10.75-8.44z" fill="#FBBEBE"/>
<path d="m205.33 116.28 2.316 1.986-21.5 30.452s-3.307 0.331-2.315-1.324l21.499-31.114z" fill="#47465A"/>
<path d="m206.66 118.26 2.315-2.979-0.992-0.662-2.315 2.648 0.992 0.993z" fill="#47465A"/>
<path d="m167.46 61.826s-11.246 1.986-10.915 10.592c0.331 8.6062-2.481 18.371-5.127 23.005-2.646 4.6337-0.661 8.2747 0 14.564 0.662 6.29-3.307 12.91-1.323 16.22 1.985 3.31-21.499 5.627-21.499 8.937s14.884 9.599 12.238 13.902c-1.904 3.096 11.515-2.118 19.194-5.287 2-0.807 3.776-2.085 5.177-3.725 1.4-1.64 2.385-3.595 2.87-5.697 0.233-1.055 0.295-2.007 0.047-2.669-0.992-2.648 10.75-6.123 11.08-12.743 0.331-6.621-1.653-13.241-3.307-19.861-1.654-6.6201-8.435-37.238-8.435-37.238z" fill="#03C6AF"/>
<path d="m3.5601 96.469 96.993 0.9186c0.67 0.0063 1.325 0.2038 1.887 0.5694 0.563 0.3655 1.009 0.8839 1.288 1.4944l26.139 57.313c0.25 0.547 0.355 1.149 0.307 1.748-0.048 0.6-0.248 1.177-0.582 1.677s-0.789 0.907-1.324 1.181c-0.535 0.275-1.131 0.408-1.731 0.387l-97.333-3.369c-0.6481-0.023-1.2775-0.224-1.8189-0.581-0.5415-0.357-0.9741-0.857-1.2502-1.444l-25.799-54.863c-0.25415-0.54-0.36707-1.136-0.32819-1.7323 0.038879-0.5961 0.22829-1.1725 0.55049-1.6753 0.3222-0.5028 0.76664-0.9155 1.2917-1.1996 0.52508-0.284 1.1136-0.4301 1.7104-0.4244z" fill="#7A799C"/>
<path d="m232.46 131.5s-19.184 8.275-23.815 5.958c-4.63-2.317-18.522-8.275-22.822 3.972-3.468 9.877 16.775 10.497 24.741 10.367 0.963-0.016 1.912-0.241 2.78-0.659 0.867-0.418 1.634-1.02 2.247-1.764l28.115-2.979s-6.615-16.881-11.246-14.895z" fill="#FBBEBE"/>
<path d="m243.87 68.777s4.796-6.4546 7.112-0.4965c2.315 5.9581 1.984 29.128 1.984 29.128s3.969 11.585 2.646 19.199c-1.323 7.613 1.323 8.606 1.323 8.606s0.662 3.31-1.323 4.965c-1.984 1.655-3.307 8.937-2.646 9.93 0.662 0.993-0.992 7.282-2.315 7.282s-4.135-0.497-4.135-0.497-6.78-12.412-21.003-13.405c0 0 2.315-3.31 0.992-9.93s17.365-54.782 17.365-54.782z" opacity=".1"/>
<path d="m243.04 63.978s5.457-2.1516 7.772 3.8065c2.316 5.9581 4.466 29.625 4.466 29.625s3.969 11.585 2.646 19.199c-1.323 7.613 1.323 8.606 1.323 8.606s0.661 3.31-1.323 4.965c-1.985 1.655-3.308 8.937-2.646 9.93 0.661 0.993-0.993 7.282-2.316 7.282s-13.561 1.986-13.561 1.986 2.646-14.895-11.577-15.888c0 0 2.316-3.31 0.993-9.93s14.223-59.581 14.223-59.581z" fill="#03C6AF"/>
<path d="m220.8 3.825c-3.298-2.0646-7.031-3.3341-10.903-3.7085-3.872-0.37442-7.779 0.15653-11.411 1.551-3.894 1.5328-7.333 4.0283-10.55 6.7062-2.581 2.1482-5.097 4.4918-6.683 7.4526-2.404 4.4893-2.397 9.8331-2.331 14.926 0.056 4.4339 0.114 8.8813 0.718 13.274 0.828 6.0251 2.683 11.99 2.257 18.057s-3.989 12.54-9.945 13.75c5.541 0.4195 11.11 0.259 16.617-0.479 3.471-0.4654 7.115-1.2609 9.653-3.6759 1.853-1.7639 2.901-4.1956 3.812-6.5871 0.916-2.4036 1.755-4.9013 1.722-7.4735-0.066-5.3522-3.78-9.8418-6.204-14.613-0.68-1.3393-1.277-2.7791-1.254-4.2813 0.024-1.5022 0.807-3.0792 2.203-3.634 1.721-0.6844 3.715 0.3366 5.504-0.1418 2.876-0.7686 3.622-4.7649 6.262-6.1402 1.954-1.0176 4.447-0.2546 6.089 1.2134 0.735 0.6566 1.364 1.4501 2.216 1.9446 1.155 0.6704 2.558 0.703 3.893 0.7178 2.493 0.0275 11.001-3.8827 12.798-5.6122 1.752 9.0208 14.784 1.17 7.305-12.139-2.604-4.634-6.058-8.938-10.652-11.607-4.595-2.6689-10.457-3.4967-15.281-1.2684" fill="#47465A"/>
<path d="m198.55 44.614c1.644 0 2.977-2.3711 2.977-5.2961 0-2.9249-1.333-5.296-2.977-5.296s-2.977 2.3711-2.977 5.296c0 2.925 1.333 5.2961 2.977 5.2961z" fill="#FBBEBE"/>
<path d="m227.82 59.847s18.358 2.6419 19.35 3.9659-0.992 9.2681-0.992 9.2681l-13.231 2.3171-10.18-2.1972 5.053-13.354z" fill="#03C6AF"/>
<path d="m171.56 72.808c-2.764-0.4769-5.461 2.0271-6.892 5.3285-1.432 3.3014-1.821 7.2575-1.961 11.101-0.14 3.8198-0.057 7.7206 0.812 11.352 1.784 7.457 6.576 12.73 9.349 19.587 2.13 5.44 2.991 11.295 2.519 17.119" opacity=".1"/>
<path d="m173.54 72.808c-2.765-0.4769-5.461 2.0271-6.893 5.3285-1.431 3.3014-1.82 7.2575-1.961 11.101-0.14 3.8198-0.057 7.7206 0.812 11.352 1.785 7.457 6.577 12.73 9.35 19.587 2.13 5.44 2.991 11.295 2.518 17.119" fill="#03C6AF"/>
<path d="m279.85 146.77 31.997 12.808 19.998-3.602-1.744-14.325-0.256-2.085-33.597-10.407-2.4 2.401-13.998 15.21z" fill="#03C6AF"/>
<path d="m298.25 131.71v13.86l33.597 10.407-1.744-14.325-31.853-9.942z" opacity=".1"/>
<path d="m267.32 149.76 2.265 0.839 27.005 10.008 2.099 0.778c0.066 0.025 0.137 0.033 0.207 0.025s0.137-0.033 0.196-0.072l2.473-1.66 25.726-17.272 2.43-1.631c0.07-0.047 0.126-0.113 0.16-0.19 0.034-0.078 0.045-0.163 0.033-0.247s-0.048-0.162-0.103-0.226-0.128-0.111-0.208-0.136l-3.876-1.188-27.242-8.351-2.378-0.73c-0.064-0.02-0.131-0.025-0.197-0.015-0.066 9e-3 -0.129 0.034-0.185 0.072l-1.873 1.263-24.272 16.357-2.352 1.586c-0.068 0.046-0.123 0.11-0.157 0.184-0.034 0.075-0.047 0.157-0.038 0.239 0.01 0.082 0.042 0.159 0.092 0.224 0.051 0.064 0.118 0.114 0.195 0.143z" fill="#7A799C"/>
<path d="m323.04 142.27-24.106 16.406c-0.116 0.079-0.25 0.129-0.389 0.147-0.14 0.017-0.282 1e-3 -0.414-0.047l-25.591-9.35c-0.156-0.057-0.293-0.157-0.395-0.287-0.103-0.131-0.167-0.287-0.185-0.452-0.019-0.165 8e-3 -0.332 0.079-0.482 0.07-0.151 0.181-0.278 0.32-0.369l23.332-15.237c0.109-0.072 0.233-0.118 0.362-0.136s0.261-7e-3 0.386 0.031l26.364 8.181c0.161 0.05 0.304 0.144 0.413 0.272s0.18 0.284 0.205 0.451c0.025 0.166 2e-3 0.336-0.065 0.491-0.068 0.154-0.177 0.286-0.316 0.381z" fill="#F2F2F2"/>
<path d="m325.73 138.79v3.618h1.563l2.431-1.631c0.07-0.047 0.125-0.113 0.16-0.191 0.034-0.077 0.045-0.162 0.033-0.246s-0.048-0.162-0.103-0.226c-0.056-0.064-0.128-0.111-0.209-0.136l-3.875-1.188z" fill="#03C6AF"/>
<path d="m296.59 159.48v1.133l2.099 0.778c0.066 0.025 0.137 0.033 0.207 0.025s0.137-0.033 0.196-0.072l2.473-1.66v-0.204h-4.975z" fill="#03C6AF"/>
<path d="m267.32 149.76 2.265 0.839v-3.215h-5e-3l-2.352 1.586c-0.068 0.046-0.123 0.11-0.157 0.184-0.034 0.075-0.047 0.158-0.038 0.239 0.01 0.082 0.042 0.159 0.092 0.224 0.051 0.064 0.118 0.114 0.195 0.143z" fill="#03C6AF"/>
<path d="m293.86 131.03h4.634v-0.59l-2.378-0.73c-0.064-0.02-0.132-0.025-0.198-0.015-0.066 9e-3 -0.129 0.034-0.184 0.072l-1.874 1.263z" fill="#03C6AF"/>
<path d="m283.72 139.12c0.183 0 0.331-0.148 0.331-0.331s-0.148-0.331-0.331-0.331c-0.182 0-0.33 0.148-0.33 0.331s0.148 0.331 0.33 0.331z" fill="#F2F2F2"/>
</svg>
