<?xml version="1.0" encoding="UTF-8"?>
<svg viewBox="0 0 143 143" xmlns="http://www.w3.org/2000/svg">
<path d="m142.95 71.427c0.012 10.32-2.221 20.519-6.544 29.891-4.323 9.373-10.632 17.696-18.492 24.393-0.234 0.205-0.471 0.403-0.72 0.601-0.611 0.51-1.231 1.008-1.86 1.495-4.056 3.161-8.443 5.873-13.084 8.089l-0.45 0.212c-5.0879 2.387-10.442 4.16-15.949 5.283-0.5612 0.115-1.1225 0.223-1.6873 0.327l-0.2914 0.051-0.1044 0.018-0.4389 0.071-0.2195 0.036c-3.851 0.631-7.747 0.947-11.649 0.946-1.336 0-2.6552-0.038-3.9575-0.112-1.2376-0.067-2.4657-0.165-3.6841-0.295l-0.3274-0.035c-1.2268-0.137-2.4464-0.302-3.6552-0.504-10.476-1.712-20.435-5.75-29.142-11.816-0.2195-0.147-0.4353-0.302-0.6512-0.46-1.6789-1.198-3.2991-2.461-4.8605-3.788-7.9035-6.697-14.251-15.033-18.6-24.43-4.3493-9.3969-6.596-19.628-6.5837-29.98 0-2.082 0.088743-4.1425 0.26623-6.1814 3.1336-36.549 33.819-65.238 71.235-65.238 39.438 0.0071876 71.45 31.985 71.45 71.427z" fill="#03C6AF" opacity=".1"/>
<path d="m70.559 19.688 53.433 26.835c0.446 0.2219 0.816 0.5708 1.063 1.0026 0.247 0.4317 0.361 0.927 0.326 1.4232l-3.105 45.936c-0.011 0.164-0.054 0.3243-0.127 0.4716-0.073 0.1474-0.174 0.2789-0.298 0.387-0.124 0.1082-0.269 0.1908-0.425 0.2433s-0.32 0.0737-0.485 0.0625c-0.166-0.0116-0.329-0.0568-0.478-0.133l-54.656-27.863 2.8063-47.248c0.0105-0.1758 0.0556-0.3478 0.1328-0.5062 0.0771-0.1584 0.1848-0.3001 0.3167-0.4169 0.132-0.1168 0.2857-0.2065 0.4524-0.2639 0.1667-0.0575 0.3431-0.0815 0.5191-0.0708 0.1829 0.01 0.3618 0.0577 0.5253 0.1401z" fill="#D0CDE1"/>
<path d="m71.172 20.62 52.124 26.177c0.433 0.2176 0.792 0.5581 1.032 0.9788s0.35 0.9028 0.317 1.3859l-3.037 44.808c-0.022 0.323-0.171 0.6241-0.416 0.837-0.244 0.2129-0.563 0.3204-0.886 0.2986-0.163-0.0107-0.322-0.0535-0.468-0.1257l-53.3-27.18 2.7378-46.087c0.0097-0.1718 0.0532-0.3399 0.1281-0.4948 0.075-0.1548 0.1798-0.2934 0.3086-0.4076 0.1287-0.1142 0.2788-0.2019 0.4415-0.258 0.1628-0.0561 0.3351-0.0794 0.507-0.0687 0.1777 0.0109 0.3514 0.0574 0.5108 0.1365z" fill="#3F3D56"/>
<path d="m73.462 24.102 47.245 23.719c0.395 0.1979 0.723 0.5084 0.941 0.8923 0.218 0.3838 0.318 0.8237 0.286 1.264l-2.745 40.61c-0.01 0.145-0.048 0.2867-0.112 0.417-0.065 0.1302-0.155 0.2464-0.264 0.3419-0.11 0.0955-0.237 0.1684-0.375 0.2146s-0.284 0.0646-0.429 0.0544c-0.148-0.0111-0.292-0.0501-0.425-0.115l-48.324-24.632 2.4824-41.778c0.0092-0.1555 0.0489-0.3077 0.117-0.4479s0.1631-0.2655 0.2797-0.369 0.2525-0.183 0.3999-0.234c0.1473-0.051 0.3033-0.0724 0.459-0.0632 0.1615 0.0107 0.3193 0.0535 0.4641 0.1258z" fill="#fff"/>
<path d="m24.702 90.658 53.502 26.914c0.4976 0.251 1.0472 0.382 1.6046 0.382 0.5573 0 1.1069-0.131 1.6045-0.382l39.575-20.071c0.464-0.4636 0.399-1.15 0.252-1.6639-0.075-0.2487-0.173-0.4895-0.295-0.7188l-5.397-2.8319-45.331-22.601-2.709-1.4375c-0.72-0.3806-1.5217-0.581-2.3363-0.5842-0.8146-0.0031-1.6178 0.1912-2.3408 0.5662l-38.146 19.791c-0.2425 0.1256-0.4456 0.3158-0.5867 0.5496-0.1412 0.2337-0.2149 0.5018-0.213 0.7748 0.0019 0.2729 0.0792 0.54 0.2235 0.7718s0.3499 0.4192 0.5942 0.5416z" fill="#D0CDE1"/>
<path d="m24.707 90.654 53.502 26.914c0.4977 0.251 1.0473 0.382 1.6046 0.382 0.5574 0 1.107-0.131 1.6046-0.382l39.575-20.071c0.464-0.4636 0.399-1.15 0.252-1.6639l-39.464 20.485c-0.4816 0.25-1.0157 0.382-1.5584 0.387-0.5428 4e-3 -1.0789-0.12-1.5644-0.362l-54.75-27.248c-0.0509 0.3111-8e-4 0.6303 0.1429 0.9109 0.1437 0.2807 0.3735 0.508 0.6558 0.6488z" opacity=".1"/>
<path d="m75.488 98.72-17.327-8.7473c-0.3488-0.176-0.7348-0.2656-1.1256-0.2612-0.3907 0.0044-0.7746 0.1026-1.1194 0.2864l-10.052 5.3655c-0.1676 0.0899-0.2927 0.2425-0.348 0.4243-0.0553 0.1819-0.0362 0.3782 0.053 0.546 0.0685 0.1308 0.1769 0.2365 0.3094 0.3019l17.668 8.9023c0.2932 0.147 0.6181 0.22 0.9462 0.212 0.328-7e-3 0.6493-0.095 0.9354-0.256l10.074-5.6814c0.143-0.0801 0.2484-0.2137 0.2929-0.3714 0.0446-0.1576 0.0246-0.3265-0.0555-0.4695-0.0569-0.1071-0.1446-0.1947-0.2518-0.2516z" opacity=".1"/>
<path d="m116.3 97.257-18.647 9.8939c-0.2158 0.111-0.4551 0.17-0.698 0.17s-0.4823-0.059-0.698-0.17l-52.681-26.598c-0.2119-0.1077-0.3724-0.2948-0.4466-0.5204-0.0741-0.2256-0.0559-0.4714 0.0508-0.6836 0.089-0.172 0.23-0.3116 0.403-0.3989l18.208-8.9845c0.2744-0.1364 0.5767-0.2074 0.8832-0.2074s0.6089 0.071 0.8833 0.2074l52.735 26.54c0.05 0.0251 0.094 0.0599 0.131 0.1022 0.036 0.0424 0.064 0.0915 0.081 0.1446 0.018 0.0531 0.024 0.1091 0.02 0.1648s-0.02 0.11-0.045 0.1598c-0.041 0.0766-0.103 0.1392-0.18 0.1797z" opacity=".1"/>
<path d="m86.555 47.922-0.0933 0.1864 17.141 8.5631 0.093-0.1864-17.141-8.5631z" fill="#6C63FF"/>
<path d="m86.547 50.425-0.0951 0.1856 17.146 8.7607 0.095-0.1856-17.146-8.7607z" fill="#6C63FF"/>
<path d="m89.692 55.232-0.0949 0.1856 9.8255 5.016 0.0949-0.1856-9.8255-5.016z" fill="#6C63FF"/>
<path d="m36.015 65.672s-4.1806-1.8221-6.1414 0.1006c-1.9607 1.9227 5.2563 1.2902 6.1414-0.1006z" fill="#3F3D56"/>
<path d="m28.789 57.041c1.4067-2.3683 4.1841-2.4797 4.1841-2.4797s2.7091-0.3594 4.4468 3.2632c1.619 3.3674 3.8531 6.6162 0.3598 7.4068l-0.6332-1.9622-0.3886 2.106c-0.498 0.0371-0.9977 0.0455-1.4966 0.0251-3.7417-0.1186-7.307 0.036-7.1955-1.3045 0.1655-1.7825-0.6224-4.7726 0.7232-7.0547z" fill="#2F2E41"/>
<path d="m26.833 100.03s1.7737 3.292 2.9142 3.292c1.1404 0 1.0109 2.156 0.7591 2.656-0.2519 0.499-0.8887 1.646 0.1259 3.288 0.1537 0.279 0.239 0.591 0.249 0.909 0.01 0.319-0.0556 0.635-0.1914 0.924-0.1363 0.354-0.3938 0.648-0.7268 0.83s-0.7199 0.241-1.0919 0.165-0.705-0.281-0.9399-0.579c-0.2348-0.298-0.3562-0.67-0.3427-1.049v-0.061c0.126-2.023-0.8886-5.186-1.8996-5.944-1.0109-0.758-1.8995-2.785-1.8995-2.785l3.0436-1.646z" fill="#FFB8B8"/>
<path d="m38.992 99.27s-1.7737 3.2885-2.9142 3.2885-1.0145 2.156-0.7591 2.659 0.885 1.643-0.1259 3.289c-0.1543 0.279-0.2402 0.59-0.2509 0.909-0.0106 0.318 0.0544 0.635 0.1897 0.923 0.6512 1.693 3.184 1.183 3.1012-0.632v-0.061c-0.1295-2.023 0.8851-5.186 1.8996-5.948 1.0146-0.762 1.8996-2.782 1.8996-2.782l-3.04-1.6455z" fill="#FFB8B8"/>
<path d="m37.598 83.076 0.7591 1.646s11.153 3.6692 10.135 7.971c-1.0181 4.3018-5.9542 11.004-6.7169 10.756s-4.8137-1.014-4.9396-3.163c-0.126-2.1488 2.9141-5.9474 2.9141-5.9474l-4.1805-3.7987-6.0838-0.1401-5.1915 3.9531s5.4506 4.8085 3.0437 6.7061c-2.4069 1.897-5.9542 3.163-6.4759 2.404-0.5216-0.758-6.1952-12.035-5.3066-13.063 0.8886-1.0279 9.8793-4.8086 9.8793-4.8086l2.4069-3.4141 9.3756-0.5067 0.3814 1.4052z" fill="#2F2E41"/>
<path d="m35.321 62.194s-0.6332 4.176 0.6332 4.672c1.2664 0.4959-2.5184 2.6594-2.5184 2.6594h-2.1586l-1.3923-2.911s1.2663-2.2785 0.5072-4.4311c-0.7591-2.1527 4.9289 0.0107 4.9289 0.0107z" fill="#FFB8B8"/>
<path d="m35.321 62.194s-0.6332 4.176 0.6332 4.672c1.2664 0.4959-2.5184 2.6594-2.5184 2.6594h-2.1586l-1.3923-2.911s1.2663-2.2785 0.5072-4.4311c-0.7591-2.1527 4.9289 0.0107 4.9289 0.0107z" opacity=".1"/>
<path d="m36.204 65.737s-1.3923 1.5202-1.6478 1.7718c-0.2554 0.2515-1.3923 1.6459-3.7992-0.3774-2.4068-2.0233-2.6587 0.3774-2.6587 0.3774v15.184s2.0255-0.8841 3.6733 0c1.6477 0.8841 5.0656-0.2516 5.0656-0.2516l0.6332-15.69-1.2664-1.0135z" fill="#D0CDE1"/>
<path d="m35.264 65.739s1.1836-0.5067 2.1946 0c1.0109 0.5067 4.5619 3.0368 4.3172 4.176-0.2446 1.1392-3.5437 9.1103-1.2664 12.909 2.2774 3.7986 2.6695 4.8085 2.6695 4.8085l-5.5728-2.911s-4.3173-2.6594-3.9287-4.3126c0.3885-1.6531 1.5866-14.67 1.5866-14.67z" fill="#3F3D56"/>
<path d="m30.248 65.737s-2.6588 0.2552-2.7847 0.5067c-0.1259 0.2516-3.9898 1.3297-3.738 2.469 0.2518 1.1392 3.738 11.324 2.2162 13.222s-4.0546 4.5569-3.166 4.8085 2.4069-0.3809 3.9251 0 5.0692-2.7852 4.677-6.1993c-0.3921-3.4141 0.0072-13.919-1.1296-14.806z" fill="#3F3D56"/>
<path d="m36.584 89.906v1.2651s0.6332 2.911-1.3923 2.7852-0.7627-3.5435-0.7627-3.5435l0.1259-1.1393 2.0291 0.6325z" fill="#FFB8B8"/>
<path d="m30.884 90.04s1.3959 2.9074 0 3.1626-2.4068-1.646-2.4068-2.1563 2.4068-1.0063 2.4068-1.0063z" fill="#FFB8B8"/>
<path d="m29.048 60.994c0.1391 0 0.2519-0.2269 0.2519-0.5067 0-0.2799-0.1128-0.5067-0.2519-0.5067-0.139 0-0.2518 0.2268-0.2518 0.5067 0 0.2798 0.1128 0.5067 0.2518 0.5067z" fill="#FFB8B8"/>
<path d="m36.516 60.994c0.1391 0 0.2519-0.2269 0.2519-0.5067 0-0.2799-0.1128-0.5067-0.2519-0.5067s-0.2519 0.2268-0.2519 0.5067c0 0.2798 0.1128 0.5067 0.2519 0.5067z" fill="#FFB8B8"/>
<path d="m26.834 67.399s-3.1696 0-3.0401 1.265c0.1295 1.2651 4.3173 23.029 4.3173 23.029s1.7593-1.6532 3.2811-1.2938l-4.5583-23z" fill="#3F3D56"/>
<path d="m39.116 67.758s3.166 0.6325 3.166 2.5157c0 1.8831-4.5583 20.125-5.1915 20.125s-3.0401-0.3773-3.0401-1.0134 5.0656-21.628 5.0656-21.628z" fill="#3F3D56"/>
<path d="m38.418 71.495-2.8493 11.141s1.3311-9.7465 2.8493-11.141z" opacity=".2"/>
<path d="m27.348 69.932 2.8781 14.559s-0.9318-13.718-2.8781-14.559z" opacity=".2"/>
<path d="m32.788 64.219c2.0287 0 3.6733-1.6428 3.6733-3.6693 0-2.0264-1.6446-3.6692-3.6733-3.6692s-3.6732 1.6428-3.6732 3.6692c0 2.0265 1.6445 3.6693 3.6732 3.6693z" fill="#FFB8B8"/>
<path d="m29.416 56.82 2.7451-1.4375 3.792 0.5894 0.7843 3.4608-1.9536-0.0754-0.5432-1.2722v1.2506l-0.9031-0.0359-0.5216-2.0233-0.3274 2.1562-3.2056-0.0647 0.1331-2.548z" fill="#2F2E41"/>
<path d="m70.587 35.514-1.511 3.5974 12.779 6.6989 4.3065-12.586" fill="#F2F2F2"/>
<path d="m81.561 43.602 5.6448-13.268-12.973-6.379-5.4505 12.948 12.779 6.6989z" fill="#6C63FF"/>
<path d="m85.28 68.888 0.046 0.8599c-0.0971 0.031-0.2824 0.0201-0.5559-0.0328-0.2681-0.0508-0.612-0.136-1.0317-0.2555-0.644 0.2857-1.2591 0.4936-1.8451 0.6237-0.5807 0.1321-1.1287 0.1848-1.6441 0.158-0.1192-0.0078-0.2556-0.0188-0.4091-0.0331-0.0858-0.0319-0.1727-0.0856-0.2607-0.1611-0.0899-0.0701-0.1846-0.1602-0.284-0.2705-0.0987-0.1283-0.169-0.243-0.2107-0.344-0.0418-0.1011-0.0477-0.1918-0.0177-0.2723 0.06-0.1609 0.1957-0.2875 0.4073-0.3798s0.4925-0.1496 0.8429-0.1719c0.7048-0.0555 1.4026-0.1165 2.0933-0.1833 0.0858 0.0319 0.1405 0.0736 0.1641 0.1251 0.0255 0.0462 0.0283 0.0961 0.0083 0.1497-0.0539 0.1448-0.2045 0.2293-0.4517 0.2534-0.2399 0.0207-0.3678 0.0525-0.3838 0.0954 0.0176 0.0676 0.0398 0.1064 0.0666 0.1164 0.0697 0.0259 0.2616-0.0218 0.5756-0.1432 0.3194-0.1194 0.4864-0.2069 0.501-0.2625l0.0288-0.2 0.028-0.0262c0.1855-0.0715 0.3284-0.1435 0.4288-0.2161 0.1057-0.0706 0.1696-0.1354 0.1916-0.1944 0.0499-0.1341 0.0498-0.3387-3e-4 -0.6138-0.0502-0.2752-0.1504-0.6208-0.3007-1.037-0.1119-0.3226-0.2338-0.6183-0.3656-0.8872-0.1299-0.2743-0.2608-0.5214-0.3926-0.7414-0.0511-0.0923-0.0925-0.1779-0.1241-0.2569-0.0297-0.0843-0.0506-0.1592-0.0628-0.2249-0.019-0.1292-0.0343-0.2356-0.0459-0.3193-0.0062-0.0817-0.0187-0.1383-0.0375-0.1697-0.0149-0.0422-0.0384-0.0937-0.0707-0.1545-0.0249-0.0643-0.0586-0.1378-0.101-0.2208-0.0687-0.1599-0.0962-0.3564-0.0826-0.5895 0.0189-0.2311 0.0864-0.5022 0.2023-0.8133 0.076-0.2038 0.1758-0.3896 0.2994-0.5573 0.131-0.1712 0.2781-0.3119 0.4414-0.4221 0.0281-0.0262 0.0582-0.0578 0.0903-0.0947 0.032-0.0369 0.0688-0.0782 0.1103-0.1238 0.2173-0.2062 0.5275-0.3993 0.9305-0.5791 0.405-0.1853 0.9072-0.3527 1.5066-0.5023 0.0764-0.0082 0.1702-0.0222 0.2814-0.0419s0.2391-0.0515 0.3837-0.0954c0.0844-0.0297 0.1721-0.052 0.2632-0.067 0.0965-0.013 0.2054-0.0183 0.3267-0.0159 0.1668-0.0051 0.3544-0.0086 0.5628-0.0105 0.3202-0.0397 0.5808-0.0588 0.7819-0.0573 0.201 0.0015 0.3471 0.0192 0.4383 0.0531 0.177 0.0658 0.2885 0.1684 0.3343 0.3076 0.0512 0.1411 0.0389 0.3136-0.0371 0.5174-0.084 0.2253-0.1717 0.4033-0.2632 0.5342-0.0842 0.1275-0.1648 0.2044-0.2418 0.2307-0.8209 0.2687-1.4725 0.4599-1.9548 0.5737-0.4802 0.1084-0.7981 0.1337-0.9536 0.0758-0.0751-0.0279-0.1262-0.0713-0.1531-0.1302s-0.0244-0.1312 0.0076-0.217c0.054-0.1448 0.2337-0.2581 0.539-0.34 0.3074-0.0872 0.4754-0.1774 0.5041-0.2705l-0.0545-0.0752c-0.0268-0.01-0.062-0.0139-0.1055-0.0118-0.0382 0.0041-0.0811 0.0126-0.1286 0.0254-0.6141 0.2052-1.0988 0.4158-1.4541 0.6317-0.348 0.2126-0.564 0.4315-0.648 0.6567-0.066 0.177-0.1034 0.3677-0.1124 0.572-0.0036 0.2062 0.0177 0.4279 0.0637 0.6649 0.0359 0.166 0.0953 0.3835 0.1783 0.6525 0.0903 0.2657 0.2076 0.5902 0.3518 0.9736 0.1987 0.5319 0.351 0.9428 0.4568 1.2325s0.1674 0.444 0.1849 0.4627c0.0553 0.1793 0.0945 0.3527 0.1177 0.5201 0.0231 0.1673 0.0241 0.3204 0.0029 0.4591-0.0111 0.1119-0.0393 0.2449-0.0846 0.399-0.0452 0.1542-0.1078 0.3386-0.1878 0.5531-0.046 0.1233-0.0542 0.2027-0.0246 0.2381 0.0315 0.0301 0.0902 0.0611 0.176 0.093 0.0322 0.012 0.0584 0.0156 0.0785 0.0109 0.0274-0.0081 0.0559-0.0189 0.0853-0.0324zm0.3814-0.2612 0.9122-0.2103c0.0369-0.0169 0.082-0.0398 0.1356-0.0687 0.0555-0.0343 0.1234-0.0854 0.2037-0.1532 0.0636-0.0558 0.1338-0.0968 0.2108-0.1231 0.0824-0.0244 0.1708-0.0403 0.2653-0.048 0.0629-0.0376 0.1496-0.0817 0.26-0.1322 0.1105-0.0506 0.2474-0.1065 0.4108-0.1679 0.071-0.0102 0.1631-0.0279 0.2763-0.0529 0.1152-0.0305 0.2454-0.0767 0.3907-0.1387 0.6601-0.2797 1.2155-0.467 1.6663-0.5619 0.4561-0.0929 0.8102-0.0925 1.0624 0.0013 0.1395 0.0518 0.2304 0.1192 0.2728 0.2022 0.0477 0.0849 0.0516 0.181 0.0116 0.2883-0.0419 0.1126-0.1004 0.2039-0.1753 0.2737-0.0695 0.0718-0.1582 0.1213-0.266 0.1484-0.1701 0.0466-0.355 0.1-0.5545 0.1602-0.1278 0.0807-0.2774 0.1624-0.4488 0.2452-0.1694 0.0775-0.3602 0.147-0.5725 0.2085-0.0796 0.0498-0.1482 0.0945-0.2058 0.1341-0.0368 0.0169-0.1057 0.0462-0.2068 0.088s-0.2304 0.0853-0.3877 0.1306c-0.0977 0.098-0.2727 0.207-0.525 0.3269-0.247 0.1218-0.5697 0.2583-0.9681 0.4094-0.0515 0.0235-0.1506 0.0844-0.2971 0.1826-0.1466 0.0981-0.3386 0.2282-0.5762 0.3903l0.0294 0.0933c0.132 0.0064 0.2794-0.0121 0.4421-0.0554s0.3499-0.1111 0.5614-0.2034c0.2444-0.0984 0.4419-0.1776 0.5926-0.2376 0.158-0.0634 0.2671-0.1022 0.3274-0.1164 0.0455-0.0075 0.0911-0.015 0.1366-0.0224 0.0456-0.0075 0.0985-0.0184 0.1588-0.0326 0.3567-0.2032 0.6684-0.3346 0.9349-0.3942 0.2686-0.065 0.4941-0.0636 0.6765 0.0042 0.1126 0.0419 0.1815 0.1194 0.2065 0.2326 0.027 0.1077 0.0129 0.2521-0.0423 0.4331-0.1107 0.2641-0.212 0.5196-0.304 0.7663-0.0693 0.1696-0.0817 0.3421-0.0371 0.5175 0.0519 0.172 0.1584 0.2879 0.3193 0.3478 0.0483 0.0179 0.0989 0.0215 0.1518 0.0106 0.0583-0.0088 0.1196-0.0257 0.1838-0.0507 0.0556-0.0343 0.1075-0.0669 0.1556-0.0978 0.0536-0.029 0.1071-0.0579 0.1607-0.0869 0.0254-0.0027 0.0619-0.0105 0.1095-0.0234 0.0529-0.0108 0.1051-0.028 0.1567-0.0516 0.0151 0.1888 0.0238 0.3539 0.0261 0.4952 0.0097 0.138 0.0109 0.2575 0.0038 0.3587-0.1654 0.0667-0.3328 0.1388-0.5021 0.2163-0.162 0.0741-0.3301 0.1398-0.5042 0.1972-0.2069 0.0635-0.3975 0.0995-0.5717 0.108-0.1722 0.0031-0.3334-0.0233-0.4836-0.0791-0.3487-0.1297-0.5799-0.3287-0.6937-0.597s-0.1119-0.6095 0.0059-1.0238c0.018-0.0482 0.0279-0.0995 0.0298-0.1537 0.0093-0.0577 0.0024-0.1213-0.0205-0.1909-0.0368 0.0169-0.0773 0.0354-0.1215 0.0556-0.0422 0.0148-0.0937 0.0384-0.1546 0.0707-0.0898 0.0277-0.2033 0.0618-0.3405 0.1024-0.132 0.0425-0.2887 0.0942-0.4701 0.1549-0.2598 0.1233-0.477 0.2226-0.6517 0.2981-0.1748 0.0754-0.2989 0.13-0.3726 0.1637-0.1413 0.0513-0.3013 0.0956-0.4801 0.1329-0.1735 0.0393-0.3668 0.0743-0.5798 0.1049-0.1346 0.0171-0.2482 0.0268-0.3406 0.0291-0.0945 0.0076-0.1605 0.0044-0.1981-0.0096-0.2575-0.0957-0.4249-0.2283-0.5023-0.3975-0.0755-0.1746-0.0642-0.3933 0.0338-0.6561 0.054-0.1448 0.1371-0.2696 0.2495-0.3744 0.109-0.1121 0.2481-0.2069 0.4175-0.2844 0.0367-0.0657 0.0631-0.12 0.0791-0.163 0.01-0.0268 0.0119-0.0566 0.0058-0.0894 0.0013-0.0362-0.0018-0.077-0.0093-0.1225-0.0042-0.0871-0.0081-0.1832-0.0116-0.2883-7e-3 -0.1125-0.0146-0.2314-0.0229-0.3566 0.0295-0.0135 0.0767-0.0417 0.1416-0.0848 0.0615-0.0504 0.1361-0.1112 0.2237-0.1824zm5.8068 2.5628c0.0683-0.0357 0.1406-0.0821 0.2168-0.1392 0.0783-0.0625 0.1747-0.1244 0.2891-0.1856l0.7051-0.2691c0.0274-0.0081 0.0461-0.0255 0.0561-0.0524 0.0154-0.0248 0.0321-0.0613 0.0501-0.1096 0.0206-0.0717 0.0335-0.131 0.0388-0.1779 0.046-0.1234 0.1471-0.3209 0.3033-0.5925 0.1563-0.2717 0.2641-0.43 0.3237-0.4751l0.0087-0.1708c0.2037-0.3334 0.4462-0.689 0.7275-1.0668 0.2887-0.3812 0.6064-0.7912 0.9533-1.2301 0.0856-0.0659 0.182-0.1522 0.2889-0.259 0.109-0.1121 0.2321-0.2374 0.3691-0.3757 0.1952-0.245 0.4249-0.4924 0.689-0.7422 0.2642-0.2498 0.5501-0.5007 0.8578-0.7527 0.4101-0.3299 0.7517-0.5662 1.0248-0.7089 0.2785-0.1407 0.4955-0.1821 0.651-0.1243 0.3112 0.1158 0.5001 0.2562 0.5668 0.4215 0.074 0.1619 0.0491 0.4091-0.0749 0.7416-0.032 0.0858-0.098 0.2139-0.1982 0.3843-0.0928 0.167-0.1562 0.2961-0.1902 0.3873-0.0339 0.0912-0.1114 0.2089-0.2324 0.3532s-0.2075 0.2862-0.2595 0.4257c-0.0213 0.0409-0.0507 0.0788-0.0882 0.1137l-0.0339 0.1156c-0.0494 0.0671-0.1156 0.1463-0.1985 0.2377-0.0829 0.0913-0.1872 0.199-0.3129 0.3233-0.0876 0.1201-0.1938 0.2576-0.3188 0.4127-0.125 0.155-0.2667 0.3222-0.4252 0.5014-0.0521 0.0417-0.12 0.0927-0.2037 0.1532-0.0762 0.0572-0.1619 0.123-0.2569 0.1976-0.0421 0.0638-0.0989 0.1342-0.1704 0.2114s-0.1625 0.1656-0.2728 0.265c-0.0562 0.0524-0.1251 0.1061-0.2068 0.1612-0.0816 0.0552-0.182 0.1278-0.301 0.2178-0.0522 0.0417-0.1121 0.0958-0.1796 0.1622-0.0676 0.0665-0.1445 0.1417-0.2307 0.2257-0.093 0.0692-0.2128 0.1529-0.3593 0.2511-0.1466 0.0981-0.3155 0.2155-0.5069 0.3519-0.2763 0.2331-0.5529 0.4509-0.8299 0.6532-0.1939 0.5202-0.2389 0.9523-0.135 1.2963 0.1113 0.3406 0.3734 0.5878 0.7865 0.7414 0.0268 0.01 0.1143 0.0211 0.2624 0.0335 0.1481 0.0123 0.3552 0.0222 0.6212 0.0295 0.0858-0.017 0.1909-0.045 0.3155-0.0842 0.1265-0.0445 0.2715-0.0975 0.4349-0.1589l0.0379 0.8569c-0.1854 0.0715-0.3719 0.1456-0.5594 0.2225-0.1874 0.0768-0.3766 0.15-0.5674 0.2195-0.2183 0.0776-0.4273 0.122-0.6269 0.1332-0.1977 0.0059-0.3797-0.0221-0.546-0.084-0.0858-0.0319-0.2142-0.0888-0.3853-0.1708-0.169-0.0873-0.2991-0.1479-0.3903-0.1818-0.3005-0.1117-0.5049-0.3252-0.6135-0.6404-0.1031-0.3131-0.105-0.726-0.0055-1.2387 0.0072-0.0522 0.0071-0.1011-3e-4 -0.1466-0.0021-0.0436-0.0183-0.0985-0.0486-0.1647-0.0958 0.0438-0.2099 0.096-0.3425 0.1566-0.1271 0.0626-0.2808 0.1307-0.4609 0.2042l-0.046-0.8599zm6.1925-4.8876-0.0444-0.0531c-0.4084 0.1778-0.7383 0.3666-0.9898 0.5661-0.2462 0.2016-0.4143 0.4231-0.5042 0.6644-0.014 0.0376-0.0568 0.0949-0.1283 0.1721-0.0642 0.0739-0.1572 0.1676-0.2789 0.2811-0.1478 0.1343-0.3043 0.2837-0.4694 0.4483-0.2139 0.2624-0.3827 0.4775-0.5063 0.6452-0.1236 0.1678-0.2004 0.2919-0.2304 0.3724l0.0243 0.0823c0.0503 0.0126 0.1273-0.0137 0.231-0.079 0.1037-0.0652 0.2342-0.1694 0.3914-0.3124 0.0789-0.0806 0.1825-0.1703 0.311-0.2691 0.1284-0.0988 0.2766-0.2177 0.4445-0.3568 0.1298-0.0861 0.3796-0.3382 0.7493-0.7564 0.3696-0.4182 0.5875-0.6914 0.6536-0.8195 0.0453-0.1053 0.0977-0.2049 0.1572-0.2988 0.0668-0.0973 0.1299-0.1929 0.1894-0.2868zm-1.6539 6.5757c0.1063-0.0887 0.2315-0.1704 0.3754-0.2451 0.1459-0.0801 0.3196-0.1529 0.5212-0.2184 0.056-0.1013 0.1111-0.1999 0.1652-0.2958 0.0561-0.1013 0.1068-0.2046 0.1521-0.3098 0.0441-0.0691 0.1012-0.1486 0.1714-0.2386 0.0756-0.0879 0.1568-0.1829 0.2437-0.2849 0.0922-0.1 0.2116-0.2236 0.358-0.3707 0.1518-0.145 0.3358-0.3026 0.5519-0.4726 0.1586-0.0814 0.3266-0.1716 0.504-0.2705 0.1793-0.1043 0.3587-0.2086 0.5381-0.3129 0.077-0.0263 0.1583-0.0479 0.2441-0.0649 0.0857-0.017 0.1738-0.0393 0.2628-0.067 0.073 0.0025 0.152 0.0107 0.239 0.0245 0.086 0.0139 0.178 0.0387 0.274 0.0746 0.134 0.0499 0.237 0.1032 0.307 0.16 0.076 0.0587 0.129 0.1303 0.158 0.2146 0.022 0.0568 0.033 0.1342 0.033 0.232 6e-3 0.0997 1e-3 0.2173-0.012 0.3526-0.024 0.1133-0.049 0.2382-0.076 0.3749 0.012-0.0321-4e-3 -0.0227-0.047 0.0283-0.038 0.053-0.1 0.1369-0.186 0.2516l-0.168 0.2305c-0.171 0.2295-0.451 0.4644-0.8398 0.7045s-0.8868 0.4946-1.494 0.7634c-0.0516 0.0235-0.1018 0.0598-0.1506 0.1089-0.0468 0.0436-0.0822 0.0976-0.1062 0.162-0.042 0.1126-0.0602 0.2188-0.0546 0.3186 0.0109 0.1018 0.046 0.1881 0.1051 0.2589 0.0309 0.0482 0.086 0.1053 0.1652 0.1714 0.0845 0.0681 0.1862 0.1395 0.3049 0.2142 0.2153 0.0617 0.4187 0.0977 0.6104 0.1079 0.1916 0.0102 0.3685 0.0027 0.5306-0.0225 0.0328-0.0061 0.0838-0.0116 0.1528-0.0164 0.071-0.0103 0.145-0.0286 0.2222-0.0549 0.012 0.1815 0.021 0.3439 0.029 0.4872s0.011 0.2665 9e-3 0.3697c-0.418 0.1866-0.7819 0.3108-1.092 0.3725-0.3028 0.0584-0.5588 0.0487-0.768-0.0291-0.1058 0.0217-0.2201 0.025-0.3427 0.0099-0.1153-0.0184-0.2481-0.0556-0.3983-0.1115-0.1985-0.0738-0.3645-0.1691-0.4981-0.286-0.1282-0.1149-0.2223-0.2476-0.2823-0.3981-0.0336-0.0736-0.0583-0.1713-0.0739-0.2932-0.0137-0.1272-0.0231-0.2742-0.0281-0.4409-0.0043-0.136-0.0179-0.2388-0.0408-0.3083-0.021-0.075-0.0582-0.1225-0.1119-0.1424-0.0429-0.016-0.0992-0.0125-0.1688 0.0105-0.0677 0.0176-0.1487 0.0546-0.243 0.1111 0.0085-0.0884 0.0079-0.2016-0.0017-0.3396-0.0097-0.1379-0.0245-0.3113-0.0443-0.5202zm3.5496-1.6569c-0.118-0.0439-0.3343 0.0528-0.6487 0.29-0.3124 0.2319-0.4957 0.4203-0.5496 0.5651-0.012 0.0321-0.0157 0.0583-0.0109 0.0784 0.0121 0.0167 0.0396 0.033 0.0825 0.049 0.059 0.0219 0.1183 0.0104 0.1778-0.0346 0.0616-0.0504 0.1184-0.0965 0.1706-0.1381 0.079-0.0317 0.1563-0.0671 0.232-0.1061 0.083-0.0424 0.1623-0.0832 0.2379-0.1222 0.0924-0.0511 0.1687-0.1083 0.2288-0.1714 0.0602-0.0631 0.1043-0.1322 0.1323-0.2073 0.018-0.0483 0.0212-0.0898 0.0098-0.1246-0.0041-0.0382-0.0249-0.0642-0.0625-0.0782z" fill="#E0E046"/>
</svg>
