<?xml version="1.0" encoding="UTF-8"?>
<svg fill="none" viewBox="0 0 368 121" xmlns="http://www.w3.org/2000/svg">
<path d="m83.386 47.181v21.524h-6.9225v-21.456l6.9225-0.0671z" fill="#038A7A"/>
<path d="m72.795 81.525h-6.9142c7.0556 0 10.586-4.2734 10.592-12.82h6.9141c0 8.5524-3.5306 12.826-10.592 12.82z" fill="#038A7A"/>
<path d="m72.795 81.525h-6.9142c0.8644 0.0032 1.7275-0.0697 2.5793-0.218h6.9225c-0.8547 0.148-1.7205 0.221-2.5876 0.218z" fill="#038A7A"/>
<path d="m75.382 81.332h-6.9225c0.8365-0.1501 1.6522-0.4006 2.4295-0.7463h6.9225c-0.7777 0.3446-1.5933 0.5951-2.4295 0.7463z" fill="#038A7A"/>
<path d="m77.812 80.56h-6.9225c3.7164-1.677 5.5774-5.629 5.5829-11.856h6.9142c0 6.2047-1.8582 10.157-5.5746 11.856z" fill="#038A7A"/>
<path d="m72.27 86.069h-6.9225c-10.284 0-15.426-5.8302-15.426-17.49h6.9225c0.0166 11.655 5.1586 17.485 15.426 17.49z" fill="#038A7A"/>
<path d="m72.27 86.069h-6.9225c-10.284 0-15.426-5.8302-15.426-17.49h6.9225c0 11.655 5.1336 17.485 15.401 17.49" fill="#038A7A"/>
<path d="m56.861 43.793v24.785h-6.9142v-26.387l6.9142 1.6015z" fill="#038A7A"/>
<path d="m88.337 47.139v20.777c0 12.124-5.3555 18.184-16.066 18.178-10.267 0-15.404-5.8302-15.409-17.49v-24.81l4.9922 1.1487v23.31c0 8.8543 3.6554 13.276 10.966 13.265 7.0668 0 10.597-4.2706 10.592-12.812v-21.524l4.9256-0.0419z" fill="#03C6AF"/>
<path d="m74.833 48.522 5.6911-0.0503 4.077-0.0419" fill="#62BD69"/>
<path d="m53.009 44.364 5.6994 1.3164 4.0853 0.9391" fill="#62BD69"/>
<path d="m69.142 16.174c-8.9031 0-17.606 2.6606-25.009 7.6453-7.4026 4.9848-13.172 12.07-16.579 20.359-3.4066 8.2892-4.2976 17.41-2.5601 26.21 1.7376 8.7995 6.0255 16.882 12.322 23.226 6.296 6.3436 14.317 10.663 23.05 12.412 8.7322 1.75 17.783 0.85 26.008-2.585 8.2249-3.434 15.255-9.2495 20.2-16.71 4.945-7.4608 7.584-16.232 7.582-25.204 1e-3 -5.9569-1.163-11.856-3.424-17.359-2.262-5.5035-5.578-10.504-9.758-14.716-4.1803-4.2117-9.143-7.5522-14.605-9.8305-5.4616-2.2783-11.315-3.4498-17.226-3.4476zm0 83.26c-7.4398 0-14.712-2.2232-20.898-6.3885-6.186-4.1653-11.007-10.086-13.854-17.012-2.8471-6.9267-3.592-14.549-2.1406-21.902s5.034-14.108 10.295-19.409c5.2608-5.3014 11.963-8.9117 19.26-10.374 7.2968-1.4627 14.86-0.712 21.734 2.1571 6.8735 2.8692 12.748 7.7278 16.882 13.962 4.133 6.2338 6.339 13.563 6.339 21.06 0 4.978-0.973 9.9073-2.863 14.506-1.891 4.5991-4.6614 8.778-8.1544 12.298s-7.6398 6.3123-12.204 8.2173-9.4552 2.8855-14.395 2.8855z" fill="url(#a)"/>
<path d="m69.142 23.62c-7.4398 0-14.712 2.2232-20.898 6.3885-6.186 4.1653-11.007 10.086-13.854 17.012-2.8471 6.9266-3.592 14.548-2.1406 21.902 1.4514 7.3533 5.034 14.108 10.295 19.409 5.2608 5.3015 11.963 8.9118 19.26 10.374 7.2968 1.4629 14.86 0.7119 21.734-2.1572 6.8735-2.8691 12.748-7.7278 16.882-13.962 4.133-6.2338 6.339-13.563 6.339-21.06 0-4.9781-0.973-9.9074-2.863-14.506-1.89-4.5992-4.6612-8.778-8.1542-12.298-3.493-3.5201-7.6398-6.3123-12.204-8.2173s-9.4552-2.8855-14.395-2.8855zm0 72.561c-6.8013 0-13.45-2.0325-19.105-5.8403s-10.063-9.2201-12.665-15.552c-2.6027-6.3322-3.2837-13.3-1.9569-20.022 1.3269-6.7222 4.602-12.897 9.4113-17.743 4.8092-4.8465 10.937-8.147 17.607-9.4841s13.585-0.6509 19.868 1.972 11.654 7.0646 15.433 12.763c3.7784 5.6989 5.7954 12.399 5.7954 19.253 0 9.1908-3.6229 18.005-10.072 24.504s-15.196 10.15-24.316 10.15z" fill="#62BD69"/>
<path d="m149.22 51.776c-2.118-1.8896-4.645-3.2535-7.38-3.9827-1.383-0.3614-2.806-0.5417-4.235-0.5367-2.29-0.0329-4.56 0.4303-6.656 1.3584-2.066 0.9127-3.952 2.1937-5.567 3.7815-1.62 1.6023-2.954 3.4744-3.943 5.5339-1.012 2.074-1.614 4.3266-1.773 6.6323h3.47c0.172-2.1904 0.817-4.3165 1.889-6.2298 0.971-1.7391 2.278-3.2644 3.844-4.4859 1.511-1.1708 3.24-2.0259 5.083-2.5154 1.83-0.5075 3.74-0.6556 5.625-0.436 2.006 0.2523 3.936 0.9352 5.658 2.0027 1.722 1.0674 3.198 2.4946 4.326 4.1852l1.365-1.1487 0.724-0.6204 0.299-0.26 0.092-0.0922c-0.808-1.1738-1.755-2.2438-2.821-3.1862zm2.072 25.087-1.772-1.4002c-0.372 0.482-0.77 0.9438-1.19 1.3834-1.195 1.2721-2.579 2.3497-4.102 3.1946-2.062 1.1355-4.381 1.7133-6.731 1.677-1.872-0.0464-3.719-0.4504-5.442-1.1907-1.582-0.6928-3.028-1.6669-4.268-2.8759-0.292-0.2641-0.57-0.544-0.832-0.8385-0.487-0.5561-0.93-1.1505-1.323-1.7776-0.305-0.4756-0.583-0.9683-0.832-1.4757-0.795-1.5861-1.356-3.281-1.664-5.0308h-3.445c0.198 2.2364 0.819 4.4138 1.831 6.4143 0 0.0419 0.041 0.0755 0.058 0.1174 0.995 1.9561 2.309 3.7303 3.886 5.2488 1.599 1.5438 3.458 2.7875 5.491 3.6726 2.055 0.9064 4.28 1.3582 6.523 1.3247 2.888 0.0245 5.735-0.6941 8.271-2.0878 2.527-1.3886 4.718-3.3244 6.415-5.668l-0.874-0.6876z" fill="#58595B"/>
<path d="m194.14 59.02c-0.884-2.2381-2.173-4.291-3.802-6.0538-1.618-1.7503-3.552-3.1732-5.699-4.1924-2.223-1.0105-4.634-1.5332-7.073-1.5332-2.438 0-4.849 0.5227-7.072 1.5332-2.152 1.0149-4.09 2.4383-5.708 4.1924-1.634 1.7602-2.927 3.8136-3.81 6.0538-0.924 2.2899-1.396 4.7391-1.39 7.2108-2e-3 1.282 0.109 2.5615 0.333 3.8235 0.225 1.2596 0.585 2.4909 1.073 3.6725 0.134-0.0946 0.276-0.176 0.425-0.2432l0.998-0.5366 1.498-0.8385c-0.25-0.9391-0.491-1.8781-0.724-2.8088-0.24-1.0011-0.333-2.0323-0.275-3.0605-9e-3 -2.0116 0.372-4.0055 1.123-5.8693 0.726-1.8209 1.781-3.49 3.112-4.9218 1.323-1.4222 2.905-2.5751 4.66-3.3958 1.8-0.8342 3.759-1.2661 5.741-1.2661 1.981 0 3.94 0.4319 5.741 1.2661 1.745 0.8275 3.321 1.9796 4.642 3.3958 1.329 1.4322 2.382 3.1012 3.104 4.9218 0.765 1.8609 1.161 3.855 1.165 5.8693 4e-3 2.0103-0.374 4.0028-1.115 5.8693-0.403 1.0267-0.908 2.0099-1.506 2.9347-0.421 0.6449-0.892 1.256-1.406 1.8279-0.05 0.067-0.117 0.1341-0.175 0.2012-1.322 1.4372-2.911 2.5994-4.676 3.421-1.974 0.9095-4.133 1.3365-6.302 1.2461-2.169-0.0903-4.286-0.6954-6.179-1.766-1.429-0.8332-2.73-1.8727-3.86-3.0856-0.492-0.53-0.95-1.0901-1.373-1.6769l-2.904 1.6769h-0.058c1.586 2.5396 3.773 4.6427 6.365 6.1209 1.29 0.7214 2.662 1.2844 4.085 1.6769 1.454 0.3967 2.954 0.5969 4.46 0.5953 2.472 0.0253 4.917-0.5106 7.155-1.5679 2.151-1.0101 4.084-2.4343 5.692-4.1924 1.219-1.3486 2.252-2.8576 3.07-4.4858 0.249-0.5115 0.491-1.0481 0.707-1.5931 0.902-2.2919 1.36-4.7369 1.348-7.2025 0.011-2.4749-0.461-4.9278-1.39-7.2192z" fill="#58595B"/>
<path d="m226.5 76.863-1.415-1.8279-21.425-27.77h-0.74v5.1398l18.13 22.639 1.464 1.8279 6.74 8.3847v-4.8212l-2.754-3.5719zm-23.58-18.757v26.831h3.702v-22.245l-3.702-4.5864z" fill="#58595B"/>
<path d="m260.24 76.863-1.414-1.8279-21.425-27.77h-0.741v5.1398l18.13 22.639 1.481 1.8195 6.74 8.3847v-4.8128l-2.771-3.5719zm-23.58-18.757v26.831h3.703v-22.245l-3.703-4.5864z" fill="#58595B"/>
<path d="m270.41 47.634v16.929h3.403v-13.499h18.787v-3.4293h-22.19zm3.403 33.841v-9.5418h16.233v-3.4293h-19.636v16.4h22.19v-3.4294h-18.787z" fill="#58595B"/>
<path d="m329.48 51.776c-2.104-1.887-4.617-3.251-7.338-3.9828-1.384-0.3607-2.807-0.5411-4.236-0.5366-2.316-0.0383-4.612 0.4309-6.731 1.3751-2.066 0.9127-3.951 2.1938-5.566 3.7815-1.621 1.6005-2.952 3.4731-3.936 5.5339-0.99 2.0723-1.569 4.3195-1.705 6.6156h3.436c0.177-2.1895 0.821-4.3146 1.889-6.2299 0.971-1.739 2.278-3.2643 3.844-4.4858 1.513-1.1677 3.241-2.0226 5.084-2.5154 1.829-0.5076 3.739-0.6556 5.624-0.436 2.007 0.2523 3.936 0.9352 5.658 2.0027 1.723 1.0674 3.198 2.4946 4.327 4.1852l1.372-1.1487 0.774-0.5953 0.291-0.2599c0.033-0.0286 0.064-0.0594 0.092-0.0923-0.822-1.188-1.789-2.267-2.879-3.2113zm2.08 25.087-1.747-1.4003c-0.364 0.4871-0.752 0.9545-1.165 1.4003-1.213 1.2769-2.617 2.3548-4.16 3.1946-2.062 1.1362-4.381 1.714-6.731 1.6769-1.87-0.0464-3.714-0.4505-5.433-1.1906-1.585-0.6882-3.032-1.6629-4.269-2.876-0.292-0.264-0.57-0.544-0.832-0.8384-0.507-0.5724-0.968-1.1835-1.381-1.8279-0.305-0.4757-0.583-0.9684-0.832-1.4757-0.792-1.5875-1.353-3.2819-1.664-5.0309h-3.436c0.193 2.2372 0.815 4.4153 1.83 6.4143 0 0.042 0 0.0755 0.058 0.1174 0.32 0.628 0.672 1.2382 1.057 1.8279 0.81 1.2431 1.756 2.3906 2.821 3.421 1.601 1.5401 3.46 2.7833 5.491 3.6725 2.058 0.9064 4.285 1.3581 6.531 1.3248 2.886 0.0245 5.73-0.6941 8.263-2.0878 2.528-1.3909 4.721-3.3261 6.423-5.6681l-0.824-0.654z" fill="#58595B"/>
<path d="m339.84 47.634v3.4293h9.352v13.499h3.403l0.041-13.533h9.427v-3.3958h-22.223zm9.352 20.87v16.4h3.403v-16.4h-3.403z" fill="#58595B"/>
<path d="m125.64 75.035c0.407 0.6462 0.866 1.2576 1.373 1.8279h-4.377c-0.384-0.5897-0.737-1.1999-1.056-1.8279h4.06z" fill="#58595B"/>
<path d="m149.52 75.462 1.772 1.3835h-2.962c0.421-0.4397 0.818-0.9015 1.19-1.3835z" fill="#58595B"/>
<path d="m165.58 75.219c0.423 0.5868 0.881 1.1468 1.373 1.6769h-4.277l2.904-1.6769z" fill="#58595B"/>
<path d="m189.54 75.035h3.911c-0.311 0.6295-0.658 1.2398-1.04 1.8279h-4.277c0.515-0.5719 0.985-1.183 1.406-1.8279z" fill="#58595B"/>
<path d="m206.63 75.035h-3.702v1.8279h3.702v-1.8279z" fill="#58595B"/>
<path d="m225.09 75.035 1.415 1.8279h-3.986l-1.464-1.8279h4.035z" fill="#58595B"/>
<path d="m240.36 75.035h-3.703v1.8279h3.703v-1.8279z" fill="#58595B"/>
<path d="m258.82 75.035 1.414 1.8279h-3.985l-1.465-1.8279h4.036z" fill="#58595B"/>
<path d="m273.79 75.035h-3.403v1.8279h3.403v-1.8279z" fill="#58595B"/>
<path d="m305.91 75.035c0.413 0.6444 0.874 1.2556 1.381 1.8279h-4.376c-0.385-0.5897-0.738-1.1999-1.057-1.8279h4.052z" fill="#58595B"/>
<path d="m329.82 75.462 1.781 1.3835h-2.946c0.412-0.4403 0.801-0.9021 1.165-1.3835z" fill="#58595B"/>
<path d="m352.6 75.035h-3.403v1.8279h3.403v-1.8279z" fill="#58595B"/>
<defs>
<radialGradient id="a" cx="0" cy="0" r="1" gradientTransform="translate(69.142 61.527) scale(45.005 45.353)" gradientUnits="userSpaceOnUse">
<stop stop-color="#03C6AF" offset="0"/>
<stop stop-color="#03C4AD" offset=".52"/>
<stop stop-color="#03BDA7" offset=".71"/>
<stop stop-color="#03B29D" offset=".84"/>
<stop stop-color="#03A18E" offset=".95"/>
<stop stop-color="#039684" offset="1"/>
</radialGradient>
</defs>
</svg>
