<?xml version="1.0" encoding="UTF-8"?>
<svg viewBox="0 0 160 160" xmlns="http://www.w3.org/2000/svg">
<path d="m50.664 46.998c0.2366-0.8503-0.761-1.8706-2.2282-2.2789-1.4672-0.4082-2.8484-0.0499-3.085 0.8004-0.2366 0.8504 0.761 1.8706 2.2282 2.2789 1.4671 0.4083 2.8483 0.0499 3.085-0.8004z" fill="#3F3D56"/>
<path d="m114.69 76.937-59.711-16.614 2.9386-4.879 2.5442-4.2188 4.3154-7.1614 50.062 13.928-0.065 8.345-0.044 5.7123-0.04 4.887z" fill="#3F3D56"/>
<path d="m114.73 72.049-57.018-15.865 0.2053-0.7407 2.5441-4.2188 54.313 15.112-0.044 5.7122z" opacity=".1"/>
<path d="m44.266 44.691-1.6727 6.0112 7.7603 2.1595 1.6727-6.0113-7.7603-2.1594z" fill="#03C6AF"/>
<path d="m37.858 46.067-14.709 52.86 99.007 27.55 14.709-52.86-99.006-27.55z" fill="#E0A17E"/>
<path d="m32.329 65.927-3.6573 13.143 99.007 27.55 3.657-13.143-99.007-27.55z" fill="#03C6AF"/>
<path d="m80 111.74c14.069 0 25.474-11.405 25.474-25.473 0-14.069-11.405-25.474-25.474-25.474-14.069 0-25.474 11.405-25.474 25.474 0 14.068 11.405 25.473 25.474 25.473z" fill="#2F2E41"/>
<path d="m80.001 109.93c13.066 0 23.658-10.592 23.658-23.658s-10.592-23.658-23.658-23.658-23.658 10.592-23.658 23.658 10.592 23.658 23.658 23.658z" fill="#D6D8E0"/>
<path d="m80 104.27c9.9402 0 17.998-8.058 17.998-17.998s-8.0581-17.998-17.998-17.998c-9.9401 0-17.998 8.0581-17.998 17.998s8.0581 17.998 17.998 17.998z" fill="#2F2E41"/>
<path d="m120.6 74.751c0.963 0 1.744-0.7804 1.744-1.7431s-0.781-1.7431-1.744-1.7431c-0.962 0-1.743 0.7804-1.743 1.7431s0.781 1.7431 1.743 1.7431z" fill="#03C6AF" opacity=".2"/>
<path d="m125.64 76.152c0.962 0 1.743-0.7804 1.743-1.7431s-0.781-1.7431-1.743-1.7431c-0.963 0-1.744 0.7804-1.744 1.7431s0.781 1.7431 1.744 1.7431z" fill="#03C6AF" opacity=".5"/>
<path d="m130.67 77.552c0.963 0 1.743-0.7804 1.743-1.743 0-0.9627-0.78-1.7431-1.743-1.7431s-1.743 0.7804-1.743 1.7431c0 0.9626 0.78 1.743 1.743 1.743z" fill="#03C6AF"/>
<path d="m83.515 50.634-1.4785 5.3132 11.747 3.2688 1.4785-5.3132-11.747-3.2688z" fill="#2F2E41"/>
<path d="m26.922 107.45 2.1496-2.149s5.4909-9.553 0-8.8364c-5.4908 0.7165-5.5069 5.4904-5.5069 5.4904v5.495h3.3573z" fill="#9F616A"/>
<path d="m112.17 130.61 2.15-0.717s5.728-8.594 6.441-4.774c0.712 3.82-2.867 9.073-2.867 9.073h-5.724v-3.582z" fill="#9F616A"/>
<path d="m60.893 106.38c5.3069 0 9.609-3.581 9.609-7.9984 0-4.4176-4.3021-7.9988-9.609-7.9988s-9.609 3.5812-9.609 7.9988c0 4.4174 4.3021 7.9984 9.609 7.9984z" fill="#2F2E41"/>
<path d="m55.816 104.59s-0.479 8.119-2.8662 8.856c-2.3871 0.737 7.6486 8.116 7.6486 8.116l6.928-9.074s-2.6287-4.537-1.6747-7.878c0.9541-3.341-10.036-0.02-10.036-0.02z" fill="#9F616A"/>
<path d="m55.816 104.59s-0.479 8.119-2.8662 8.856c-2.3871 0.737 7.6486 8.116 7.6486 8.116l6.928-9.074s-2.6287-4.537-1.6747-7.878c0.9541-3.341-10.036-0.02-10.036-0.02z" opacity=".1"/>
<path d="m77.302 134.67s2.6287 25.309 0.9541 24.834c-0.5676-0.165-1.5821 0-2.7052 0.366-9.7932-0.525-19.404-2.859-28.348-6.883-0.9219-4.662-4.5811-10.024-4.7622-13.78-0.2376-5.016-3.1038-6.207-3.1038-6.207s0-0.117-0.0402-0.335c-0.2536-2.117-1.6102-13.606-1.3929-14.471 0.2376-0.954 11.461-5.97 12.656-6.687 0.4629-0.278 2.0128 0 3.7196 0.487 2.7012 0.737 5.829 1.9 5.829 1.9 1.0105-1.441 4.2027-2.363 6.5657-2.862l0.1248-0.024c1.4895-0.314 2.6247-0.455 2.6247-0.455 3.9209-0.402 7.9142 2.013 10.644 4.203 1.0543 0.84 2.0533 1.748 2.991 2.717 0.2898 0.302 0.4468 0.479 0.4468 0.479l-4.7743 13.131-0.1691 0.423-1.26 3.164z" fill="#555AA8"/>
<path d="m41.485 118.92-3.5827-0.716s-3.5787 2.383-4.7743 2.383-1.2077 0.954-1.2077 0.954-4.5368-6.924-3.5787-14.802c0 0-5.4949-2.629-5.7324-0.717s-2.1497 23.638 1.9121 25.071c4.0618 1.434 17.906 1.671 17.906 1.671l-0.942-13.844z" fill="#555AA8"/>
<path d="m80.171 117.48h3.3453l8.832 8.836s2.1497-0.479 2.8662 0.954c0.7166 1.433 5.4947 1.208 5.4947 1.208l12.653 1.207s1.674 5.491 0.479 6.441c-1.196 0.95-22.205 1.208-22.205 1.208s-1.9121-0.954-3.1077 0-9.7902-5.012-10.744-6.686c-0.9541-1.675 2.3871-13.168 2.3871-13.168z" fill="#555AA8"/>
<path d="m61.307 108.41c4.8801 0 8.8361-3.957 8.8361-8.8366 0-4.88-3.956-8.8361-8.8361-8.8361-4.88 0-8.8361 3.9561-8.8361 8.8361 0 4.8796 3.9561 8.8366 8.8361 8.8366z" fill="#9F616A"/>
<path d="m55.831 94.435s-1.5136-3.9289 0.6803-5.2332l0.6038 1.735s5.499-3.3009 6.9482-2.5602l-1.3567 1.8155s6.4409 0 6.8757 2.4918l-2.2704 0.0765s2.4153 1.5861 2.4958 4.1544l-4.8306 0.3019 2.3388 1.3606s-8.7636 1.2077-10.869-2.2664l-0.6159-1.8759z" fill="#2F2E41"/>
<path d="m52.588 96.111s2.5602 2.52 5.8733 1.2761c3.313-1.2439 0-5.8008 0-5.8008l-2.206-1.103-3.6673 5.6277z" fill="#2F2E41"/>
<path d="m160 80c0 44.185-35.827 80-80 80-1.4921 0-2.9749-0.042-4.4482-0.125-20.422-1.118-39.639-10.023-53.693-24.881-14.055-14.859-21.878-34.541-21.858-54.994 0-44.18 35.827-80 80-80 44.173 0 80 35.82 80 80z" fill="#03C6AF" opacity=".1"/>
</svg>
