<?xml version="1.0" encoding="UTF-8"?>
<svg fill="none" viewBox="0 0 121 207" xmlns="http://www.w3.org/2000/svg">
<path d="m8.4647 45.348h0.61965v-32.411c0-7.1474 6.0659-12.936 13.549-12.936h75.896c7.483 0 13.549 5.7945 13.549 12.936v13.435h0.181c0.209-0.0014 0.411 0.0777 0.56 0.2202 0.15 0.1425 0.235 0.3366 0.237 0.5398v6.4683c-2e-3 0.2032-0.087 0.3973-0.237 0.5398-0.149 0.1425-0.351 0.2216-0.56 0.2202h-0.195v6.6057h0.245c0.103-7e-4 0.206 0.0184 0.302 0.0562s0.184 0.0936 0.257 0.1642c0.074 0.0705 0.133 0.1545 0.173 0.2471 0.041 0.0926 0.062 0.192 0.063 0.2925v12.368c-2e-3 0.2032-0.086 0.3976-0.235 0.5406-0.149 0.1429-0.351 0.2228-0.56 0.2221h-0.245v4.8512h0.211c0.104-0.0011 0.207 0.0177 0.304 0.0554 0.096 0.0376 0.184 0.0934 0.258 0.164s0.133 0.1547 0.173 0.2474c0.041 0.0928 0.062 0.1924 0.063 0.2932v12.489c-1e-3 0.1007-0.022 0.2004-0.063 0.2931-0.04 0.0928-0.099 0.1769-0.173 0.2475s-0.162 0.1264-0.258 0.164c-0.097 0.0377-0.2 0.0565-0.304 0.0554h-0.211v113.3c0 7.148-6.066 12.937-13.549 12.937h-75.879c-7.4832 0-13.549-5.795-13.549-12.937v-117.43h-0.62243c-0.20956 0.0015-0.41117-0.0777-0.56065-0.2202-0.14948-0.1424-0.23465-0.3366-0.23685-0.5398v-22.72c0.0022-0.2033 0.08737-0.3974 0.23685-0.5399 0.14948-0.1424 0.35109-0.2216 0.56065-0.2202z" fill="url(#c)"/>
<g opacity=".9">
<path d="m9.6695 46.143h1.7201c0.3514 0 0.6363 0.2763 0.6363 0.6172v22.704c0 0.3409-0.2849 0.6172-0.6363 0.6172h-1.7201c-0.35144 0-0.63634-0.2763-0.63634-0.6172v-22.704c0-0.3409 0.2849-0.6172 0.63634-0.6172z" fill="#E5E7EB" opacity=".9"/>
<path d="m110.5 27.392h0.408c0.352 0 0.637 0.2763 0.637 0.6172v6.6461c0 0.3409-0.285 0.6172-0.637 0.6172h-0.408c-0.352 0-0.637-0.2763-0.637-0.6172v-6.6461c0-0.3409 0.285-0.6172 0.637-0.6172z" fill="#E5E7EB" opacity=".9"/>
<path d="m110.34 41.816h0.622c0.352 0 0.637 0.2763 0.637 0.6171v12.481c0 0.3408-0.285 0.6172-0.637 0.6172h-0.622c-0.352 0-0.637-0.2764-0.637-0.6172v-12.481c0-0.3408 0.285-0.6171 0.637-0.6171z" fill="#E5E7EB" opacity=".9"/>
<path d="m110.4 60.335h0.53c0.352 0 0.637 0.2763 0.637 0.6172v12.6c0 0.3409-0.285 0.6172-0.637 0.6172h-0.53c-0.352 0-0.637-0.2763-0.637-0.6172v-12.6c0-0.3409 0.285-0.6172 0.637-0.6172z" fill="#E5E7EB" opacity=".9"/>
<path d="m21.246 1.3479h78.51c5.9835 0 10.834 4.7047 10.834 10.508v176.46c0 5.803-4.851 10.508-10.834 10.508h-78.51c-5.9836 0-10.834-4.705-10.834-10.508v-176.46c0-5.8035 4.8507-10.508 10.834-10.508z" fill="#fff" opacity=".9"/>
<path d="m57.247 7.2436h11.84c0.5939 0 1.0754 0.46697 1.0754 1.043v0.66838c0 0.57604-0.4815 1.043-1.0754 1.043h-11.84c-0.5939 0-1.0753-0.46697-1.0753-1.043v-0.66838c0-0.57604 0.4814-1.043 1.0753-1.043z" fill="#E5E7EB" opacity=".9"/>
<path d="m52.448 10.185c-0.8901 0-1.6117-0.69985-1.6117-1.5632s0.7216-1.5632 1.6117-1.5632 1.6117 0.69985 1.6117 1.5632-0.7216 1.5632-1.6117 1.5632z" fill="#E5E7EB" opacity=".9"/>
</g>
<path d="m24.553 6.4924h11.468v1.3476c8e-4 1.685 0.6914 3.3007 1.9201 4.4919 1.2287 1.1913 2.8949 1.8604 4.6322 1.8604h36.563c1.7373 0 3.4035-0.6691 4.6322-1.8604 1.2287-1.1912 1.9193-2.8069 1.92-4.4919v-1.3476h10.759c2.1099 0 4.1337 0.81294 5.6257 2.26 1.492 1.4471 2.33 3.4097 2.33 5.4561v171.75c0 2.047-0.838 4.009-2.33 5.456s-3.5158 2.26-5.6257 2.26h-71.894c-2.1099 0-4.1335-0.813-5.6254-2.26s-2.3301-3.409-2.3301-5.456v-171.75c0-2.0464 0.8382-4.009 2.3301-5.4561 1.4919-1.447 3.5155-2.26 5.6254-2.26z" fill="#99999F"/>
<path d="m83.47 20.752h14.196v13.769h-14.196v-13.769z" fill="#D6D8E0"/>
<path d="m43.251 21.735h29.744v2.6223h-29.744v-2.6223z" fill="#D6D8E0"/>
<path d="m23.986 26.326h49.008v2.6224h-49.008v-2.6224z" fill="#D6D8E0"/>
<path d="m23.986 30.916h49.008v2.6223h-49.008v-2.6223z" fill="#D6D8E0"/>
<path d="m83.362 45.995h14.197v13.769h-14.197v-13.769z" fill="#D6D8E0"/>
<path d="m43.143 46.977h29.744v2.6223h-29.744v-2.6223z" fill="#D6D8E0"/>
<path d="m23.878 51.569h49.008v2.6223h-49.008v-2.6223z" fill="#D6D8E0"/>
<path d="m23.878 56.156h49.008v2.6223h-49.008v-2.6223z" fill="#D6D8E0"/>
<path d="m83.254 71.238h14.197v13.769h-14.197v-13.769z" fill="#D6D8E0"/>
<path d="m43.031 72.216h29.744v2.6223h-29.744v-2.6223z" fill="#D6D8E0"/>
<path d="m23.766 76.805h49.008v2.6223h-49.008v-2.6223z" fill="#D6D8E0"/>
<path d="m23.766 81.398h49.008v2.6224h-49.008v-2.6224z" fill="#D6D8E0"/>
<path d="m83.146 96.478h14.197v13.769h-14.197v-13.769z" fill="#D6D8E0"/>
<path d="m42.922 97.46h29.744v2.6223h-29.744v-2.6223z" fill="#D6D8E0"/>
<path d="m23.658 102.05h49.008v2.622h-49.008v-2.622z" fill="#D6D8E0"/>
<path d="m23.658 106.64h49.008v2.622h-49.008v-2.622z" fill="#D6D8E0"/>
<path d="m83.034 121.72h14.197v13.769h-14.197v-13.769z" fill="#D6D8E0"/>
<path d="m42.816 122.7h29.744v2.623h-29.744v-2.623z" fill="#D6D8E0"/>
<path d="m23.55 127.29h49.009v2.622h-49.009v-2.622z" fill="#D6D8E0"/>
<path d="m23.55 131.88h49.009v2.622h-49.009v-2.622z" fill="#D6D8E0"/>
<path d="m82.926 146.96h14.197v13.769h-14.197v-13.769z" fill="#D6D8E0"/>
<path d="m42.707 147.95h29.744v2.623h-29.744v-2.623z" fill="#D6D8E0"/>
<path d="m23.442 152.54h49.009v2.622h-49.009v-2.622z" fill="#D6D8E0"/>
<path d="m23.442 157.12h49.009v2.622h-49.009v-2.622z" fill="#D6D8E0"/>
<path d="m82.817 172.2h14.197v13.769h-14.197v-13.769z" fill="#D6D8E0"/>
<path d="m42.597 173.19h29.744v2.622h-29.744v-2.622z" fill="#D6D8E0"/>
<path d="m23.332 177.78h49.008v2.623h-49.008v-2.623z" fill="#D6D8E0"/>
<path d="m23.332 182.37h49.008v2.623h-49.008v-2.623z" fill="#D6D8E0"/>
<path d="M0 62.2708H121V91.4453H0V62.2708Z" fill="url(#b)"/>
<path d="m0.33948 62.93h119.99v27.865h-119.99v-27.865z" fill="#fff"/>
<path d="m82.975 69.976h14.197v13.769h-14.197v-13.769z" fill="#03C6AF"/>
<g fill="#03C6AF" opacity=".5">
<path d="m42.752 70.959h29.744v2.6224h-29.744v-2.6224z" opacity=".5"/>
<path d="m23.488 75.548h49.008v2.6223h-49.008v-2.6223z" opacity=".5"/>
<path d="m23.488 80.137h49.008v2.6223h-49.008v-2.6223z" opacity=".5"/>
</g>
<path d="m77.882 87.736c0.7558-0.725 2.0118-0.9649 2.9204-0.4312 0.7058 0.4123 1.0948 1.1804 1.4505 1.9054 0.5196 1.078 1.281 2.086 1.5144 3.2503 0.6419 3.2099 3.2761 5.7028 4.3321 8.8049 0.3779 1.108 0.5557 2.296 1.1531 3.307 0.2824 0.442 0.5982 0.864 0.9448 1.261 1.3672 1.673 2.5762 3.461 3.6124 5.345 0.6002 0.113 1.1337 0.606 1.645 0.991 0.6551 0.494 1.4139 0.843 2.223 1.022 0.3256 0.037 0.6378 0.148 0.9114 0.323 0.3834 0.31 0.4362 0.868 0.7475 1.243 0.226 0.245 0.513 0.431 0.8336 0.539 0-0.095 0.014-0.189 0.017-0.286 0.014-0.499 0.022-1 0.022-1.501-0.8962-1.023-1.3867-2.323-1.3837-3.666 0.0031-1.342 0.4995-2.64 1.4007-3.659-0.022-0.781-0.129-1.557-0.32-2.316-0.0973-0.369-0.0834-0.822 0.225-1.061 0.153-0.116 0.35-0.159 0.514-0.27 0.231-0.189 0.42-0.422 0.556-0.684 0.411-0.566 1.017-0.971 1.709-1.142 0.692-0.172 1.424-0.099 2.064 0.206 1.004 0.512 1.612 1.537 2.501 2.232 0.456 0.356 0.981 0.622 1.437 0.981 0.912 0.772 1.56 1.794 1.859 2.932 0.292 1.133 0.462 2.293 0.506 3.461 0.047 0.35 0.033 0.705-0.042 1.051-0.09 0.289-0.228 0.562-0.409 0.808-0.846 1.337-2.037 2.437-3.454 3.194-5e-3 0.069-5e-3 0.138 0 0.208 0 0.107 0.037 0.212 0.062 0.32l0.161-0.043c0.594-0.129 1.236-0.113 1.77-0.401 0.911-0.496 1.186-1.706 2.059-2.262 0.074-0.046 0.152-0.087 0.233-0.121 0.062-1.533 0.364-3.048 0.895-4.493 0.256-0.69 0.57-1.393 0.531-2.129-0.034-0.682-0.37-1.31-0.67-1.927-1.048-2.129-1.781-4.387-2.501-6.6378-0.461-1.4141-0.924-2.829-1.389-4.2448-0.453-0.3258-0.862-0.7041-1.22-1.1266-0.742-0.8372-1.231-1.8564-1.414-2.9457-0.089-0.5436-0.065-1.0987 0.069-1.6335 0.134-0.5347 0.376-1.0384 0.711-1.4821 0.149-0.212 0.342-0.3909 0.567-0.5248s0.477-0.2195 0.739-0.2514c0.231 0.0049 0.458 0.0552 0.668 0.1478 0.209 0.0927 0.397 0.2258 0.552 0.3913 0.461 0.5096 0.816 1.1008 1.045 1.741 0.456 1.043 0.917 2.1264 0.873 3.2584-0.036 0.9379-0.398 1.9863 0.166 2.749 1.848 2.4984 3.243 5.3713 4.708 8.1042 0.37 0.653 0.687 1.332 0.95 2.032 0.354 1.135 0.522 2.318 0.497 3.504 0.014 2.223-0.3 4.436-0.611 6.64-0.142 0.995-0.322 2.051-0.809 2.911 0.319 1.066 0.486 2.168 0.498 3.277 0.013 0.257-0.029 0.513-0.123 0.752-0.163 0.279-0.37 0.532-0.614 0.75-0.325 0.359-0.568 0.781-0.712 1.238-0.144 0.458-0.185 0.939-0.121 1.414 0.081 0.893-3e-3 1.793-0.248 2.657-0.555 2.393-1.111 4.784-1.556 7.196-0.105 0.449-0.141 0.91-0.105 1.369 0.086 0.652 0.458 1.272 0.378 1.927-0.08 0.303-0.139 0.611-0.178 0.922 0.018 0.237 0.074 0.47 0.167 0.69 0.633 1.787 2.336 5.883 2.317 7.775l-0.445-0.102c0.448 2.455 1.495 4.802 2.046 7.249 0.381 1.783 0.555 3.602 0.516 5.423-0.036 0.818-0.021 1.637 0.045 2.453 0.086 0.725 0.278 1.433 0.383 2.156 0.12 0.968 0.164 1.944 0.134 2.918 0.029 1.532-0.064 3.064-0.278 4.582-0.425 2.587 0.319 5.159 0.522 7.77 0.103 1.827 0.316 3.647 0.639 5.45 0.153 0.76 0.345 1.514 0.45 2.282 0.312 2.28-0.141 4.631 0.348 6.881 0.23 1.054 0.642 2.237 0.036 3.137-0.192 0.283-0.467 0.504-0.675 0.776-0.114 0.129-0.192 0.284-0.226 0.451s-0.024 0.339 0.031 0.501c0.12 0.248 0.398 0.409 0.467 0.673 0.111 0.415-0.336 0.755-0.736 0.933l-0.114 0.043c0.026 0.142 0.02 0.288-0.017 0.427-0.038 0.14-0.106 0.27-0.2 0.382-0.238 0.217-0.533 0.366-0.853 0.431l-5.246 1.541c-1.17 0.345-2.443 0.685-3.613 0.405-0.026 0.161-0.098 0.312-0.208 0.436-0.238 0.218-0.533 0.367-0.853 0.431l-5.207 1.531c-1.34 0.394-2.8098 0.782-4.0964 0.248-0.3686-0.147-0.692-0.384-0.9392-0.687-0.2043-0.291-0.34-0.623-0.3977-0.971-0.0576-0.348-0.0357-0.703 0.0643-1.042 0.0651-0.345 0.2424-0.66 0.5057-0.9 0.3564-0.241 0.7776-0.375 1.2115-0.386 0.3703-0.011 0.7333-0.103 1.0618-0.269 0.099-0.063 0.182-0.147 0.241-0.246-0.3-0.287-0.5905-0.585-0.8721-0.894 0.2279-0.076 0.3085-0.394 0.3307-0.626 0.3304-3.433-1.0031-6.789-1.5088-10.201-0.2555-1.711-0.3003-3.447-0.1334-5.169 0.0611-0.649 0.1528-1.296 0.1806-1.948 0.1306-3.396-1.5422-6.663-1.4838-10.061 0.0277-1.59-0.8337-3.159-1.2533-4.698-0.3667-1.363-0.3779-2.792-0.3862-4.204l-0.0667-11.12c0-1.504 0-3.043 0.4946-4.463 0.2497-0.79 0.318-1.624 0.2001-2.442-1.4144-0.606-2.7537-1.504-4.2654-1.348-0.4029-1.037 0.0751-4.495 0.453-5.543 1.4857-4.125 1.774-8.567 0.8336-12.84-0.3418-1.533 0.1278-3.164-0.2529-4.692-0.0699-0.359-0.2104-0.701-0.414-1.008-0.1032-0.153-0.2448-0.278-0.4115-0.363-0.1668-0.086-0.3531-0.129-0.5416-0.125 0-0.935 0.0194-1.886 0.0834-2.835-0.6138-0.486-1.1372-1.07-1.5478-1.728-0.8336-1.347-1.3088-2.865-1.884-4.331-1.0198-2.587-2.4119-5.015-3.5818-7.546-1.1698-2.531-1.2837-5.2985-2.223-7.9182-0.5172-1.4428-1.5868-2.6374-2.9871-3.3365-0.5557-0.2695-1.1476-0.4636-1.5505-0.9056-0.305-0.3684-0.4923-0.8152-0.5391-1.2855-0.0867-0.5125-0.0511-1.0375 0.104-1.5346s0.4256-0.9531 0.7908-1.333zm32.511 111.34c-0.114-0.121-0.225-0.242-0.331-0.374 0.35-0.054 0.778-0.302 0.787-0.647-0.025-0.346-0.102-0.686-0.228-1.011-0.165-0.585-0.191-1.198-0.078-1.795 0.078-0.417 0.222-0.808 0.311-1.234 0.085-0.462 0.141-0.928 0.167-1.396 0.15-1.68 0.489-3.34 1.011-4.948 0.503-1.561-0.186-3.14-0.364-4.765-0.086-0.771-0.047-1.566-0.325-2.291-0.164-0.431-0.433-0.809-0.597-1.245-0.381-1-0.156-2.113 0.078-3.156-1.645-2.892-2.19-6.342-2.81-9.597-0.348-1.828-0.696-3.654-1.044-5.48-0.153-0.808-0.323-1.66-0.834-2.312-0.541 2.419-0.754 4.896-0.634 7.368 0.064 0.718 0.055 1.44-0.027 2.157-0.128 0.784-0.464 1.525-0.659 2.296-0.433 1.7-0.181 3.487-0.278 5.236-0.036 0.706-0.13 1.413-0.161 2.119-0.136 3.123 0.942 6.161 2.006 9.112 0.653 1.808 0.798 3.865 1.112 5.759 0.294 1.814 0.586 3.631 0.736 5.461 0.045 0.557 0.081 1.132 0.15 1.698 0.179-0.039 0.36-0.067 0.542-0.084 0.37-0.011 0.733-0.103 1.061-0.27 0.197-0.155 0.339-0.364 0.409-0.601z" fill="url(#a)"/>
<path d="m99.005 202.78c-0.4334 0.012-0.854 0.145-1.2115 0.383-0.2626 0.238-0.4399 0.552-0.5058 0.895-0.0997 0.337-0.1216 0.691-0.0639 1.037 0.0576 0.346 0.1933 0.676 0.3974 0.965 0.2476 0.301 0.5711 0.535 0.9392 0.679 1.2866 0.539 2.7568 0.148 4.0958-0.242l5.246-1.534c0.32-0.063 0.615-0.212 0.853-0.428 0.145-0.189 0.224-0.416 0.228-0.651 4e-3 -0.234-0.068-0.464-0.205-0.657-0.283-0.38-0.667-0.677-1.112-0.859-1.634-0.771-3.473-0.949-5.279-0.981-0.667-0.014-1.323-0.154-1.776 0.345-0.239 0.269-0.197 0.555-0.556 0.784-0.3247 0.164-0.6839 0.255-1.0502 0.264z" fill="#3F3D56"/>
<path d="m108.92 199.98c-0.433 9e-3 -0.854 0.141-1.211 0.38-0.261 0.239-0.438 0.552-0.506 0.895-0.1 0.336-0.122 0.691-0.064 1.037 0.057 0.346 0.193 0.676 0.398 0.965 0.247 0.302 0.57 0.537 0.939 0.682 1.286 0.539 2.756 0.145 4.096-0.245l5.246-1.534c0.32-0.062 0.616-0.211 0.853-0.428 0.144-0.189 0.224-0.416 0.228-0.651 4e-3 -0.234-0.068-0.464-0.206-0.657-0.281-0.38-0.666-0.678-1.111-0.859-1.634-0.771-3.471-0.949-5.266-0.981-0.664 0-1.323-0.154-1.776 0.345-0.239 0.269-0.197 0.558-0.555 0.784-0.33 0.166-0.694 0.257-1.065 0.267z" fill="#3F3D56"/>
<path d="m104.36 144.76c3.091-0.301 6.2-0.386 9.304-0.253 0.204-3e-3 0.408 0.028 0.603 0.091 0.683 0.27 0.789 1.137 0.855 1.849 0.262 2.876 1.57 5.557 2.223 8.379 0.382 1.772 0.556 3.58 0.517 5.39-0.036 0.809-0.021 1.619 0.045 2.426 0.086 0.722 0.278 1.426 0.383 2.156 0.12 0.962 0.164 1.931 0.134 2.9 0.028 1.52-0.065 3.04-0.278 4.547-0.426 2.571 0.319 5.12 0.522 7.718 0.103 1.816 0.316 3.624 0.639 5.415 0.153 0.754 0.345 1.504 0.45 2.266 0.312 2.267-0.141 4.604 0.348 6.838 0.23 1.046 0.642 2.221 0.036 3.115-0.192 0.283-0.467 0.502-0.675 0.771-0.114 0.128-0.192 0.283-0.226 0.448-0.034 0.166-0.024 0.338 0.031 0.498 0.119 0.245 0.397 0.407 0.467 0.669 0.111 0.412-0.336 0.752-0.737 0.927-3.014 1.318-6.902 0.388-8.936-2.143 0.35-0.054 0.778-0.299 0.786-0.641-0.025-0.344-0.101-0.683-0.227-1.006-0.165-0.581-0.192-1.191-0.078-1.784 0.078-0.412 0.222-0.808 0.311-1.226 0.085-0.458 0.14-0.921 0.167-1.385 0.15-1.67 0.489-3.319 1.011-4.916 0.503-1.55-0.186-3.118-0.364-4.736-0.086-0.762-0.047-1.555-0.325-2.274-0.164-0.429-0.433-0.809-0.597-1.237-0.381-0.995-0.156-2.097 0.077-3.135-1.645-2.875-2.189-6.301-2.809-9.535-0.348-1.815-0.696-3.629-1.045-5.444-0.152-0.809-0.322-1.647-0.833-2.296-0.542 2.403-0.755 4.865-0.634 7.322 0.063 0.708 0.054 1.421-0.028 2.127-0.127 0.779-0.464 1.514-0.658 2.283-0.434 1.687-0.181 3.463-0.278 5.201-0.036 0.701-0.131 1.402-0.161 2.105-0.136 3.102 0.942 6.121 2.006 9.05 0.653 1.798 0.798 3.841 1.112 5.722 0.294 1.803 0.586 3.606 0.736 5.425 0.136 1.671 0.194 3.479 1.267 4.792-0.978 0.617-1.992 1.245-3.137 1.458-1.338 0.203-2.707-0.054-3.871-0.725-1.155-0.672-2.188-1.524-3.0566-2.523 0.2279-0.075 0.3085-0.393 0.3307-0.622 0.3309-3.409-1.0031-6.738-1.5089-10.134-0.2554-1.701-0.3002-3.425-0.1333-5.137 0.0611-0.644 0.1528-1.285 0.1806-1.932 0.1306-3.374-1.5422-6.622-1.4839-9.996 0.0278-1.579-0.8336-3.14-1.2532-4.668-0.3668-1.348-0.3779-2.773-0.3862-4.175l-0.0667-11.05c0-1.496 0-3.024 0.4946-4.436 0.6113-1.695-0.0861-3.646-0.1917-5.439 2.8871 0.885 5.9256 1.211 8.9416 0.96z" fill="#3F3D56"/>
<path d="m94.452 113.01c-1.1679-2.317-2.5945-4.502-4.2542-6.517-0.3459-0.394-0.6617-0.812-0.9448-1.251-0.5974-1.002-0.7752-2.185-1.1531-3.285-1.056-3.0832-3.6902-5.56-4.3321-8.7483-0.2334-1.1562-0.9948-2.1561-1.5144-3.2341-0.3557-0.7223-0.7447-1.4823-1.4505-1.8866-0.9086-0.539-2.1646-0.2883-2.9204 0.4312-0.3637 0.3758-0.6333 0.8277-0.788 1.3208s-0.1903 1.014-0.104 1.5226c0.0453 0.4682 0.2329 0.9128 0.539 1.2775 0.403 0.4393 1.006 0.6387 1.5506 0.9028 1.3987 0.6894 2.4689 1.876 2.9871 3.3123 0.9281 2.6035 1.0448 5.3578 2.223 7.8668s2.562 4.921 3.5818 7.49c0.5752 1.458 1.0392 2.965 1.884 4.312 0.8447 1.348 2.1729 2.477 3.7679 2.679-0.0022-0.974 0.1554-1.942 0.4669-2.868 0.3362-1.07 0.967-2.334 0.4612-3.325z" fill="#A0616A"/>
<path d="m111.66 115.02c-0.071-1.905 0.235-3.806 0.9-5.6 0.256-0.688 0.57-1.386 0.531-2.116-0.033-0.677-0.37-1.302-0.67-1.914-1.047-2.115-1.781-4.36-2.501-6.5972l-1.389-4.2152c-0.452-0.3236-0.861-0.6992-1.22-1.1185-0.74-0.8308-1.229-1.8436-1.414-2.9268-0.088-0.5406-0.064-1.0928 0.07-1.6244s0.375-1.0321 0.711-1.4723c0.148-0.2111 0.342-0.3888 0.567-0.5213s0.477-0.2166 0.739-0.2468c0.23 0.0039 0.458 0.0537 0.667 0.1465 0.21 0.0927 0.398 0.2263 0.553 0.3925 0.46 0.5057 0.815 1.0934 1.044 1.7303 0.456 1.0349 0.917 2.1129 0.873 3.2341-0.036 0.9325-0.398 1.9728 0.167 2.7301 1.847 2.4822 3.242 5.336 4.707 8.05 0.37 0.648 0.688 1.323 0.95 2.019 0.355 1.13 0.522 2.307 0.497 3.487 0.014 2.21-0.3 4.407-0.611 6.598-0.194 1.369-0.456 2.862-1.525 3.773-1.115-1.372-2.232-2.725-3.646-3.808z" fill="#A0616A"/>
<path d="m104.59 116.08c-3.184 0-5.7657-2.504-5.7657-5.592 0-3.089 2.5817-5.593 5.7657-5.593 3.185 0 5.766 2.504 5.766 5.593 0 3.088-2.581 5.592-5.766 5.592z" fill="#A0616A"/>
<path d="m107.39 116.37c0.139 1.014 0.697 1.916 1.242 2.79 0.33 0.539 0.747 1.113 1.389 1.172-1.669 0.851-3.423 1.536-5.235 2.043-0.617 0.2-1.264 0.301-1.915 0.299-0.55-0.04-1.089-0.174-1.592-0.396-1.099-0.467-2.0743-1.171-2.8514-2.059-0.777-0.887-1.3356-1.934-1.6333-3.062 0.7169 0.019 1.434-0.034 2.1396-0.159 0.3946-0.07 0.8197-0.183 1.0504-0.498 0.1597-0.275 0.2357-0.588 0.2167-0.903 0.028-0.933 0.028-1.865 0-2.798 1.417-0.088 2.838 0.081 4.19 0.499 0.556 0.175 1.112 0.388 1.681 0.525 0.351 0.084 1.315 0 1.573 0.197 0.392 0.299-0.358 1.663-0.255 2.35z" fill="#A0616A"/>
<path d="m104.84 119.77c0.064-0.734 0.365-1.431 0.86-1.991 0.494-0.56 1.158-0.955 1.897-1.13 0.594-0.126 1.236-0.113 1.77-0.398 0.911-0.494 1.186-1.696 2.059-2.248 0.872-0.553 2.117-0.245 2.878 0.455 0.762 0.701 1.148 1.693 1.459 2.663 0.466 1.315 0.718 2.693 0.748 4.083 0.013 0.255-0.029 0.51-0.122 0.749-0.165 0.278-0.372 0.53-0.615 0.747-0.325 0.355-0.568 0.773-0.712 1.227-0.143 0.454-0.185 0.933-0.121 1.403 0.081 0.889-3e-3 1.784-0.248 2.644-0.555 2.375-1.111 4.752-1.556 7.148-0.104 0.441-0.139 0.895-0.105 1.347 0.086 0.647 0.458 1.264 0.378 1.911-0.08 0.302-0.139 0.609-0.178 0.919 0.018 0.234 0.074 0.465 0.167 0.682 0.633 1.779 2.337 5.848 2.317 7.727-2.959-0.736-7.322-0.9-10.376-0.911-0.841-0.011-1.683 0.025-2.52 0.108-2.009 0.207-4.0653 0.776-6.0132 0.25-1.8062-0.487-3.4095-1.886-5.2796-1.708-0.4029-1.033 0.075-4.469 0.4529-5.509 1.4856-4.096 1.7741-8.511 0.8336-12.756-0.3417-1.526 0.1279-3.143-0.2528-4.66-0.0694-0.357-0.2101-0.698-0.4141-1.003-0.1035-0.152-0.2452-0.277-0.4119-0.361-0.1667-0.085-0.3529-0.128-0.5412-0.124-0.0346-2.436 0.1983-4.869 0.6947-7.258 0.1862-0.849 0.5724-1.851 1.4533-1.997 0.7947-0.129 1.4644 0.521 2.1007 1 0.657 0.49 1.4153 0.835 2.223 1.014 0.3255 0.036 0.6377 0.146 0.9114 0.32 0.3835 0.308 0.4363 0.863 0.7475 1.237 0.5558 0.671 1.7977 0.612 2.1927 1.386 0.089 0.23 0.159 0.467 0.211 0.708 0.186 0.459 0.503 0.856 0.914 1.146 0.621 0.563 1.376 0.969 2.198 1.18z" fill="#03C6AF"/>
<path d="m99.902 104.54c-0.0972-0.369-0.0833-0.808 0.225-1.056 0.153-0.116 0.35-0.159 0.514-0.27 0.231-0.188 0.42-0.42 0.556-0.682 0.416-0.563 1.024-0.965 1.716-1.134 0.693-0.169 1.425-0.095 2.066 0.21 1.003 0.509 1.611 1.528 2.501 2.218 0.455 0.356 0.981 0.62 1.436 0.973 0.911 0.766 1.56 1.783 1.859 2.916 0.292 1.127 0.46 2.281 0.503 3.442 0.048 0.348 0.034 0.702-0.042 1.045-0.09 0.285-0.228 0.554-0.408 0.795-0.914 1.348-2.126 2.574-3.64 3.267-1.515 0.692-3.357 0.808-4.852 0.083-0.15-0.061-0.279-0.162-0.372-0.291-0.086-0.196-0.105-0.414-0.056-0.622 0.079-0.823-0.09-1.651-0.486-2.383-0.278-0.539-0.692-1.002-0.917-1.563-0.204-0.625-0.293-1.28-0.261-1.935-0.022-1.69 0.097-3.38-0.342-5.013z" fill="#2D293D"/>
<path d="m83.034 70.141h14.197v13.769h-14.197v-13.769z" fill="#03C6AF"/>
<path d="m88.213 81.869c0.2056 0.3847 0.5468 0.6851 0.9615 0.8463 0.2451 0.0869 0.5032 0.1343 0.7641 0.1402 0.282 0.02 0.5652-0.0138 0.8336-0.0998 0.3576-0.1364 0.6645-0.374 0.8809-0.6818 0.2137-0.3079 0.3856-0.6413 0.5113-0.9918 0.0844-0.1749 0.1199-0.3682 0.1028-0.5606-0.1087-0.0129-0.2138-0.0464-0.3091-0.0986-0.0954-0.0523-0.1792-0.1223-0.2466-0.2059-0.04-0.0843-0.0619-0.1755-0.0643-0.2682s0.0148-0.1848 0.0504-0.2709c0.0166-0.0539 0.0333-0.1051 0.0528-0.1536 0.0416-0.1186 0.1861-0.3423 0.0861-0.442s-0.3334-0.097-0.4251-0.1374c-0.2718-0.1576-0.5619-0.2833-0.8642-0.3747-0.2741-0.0354-0.5527-0.018-0.8198 0.0512-0.0365 0.0059-0.0714 0.0187-0.1028 0.0378-0.0351 0.0282-0.0611 0.0656-0.075 0.1078-0.0778 0.1833-0.1223 0.3854-0.1834 0.574-0.0533 0.1979-0.1587 0.379-0.3057 0.5256-0.1269 0.1045-0.2705 0.1882-0.4251 0.2479l-0.3724 0.1644c-0.0653 0.0253-0.1248 0.0628-0.175 0.1105-0.0476 0.0652-0.0764 0.1415-0.0834 0.221-0.069 0.4304 4e-3 0.8709 0.2084 1.2586z" fill="#A0616A"/>
<path d="m89.369 79.348c0.2958 0.2979 0.6849 0.4924 1.1066 0.5534 0.4217 0.0609 0.8524-0.0152 1.2248-0.2165 0.0167-0.0539 0.0333-0.1052 0.0528-0.1537 0.0417-0.1186 0.1862-0.3422 0.0861-0.442-0.1-0.0997-0.3334-0.097-0.4251-0.1374-0.2718-0.1575-0.5619-0.2833-0.8642-0.3746-0.2741-0.0355-0.5526-0.0181-0.8197 0.0512-0.0365 0.0058-0.0715 0.0186-0.1028 0.0377-0.0351 0.0283-0.0612 0.0657-0.0751 0.1078-0.0778 0.1914-0.1222 0.3854-0.1834 0.5741z" fill="#000" opacity=".1"/>
<path d="m90.759 79.843c-1.0651 0-1.9285-0.8374-1.9285-1.8704s0.8634-1.8704 1.9285-1.8704c1.065 0 1.9284 0.8374 1.9284 1.8704s-0.8634 1.8704-1.9284 1.8704z" fill="#A0616A"/>
<path d="m84.91 83.906h9.0753c0.2779-0.601 0.528-1.2047 0.8086-1.8057-0.0299-0.143-0.0854-0.2798-0.1639-0.4043-0.0402-0.0607-0.0952-0.111-0.1601-0.1462-0.0649-0.0353-0.1379-0.0545-0.2123-0.0559-0.0805 0-0.1722 0.0296-0.2306-0.0269-0.0584-0.0566-0.0389-0.1025-0.0806-0.1402s-0.1417-0.0377-0.2195-0.0323c-0.0835 0.0026-0.1663-0.0151-0.241-0.0513s-0.139-0.0899-0.1869-0.1563c-0.0298-0.0502-0.0662-0.0964-0.1084-0.1374-0.073-0.0344-0.1523-0.0546-0.2334-0.0593-0.2251-0.0485-0.3585-0.2695-0.528-0.407-0.0407-0.0445-0.0939-0.0767-0.1531-0.0925-0.0592-0.0157-0.1218-0.0145-0.1803 0.0036-0.0272 0.0136-0.051 0.033-0.0695 0.0566-0.0456 0.0679-0.0768 0.144-0.0917 0.2237-0.1006 0.4476-0.3566 0.8482-0.7252 1.1346-0.1959 0.1436-0.4224 0.2429-0.6629 0.2906-0.2406 0.0476-0.4891 0.0424-0.7273-0.0152s-0.4602-0.1663-0.6495-0.3179c-0.1893-0.1517-0.3411-0.3425-0.4445-0.5585-0.1343-0.3257-0.2113-0.671-0.2279-1.0214v-0.0458c-0.113-0.0272-0.2309-0.03-0.3452-0.0081s-0.2222 0.0679-0.3161 0.1347c-0.1844 0.137-0.3817 0.257-0.5891 0.3585-0.2473 0.0943-0.5558 0.0943-0.7253 0.2695-0.0722 0.0701-0.1222 0.1671-0.2139 0.2102-0.057 0.0217-0.1169 0.0353-0.1779 0.0404-0.1552 0.0407-0.2987 0.1152-0.4196 0.218s-0.2159 0.2311-0.2778 0.375c-0.2012 0.4324-0.3324 0.8924-0.389 1.3637l-0.1334 0.8031z" fill="#F86D70"/>
<path d="m92.089 74.937c0.1342 0.1055 0.248 0.2332 0.3362 0.3773 0.1655 0.2649 0.3966 0.4854 0.6724 0.6414 0.1157 0.0393 0.221 0.1028 0.3085 0.186 0.0429 0.0632 0.0705 0.1351 0.0806 0.2102 0.0564 0.2615 0.0852 0.5279 0.0861 0.7951 0.0103 0.1344-0.0126 0.2693-0.0667 0.3935-0.0556 0.1132-0.1612 0.2102-0.1806 0.3342-0.0041 0.0981 0.0072 0.1962 0.0333 0.291 0.0131 0.0498 0.0102 0.1022-0.0082 0.1503-0.0183 0.0481-0.0513 0.0897-0.0946 0.1192-0.0503 0.0174-0.1025 0.0291-0.1556 0.0351-0.2779 0.0593-0.3723 0.3773-0.414 0.6387-0.0945 0-0.1362-0.1105-0.1584-0.1967l-0.2779-1.2533c-0.0333-0.1347-0.0834-0.2937-0.2251-0.3395-0.097-0.0202-0.1974-0.0202-0.2945 0-0.3835 0.0323-0.7058-0.2561-1.0809-0.3369-0.1209-0.022-0.2441-0.0293-0.3668-0.0216-0.2946 0-0.6391 0.1321-0.703 0.3989 0 0.0431-0.0167 0.097-0.0584 0.1186-0.0426 0.012-0.088 0.012-0.1306 0-0.1862-0.0189-0.2973 0.1859-0.3529 0.353l-0.1945 0.6118c-0.0306 0.0917-0.0806 0.2022-0.1834 0.2129-0.0471-2e-4 -0.0924-0.017-0.1277-0.0473-0.0352-0.0302-0.058-0.0718-0.064-0.1171-0.0042-0.0914 9e-3 -0.1827 0.0389-0.2695 0.0917-0.3989-0.05-0.8085-0.1362-1.2101-0.0861-0.4016-0.1-0.8624 0.189-1.1724 0.1056-0.1105 0.2445-0.194 0.3417-0.3126 0.0973-0.1186 0.1418-0.2452 0.2362-0.3557 0.3775-0.3212 0.8484-0.5208 1.3477-0.5714 0.5573-0.0478 1.1164 0.0697 1.6034 0.3369z" fill="#3F3D56"/>
<g fill="#000" opacity=".1">
<path d="m88.649 78.365c0.1028 0 0.1528-0.1212 0.1834-0.2129l0.1945-0.6118c0.0556-0.1671 0.1667-0.3719 0.3529-0.3557 0.0426 0.012 0.0879 0.012 0.1306 0 0.0417-0.0216 0.0472-0.0728 0.0584-0.1186 0.0639-0.2695 0.4084-0.3854 0.703-0.3989 0.1228-0.0081 0.2462 0 0.3668 0.0243 0.3751 0.0781 0.6974 0.3665 1.0809 0.3342 0.0973-0.0175 0.1972-0.0175 0.2945 0 0.1417 0.0485 0.1918 0.2048 0.2251 0.3422 0.0973 0.4178 0.1917 0.8355 0.2779 1.2506 0.0222 0.0862 0.0639 0.1913 0.1584 0.1967 0.0417-0.2695 0.1361-0.5794 0.414-0.6387 0.0533-0.0047 0.1057-0.0165 0.1556-0.0351 0.037-0.0193 0.0656-0.0508 0.0806-0.0889 0 0.0377 0.0167 0.0782 0.0222 0.1159 0.013 0.0497 0.0102 0.1021-0.0082 0.1502-0.0183 0.0482-0.0513 0.0898-0.0946 0.1193-0.0503 0.0174-0.1025 0.0291-0.1556 0.035-0.2779 0.0593-0.3723 0.3773-0.414 0.6388-0.0945 0-0.1362-0.1105-0.1584-0.1968-0.0973-0.4177-0.1918-0.8355-0.2779-1.2532-0.0333-0.1347-0.0834-0.2938-0.2251-0.3396-0.097-0.0202-0.1974-0.0202-0.2945 0-0.3835 0.0324-0.7058-0.256-1.0809-0.3369-0.1209-0.022-0.2441-0.0292-0.3668-0.0215-0.2946 0-0.6391 0.132-0.703 0.3988 0 0.0432-0.0167 0.0971-0.0584 0.1186-0.0427 0.0121-0.088 0.0121-0.1306 0-0.1862-0.0188-0.2973 0.186-0.3529 0.3531l-0.1945 0.6118c-0.0306 0.0916-0.0806 0.2021-0.1834 0.2129-0.0471-3e-4 -0.0924-0.0171-0.1277-0.0473-0.0352-0.0302-0.058-0.0718-0.064-0.1171-6e-3 -0.073 0.0035-0.1463 0.0277-0.2156 0.0159 0.0281 0.0399 0.0512 0.0689 0.0665 0.0291 0.0153 0.0621 0.0221 0.0951 0.0197z" opacity=".1"/>
<path d="m93.327 77.589c0.0194-0.124 0.125-0.221 0.1806-0.3342 0.0365-0.0763 0.0582-0.1586 0.0639-0.2425v0.1347c0.0103 0.1344-0.0126 0.2693-0.0667 0.3935-0.0444 0.0916-0.1222 0.1725-0.1611 0.2695-0.0197-0.072-0.0253-0.147-0.0167-0.221z" opacity=".1"/>
<path d="m88.363 76.723c0.1104 0.3492 0.1639 0.7129 0.1584 1.0781-0.0362-0.2652-0.089-0.5281-0.1584-0.787-0.0462-0.1979-0.0621-0.4013-0.0472-0.6037 0.0088 0.1051 0.0245 0.2095 0.0472 0.3126z" opacity=".1"/>
</g>
<path d="m93.26 83.907h2.1646c-0.0955-0.5653-0.2664-1.1161-0.5085-1.6386-0.019-0.0538-0.0504-0.1026-0.0917-0.1429-0.0089-0.0095-0.0192-0.0177-0.0306-0.0242-0.0639-0.0485-0.1528-0.0674-0.2223-0.1132-0.0694-0.0458-0.0778-0.0944-0.1417-0.1132-0.2405-0.0055-0.4799 0.0329-0.7058 0.1132-0.0639 0.0069-0.1266 0.0224-0.1862 0.0458-0.1409 0.0758-0.2463 0.2012-0.2945 0.3504-0.1834 0.4824-0.0445 1.0052 0.0167 1.5227z" fill="#F86D70"/>
<defs>
<linearGradient id="c" x1="60.391" x2="60.391" y1="199.96" y2="-.01348" gradientUnits="userSpaceOnUse">
<stop stop-color="#808080" stop-opacity=".25" offset="0"/>
<stop stop-color="#808080" stop-opacity=".12" offset=".54"/>
<stop stop-color="#808080" stop-opacity=".1" offset="1"/>
</linearGradient>
<linearGradient id="b" x1="-44980" x2="-44980" y1="9962.9" y2="6804.5" gradientUnits="userSpaceOnUse">
<stop stop-color="#808080" stop-opacity=".25" offset="0"/>
<stop stop-color="#808080" stop-opacity=".12" offset=".54"/>
<stop stop-color="#808080" stop-opacity=".1" offset="1"/>
</linearGradient>
<linearGradient id="a" x1="-18013" x2="-24821" y1="73886" y2="73886" gradientUnits="userSpaceOnUse">
<stop stop-color="#808080" stop-opacity=".25" offset="0"/>
<stop stop-color="#808080" stop-opacity=".12" offset=".54"/>
<stop stop-color="#808080" stop-opacity=".1" offset="1"/>
</linearGradient>
</defs>
</svg>
