<?xml version="1.0" encoding="UTF-8"?>
<svg viewBox="0 0 160 160" xmlns="http://www.w3.org/2000/svg">
<path d="m160 80.008c0.013 11.56-2.486 22.984-7.325 33.483-4.838 10.499-11.9 19.821-20.697 27.323-0.262 0.23-0.528 0.451-0.806 0.672-0.684 0.572-1.378 1.13-2.082 1.675-4.539 3.541-9.45 6.579-14.645 9.062l-0.503 0.237c-5.695 2.673-11.687 4.659-17.851 5.918-0.6282 0.129-1.2564 0.249-1.8886 0.366l-0.3261 0.056-0.1168 0.02-0.4913 0.081-0.2456 0.04c-4.3103 0.706-8.6709 1.061-13.039 1.059-1.4953 0-2.9718-0.042-4.4294-0.125-1.3853-0.075-2.7597-0.185-4.1235-0.33l-0.3664-0.04c-1.3731-0.153-2.7382-0.338-4.0912-0.564-11.726-1.918-22.872-6.441-32.617-13.236-0.2456-0.165-0.4872-0.338-0.7288-0.515-1.8792-1.342-3.6926-2.756-5.4402-4.243-8.8461-7.501-15.95-16.84-20.819-27.365-4.868-10.526-7.3827-21.986-7.3689-33.582 0-2.3321 0.099327-4.6401 0.29798-6.924 3.5073-40.94 37.852-73.076 79.73-73.076 44.142 0.0080511 79.972 35.828 79.972 80.008z" fill="#03C6AF" opacity=".1"/>
<path d="m100.75 32.859h-0.286v2.6653h0.286v-2.6653z" fill="#F2F2F2"/>
<path d="m118.72 39.338h-0.285v2.6653h0.285v-2.6653z" fill="#F2F2F2"/>
<path d="m116.71 106.17h-0.285v2.666h0.285v-2.666z" fill="#F2F2F2"/>
<path d="m120.88 84.134h-0.286v2.6653h0.286v-2.6653z" fill="#F2F2F2"/>
<path d="m68.675 117.59h-34.036v-0.245h33.791v-11.9h-30.931l-1.5013-3.136 0.2203-0.106 1.436 2.997h31.021v12.39z" fill="#2F2E41"/>
<path d="m39.168 123.6c1.4194 0 2.5701-1.153 2.5701-2.575s-1.1507-2.575-2.5701-2.575c-1.4195 0-2.5701 1.153-2.5701 2.575s1.1506 2.575 2.5701 2.575z" fill="#3F3D56"/>
<path d="m64.51 123.6c1.4195 0 2.5702-1.153 2.5702-2.575s-1.1507-2.575-2.5702-2.575c-1.4194 0-2.5701 1.153-2.5701 2.575s1.1507 2.575 2.5701 2.575z" fill="#3F3D56"/>
<path d="m94.384 67.905c0.8787 0 1.591-0.7138 1.591-1.5943s-0.7123-1.5943-1.591-1.5943-1.591 0.7138-1.591 1.5943 0.7123 1.5943 1.591 1.5943z" fill="#3F3D56"/>
<path d="m72.314 101.4h-38.258l-8.2774-27.111h55.074l-0.053 0.1595-8.4855 26.952zm-38.074-0.245h37.895l8.3713-26.621h-54.393l8.1265 26.621z" fill="#2F2E41"/>
<path d="m69.328 99.987h-33.603l-7.2697-24.045h48.359l-0.0407 0.139-7.4452 23.906z" fill="#F2F2F2"/>
<path d="m81.526 71.862-0.2366-0.0613 1.6155-6.1033h9.3992v0.2452h-9.2116l-1.5665 5.9194z" fill="#2F2E41"/>
<path d="m78.087 82.503h-49.632v0.2453h49.632v-0.2453z" fill="#2F2E41"/>
<path d="m75.243 91.546h-44.03v0.2453h44.03v-0.2453z" fill="#2F2E41"/>
<path d="m53.43 74.409h-0.2447v26.866h0.2447v-26.866z" fill="#2F2E41"/>
<path d="m64.392 74.401-1.7572 26.866 0.2442 0.016 1.7572-26.866-0.2442-0.0161z" fill="#2F2E41"/>
<path d="m42.23 74.399-0.2442 0.0159 1.7478 26.866 0.2443-0.016-1.7479-26.866z" fill="#2F2E41"/>
<path d="m102.22 25.362s2.101 5.9929 0.816 6.9168 4.365 8.4498 4.365 8.4498l6.789-1.8437-3.721-6.2995s-0.485-6.2995-0.485-7.2234-7.764 0-7.764 0z" fill="#A0616A"/>
<path d="m102.22 25.362s2.101 5.9929 0.816 6.9168 4.365 8.4498 4.365 8.4498l6.789-1.8437-3.721-6.2995s-0.485-6.2995-0.485-7.2234-7.764 0-7.764 0z" opacity=".1"/>
<path d="m98.688 68.085s-0.612 7.6853 0 11.679c0.6119 3.9939 1.5335 15.06 1.5335 15.06s0 20.898 3.374 21.205c3.374 0.306 5.826 0.613 6.119-0.614 0.294-1.226-1.533-1.843-0.616-2.452 0.918-0.61 1.224-2.764 0-5.225-1.223-2.461 0-27.352 0-27.352l5.83 15.673s0.612 12.91 1.224 14.753c0.612 1.844-0.612 5.225 1.534 5.531 2.146 0.307 4.602-1.537 5.83-2.15s-1.84-0.613-1.224-0.924 2.447-1.226 1.84-1.533c-0.608-0.306-1.224-15.06-1.224-15.06s-1.685-31.502-3.831-32.732-3.529 0.8912-3.529 0.8912l-16.86 3.2499z" fill="#2F2E41"/>
<path d="m104.21 114.79v2.453s-2.758 6.684 0 6.684c2.757 0 4.895 0.691 4.895-0.229v-8.298l-4.895-0.61z" fill="#2F2E41"/>
<path d="m122.3 114.79v2.453s2.757 6.684 0 6.684c-2.758 0-4.896 0.691-4.896-0.233v-8.287l4.896-0.617z" fill="#2F2E41"/>
<path d="m106.51 29.817c3.048 0 5.519-2.4763 5.519-5.531s-2.471-5.531-5.519-5.531c-3.049 0-5.52 2.4763-5.52 5.531s2.471 5.531 5.52 5.531z" fill="#A0616A"/>
<path d="m104.82 34.584s1.534 4.6071 3.986 3.6791l2.447-0.9238 4.3 29.519s-3.365 4.9056-8.261 1.8396c-4.895-3.066-2.472-34.114-2.472-34.114z" fill="#6C63FF"/>
<path d="m109.12 33.66 1.383-2.9188s8.126 3.8427 9.35 5.0691c0.759 0.8468 1.193 1.9364 1.224 3.0741l-2.146 7.6854s0.612 16.904 0.612 17.517 2.15 3.9939 0.616 2.7675-1.84-2.4527-3.068-0.6172c-1.228 1.8354-3.986 3.9939-3.986 3.9939l-3.985-36.571z" fill="#3F3D56"/>
<path d="m119.85 55.789-0.918 8.6174s-5.515 4.9056-4.291 5.2121c1.223 0.3066 1.84-0.9197 1.84-0.9197s2.149 2.1502 3.373 0.9197c1.224-1.2304 4.296-12.906 4.296-12.906l-4.3-0.9239z" fill="#A0616A"/>
<path d="m106.63 16.47c-1.224-0.045-2.533-0.0655-3.565 0.5927-0.472 0.3392-0.886 0.7534-1.224 1.2264-1.004 1.2754-1.8727 2.8616-1.501 4.4559l0.436-0.1717c2e-3 0.4246-0.093 0.844-0.277 1.2264 0.061-0.1758 0.269 0.1103 0.212 0.2902l-0.478 1.5698c0.198-0.0606 0.406-0.0789 0.611-0.0538 0.205 0.025 0.403 0.0929 0.58 0.1992 0.177 0.1064 0.33 0.2488 0.449 0.4181s0.201 0.3617 0.241 0.5648c0.057-1.8274 0.245-3.9163 1.722-4.9833 0.742-0.5396 1.685-0.7031 2.59-0.8503 0.827-0.2045 1.691-0.2045 2.517 0 0.816 0.278 1.481 1.0956 1.302 1.9255 0.191-0.0431 0.39-0.0191 0.566 0.068 0.175 0.0871 0.315 0.2319 0.396 0.4103 0.155 0.3607 0.224 0.7527 0.2 1.1446 0.408 0.278 0.841-0.2739 1-0.7318 0.379-1.0669 0.714-2.2075 0.51-3.3235s-1.11-2.1788-2.24-2.1829c0.135-0.1533 0.208-0.3516 0.204-0.556l-0.934-0.0777c0.237-0.0328 0.455-0.1486 0.616-0.327-0.384 0.4006-3.329-0.8135-3.933-0.8339z" fill="#2F2E41"/>
<path d="m106.36 32.74s-2.497-2.4528-3.398-2.3016c-0.902 0.1513-2.126 2.3016-2.126 2.3016s-7.3428 2.4527-7.0532 4.9055c0.2897 2.4528 3.6716 14.443 3.6716 14.443s2.7616 14.443 0.31 15.98c-2.4518 1.5371 11.652 5.531 11.962 3.6792 0.31-1.8519 0.918-20.28 0-23.048-0.918-2.7676-3.366-15.959-3.366-15.959z" fill="#3F3D56"/>
<path d="m117.09 37.659h3.79s2.652 11.675 2.957 12.906c0.306 1.2304 0.918 7.0681 0.612 7.0681s-6.441-1.2264-6.441-0.3066l-0.918-19.667z" fill="#3F3D56"/>
<path d="m116.96 66.577h-14.515c-1.42-6.5408-1.538-12.84 0-18.87h14.515c-2.322 5.9194-2.489 12.203 0 18.87z" fill="#F2F2F2"/>
<path d="m96.542 58.556 4.2915 1.8437s8.282 1.2264 8.282-2.1503c0-3.3766-8.282-1.537-8.282-1.537l-2.7576-0.8912-1.5339 2.7348z" fill="#A0616A"/>
<path d="m97.46 35.81-3.6716 0.9239-2.7578 16.286s-0.922 4.3046 0.6119 4.6112 5.8256 2.7675 5.8256 2.7675 0.616-4.6112 1.8399-4.6112l-3.0637-2.4528 1.8398-10.76-0.6241-6.7656z" fill="#3F3D56"/>
</svg>
