<?xml version="1.0" encoding="UTF-8"?>
<svg fill="none" viewBox="0 0 163 160" xmlns="http://www.w3.org/2000/svg">
<path d="m152.6 80.004c2e-3 13.488-3.808 26.701-10.989 38.11-7.182 11.409-17.442 20.548-29.593 26.36l-0.448 0.212c-5.074 2.386-10.413 4.159-15.905 5.283-0.5597 0.115-1.1194 0.222-1.6827 0.327l-0.2906 0.05-0.104 0.018-0.4377 0.072c-3.9126 0.655-7.8728 0.983-11.84 0.981-1.3323 0-2.6478-0.037-3.9466-0.112-1.2342-0.067-2.4588-0.165-3.6738-0.294l-0.3265-0.036c-17.431-1.942-33.534-10.257-45.226-23.352s-18.15-30.051-18.138-47.619c0-39.442 31.931-71.42 71.3-71.42 39.369 0 71.3 31.978 71.3 71.42z" fill="#03C6AF" opacity=".1"/>
<path d="m80.8 127.82-0.4269 0.313c0.1573-0.082 0.3013-0.187 0.4269-0.313z" fill="url(#c)"/>
<path d="m81.132 128.16-0.4269 0.312c0.1573-0.081 0.3013-0.187 0.4269-0.312z" fill="url(#b)"/>
<path d="m81.132 127.82-0.4269 0.313c0.1573-0.082 0.3013-0.187 0.4269-0.313z" fill="url(#a)"/>
<path d="m112.66 131.45c3e-3 0.014 3e-3 0.029 0 0.043-0.018 0.09-0.043 0.18-0.068 0.266-0.445 1.513-1.244 2.897-2.333 4.036l1.794 8.679-0.448 0.212c-5.074 2.386-10.413 4.16-15.905 5.283l-0.6207-1.484-0.104-0.263-0.0287-0.079-0.1543-0.388-1.5894-4.093 2.7841-20.485c1.1833-0.276 2.3811-0.486 3.5878-0.629l0.1937-0.022 0.2582-0.028c0.996-0.11 1.997-0.167 3-0.173h1.201l0.359 0.022 0.481 0.036 0.377 0.036 0.226 0.025 0.211 0.029 0.237 0.032c0.219 0.032 0.438 0.072 0.653 0.119 0.137 0.025 0.269 0.053 0.402 0.086 0.133 0.032 0.265 0.061 0.395 0.097l0.358 0.104c0.354 0.106 0.701 0.235 1.037 0.388 0.415 0.194 0.811 0.425 1.184 0.69l0.23 0.169c0.527 0.406 0.973 0.908 1.313 1.481 0.158 0.269 0.301 0.539 0.423 0.805 0.123 0.265 0.232 0.536 0.327 0.812 0.061 0.176 0.111 0.359 0.158 0.521 0.018 0.061 0.032 0.122 0.046 0.183 0.029 0.115 0.054 0.23 0.076 0.342 0.207 1.041 0.186 2.115-0.061 3.148z" fill="#535461"/>
<path d="m112.66 131.45c3e-3 0.014 3e-3 0.029 0 0.043-0.018 0.09-0.043 0.18-0.068 0.266-0.445 1.513-1.244 2.897-2.333 4.036l1.794 8.679-0.448 0.212c-5.074 2.386-10.413 4.16-15.905 5.283l-0.6207-1.484-0.104-0.263-0.0287-0.079-0.1543-0.388-1.5894-4.093 2.7841-20.485c1.1833-0.276 2.3811-0.486 3.5878-0.629l0.1937-0.022 0.2582-0.028c0.996-0.11 1.997-0.167 3-0.173h1.201l0.359 0.022 0.481 0.036 0.377 0.036 0.226 0.025 0.211 0.029 0.237 0.032c0.219 0.032 0.438 0.072 0.653 0.119 0.137 0.025 0.269 0.053 0.402 0.086 0.133 0.032 0.265 0.061 0.395 0.097l0.358 0.104c0.354 0.106 0.701 0.235 1.037 0.388 0.415 0.194 0.811 0.425 1.184 0.69l0.23 0.169c0.527 0.406 0.973 0.908 1.313 1.481 0.158 0.269 0.301 0.539 0.423 0.805 0.123 0.265 0.232 0.536 0.327 0.812 0.061 0.176 0.111 0.359 0.158 0.521 0.018 0.061 0.032 0.122 0.046 0.183 0.029 0.115 0.054 0.23 0.076 0.342 0.207 1.041 0.186 2.115-0.061 3.148z" fill="#000" opacity=".03"/>
<g opacity=".1">
<path d="m112.63 131.44c3e-3 0.015 3e-3 0.031 0 0.047-0.018 0.089-0.043 0.176-0.069 0.262-0.442 1.514-1.242 2.9-2.332 4.039l1.794 8.687-0.448 0.212-1.83-8.899c1.129-1.179 1.945-2.622 2.375-4.197 0.018-0.065 0.032-0.13 0.047-0.194 0.014-0.065 0.018-0.065 0.025-0.101 0.157-0.707 0.209-1.434 0.154-2.156 0-0.126-0.021-0.255-0.039-0.385 0-0.054 0-0.111-0.025-0.169-0.026-0.19-0.062-0.378-0.108-0.564-0.123-0.535-0.302-1.055-0.535-1.552-0.122-0.266-0.265-0.536-0.423-0.805-1.5-2.548-4.915-3.282-8.184-3.325h1.202l0.359 0.022 0.481 0.036 0.376 0.036 0.226 0.025 0.212 0.029 0.237 0.032c0.219 0.032 0.438 0.072 0.653 0.119 0.136 0.025 0.269 0.053 0.402 0.086 0.132 0.032 0.265 0.061 0.394 0.097l0.359 0.104c0.353 0.109 0.699 0.238 1.037 0.388 0.411 0.188 0.805 0.411 1.177 0.669l0.229 0.169c0.52 0.409 0.96 0.911 1.299 1.48 0.158 0.27 0.302 0.539 0.424 0.805 0.125 0.272 0.236 0.551 0.333 0.834 0.061 0.176 0.111 0.359 0.155 0.521 0.017 0.061 0.032 0.122 0.046 0.183 0.029 0.119 0.054 0.238 0.076 0.36 0.194 1.029 0.167 2.087-0.079 3.105z" fill="#000" opacity=".1"/>
</g>
<g opacity=".1">
<path d="m113.8 124.76c-0.094 0.528-0.201 1.01-0.33 1.481 3e-3 0.015 3e-3 0.031 0 0.046-0.097 0.36-0.201 0.698-0.32 1.025-0.118 0.331-0.253 0.656-0.405 0.974 2e-3 3e-3 2e-3 8e-3 2e-3 0.012s0 9e-3 -2e-3 0.013c-0.119 0.269-0.251 0.528-0.395 0.783-0.329 0.604-0.706 1.181-1.126 1.725-0.03 0.044-0.063 0.086-0.097 0.126-0.023 0.033-0.048 0.064-0.076 0.093-2.124 2.707-5.428 5.197-10.171 9.851-1.9804 1.941-3.9465 4.64-5.8086 7.594-0.3779 0.596-0.7462 1.202-1.105 1.818l-0.2906 0.051-0.1041 0.017-0.4377 0.072c-3.9125 0.656-7.8727 0.984-11.84 0.981-1.3323 0-2.6478-0.037-3.9466-0.111-1.2342-0.067-2.4588-0.165-3.6739-0.295 3.2829-10.806 9.5148-21.286 12.676-26.216l0.3229-0.496 0.1758-0.274c0.9041-1.38 1.453-2.156 1.453-2.156 1.7508-1.509 4.2156-2.091 6.9244-2.106 2.4441 0.03 4.8763 0.352 7.2433 0.96 0.016-4e-3 0.032-4e-3 0.047 0 3.66 0.924 7.23 2.171 10.67 3.727l0.312 0.143 0.122 0.058 0.18 0.104z" fill="#000" opacity=".1"/>
</g>
<path d="m113.17 124.62h-0.025c-1.722-0.805-10.641-4.776-17.939-4.844-2.8415-0.029-5.4354 0.535-7.2616 2.106 0 0-0.6243 0.88-1.6325 2.433-0.061 0.093-0.122 0.187-0.1794 0.284-0.1076 0.161-0.2116 0.327-0.3229 0.499-0.2942 0.457-0.6099 0.963-0.9471 1.506l-0.0395 0.065c-0.5059 0.816-1.0512 1.721-1.6253 2.699l-0.104 0.176c-3.229 5.524-7.3119 13.39-9.7624 21.44l0.3265 0.036c1.2151 0.13 2.4397 0.228 3.6739 0.295 1.3131 0.077 2.6287 0.114 3.9466 0.112 3.9669 2e-3 7.9271-0.326 11.84-0.982l0.4378-0.071c0.4448-0.755 0.9005-1.498 1.3669-2.229 1.7939-2.817 3.6882-5.39 5.5902-7.248 4.829-4.737 8.165-7.235 10.289-9.998 0.022-0.029 0.047-0.058 0.065-0.087 0.036-0.043 0.069-0.089 0.1-0.136 0.493-0.656 0.921-1.359 1.278-2.099 0.122-0.248 0.236-0.499 0.337-0.762 2e-3 -7e-3 2e-3 -0.014 0-0.021 0.215-0.534 0.394-1.081 0.534-1.639 0.115-0.431 0.212-0.891 0.298-1.373l-0.244-0.162z" fill="#535461"/>
<g opacity=".1">
<path d="m113.64 124.59c-4e-3 0.029-0.01 0.058-0.018 0.086-0.039 0.234-0.086 0.464-0.14 0.683v0.025c2e-3 0.017 2e-3 0.034 0 0.05-0.093 0.428-0.204 0.834-0.326 1.222-0.138 0.437-0.3 0.865-0.485 1.283 1e-3 6e-3 1e-3 0.012 0 0.018-0.111 0.259-0.229 0.507-0.359 0.751-0.36 0.689-0.78 1.344-1.255 1.959-0.033 0.046-0.067 0.09-0.104 0.133-0.021 0.03-0.044 0.059-0.068 0.086-2.128 2.688-5.422 5.179-10.136 9.804-1.9588 1.919-3.9178 4.586-5.7404 7.5-0.4377 0.702-0.8682 1.413-1.2916 2.132l-0.104 0.018-0.4377 0.071c0.5382-0.912 1.0763-1.814 1.6504-2.691 1.7472-2.732 3.5877-5.211 5.4493-7.026 4.84-4.751 8.184-7.245 10.301-10.02 0.023-0.024 0.043-0.051 0.061-0.079 0.036-0.047 0.072-0.09 0.104-0.136 0.577-0.772 1.064-1.606 1.453-2.487 0.104-0.234 0.201-0.471 0.291-0.719v-0.022c0.31-0.86 0.543-1.746 0.696-2.648v-0.022c-3.44-1.582-7.013-2.855-10.677-3.806-0.016-3e-3 -0.032-3e-3 -0.047 0-2.4592-0.667-4.9878-1.045-7.5345-1.125 7.1755-0.089 16.146 3.831 18.24 4.773l0.308 0.144 0.169 0.043z" fill="#000" opacity=".1"/>
</g>
<path d="m79.942 98.113s-7.8106 9.7432-13.081 11.859c-0.5794 0.234-1.1407 0.51-1.6791 0.827-0.7358 0.467-1.5543 0.788-2.411 0.945-0.6307 0.061-1.2475 0.223-1.8262 0.482-2.741 1.265-9.0627 4.672-4.8901 7.69 5.2346 3.767 12.274-4.912 12.274-4.912s2.9886-1.876 4.7466-2.297c1.7581-0.42 9.8019-6.066 9.8019-6.066l-2.9348-8.5282z" fill="#FDA57D"/>
<path d="m81.411 96.138-3.107 2.7888 4.5816 5.7355-1.4746-8.5243z" fill="#4D8AF0"/>
<g opacity=".1">
<path d="m81.411 96.138-3.107 2.7888 4.5816 5.7355-1.4746-8.5243z" fill="#000" opacity=".1"/>
</g>
<path d="m89.29 63.512s-7.4483 6.3934-4.3305 8.1939l-5.0229 12.456 1.7329 45.573 7.1002-11.802-4.8506-25.574s-1.3849-15.245 2.5975-18.85l3.8102-7.547-1.0368-2.451z" fill="#4D8AF0"/>
<g opacity=".1">
<path d="m90.604 63.512s-7.4482 6.3934-4.3304 8.1939l-5.0229 12.456 1.7329 45.573 7.1002-11.802-4.8507-25.574s-1.3849-15.245 2.5976-18.85l3.8102-7.547-1.0369-2.451z" fill="#000" opacity=".1"/>
</g>
<path d="m83.544 56.8s6.0561 7.3745 5.8911 11.637c-0.1651 4.2623 11.455-7.3745 11.455-7.3745s-4.4162-5.3907-3.2717-11.141-14.075 6.8785-14.075 6.8785z" fill="#FDA57D"/>
<path d="m118.07 93.848 1.636 13.114v12.937s-2.293 16.719 4.908 13.607c7.201-3.113 1.962-14.588 1.962-14.588s0-6.393 0.983-9.671c0.984-3.277-0.502-17.699-0.502-17.699l-8.987 2.3z" fill="#FDA57D"/>
<path d="m95.647 62.866s-4.4166 4.2623-6.7092 2.7852l-3.1428 7.8237c-1.9223 4.7823-2.7959 9.9225-2.5617 15.072l1.1194 29.555 4.908-0.654 1.6361-28.032 2.454-17.046 2.2962-9.5056z" fill="#F2F2F2"/>
<g opacity=".1">
<path d="m99.332 58.361s-5.8121 4.0143-7.4374 7.4572c0 0-0.1651 3.7699-1.471 5.4087-1.306 1.6387-2.6191 9.8362-2.9456 19.669-0.3265 9.8324-1.7939 22.946-1.7939 22.946s-2.4504 12.783-5.0731 14.099c0 0 12.109-9.179 18-6.067 5.8908 3.112 12.6 10.656 14.563 9.506 0 0-0.474-14.375 1.675-22.027 0.04-0.147 0.083-0.287 0.126-0.427 2.293-7.547 0.818-17.865 3.437-22.282 0 0 0-8.0106-1.51-13.994-0.391-1.5279-1.11-2.9517-2.108-4.1717-0.998-1.2199-2.25-2.2064-3.669-2.8901l-7.276-3.5291s-3.8637-0.5858-4.5167-3.6981z" fill="#000" opacity=".1"/>
</g>
<g opacity=".1">
<path d="m99.336 58.361s-5.4821 4.345-7.1289 7.7842c0 0-0.1651 3.77-1.471 5.3908-1.306 1.6208-2.6191 9.8362-2.9456 19.669-0.3265 9.8323-1.7939 22.946-1.7939 22.946s-2.454 12.783-5.0731 14.095c0 0 12.109-9.178 18-6.066 5.8913 3.112 12.6 10.655 14.562 9.505 0 0-0.473-14.375 1.676-22.026 0.039-0.147 0.082-0.288 0.126-0.428 2.292-7.547 0.818-17.865 3.437-22.281 0 0 0-8.0106-1.511-13.994-0.39-1.5279-1.109-2.9517-2.107-4.1717-0.998-1.2199-2.25-2.2064-3.669-2.8901l-7.276-3.5292s-4.1727-0.8912-4.8257-4.0035z" fill="#000" opacity=".1"/>
</g>
<path d="m99.253 58.276s-5.3996 4.0969-7.0356 7.547c0 0-0.1651 3.7699-1.471 5.4086-1.306 1.6388-2.6191 9.8363-2.9456 19.669-0.3265 9.8331-1.7939 22.946-1.7939 22.946s-2.454 12.784-5.0731 14.095c0 0 12.109-9.178 18-6.066 5.8915 3.112 12.59 10.638 14.556 9.502 0 0-0.474-14.375 1.676-22.026 0.039-0.148 0.082-0.288 0.125-0.428 2.293-7.547 0.818-17.865 3.437-22.282 0 0 0-8.0106-1.51-13.994-0.39-1.5279-1.11-2.9518-2.108-4.1717-0.997-1.2199-2.25-2.2064-3.669-2.8901l-7.276-3.5292s-3.684-0.9128-4.9112-3.7806z" fill="#4D8AF0"/>
<g opacity=".1">
<path d="m114.22 67.868s16.608 18.932 14.319 27.946c0 0-8.51-1.9658-10.799 0.654 0 0-1.794-6.0663-7.201-9.5056s-10.394-25.487 3.681-19.094z" fill="#000" opacity=".1"/>
</g>
<path d="m114.22 67.54s16.608 18.932 14.319 27.946c0 0-8.51-1.9658-10.799 0.654 0 0-1.794-6.0663-7.201-9.5056s-10.394-25.487 3.681-19.094z" fill="#4D8AF0"/>
<g opacity=".1">
<path d="m98.026 53.605c-0.2583-1.3225-0.043-1.4375 0.244-2.8751 1.1445-5.7501-14.071 6.8858-14.071 6.8858s0.8467 1.0314 1.898 2.548c0.7754 0.161 1.5652 0.2416 2.3571 0.2408 4.1619 0.0036 7.5164-3.5148 9.5722-6.7995z" fill="#000" opacity=".1"/>
</g>
<path d="m87.797 59.582c6.4161 0 11.617-5.2099 11.617-11.637s-5.2012-11.637-11.617-11.637c-6.416 0-11.617 5.21-11.617 11.637s5.2012 11.637 11.617 11.637z" fill="#FDA57D"/>
<g opacity=".1">
<path d="m77.362 44.766c-1.7114 0.23-3.8928-0.3594-4.2228-2.0377-0.4162-2.1563 2.4468-3.5399 2.8917-5.6818 0.165-0.8051-0.0323-1.6424 0.0646-2.4546 0.1937-1.6424 1.5176-2.9038 2.8702-3.8598 4.2688-2.998 9.4604-4.3834 14.652-3.91 0.6486 0.0076 1.2804 0.2077 1.8154 0.575 0.5633 0.4636 0.7822 1.2183 1.1661 1.84 1.3274 2.1563 4.3052 2.3971 6.4362 3.734 2.512 1.5633 3.735 4.6324 3.846 7.5793 0.112 2.9469-0.717 5.84-1.56 8.6719-0.718 2.4078-1.435 4.8804-3 6.8498-1.564 1.9694-4.1221 3.3494-6.5582 2.7564 1.1158-0.805 0.305-2.6738-0.9041-3.3314-1.2091-0.6577-2.7088-0.7691-3.742-1.6747-1.0333-0.9057-1.3419-2.3863-1.6791-3.734-0.4234-1.6999-1.0405-3.4249-2.2783-4.672-2.436-2.4258-6.8167-1.053-9.7981-0.6504z" fill="#000" opacity=".1"/>
</g>
<path d="m77.685 44.603c-1.7113 0.23-3.8927-0.3594-4.2228-2.0377-0.4162-2.1563 2.4469-3.5399 2.8918-5.6818 0.165-0.805-0.0323-1.6424 0.0645-2.4546 0.1938-1.6424 1.5177-2.9038 2.8703-3.8597 4.2688-2.9981 9.4604-4.3834 14.652-3.9101 0.6486 0.0076 1.2804 0.2077 1.8154 0.575 0.5633 0.4636 0.7821 1.2183 1.166 1.84 1.3275 2.1563 4.3054 2.3971 6.4364 3.734 2.512 1.5633 3.735 4.6324 3.846 7.5794 0.111 2.9469-0.717 5.8399-1.56 8.6718-0.718 2.4079-1.436 4.8804-3 6.8498-1.564 1.9695-4.1222 3.3495-6.5583 2.7565 1.1158-0.805 0.3049-2.6738-0.9041-3.3315-1.2091-0.6576-2.7088-0.769-3.7421-1.6747-1.0333-0.9056-1.3382-2.3863-1.697-3.734-0.4234-1.6998-1.0405-3.4249-2.2783-4.6719-2.4145-2.4294-6.7988-1.0494-9.7803-0.6505z" fill="#72351C"/>
<path d="m94.813 32.794 1.0512-5.3908c0.0104-0.0514 0.0107-0.1044 6e-4 -0.156-0.01-0.0515-0.0301-0.1005-0.0591-0.1443-0.029-0.0437-0.0663-0.0813-0.1099-0.1105-0.0435-0.0293-0.0924-0.0496-0.1438-0.0599l-3.7133-0.7188c-0.0514-0.0105-0.1043-0.0107-0.1557-7e-4 -0.0515 0.0101-0.1005 0.0302-0.1441 0.0593-0.0437 0.029-0.0812 0.0664-0.1104 0.11s-0.0495 0.0926-0.0598 0.1441l-1.0512 5.3907-3.5878 13.326 6.5836 1.2866 1.4997-13.736z" fill="#CBDAE3"/>
<g opacity=".1">
<path d="m89.349 53.933c3.1625 0 5.7261-2.568 5.7261-5.7358 0-3.1677-2.5636-5.7357-5.7261-5.7357-3.1624 0-5.7261 2.568-5.7261 5.7357 0 3.1678 2.5637 5.7358 5.7261 5.7358z" fill="#000" opacity=".1"/>
</g>
<path d="m89.349 54.092c3.1625 0 5.7261-2.5679 5.7261-5.7357 0-3.1677-2.5636-5.7357-5.7261-5.7357-3.1624 0-5.7261 2.568-5.7261 5.7357 0 3.1678 2.5637 5.7357 5.7261 5.7357z" fill="#CBDAE3"/>
<path d="m89.351 52.118c2.0726 0 3.7528-1.683 3.7528-3.7591s-1.6802-3.7591-3.7528-3.7591c-2.0727 0-3.7529 1.683-3.7529 3.7591s1.6802 3.7591 3.7529 3.7591z" fill="#E9E9E9"/>
<path d="m89.352 49.503c0.6321 0 1.1445-0.5133 1.1445-1.1464 0-0.6332-0.5124-1.1465-1.1445-1.1465s-1.1445 0.5133-1.1445 1.1465c0 0.6331 0.5124 1.1464 1.1445 1.1464z" fill="#F48681"/>
<path d="m90.413 31.422-0.0317 0.1623 4.4967 0.8796 0.0316-0.1623-4.4966-0.8796z" fill="#000" opacity=".05"/>
<path d="m56.978 110.17-0.0033 1e-3c-1.3832 0.668-1.9639 2.333-1.297 3.719l3.4839 7.238c0.6669 1.386 2.3289 1.967 3.7122 1.299l0.0032-1e-3c1.3833-0.668 1.964-2.333 1.2971-3.719l-3.484-7.238c-0.6669-1.386-2.3289-1.967-3.7121-1.299z" fill="#CBDAE3"/>
<g opacity=".1">
<path d="m56.978 110.17-0.0033 1e-3c-1.3832 0.668-1.9639 2.333-1.297 3.719l3.4839 7.238c0.6669 1.386 2.3289 1.967 3.7122 1.299l0.0032-1e-3c1.3833-0.668 1.964-2.333 1.2971-3.719l-3.484-7.238c-0.6669-1.386-2.3289-1.967-3.7121-1.299z" fill="#000" opacity=".1"/>
</g>
<path d="m57.495 109.92c0.684-0.328 1.4699-0.371 2.1858-0.121 0.7159 0.251 1.3038 0.775 1.6352 1.458l3.412 7.091c0.1644 0.34 0.2602 0.709 0.2821 1.086s-0.0307 0.755-0.1546 1.112c-0.124 0.356-0.3169 0.685-0.5678 0.967s-0.5548 0.512-0.8944 0.676c-0.3403 0.164-0.7096 0.26-1.0867 0.281s-0.7547-0.033-1.111-0.159c-0.3563-0.125-0.6843-0.32-0.9654-0.573-0.281-0.253-0.5094-0.559-0.6722-0.9l-3.4156-7.091c-0.3262-0.687-0.367-1.476-0.1134-2.193 0.2535-0.718 0.7807-1.305 1.466-1.634z" fill="#CBDAE3"/>
<path d="m59.861 109.86-3.8975 1.882 4.4765 9.301 3.8975-1.883-4.4765-9.3z" fill="#F2F2F2"/>
<path d="m63.251 121.7c0.2445-0.118 0.3158-0.478 0.1592-0.803-0.1566-0.326-0.4818-0.494-0.7263-0.375-0.2446 0.118-0.3158 0.477-0.1592 0.803 0.1566 0.325 0.4818 0.493 0.7263 0.375z" fill="#F2F2F2"/>
<defs>
<linearGradient id="c" x1="80.373" x2="80.8" y1="127.98" y2="127.98" gradientUnits="userSpaceOnUse">
<stop stop-color="#808080" stop-opacity=".25" offset="0"/>
<stop stop-color="#808080" stop-opacity=".12" offset=".54"/>
<stop stop-color="#808080" stop-opacity=".1" offset="1"/>
</linearGradient>
<linearGradient id="b" x1="229.05" x2="229.56" y1="186.7" y2="186.7" gradientUnits="userSpaceOnUse">
<stop stop-color="#808080" stop-opacity=".25" offset="0"/>
<stop stop-color="#808080" stop-opacity=".12" offset=".54"/>
<stop stop-color="#808080" stop-opacity=".1" offset="1"/>
</linearGradient>
<linearGradient id="a" x1="229.05" x2="229.56" y1="186.65" y2="186.65" gradientUnits="userSpaceOnUse">
<stop stop-color="#808080" stop-opacity=".25" offset="0"/>
<stop stop-color="#808080" stop-opacity=".12" offset=".54"/>
<stop stop-color="#808080" stop-opacity=".1" offset="1"/>
</linearGradient>
</defs>
</svg>
