<?xml version="1.0" encoding="UTF-8"?>
<svg viewBox="0 0 352 837" xmlns="http://www.w3.org/2000/svg">
<path d="m87.279 414.1 43.351 52.568-64.159 75.674-42.773-50.257 63.581-77.985z" fill="#6C63FF"/>
<path d="m87.279 414.1 43.351 52.568-64.159 75.674-42.773-50.257 63.581-77.985z" opacity=".1"/>
<path d="m128.9 467.24c-0.958-1.725-2.148-3.311-3.534-4.716l-39.817-40.342s-13.872-2.31-16.762 4.622l50.865 41.592 9.248-1.156z" fill="#F2F2F2"/>
<path d="m130.92 466.38-58.957 90.116s-5.7801 4.044-11.56 1.733l-60.403-40.725 64.16-97.049 57.801 45.058 8.959 0.867z" fill="#03C6AF"/>
<path d="m56.279 456.35 39.647 26.675-9.8967 14.692-39.647-26.675 9.8968-14.692z" fill="#3F3D56"/>
<path d="m81.318 392.72s-5.4668 40.976 13.667 39.61c19.133-1.366 9.5664-36.878 9.5664-36.878l-23.233-2.732z" fill="#FFB8B8"/>
<path d="m231.65 245.2 23.233-2.732v-2.731l21.867-2.732s47.834 90.147 45.101 147.51c-2.733 57.367-39.634 308.69-39.634 308.69s-57.401-5.463-65.601-21.854l9.567-56 5.467-66.928s-36.901 187.12-53.301 187.12-64.234-9.561-60.134-16.39c4.1-6.83 53.301-217.17 53.301-217.17l5.466-102.44 12.301-150.24 42.367-4.098z" fill="#2F2E41"/>
<path d="m212.52 108.62c-21.134 0-38.267-17.122-38.267-38.244 0-21.122 17.133-38.244 38.267-38.244 21.135 0 38.267 17.122 38.267 38.244 0 21.122-17.132 38.244-38.267 38.244z" fill="#FFB8B8"/>
<path d="m211.15 96.323s-15.034 34.147-4.1 49.171c10.933 15.025-58.768-24.585-58.768-24.585s34.167-32.781 35.534-47.806l27.334 23.22z" fill="#FFB8B8"/>
<path d="m148.28 115.44s35.534 21.854 64.235 13.659l71.067 116.1-117.54 21.854-25.967-147.51 8.2-4.098z" fill="#D0CDE1"/>
<path d="m164.68 111.35s-5.467-6.83-12.3-2.732c-6.834 4.098-50.568 5.463-53.301 23.22-2.7334 17.756 65.601 288.2 65.601 288.2l10.933-2.732s-12.3-4.098 35.534-16.391c47.834-12.292 54.668-53.268 43.734-102.44-10.933-49.171-15.033-79.22-15.033-79.22l-75.168-107.9z" fill="#62BD69"/>
<path d="m203.92 120.78s48.237 20.615 49.604 27.444 53.301 129.76 53.301 129.76l10.933 9.562-5.466 4.097 39.633 87.416s-1.366 10.927-21.867 10.927h-12.3s-20.5-103.81-34.167-122.93c-13.667-19.123-101.94-128.64-79.671-146.28z" fill="#62BD69"/>
<path d="m116.85 125.01s-17.767-5.464-21.867 30.049c-4.1001 35.512-2.7334 58.732-2.7334 58.732l-17.767 185.76 38.268 4.097 34.167-208.98-30.067-69.659z" fill="#62BD69"/>
<path d="m271.29 683.64s0 27.317 12.3 31.415c12.3 4.097 49.201 36.878 5.467 35.512s-39.634-21.854-39.634-21.854v-5.463l-10.934 5.463-21.867-5.463s-6.833-47.805 0-51.903c6.834-4.098 54.668 12.293 54.668 12.293z" fill="#2F2E41"/>
<path d="m168.78 728.72s-1.366 40.976 15.034 60.098 34.167 45.073 12.3 47.805-61.501-13.659-60.134-23.22 0-12.293 0-12.293h-6.833l-10.934-8.195s-6.833-66.927 5.467-72.391c12.3-5.463 45.1 8.196 45.1 8.196z" fill="#2F2E41"/>
<path d="m286.32 212.42-9.566-13.659s-17.767-16.39-30.067-8.195c-12.301 8.195 23.024 31.966 23.024 31.966h9.87l4.006 2.735 2.733-12.847z" fill="#FFB8B8"/>
<path d="m233.7 244.52c-3.019 0-5.467-2.446-5.467-5.464 0-3.017 2.448-5.463 5.467-5.463s5.467 2.446 5.467 5.463c0 3.018-2.448 5.464-5.467 5.464z" fill="#2F2E41"/>
<path d="m235.07 265.01c-3.019 0-5.466-2.446-5.466-5.463 0-3.018 2.447-5.464 5.466-5.464 3.02 0 5.467 2.446 5.467 5.464 0 3.017-2.447 5.463-5.467 5.463z" fill="#2F2E41"/>
<path d="m299.99 230.18-16.4-31.415s-0.2 29.013-10.35 29.531l21.284 30.567 5.466-28.683z" fill="#62BD69"/>
<path d="m262.33 59.082s22.103-62.582-49.947-55.967c0 0-46.32-19.191-75.085 37.695l-29.589 59.752 8.716-2.5704 1.93 8.7284 11.957 5.914 7.718-9.572-0.183 13.596 101.35 32.546s-40.496-37.372-30.674-86.667l6.831 11.228 46.973-14.683z" fill="#2F2E41"/>
</svg>
