<?xml version="1.0" encoding="UTF-8"?>
<svg fill="none" viewBox="0 0 171 171" xmlns="http://www.w3.org/2000/svg">
<path d="m80.646 4.5522-76.094 76.102c-2.5139 2.5141-2.5139 6.5904 0 9.1046l76.094 76.102c2.5139 2.514 6.5898 2.514 9.1037 0l76.094-76.102c2.514-2.5141 2.514-6.5904 0-9.1046l-76.094-76.102c-2.5139-2.5142-6.5898-2.5142-9.1037 0z" fill="url(#a)"/>
<path d="m134.9 94.929-5.805 5.8049 5.805 5.806 5.805-5.806-5.805-5.8049z" fill="#fff"/>
<path d="m118.68 111.14-5.805 5.806 5.805 5.805 5.805-5.805-5.805-5.806z" fill="#fff"/>
<path d="m89.989 46.75 46.557 46.553-52.1 52.105-10.452-10.446-5.8034 5.804 16.256 16.258 63.715-63.721-52.369-52.398-5.8034 5.8445z" fill="#fff"/>
<path d="m104.62 32.076-5.8045 5.8053 52.364 52.369 5.805-5.8053-52.364-52.369z" fill="#fff"/>
<path d="m121.76 85.789-5.805 5.8053 14.035 14.036 5.805-5.8053-14.035-14.036z" fill="#fff"/>
<path d="m118.06 82.078-22.57 22.571 5.8046 5.806 22.57-22.572-5.805-5.8053z" fill="#fff"/>
<path d="m105 102.55-5.8051 5.805 14.035 14.036 5.805-5.805-14.035-14.036z" fill="#fff"/>
<path d="m112.87 116.95 0.602-0.601 5.21-5.203 10.411-10.412 5.202-5.2108 0.602-0.5934 1.65-1.6583" fill="#fff"/>
<path d="m35.517 63.88-5.8048 5.8053 5.8048 5.8054 5.8048-5.8054-5.8048-5.8053z" fill="#fff"/>
<path d="m51.727 47.663-5.8048 5.8054 5.8047 5.8053 5.8048-5.8053-5.8047-5.8054z" fill="#fff"/>
<path d="m80.422 123.7-46.573-46.561 52.1-52.105 10.485 10.454 5.7875-5.812-16.256-16.257-63.715 63.721 52.36 52.365 5.8114-5.804z" fill="#fff"/>
<path d="m19.235 80.156-5.8048 5.8053 52.364 52.369 5.8048-5.806-52.364-52.368z" fill="#fff"/>
<path d="m40.412 64.789-5.8048 5.8053 14.035 14.036 5.8047-5.8053-14.035-14.036z" fill="#fff"/>
<path d="m68.89 59.729-22.57 22.572 5.8048 5.8053 22.57-22.572-5.8048-5.8054z" fill="#fff"/>
<path d="m57.186 48.021-5.8047 5.8054 14.035 14.036 5.8048-5.8053-14.035-14.036z" fill="#fff"/>
<path d="m57.535 53.472-0.5933 0.5934-5.21 5.2105-15.614 15.615-0.6014 0.6015-1.65 1.6501" fill="#fff"/>
<defs>
<linearGradient id="a" x1="2.6649" x2="167.74" y1="85.203" y2="85.203" gradientUnits="userSpaceOnUse">
<stop stop-color="#052142" offset="0"/>
<stop stop-color="#123D61" offset=".13"/>
<stop stop-color="#1E557D" offset=".28"/>
<stop stop-color="#25648E" offset=".4"/>
<stop stop-color="#276994" offset=".5"/>
<stop stop-color="#25648F" offset=".6"/>
<stop stop-color="#1F5780" offset=".72"/>
<stop stop-color="#144166" offset=".85"/>
<stop stop-color="#062244" offset=".99"/>
<stop stop-color="#052142" offset="1"/>
</linearGradient>
</defs>
</svg>
