<?xml version="1.0" encoding="UTF-8"?>
<svg fill="none" viewBox="0 0 163 160" xmlns="http://www.w3.org/2000/svg">
<g clip-path="url(#a)">
<path d="m152.96 82.37c0.012 10.32-2.22 20.519-6.542 29.891-4.321 9.373-10.628 17.696-18.485 24.393-0.234 0.205-0.471 0.403-0.719 0.601-0.612 0.51-1.231 1.008-1.859 1.495-4.055 3.161-8.441 5.873-13.08 8.089l-0.45 0.212c-5.086 2.386-10.438 4.16-15.943 5.283-0.5611 0.115-1.1221 0.223-1.6867 0.327l-0.2913 0.05-0.1043 0.018-0.4388 0.072-0.2193 0.036c-3.8496 0.631-7.7441 0.947-11.645 0.945-1.3354 0-2.6541-0.037-3.956-0.111-1.2371-0.067-2.4647-0.165-3.6826-0.295l-0.3273-0.036c-1.2264-0.136-2.4455-0.301-3.6539-0.503-10.472-1.712-20.427-5.75-29.13-11.816-0.2194-0.148-0.4352-0.302-0.651-0.46-1.6783-1.198-3.2978-2.461-4.8586-3.788-7.9006-6.697-14.246-15.034-18.593-24.43-4.3477-9.397-6.5936-19.628-6.5813-29.98 0-2.0821 0.0887-4.1425 0.2662-6.1814 3.1324-36.549 33.806-65.238 71.208-65.238 39.424 0.0072 71.424 31.985 71.424 71.427z" fill="#03C6AF" opacity=".1"/>
<path d="m113.87 123.94-0.943-14.519-0.017-0.028-0.939 0.323-4.316 12.579-6.865-4.867 10.936-7.906v-0.032l0.061-0.022 0.72-0.514-11.447-6.433-2.8093 3.087 0.446 2.875 13.177 0.234v0.298l-13.426-0.24-0.507-3.278 3.8375-4.205 5.754-6.6987 0.104 0.2767 1.216-1.3333 4.531 0.8122v-0.1904h0.295v0.2264l6.725 1.2111-6.279 12.578-0.917 0.665v0.158l14.515-5.056-1.723 13.527-12.317-7.856-0.435-0.241 7.264 11.698-6.642 2.871zm-0.583-13.99 0.87 13.552 5.942-2.58-6.812-10.972zm-11.954 7.478 6.2 4.403 4.057-11.824-10.257 7.421zm12.227-8.265 0.31 0.172 11.922 7.594 1.604-12.578-13.836 4.812zm-1.053-1.078 0.359 0.6 0.065-0.047 0.446-14.016-4.406-0.7691-1.211 1.3333 4.747 12.899zm-11.189-5.79 11.084 6.239-0.194-0.313-4.675-12.794-5.52 6.0629-0.695 0.805zm12.372-7.6226-0.446 13.747 0.672-0.489 6.071-12.133-6.297-1.1248z" fill="#535461"/>
<path d="m50.63 123.88-0.9314-14.523-0.018-0.029-0.9387 0.324-4.3156 12.578-6.8619-4.862 10.929-7.907v-0.032l0.0647-0.022 0.7121-0.514-11.458-6.422-2.8088 3.087 0.446 2.875 13.177 0.241v0.299l-13.425-0.241-0.5071-3.285 3.8446-4.219 5.7541-6.7026 0.1007 0.2767 1.2156-1.3333 4.5206 0.8086v-0.1797h0.2985v0.2228l6.7288 1.2039-6.2756 12.546-0.9135 0.662v0.161l14.508-5.031-1.7226 13.524-12.318-7.846-0.4315-0.244 7.261 11.698-6.6353 2.886zm-0.5934-13.987 0.8667 13.548 5.9412-2.577-6.8079-10.971zm-11.958 7.475 6.2001 4.395 4.0567-11.824-10.257 7.429zm12.228-8.266 0.3128 0.172 11.922 7.594 1.6004-12.578-13.835 4.812zm-1.0538-1.078 0.3597 0.6 0.0647-0.047 0.4459-14.016-4.4127-0.7619-1.212 1.3333 4.7544 12.891zm-11.203-5.768 11.102 6.228-0.1906-0.316-4.6753-12.791-5.5204 6.0589-0.7157 0.82zm12.375-7.6192-0.4351 13.75 0.6689-0.489 6.0707-12.133-6.3045-1.1284z" fill="#535461"/>
<path d="m63.843 93.507-1.9805 2.0055 6.3381 6.2498 1.9805-2.0051-6.3381-6.2502z" fill="#6C63FF"/>
<path d="m63.843 93.507-1.9805 2.0055 6.3381 6.2498 1.9805-2.0051-6.3381-6.2502z" fill="#000" opacity=".1"/>
<path d="m65.354 90.518s3.6791-1.9406 5.0996-3.1877c0.8555-0.7484 1.7749-1.4206 2.7477-2.0089l4.6177-2.8067 9.6418-0.7404 0.446 1.6316s0.7444 2.3719-6.6749 4.4491-11.131 5.3368-11.131 5.3368-4.7472 1.6244-4.7472-2.6738z" fill="#DB8B8B"/>
<path d="m70.489 92.868c-0.2625 0.2012-0.392 0.3162-0.392 0.3162s-4.7472 1.6317-4.7472-2.6666c0 0 0.2302-0.1222 0.5934-0.3271 0.3671 0.5982 0.8815 1.0923 1.4941 1.4352 0.6126 0.343 1.303 0.5232 2.0052 0.5235h0.5035l0.543 0.7188z" fill="#000" opacity=".1"/>
<path d="m87.767 84.224c-0.41 0.8733-1.8342 2.3072-6.5346 3.6226-6.0275 1.6855-9.6059 4.1508-10.739 5.0313-0.2625 0.2013-0.392 0.3163-0.392 0.3163s-4.7472 1.6316-4.7472-2.6666c0 0 0.2302-0.1222 0.5934-0.3271 1.1005-0.6037 3.4345-1.9263 4.5026-2.875 0.8543-0.749 1.7738-1.4201 2.7477-2.0054l4.6141-2.8067 1.7191-0.133 7.912-0.611 0.446 1.6316c0.0584 0.2802 0.015 0.5719-0.1223 0.823z" fill="#000" opacity=".05"/>
<path d="m65.43 89.548-3.9308 2.5984 11.508 9.6353s1.6902-1.035 0.8019-2.2214c0 0-2.9705-2.5156-3.118-6.0807l-0.8883-1.1859h-0.5035c-0.85-0.0012-1.6788-0.266-2.3719-0.7577-0.6931-0.4918-1.2164-1.1864-1.4978-1.988z" fill="#ABB1D1"/>
<path d="m87.768 84.222c-2.3736-1.1464-8.1673-1.2722-8.1673-1.2722l-0.0648-0.575 7.912-0.6109 0.446 1.6316c0.0566 0.2817 0.012 0.5744-0.1259 0.8265z" fill="#000" opacity=".1"/>
<path d="m79.604 82.656s6.9733 0.1473 8.7535 1.6315l-0.8919-17.944h-9.6418l1.7802 16.312z" fill="#ABB1D1"/>
<path d="m79.604 82.583s6.9733 0.1473 8.7535 1.6316l-0.8919-17.94h-9.6418l1.7802 16.309z" fill="#000" opacity=".05"/>
<path d="m113.11 91.498c-2.392-0.0021-4.76 0.4872-6.955 1.4375-3.969 1.7174-7.1604 4.845-8.9556 8.7774-1.7951 3.933-2.0669 8.391-0.7627 12.512 1.3042 4.122 4.0913 7.613 7.8233 9.799 3.731 2.187 8.142 2.912 12.377 2.037 4.236-0.876 7.997-3.29 10.554-6.776 2.558-3.486 3.73-7.796 3.292-12.096-0.439-4.3-2.458-8.2851-5.667-11.184s-7.38-4.5044-11.706-4.5074zm-0.057 30.547c-3.009-1e-3 -5.927-1.03-8.269-2.917-2.343-1.888-3.969-4.519-4.609-7.457-0.6394-2.938-0.2542-6.006 1.092-8.695 1.346-2.689 3.572-4.8369 6.309-6.0872 0.695-0.3187 1.417-0.5749 2.157-0.7655 1.813-0.471 3.705-0.5507 5.551-0.2339 1.845 0.3168 3.602 1.0229 5.153 2.0713 1.552 1.0483 2.862 2.4153 3.843 4.0083 0.982 1.594 1.612 3.379 1.849 5.235 0.238 1.856 0.077 3.742-0.472 5.531s-1.473 3.441-2.71 4.846c-1.238 1.404-2.761 2.529-4.467 3.3-1.707 0.77-3.558 1.168-5.431 1.168l4e-3 -4e-3z" fill="#535461"/>
<path d="m85.207 71.677s17.457-0.5929 17.813 1.6604-17.457 1.3081-17.457 1.3081-1.4062-1.4267-0.3561-2.9685z" fill="#535461"/>
<path d="m85.207 71.677s17.457-0.5929 17.813 1.6604-17.457 1.3081-17.457 1.3081-1.4062-1.4267-0.3561-2.9685z" fill="#000" opacity=".05"/>
<path d="m71.07 80.699h-3.0892v26.821h3.0892v-26.821z" fill="#6C63FF"/>
<path d="m71.07 80.694v2.0665c-1.0249 0.133-2.0787 0.2192-3.0892 0.2516v-2.3181h3.0892z" fill="#000" opacity=".1"/>
<path d="m70.845 78.473c-0.4332-0.0338-0.8642-0.0914-1.2911-0.1725-1.6759-0.3234-5.8944-0.9919-7.0309 0.1474-1.4385 1.4375-0.9494 3.9173 2.8519 4.2731 3.8014 0.3558 10.332-0.593 11.638-2.0198-1.8033-1.3114-3.9422-2.0841-6.1678-2.2282z" fill="#535461"/>
<path d="m70.239 88.056 32.421-10.088 1.072 2.4941-33.255 11.392-0.2373-3.7987z" fill="#6C63FF"/>
<path d="m79.859 103.96 23.394-23.021 1.309 1.8975-22.33 23.259-2.3736-2.135z" fill="#6C63FF"/>
<path d="m109.74 96.13c-0.741 0.1906-1.463 0.4468-2.158 0.7655l-1.42-3.9532c0.745-0.324 1.511-0.5954 2.294-0.8122l1.284 3.9999z" fill="#000" opacity=".1"/>
<path d="m113.7 107.76-1.661 0.949-11.595-32.374-0.5178-1.4483 2.7298-1.5453 0.687 2.1311 10.357 32.287z" fill="#6C63FF"/>
<path d="m103.35 75.469-2.899 0.8625-0.5178-1.4483 2.7298-1.5453 0.687 2.1311z" fill="#000" opacity=".1"/>
<path d="m85.679 77.985 16.27-5.5776s2.852 0.3594 1.78 2.7313l-16.388 4.8625s-2.4922 0.2192-1.6615-2.0162z" fill="#535461"/>
<path d="m66.893 105.04c-0.5933-2.643-1.7979-5.1107-3.5173-7.2052-0.6379-0.7768-1.3405-1.4981-2.1003-2.1563-3.1425-2.7136-7.1498-4.2195-11.303-4.2475-4.1531-0.028-8.1804 1.4237-11.359 4.0947s-5.3013 6.3863-5.9866 10.48c-0.6853 4.093 0.1114 8.297 2.2473 11.856 2.1358 3.56 5.471 6.242 9.4071 7.566 3.9362 1.325 8.2158 1.204 12.071-0.34 3.8553-1.543 7.0339-4.409 8.9657-8.083 1.9318-3.675 2.4903-7.916 1.5754-11.965zm-17.09 16.956c-2.7025-4e-3 -5.3381-0.84-7.5487-2.394-2.2105-1.553-3.8888-3.749-4.8068-6.289-0.9179-2.54-1.031-5.301-0.3238-7.908 0.7071-2.606 2.2002-4.932 4.2763-6.6607 2.0761-1.7288 4.6346-2.777 7.3277-3.002 2.6931-0.2251 5.3902 0.3839 7.7248 1.7442s4.1935 3.4055 5.3241 5.8585c1.1305 2.453 1.4779 5.195 0.9948 7.852-0.5531 3.031-2.153 5.772-4.5209 7.745-2.3678 1.974-5.3535 3.054-8.4368 3.054h-0.0107z" fill="#535461"/>
<path d="m67.331 108.89c-6e-4 0.909-0.0715 1.816-0.2122 2.714-1.4386-0.101-2.8771-0.248-4.3372-0.399 0.3205-1.763 0.2801-3.572-0.1187-5.319 1.4062-0.295 2.8411-0.579 4.2401-0.837 0.2843 1.261 0.4279 2.549 0.428 3.841z" fill="#000" opacity=".1"/>
<path d="m71.071 104.37v3.155h-3.1001v-2.67c1.0789-0.187 2.1183-0.352 3.1001-0.485z" fill="#000" opacity=".1"/>
<path d="m51.118 108.83s24.941-6.523 26.973-4.032c2.0319 2.49 4.1574 5.811-2.1326 7.001-6.2901 1.189-25.297-2.02-25.297-2.02l0.4568-0.949z" fill="#6C63FF"/>
<path d="m63.389 97.836-3.1684 2.8999c-0.5613-0.72-1.1965-1.3805-1.8953-1.9691l2.9598-3.0906c0.7628 0.6574 1.4668 1.3801 2.1039 2.1598z" fill="#000" opacity=".1"/>
<path d="m50.288 107.52 18.647-19.464 0.5934 4.5102-18.291 16.733-0.9494-1.779z" fill="#6C63FF"/>
<path d="m50.051 110.72c1.0507 0 1.9025-0.851 1.9025-1.901s-0.8518-1.901-1.9025-1.901-1.9025 0.851-1.9025 1.901 0.8518 1.901 1.9025 1.901z" fill="#000" opacity=".1"/>
<path d="m49.813 110.72c1.0507 0 1.9025-0.851 1.9025-1.901s-0.8518-1.901-1.9025-1.901-1.9024 0.851-1.9024 1.901 0.8517 1.901 1.9024 1.901z" fill="#535461"/>
<path d="m112.93 110.55c1.051 0 1.903-0.851 1.903-1.901s-0.852-1.901-1.903-1.901c-1.05 0-1.902 0.851-1.902 1.901s0.852 1.901 1.902 1.901z" fill="#000" opacity=".1"/>
<path d="m113.06 110.78c1.051 0 1.903-0.851 1.903-1.901s-0.852-1.901-1.903-1.901c-1.05 0-1.902 0.851-1.902 1.901s0.852 1.901 1.902 1.901z" fill="#535461"/>
<path d="m79.263 110.72c2.0995 0 3.8014-1.701 3.8014-3.799s-1.7019-3.799-3.8014-3.799c-2.0994 0-3.8014 1.701-3.8014 3.799s1.702 3.799 3.8014 3.799z" fill="#000" opacity=".1"/>
<path d="m79.502 110.72c2.0995 0 3.8014-1.701 3.8014-3.799s-1.7019-3.799-3.8014-3.799c-2.0994 0-3.8013 1.701-3.8013 3.799s1.7019 3.799 3.8013 3.799z" fill="#535461"/>
<path d="m79.899 106.85c-0.3342-0.447-0.9675-0.538-1.4145-0.204s-0.5383 0.967-0.2041 1.414l3.0153 4.029c0.3343 0.447 0.9676 0.538 1.4146 0.204 0.4469-0.334 0.5383-0.967 0.204-1.414l-3.0153-4.029z" fill="#6C63FF"/>
<path d="m96.663 54.188-0.3596 4.4635c-0.0402 0.5663-0.0318 1.135 0.0252 1.6999 0.0358 0.9272-0.1324 1.8509-0.4928 2.7061-0.6274 1.706-0.9512 3.5085-0.9566 5.326v5.0817l-3.413-0.593s0.1475-7.1193-0.4459-8.3053c-0.5935-1.1859 0.4459-11.712 0.4459-11.712l5.1968 1.3333z" fill="#DB8B8B"/>
<path d="m96.488 56.398-0.1798 2.2533c-0.0402 0.5651-0.0318 1.1326 0.0251 1.6963 0.0379 0.9281-0.1291 1.8533-0.4891 2.7097-0.6286 1.7058-0.9536 3.5083-0.9602 5.326v5.0817l-3.4129-0.593s0.1474-7.1193-0.446-8.3053c-0.4208-0.8409-0.0216-6.3682 0.2482-9.52 0.1115-1.2974 0.1978-2.1922 0.1978-2.1922l5.1931 1.3333-0.1762 2.2102z" fill="#000" opacity=".05"/>
<path d="m79.755 88.292-1.2839 7.3026c-0.1612 0.9784-0.4091 1.9406-0.7409 2.8751-0.7552 2.0558-0.2733 4.9378 0.0935 6.5088 0.1619 0.693 0.2949 1.132 0.2949 1.132l-3.8589 2.062-1.1868-0.891v-0.593l-0.1474-13.196c-0.8919-2.0772-0.5934-5.1894 0-6.3754 0.1709-0.3893 0.2917-0.7986 0.3596-1.2183 0.2045-1.2659 0.3342-2.5427 0.3884-3.8238 0 0 2.3736-4.0035 5.1932-1.3333 0.9354 0.9283 1.4786 2.18 1.5176 3.4968 0.059 1.3794-0.1549 2.757-0.6293 4.0538z" fill="#DB8B8B"/>
<path d="m80.373 84.23c-2.0572 1.2219-5.6391 1.5669-7.0993 1.6568 0.2046-1.2647 0.3343-2.5403 0.3884-3.8203 0 0 2.3736-4.0035 5.1932-1.3369 0.935 0.9301 1.4781 2.1827 1.5177 3.5004z" fill="#000" opacity=".1"/>
<path d="m85.386 80.58c-1.5781 0.8395-3.0694 1.8326-4.4523 2.9649-2.3736 1.9299-8.3112 2.0772-8.3112 2.0772v-2.2245c0.1511-2.6702-2.3736-5.6351-5.7865-13.937-2.1794-5.3044-1.5753-8.3053-0.8524-9.7895 0.1999-0.4494 0.49-0.8531 0.8524-1.1859l18.55 3.5614 0.6618 1.9874 1.4134 4.2478s-5.1932 0.2947-6.0815 0.7404c-0.8883 0.4456-0.2985 4.4491-0.2985 4.4491-0.8847 4.1544 4.3048 7.1085 4.3048 7.1085z" fill="#ABB1D1"/>
<path d="m96.669 54.188-0.1762 2.2102c-2.5822 0.7439-4.4236-1.6172-4.4236-1.6172-0.2701 0.0724-0.5355 0.1612-0.7948 0.2659 0.1115-1.2974 0.2014-2.1922 0.2014-2.1922l5.1932 1.3333z" fill="#000" opacity=".1"/>
<path d="m86.049 64.034c-0.0683 0.69-0.0683 1.1249-0.0683 1.1249s-3.4129 2.8175-9.1995-1.4807c-5.7865-4.2982-10.969-3.1158-10.969-3.1158s0.0612-0.3594 0.187-0.8913c0.1999-0.4494 0.49-0.8531 0.8524-1.1859l18.55 3.5614 0.6473 1.9874z" fill="#000" opacity=".1"/>
<path d="m98.664 48.401c-0.3884 3.0152-0.5179 6.8283-0.5179 6.8283-3.4129 2.6666-6.0814-0.7439-6.0814-0.7439-3.2367 0.8661-4.74 3.6836-5.4521 6.1454-0.3845 1.3295-0.5972 2.7027-0.633 4.0862-0.7548 0.5301-1.643 0.8388-2.5642 0.8912-1.5716 0.133-3.8229-0.2767-6.6352-2.3719-5.7866-4.3126-10.983-3.1158-10.983-3.1158s1.0393-5.9298 3.4129-7.7088c2.3736-1.7789 4.1574-4.0035 7.1244-10.824 2.967-6.8211 9.052-5.1895 9.052-5.1895s0.295-1.3369 5.7866 0c1.3379 0.3487 2.5764 1.0032 3.6179 1.9119 1.4367 1.2258 2.5437 2.7912 3.2202 4.5538 0.6765 1.7625 0.901 3.6662 0.6531 5.5376z" fill="#fff"/>
<path d="m93.145 39.727c0 0.1977-0.0252 0.4169-0.0504 0.6613-0.2985 2.6702-0.5934 2.3719-3.8589 2.9649-2.0319 0.3593-3.0857-1.3262-3.5963-2.6595-0.1843-0.4831-0.3227-0.9824-0.4136-1.4914l7.1208-1.1859s0.8739-0.2408 0.7984 1.7106z" fill="#DB8B8B"/>
<path d="m86.614 60.629c-0.3845 1.3295-0.5972 2.7027-0.6329 4.0861-0.7549 0.5302-1.6431 0.8389-2.5643 0.8913-0.0471-0.095-0.0833-0.1951-0.1078-0.2983-0.2949-1.3333-2.5175-3.7052-2.5175-3.7052-1.4853-1.3333-1.7802-3.7088-1.7802-3.7088l-2.4491-7.1876-0.8164-0.6649s3.413-2.6702 6.38-0.4456 2.0787 6.9684 2.0787 6.9684l0.5934 1.6316c0.7301 0.7101 1.3431 1.5312 1.8161 2.433z" fill="#000" opacity=".05"/>
<path d="m76.188 49.885 3.2619 7.8597s0.2985 2.3719 1.7982 3.7088c0 0 2.2225 2.3719 2.5174 3.7052s4.4523 4.8948 4.4523 4.8948 3.8589 3.5578 4.1538 4.8911c0 0 3.5604 1.0386 3.118 3.1159 0 0 2.6685-2.6702 0-5.1895-2.6685-2.5192-6.2324-7.7123-6.2324-7.7123s-2.0895-5.5021-4.0244-7.1157l-0.5862-1.6208s0.8883-4.7474-2.0787-6.9684-6.3799 0.4312-6.3799 0.4312z" fill="#DB8B8B"/>
<path d="m78.115 106.09-3.8589 2.088-1.1868-0.892v-0.592c1.333-0.094 2.6281-0.485 3.7906-1.143 0.3596-0.202 0.6941-0.399 0.9602-0.575 0.1583 0.686 0.2949 1.114 0.2949 1.114z" fill="#000" opacity=".1"/>
<path d="m82.567 43.654 2.0786 8.1579s-6.3835 1.0386-7.7177 0-3.8589-1.3369-3.8589-1.3369 2.6721-7.7087 4.1574-8.5999c1.4853-0.8913 5.3406 1.7789 5.3406 1.7789z" fill="#000" opacity=".1"/>
<path d="m82.567 43.359 2.0786 8.1544s-6.3835 1.0386-7.7177 0-3.8589-1.3333-3.8589-1.3333 2.6721-7.7124 4.1574-8.6c1.4853-0.8877 5.3406 1.7789 5.3406 1.7789z" fill="#fff"/>
<path d="m93.147 39.582c-0.4002 0.552-0.9053 1.0199-1.4865 1.3769-0.5811 0.3569-1.227 0.5959-1.9006 0.7034s-1.3618 0.0812-2.0253-0.0771c-0.6635-0.1584-1.2892-0.4459-1.8415-0.846-0.0863-0.0611-0.169-0.1258-0.2482-0.1905-0.1837-0.4833-0.3222-0.9825-0.4135-1.4914l7.1208-1.186s0.8703-0.2407 0.7948 1.7107z" fill="#000" opacity=".1"/>
<path d="m94.14 36.394c0 1.3763-0.5472 2.6963-1.5211 3.6695s-2.2948 1.52-3.6721 1.52-2.6982-0.5468-3.6721-1.52c-0.974-0.9732-1.5211-2.2932-1.5211-3.6695v-0.2588c0.0343-1.3763 0.6144-2.6826 1.6126-3.6316 0.4943-0.4698 1.0763-0.8378 1.7129-1.0829 0.6365-0.2451 1.3152-0.3625 1.9972-0.3455 0.6819 0.0169 1.3539 0.168 1.9774 0.4445 0.6236 0.2765 1.1866 0.673 1.6568 1.1669s0.8384 1.0755 1.0837 1.7116 0.3628 1.3143 0.3458 1.9958z" fill="#DB8B8B"/>
<path d="m94.143 36.394c3e-4 0.4775-0.0651 0.9527-0.1942 1.4124-0.402 0.0889-0.8216 0.0512-1.2012-0.1078-0.5539-0.2193-1.0286-0.593-1.5644-0.8626-1.4997-0.7619-3.2835-0.6109-4.945-0.3593-0.8272 0.1221-1.7623 0.2407-2.4096-0.2876l-0.0647-0.0539c0.0343-1.3763 0.6144-2.6826 1.6126-3.6316 0.9981-0.9489 2.3327-1.4628 3.71-1.4284 1.3773 0.0343 2.6845 0.6139 3.6342 1.6114 0.9496 0.9975 1.4638 2.3311 1.4295 3.7074h-0.0072z" fill="#000" opacity=".1"/>
<path d="m80.001 33.181c0.3165 0.9919 1.8342 1.0242 2.6146 1.7538 0.4064 0.3773 0.5934 0.9379 1.0394 1.2758 0.6185 0.4707 1.5104 0.3593 2.298 0.2551 1.5861-0.2228 3.2907-0.3594 4.7221 0.3235 0.5071 0.2408 0.9638 0.5822 1.4925 0.7762 0.2588 0.1166 0.5429 0.1658 0.8258 0.1432 0.283-0.0226 0.5556-0.1164 0.7926-0.2726 0.3596-0.2767 0.4675-0.7403 0.7804-1.0493 0.2733-0.2144 0.5591-0.4125 0.8559-0.593 0.6042-0.4564 0.8667-1.2004 1.0358-1.9119 0.3596-1.4663 0.4603-3.044-0.1475-4.4348s-2.0679-2.5157-3.6611-2.4474c-0.4855 0.0216-0.9638 0.1474-1.4385 0.2013-1.2696 0.1293-2.5175-0.2947-3.7978-0.3594-0.3664-0.0457-0.7383 0.0051-1.0789 0.1473-0.2588 0.1446-0.4824 0.3446-0.6546 0.5858-0.5828 0.7626-0.9816 1.6493-1.1652 2.5912-0.151 0.7187-0.1582 1.3548-1.0286 1.4626-1.007 0.1258-4.1538-0.5426-3.4849 1.5526z" fill="#472727"/>
<path d="m69.881 52.332s3.8589 1.0386 5.0349 3.7088 4.3983 3.1553 4.3983 3.1553" fill="#000" opacity=".05"/>
<path d="m84.426 111.06h-8.9046v2.818h8.9046v-2.818z" fill="#6C63FF"/>
<path d="m84.426 111.06h-8.9046v2.818h8.9046v-2.818z" fill="#000" opacity=".1"/>
<path d="m76.856 105.83c0.7948-0.442 1.496-0.888 1.5572-1.078 0 0 2.0104 2.12 3.8014 2.778 0.6021 0.222 1.1785 0.509 1.719 0.855 0.7193 0.442 1.7227 0.967 2.6398 0.967 0 0 2.0787 1.797-1.9277 2.077-4.0064 0.281-13.357-0.733-13.357-0.733l0.5934-3.705c1.7351 0.099 3.4619-0.304 4.9738-1.161z" fill="#ABB1D1"/>
</g>
<defs>
<clipPath id="a">
<rect width="162.99" height="160" fill="#fff"/>
</clipPath>
</defs>
</svg>
