<?xml version="1.0" encoding="UTF-8"?>
<svg fill="none" viewBox="0 0 647 562" xmlns="http://www.w3.org/2000/svg">
<path d="m625.93 0h-604.95c-2.7696 0.011829-5.5097 0.56939-8.0637 1.6408-2.554 1.0714-4.8718 2.6357-6.8208 4.6033-1.949 1.9677-3.491 4.3001-4.5378 6.864-1.0469 2.564-1.578 5.3091-1.5632 8.0784v425.39c-0.014863 2.77 0.51632 5.515 1.5632 8.079 1.0469 2.564 2.5889 4.896 4.5378 6.864 1.949 1.968 4.2668 3.532 6.8208 4.603 2.554 1.072 5.2941 1.629 8.0637 1.641h604.95c2.77-0.012 5.51-0.569 8.064-1.641 2.554-1.071 4.872-2.635 6.821-4.603s3.491-4.3 4.537-6.864c1.047-2.564 1.579-5.309 1.564-8.079v-425.39c0.015-2.7693-0.517-5.5144-1.564-8.0784-1.046-2.5639-2.588-4.8963-4.537-6.864-1.949-1.9676-4.267-3.5319-6.821-4.6033-2.554-1.0714-5.294-1.629-8.064-1.6408z" fill="url(#c)"/>
<path d="m644.18 45.067v396.43c0 5.517-2.192 10.808-6.094 14.709-3.902 3.902-9.194 6.093-14.711 6.093h-599.6c-5.5178 0-10.81-2.191-14.711-6.093-3.9017-3.901-6.0936-9.192-6.0936-14.709v-396.43h641.21z" fill="#F6F7F9"/>
<path d="m159.6 249.4v212.9h-135.83c-11.486 0-20.805-9.498-20.805-21.209v-191.69h156.63z" fill="#DDE1EC"/>
<path d="m467.16 93.604h-261.06v7.3385h261.06v-7.3385z" fill="#DDE1EC"/>
<path d="m363.55 145.81h-157.44v7.338h157.44v-7.338z" fill="#62BD69"/>
<path d="m451.66 145.81h-53.029v7.338h53.029v-7.338z" fill="#DDE1EC"/>
<g opacity=".1">
<path d="m104.13 328.93h-53.028v7.338h53.028v-7.338z" fill="#03C6AF" opacity=".1"/>
</g>
<path d="m451.66 214.33h-53.029v7.338h53.029v-7.338z" fill="#DDE1EC"/>
<path d="m451.66 282.85h-53.029v7.338h53.029v-7.338z" fill="#DDE1EC"/>
<path d="m451.66 168.65h-53.029v7.338h53.029v-7.338z" fill="#DDE1EC"/>
<path d="m543.03 168.65h-53.028v7.338h53.028v-7.338z" fill="#DDE1EC"/>
<path d="m451.66 191.48h-53.029v7.338h53.029v-7.338z" fill="#DDE1EC"/>
<path d="m543.03 191.48h-53.028v7.338h53.028v-7.338z" fill="#DDE1EC"/>
<path d="m543.03 233.9h-53.028v7.338h53.028v-7.338z" fill="#DDE1EC"/>
<path d="m543.03 256.74h-53.028v7.338h53.028v-7.338z" fill="#DDE1EC"/>
<path d="m543.03 305.69h-53.028v7.338h53.028v-7.338z" fill="#DDE1EC"/>
<path d="m363.55 168.65h-157.44v7.338h157.44v-7.338z" fill="#62BD69"/>
<path d="m363.55 191.48h-157.44v7.338h157.44v-7.338z" fill="#62BD69"/>
<path d="m363.55 214.33h-157.44v7.338h157.44v-7.338z" fill="#DDE1EC"/>
<path d="m363.55 237.17h-157.44v7.339h157.44v-7.339z" fill="#DDE1EC"/>
<path d="m363.55 260h-157.44v7.339h157.44v-7.339z" fill="#DDE1EC"/>
<path d="m363.55 282.85h-157.44v7.338h157.44v-7.338z" fill="#DDE1EC"/>
<path d="m363.55 305.69h-157.44v7.338h157.44v-7.338z" fill="#DDE1EC"/>
<path d="m159.6 44.661h-156.63v208.82h156.63v-208.82z" fill="#03C6AF"/>
<path d="m644.18 23.858c-2e-3 -5.5159-2.195-10.805-6.097-14.705-3.901-3.8996-9.192-6.0903-14.708-6.0903h-599.6c-5.5178 0-10.81 2.1917-14.711 6.093-3.9017 3.9012-6.0936 9.1924-6.0936 14.71v23.655h641.21v-23.663z" fill="#E8EAF1"/>
<path d="m28.264 33.244c4.5063 0 8.1593-3.6527 8.1593-8.1585 0-4.5059-3.653-8.1585-8.1593-8.1585s-8.1594 3.6526-8.1594 8.1585c0 4.5058 3.6531 8.1585 8.1594 8.1585z" fill="#FF5252"/>
<path d="m55.182 33.244c4.5063 0 8.1594-3.6527 8.1594-8.1585 0-4.5059-3.6531-8.1585-8.1594-8.1585s-8.1593 3.6526-8.1593 8.1585c0 4.5058 3.653 8.1585 8.1593 8.1585z" fill="#ff0"/>
<path d="m82.106 33.244c4.5062 0 8.1593-3.6527 8.1593-8.1585 0-4.5059-3.6531-8.1585-8.1593-8.1585-4.5063 0-8.1594 3.6526-8.1594 8.1585 0 4.5058 3.6531 8.1585 8.1594 8.1585z" fill="#69F0AE"/>
<path d="m126.98 149.07c0.014 10.461-3.58 20.608-10.177 28.728-0.248 0.308-0.497 0.609-0.753 0.911-0.05 0.051-0.095 0.106-0.135 0.165-2.337 2.705-4.982 5.127-7.881 7.218l-0.377 0.278c-0.519 0.369-1.046 0.753-1.58 1.069l-0.369 0.233-0.79 0.49c-0.117 0.073-0.238 0.141-0.362 0.203-0.098 0.07-0.201 0.133-0.308 0.188-1.159 0.677-2.356 1.302-3.583 1.874-0.136 0.075-0.286 0.135-0.429 0.203s-0.3088 0.151-0.4744 0.211-0.4893 0.218-0.7527 0.316c-2.6288 1.113-5.3587 1.97-8.1519 2.559-2.6623 0.57-5.3703 0.9-8.0916 0.986h-1.4904c-3.5912 0.012-7.1713-0.4-10.666-1.227l-0.6548-0.158c-1.5356-0.401-3.041-0.868-4.5163-1.4-0.8957-0.331-1.7839-0.692-2.6495-1.076-0.2183-0.098-0.4291-0.188-0.6474-0.294l-0.6548-0.293-0.5721-0.294-0.6021-0.308-0.6699-0.354-0.7527-0.429-0.1205-0.068c-3.2086-1.82-6.1857-4.021-8.8669-6.555-0.2258-0.218-0.4592-0.429-0.6774-0.662-0.2183-0.234-0.4743-0.467-0.7001-0.708-5.2141-5.369-9.0291-11.937-11.109-19.126-2.0802-7.189-2.3619-14.779-0.8203-22.102 1.5415-7.324 4.8591-14.156 9.6609-19.897s10.941-10.214 17.877-13.026c6.9362-2.812 14.457-3.876 21.902-3.1 7.4444 0.776 14.584 3.369 20.791 7.551 6.206 4.182 11.291 9.825 14.805 16.433 3.514 6.607 5.351 13.977 5.349 21.461z" fill="#fff"/>
<path d="m106.99 167.37v0.06l0.052 0.052c-0.015-0.045-0.037-0.075-0.052-0.112zm-46.036 22.578c-0.0753-1.053-0.1506-2.002-0.2183-2.814-0.0527-0.572-0.1054-1.084-0.1505-1.506-0.0045-0.019-0.0045-0.04 0-0.06v-0.301c-0.7255 1.107-1.3215 2.294-1.7764 3.537l0.1204 0.068 0.7527 0.429 0.6699 0.354 0.6022 0.308c0 0.337 0.0251 0.688 0.0753 1.054-0.0377-0.361-0.0527-0.707-0.0753-1.046v-0.023zm10.019-43.027 0.0376 0.067c0.0027 0.018 0.0027 0.036 0 0.053-0.0066-0.035-0.0193-0.068-0.0376-0.098v-0.022z" fill="url(#b)"/>
<path d="m84.078 139.24s-2.7173 12.208 4.7496 18.658-17.636 11.5-22.062 6.104c-4.426-5.397 3.071-8.151 3.071-8.151s3.7636-3.056 0-12.208l14.241-4.403z" fill="#E0A17E"/>
<path d="m90.852 193.73c-2.6623 0.57-5.3704 0.9-8.0916 0.986h-1.4904c-3.5893 7e-3 -7.1668-0.41-10.658-1.242l-0.6548-0.158c-1.5356-0.401-3.041-0.868-4.5163-1.4l-0.7527-11.289 3.2667-15.632 1.9195-9.212 0.5419-2.574 0.5495 0.752 0.1204 0.166 0.1506 0.196 6.0217 8.015 6.1647-6.638 0.3161-0.346 1.6936-1.829 0.6398-0.685 0.3011 2.326 1.0839 8.361 2.0097 15.422 1.385 14.781z" fill="#F0F1F5"/>
<path d="m107.65 186.37c-0.52 0.369-1.047 0.752-1.581 1.069l-0.369 0.233-0.79 0.489c-0.117 0.074-0.238 0.142-0.361 0.203-0.099 0.071-0.202 0.133-0.309 0.188-1.658-1.414-2.904-3.25-3.606-5.313-0.088-0.262-0.163-0.528-0.225-0.798-4e-3 -0.043-4e-3 -0.085 0-0.128l-0.4294 1.129-1.3173 3.259s0.3914 1.596 1.0914 4.124c-0.2458 0.116-0.4967 0.221-0.7527 0.316-2.6288 1.113-5.3587 1.97-8.1518 2.559-2.6623 0.57-5.3704 0.9-8.0916 0.986h-0.414c-0.3806-3.498-0.5139-7.019-0.399-10.536l0.9936-18.944 0.5043-9.559 0.2785-5.268s0.0979 0.105 0.2861 0.279c0.1881 0.173 0.3161 0.301 0.5419 0.504 3.3596 2.935 7.5916 4.683 12.043 4.975 1.2294 0.035 2.4341 0.354 3.5206 0.931 1.086 0.577 2.024 1.396 2.742 2.395 1.36 1.934 2.235 4.167 2.552 6.511l0.225 2.069 0.061 0.587 0.082 0.753 1.875 16.987z" fill="#000" opacity=".1"/>
<path d="m108.03 186.1-0.376 0.278c-0.52 0.369-1.046 0.753-1.581 1.069l-0.369 0.233-0.79 0.489c-1.77-1.422-3.118-3.301-3.899-5.434-0.036-0.088-0.067-0.178-0.09-0.271-0.083-0.263-0.159-0.541-0.219-0.812l-0.308 0.805-0.4219 1.091-0.9634 2.514s0.4441 1.806 1.2273 4.591c-0.158 0.075-0.309 0.151-0.4746 0.211s-0.4893 0.218-0.7527 0.316c-2.6288 1.113-5.3587 1.97-8.1519 2.559-2.6623 0.57-5.3703 0.9-8.0916 0.986-0.4392-3.726-0.5977-7.48-0.4742-11.229l0.9635-18.357 0.5118-9.784 0.2484-4.614 0.0452-0.956c0.04 0.046 0.0827 0.088 0.1279 0.128 3.4676 3.329 7.9996 5.325 12.796 5.637 1.2122 0.035 2.4005 0.346 3.4751 0.908 1.075 0.562 2.007 1.361 2.727 2.336 1.398 1.951 2.298 4.215 2.62 6.593l0.399 3.711v0.052l0.082 0.753 1.739 16.197z" fill="#62BD69"/>
<path d="m71.432 152.08v0.459l-0.1204 1.746-0.4215 5.976s-0.2484 1.723-0.4291 5.607c-0.2634 5.118-0.4215 13.984 0.1882 27.621l-0.6548-0.158c-1.5356-0.401-3.041-0.868-4.5163-1.4-0.8957-0.331-1.7839-0.692-2.6495-1.076-0.2183-0.098-0.4291-0.188-0.6474-0.293-0.2182-3.011-0.4817-4.855-0.4817-4.855s-0.2032 0.256-0.5118 0.753c-0.128 0.203-0.2861 0.451-0.4517 0.752l-0.0376 0.068c-0.1455 0.251-0.3011 0.537-0.4667 0.858-0.1882 0.377-0.3763 0.753-0.557 1.227l-0.7527-0.429-0.1204-0.068c-3.2086-1.82-6.1857-4.021-8.8669-6.555 1.2118-4.268 2.2581-8.558 2.6344-9.107 1.4036-2.156 2.4816-4.507 3.1991-6.977 0.5013-1.678 1.3691-3.223 2.5406-4.525 1.1716-1.301 2.6176-2.326 4.2337-3.001 3.3771-1.583 6.3966-3.836 8.8745-6.623h0.015z" fill="#000" opacity=".1"/>
<path d="m71.44 151.87c-2.9133 2.466-6.1592 4.511-9.6422 6.074-1.6161 0.674-3.0621 1.699-4.2337 3.001-1.1715 1.302-2.0393 2.847-2.5407 4.525-0.7175 2.47-1.7954 4.821-3.199 6.977-0.3688 0.549-1.4226 4.847-2.6345 9.122 0.2183 0.225 0.4517 0.444 0.6775 0.662 2.6812 2.534 5.6583 4.735 8.8669 6.555l0.1204 0.068c0.4392-1.119 0.9942-2.188 1.656-3.191l0.0376-0.06c0.2635-0.392 0.4291-0.602 0.4291-0.602s0.0677 0.496 0.1656 1.392c0.0978 0.896 0.2258 2.258 0.3462 3.838l0.6549 0.294c0.2107 0.105 0.4215 0.196 0.6473 0.293 0.8656 0.384 1.7538 0.753 2.6495 1.077 1.4603 0.537 2.9657 1.003 4.5163 1.4-0.6172-13.503-0.4817-22.399-0.2333-27.644 0.1957-4.23 0.4591-6.104 0.4591-6.104l0.956-5.495 0.271-1.55 0.1279-0.753-0.0979 0.121z" fill="#62BD69"/>
<path d="m76.28 151.11c-1.6924 2e-3 -3.363-0.382-4.8851-1.121-0.2629-1.951-0.787-3.857-1.5581-5.668l14.241-4.403c-0.5191 2.729-0.6181 5.521-0.2936 8.279-2.0517 1.871-4.7276 2.91-7.5045 2.913z" fill="#000" opacity=".1"/>
<path d="m76.28 150.44c6.1816 0 11.193-5.01 11.193-11.191s-5.0112-11.192-11.193-11.192-11.193 5.011-11.193 11.192 5.0112 11.191 11.193 11.191z" fill="#E0A17E"/>
<g opacity=".1">
<path d="m99.027 191.18c-0.8806-3.093-1.3699-5.125-1.3699-5.125l1.6936-4.41c0.1326 0.62 0.3267 1.225 0.5796 1.806l0.0376 0.098-0.9635 2.514s0.4441 1.806 1.2265 4.591c-0.158 0.075-0.3082 0.15-0.4738 0.21-0.1656 0.061-0.4892 0.219-0.7301 0.316z" fill="#000" opacity=".1"/>
</g>
<path d="m112.24 170.1s-1.016-9.837 0-14.586-11.87 0.678-9.161 7.12c1.45 3.572 3.269 6.982 5.428 10.176l3.733-2.71z" fill="#E0A17E"/>
<path d="m115.91 178.88c-2.337 2.705-4.982 5.127-7.881 7.218l-0.376 0.279c-0.519 0.368-1.046 0.752-1.581 1.068-1.213-1.439-2.296-2.983-3.236-4.613l-0.098-0.173 2.717-14.248 0.286 0.294c0.121 0.113 0.279 0.263 0.467 0.414h0.037c1.408 1.204 4.381 3.01 5.811-1.189 0.242-0.736 0.416-1.491 0.52-2.258l0.278 1.038 0.166 0.61 3.011 11.357-0.121 0.203z" fill="#000" opacity=".1"/>
<path d="m115.86 178.98c-2.337 2.705-4.982 5.127-7.881 7.218l-0.376 0.278c-0.519 0.369-1.046 0.753-1.581 1.069l-0.368 0.233c-1.104-1.368-2.096-2.823-2.966-4.35l0.098-0.504 2.619-13.743s0.136 0.158 0.369 0.376l0.467 0.414c0.195 0.166 0.421 0.346 0.67 0.512 1.558 1.069 3.929 1.874 5.133-1.882 0.222-0.697 0.383-1.412 0.482-2.137l0.346 1.279 2.988 11.237z" fill="#62BD69"/>
<path d="m113.45 199.08c-2.337 2.705-4.982 5.127-7.881 7.218l-0.376 0.279c-0.519 0.368-1.046 0.752-1.581 1.068l-0.369 0.234c-1.103-1.369-2.095-2.823-2.965-4.351l0.098-0.504 2.619-13.743s0.136 0.158 0.369 0.376l0.467 0.414c0.195 0.166 0.421 0.347 0.669 0.512 1.559 1.069 3.93 1.874 5.134-1.881 0.222-0.698 0.383-1.413 0.482-2.138l0.346 1.28 2.988 11.236z" fill="#62BD69" opacity=".02"/>
<path d="m60.586 185.64-0.0376 0.06v-0.113c0.4742-1.648 0.9032-2.762 1.2871-3.093 0 0 0.5043 3.349 0.9559 8.369-0.2182-0.098-0.429-0.188-0.6473-0.294l-0.6549-0.293c-0.1129-1.618-0.2333-2.935-0.3462-3.838-0.1129-0.904-0.1656-1.393-0.1656-1.393s-0.128 0.203-0.3914 0.595z" fill="#000" opacity=".1"/>
<path d="m76.415 136.16c0.5852-0.321 1.259-0.442 1.9194-0.346 0.2853 0.12 0.5419 0.3 0.7527 0.527 0.8807 0.835 1.7538 1.806 2.9431 2.062 0.7345 0.112 1.4837 0.078 2.2054-0.098 1.2664-0.146 2.4956-0.521 3.6281-1.106 2.5216-1.505 3.327-4.764 3.4851-7.692 0.0526-0.986-0.1506-2.258-1.1216-2.469-1.2344-0.263-2.1377 1.611-3.3872 1.408-0.3798-0.092-0.7217-0.3-0.9785-0.595-0.8506-0.85-1.4302-1.942-2.2581-2.8-1.3238-1.237-3.0387-1.971-4.8475-2.077-1.7941-0.097-3.5926 0.073-5.3367 0.504-0.9617 0.159-1.8902 0.477-2.7474 0.941-0.4245 0.232-0.7928 0.555-1.079 0.945-0.2861 0.39-0.4831 0.838-0.577 1.313-0.0828 0.655 0.0904 1.332-0.0376 1.98-0.1265 0.437-0.3415 0.843-0.6315 1.194s-0.6489 0.639-1.0545 0.845c-0.7528 0.467-1.641 0.753-2.3786 1.325-1.1724 0.91-1.9854 2.206-2.2958 3.658-0.301 1.443-0.3418 2.929-0.1204 4.387 0.3089 2.534 1.0151 5.002 2.0925 7.316 0.3561 0.807 0.814 1.566 1.3624 2.258 0.805 0.878 1.7299 1.638 2.7474 2.258 0.1843 0.167 0.4036 0.291 0.6419 0.362 0.2383 0.072 0.4896 0.09 0.7356 0.052 0.1409-0.051 0.2712-0.128 0.3839-0.226 0.9634-0.805 1.0538-2.258 0.7527-3.485s-0.813-2.393-0.8732-3.643c-0.0384-0.35 0.0298-0.704 0.1957-1.016 0.2008-0.251 0.4279-0.481 0.6775-0.684 0.326-0.375 0.581-0.806 0.7527-1.272 0.5758-1.152 0.9694-2.386 1.1667-3.658 0.109-1.048-0.1205-2.103-0.6549-3.011 0.517 0.486 1.157 0.822 1.8509 0.97 0.6938 0.149 1.4151 0.105 2.0858-0.127z" fill="#000" opacity=".1"/>
<path d="m76.415 135.77c0.5852-0.321 1.259-0.443 1.9194-0.346 0.2853 0.12 0.5419 0.3 0.7527 0.526 0.8807 0.836 1.7538 1.807 2.9431 2.063 0.7345 0.111 1.4837 0.078 2.2054-0.098 1.2664-0.146 2.4956-0.521 3.6281-1.107 2.5216-1.505 3.327-4.764 3.4851-7.691 0.0526-0.986-0.1506-2.258-1.1216-2.469-1.2344-0.263-2.1377 1.611-3.3872 1.407-0.3798-0.092-0.7217-0.3-0.9785-0.594-0.8506-0.851-1.4302-1.942-2.2581-2.8-1.3238-1.237-3.0387-1.972-4.8475-2.077-1.7941-0.098-3.5926 0.072-5.3367 0.504-0.9617 0.159-1.8902 0.477-2.7474 0.941-0.4245 0.232-0.7928 0.555-1.079 0.945-0.2861 0.39-0.4831 0.838-0.577 1.313-0.0828 0.655 0.0904 1.332-0.0376 1.979-0.1265 0.437-0.3415 0.844-0.6315 1.195s-0.6489 0.638-1.0545 0.845c-0.7528 0.466-1.641 0.752-2.3786 1.324-1.1724 0.911-1.9854 2.207-2.2958 3.658-0.301 1.444-0.3418 2.93-0.1204 4.388 0.3089 2.533 1.0151 5.002 2.0925 7.316 0.3561 0.807 0.814 1.566 1.3624 2.257 0.805 0.879 1.7299 1.639 2.7474 2.258 0.1843 0.168 0.4036 0.291 0.6419 0.363s0.4896 0.089 0.7356 0.051c0.1409-0.05 0.2712-0.127 0.3839-0.226 0.9634-0.805 1.0538-2.257 0.7527-3.484s-0.813-2.394-0.8732-3.643c-0.0384-0.351 0.0298-0.705 0.1957-1.016 0.2008-0.252 0.4279-0.481 0.6775-0.685 0.326-0.375 0.581-0.806 0.7527-1.272 0.5758-1.151 0.9694-2.385 1.1667-3.658 0.109-1.047-0.1205-2.102-0.6549-3.01 0.517 0.486 1.157 0.821 1.8509 0.97 0.6938 0.149 1.4151 0.105 2.0858-0.127z" fill="#463E3B"/>
<path d="m31.253 420.6c-0.7527 9.258-3.9969 38.008-13.714 41.252h-13.872c0.44409 0.986 0.71507 1.55 0.71507 1.55h15.483c11.599-3.876 13.925-44.134 13.925-44.134-0.8224 0.487-1.669 0.932-2.5366 1.332z" fill="#000" opacity=".05"/>
<path d="m363.55 355.85h-157.44v91.362h157.44v-91.362z" fill="#DDE1EC"/>
<path d="m622.14 175.52c0.02-0.296 0.02-0.592 0-0.888-0.271-3.673-3.764-6.33-7.226-7.745-3.463-1.415-7.332-2.107-10.395-4.252-5.179-3.628-6.775-10.409-7.241-16.611-0.143-1.926-0.204-3.853-0.211-5.787-8e-3 -1.935 0.12-4.072 0.301-6.104 0.301-3.372 0.798-6.864 0.753-10.243 0.175-3.225-0.445-6.443-1.807-9.371-3.071-6.066-9.966-9.167-16.349-11.808-2.454-1.016-4.968-2.048-7.632-2.16-2.815-0.121-5.555 0.79-8.22 1.693-4.23 1.43-8.52 3.289-12.894 4.26-2.454 0.542-5.141 0.135-7.527 1.001-4.682 1.716-5.683 5.923-5.608 10.537v0.873c-0.466-0.429-0.948-0.836-1.437-1.227l-0.286-0.226c-0.502-0.406-1.036-0.79-1.604-1.151l-0.27-0.174c-1.151-0.745-2.356-1.402-3.606-1.964l-0.188-0.083c-0.627-0.276-1.265-0.527-1.912-0.752l-0.12-0.045c-1.34-0.467-2.714-0.83-4.11-1.084-4.398-0.815-8.929-0.54-13.196 0.801-4.268 1.341-8.141 3.707-11.282 6.891l-5.171 5.268c-23.508-5.268-24.561 15.15-24.561 15.15l0.173-0.037-0.06 0.143c0.535 2.584 1.211 5.136 2.024 7.647l-181.53 185.4-18.351 56.868 10.305-3.673 47.074-16.813 168.56-172.17c12.616 8.964 25.728 20.976 25.728 20.976s-8.13 4.298-5.119 23.986c3.681 24.085-1.851 58.367-1.851 58.367v22.172l1.038-0.286c-0.128 0.753-0.263 1.505-0.391 2.371-1.714 11.14-1.932 22.46-0.647 33.658 2.785 23.527 13.91 55.649 13.91 55.649s4.17 11.289 5.103 20.359c0.147 1.791 0.547 3.552 1.189 5.23 2.093 4.976 3.198 10.311 3.252 15.708 0 9.844 1.287 24.618 7.151 39.693 4.704 12.103 6.443 19.192 6.962 23.332-3.334 4.41-7.692 9.22-11.132 9.701-6.489 0.903-19.014 1.807-10.666 12.667 0.291 0.373 0.616 0.718 0.971 1.031-6.338 1.024-13.308 3.282-6.534 12.087 8.348 10.861 57.5 5.886 57.5 5.886s0.316-6.021 0-12.659c3.447-0.241 5.577-0.459 5.577-0.459s1.393-26.245-4.636-29.413c-1.115 0.121-2.208 0.39-3.252 0.798-0.647-3.628-1.144-8.136-1.453-11.478l2.386-0.181v-39.362s-2.785-24.43-12.984-35.291c-1.3-1.356-2.421-2.874-3.334-4.516 0.075-3.138 0.082-7.526 0.045-12.591 0.405-0.685 0.888-1.321 1.438-1.897 0 0 5.562-6.773 24.575-49.771 11.216-25.356 8.717-39.995 4.78-47.747-0.753-2.755-2.71-10.62-5.269-25.1-3.244-18.552 0.467-36.653 0.467-36.653s12.043-31.219 17.621-43.886c1.291-3.051 1.828-6.369 1.565-9.671 1.453-1.061 2.153-2.83 2.778-4.516l5.713-15.241c0.617-1.648 1.25-3.364 1.114-5.118l8e-3 8e-3zm-77.59-27.441c0.621 0.968 1.313 1.889 2.07 2.755 0 0-0.85-0.888-2.258-2.318 0.068-0.143 0.128-0.294 0.188-0.437zm-28.091 31.287 15.724-16.061c5.435 4.967 11.253 10.04 16.116 14.217-0.463 2.14-1.077 4.245-1.837 6.299-2.107 1.047-4.892 1.385-8.28-0.459-5.366-2.897-15.272-3.755-21.723-3.996z" fill="url(#a)"/>
<path d="m503.8 120.1s-11.66 6.728-8.07 16.181c0 0 12.112 3.59 17.042 12.562 4.93 8.971 43.062 41.259 43.062 41.259l27.805-13.931s-9.672-12.916-40.27-21.932c0 0-18.065-19.335-24.32-22.918-6.255-3.582-15.249-11.221-15.249-11.221z" fill="#FEBDD5"/>
<path d="m503.8 120.1s-11.66 6.728-8.07 16.181c0 0 12.112 3.59 17.042 12.562 4.93 8.971 43.062 41.259 43.062 41.259l27.805-13.931s-9.672-12.916-40.27-21.932c0 0-18.065-19.335-24.32-22.918-6.255-3.582-15.249-11.221-15.249-11.221z" fill="#000" opacity=".05"/>
<path d="m296.06 335.25 202.31-211.77c4.782-4.998 11.352-7.894 18.267-8.052 6.916-0.158 13.611 2.435 18.616 7.209 4.999 4.781 7.895 11.35 8.053 18.265s-2.435 13.609-7.21 18.614l-202.28 211.8-55.505 20.321 17.749-56.387z" fill="#03C6AF"/>
<path d="m524.22 118.88c4.999 4.781 7.895 11.35 8.053 18.265s-2.435 13.61-7.21 18.614l-202.31 211.77-41.67 15.241-2.815 8.851 55.505-20.321 202.34-211.69c4.775-5.004 7.368-11.699 7.21-18.614s-3.054-13.484-8.053-18.265c-4.168-3.993-9.546-6.485-15.287-7.082 1.518 0.932 2.938 2.016 4.237 3.236z" fill="#fff" opacity=".1"/>
<path d="m296.06 335.26 37.756 36.058-45.539 16.663-9.966 3.643 6.315-20.042 11.434-36.322z" fill="#EFC8C4"/>
<path d="m284.62 371.57c1.381 0.268 2.7 0.797 3.884 1.558 1.37 0.986 2.363 2.694 1.987 4.335-0.371 1.022-0.899 1.979-1.566 2.837-0.68 1.148-1.092 2.435-1.206 3.764-0.113 1.329 0.075 2.667 0.551 3.913l-9.996 3.643 6.346-20.05z" fill="#727A9C"/>
<path d="m576.47 502.66s1.348 19.734 3.591 21.977-20.188 3.59-20.188 3.59l3.139-25.589 13.458 0.022z" fill="#FFB9B9"/>
<path d="m576.47 502.66s1.348 19.734 3.591 21.977-20.188 3.59-20.188 3.59l3.139-25.589 13.458 0.022z" fill="#000" opacity=".05"/>
<path d="m581.4 517.91s-3.139 0-14.355 5.833c0 0-7.624-1.348-10.763-12.11 0 0-9.417 16.144-15.702 17.039-6.285 0.896-18.388 1.792-10.319 12.562s55.617 5.833 55.617 5.833 1.355-26.019-4.478-29.157z" fill="#CBCDDA"/>
<path d="m581.4 517.91s-3.139 0-14.355 5.833c0 0-7.624-1.348-10.763-12.11 0 0-9.417 16.144-15.702 17.039-6.285 0.896-18.388 1.792-10.319 12.562s55.617 5.833 55.617 5.833 1.355-26.019-4.478-29.157z" fill="#000" opacity=".05"/>
<path d="m574.67 533.16-3.139 8.52-20.632-5.833 1.175-8.46 0.286-2.04 0.752-5.644s17.493-4.516 17.493-2.258c0.237 1.849 0.622 3.676 1.152 5.464 0.753 2.755 1.618 5.901 2.258 7.97 0.392 1.385 0.655 2.281 0.655 2.281z" fill="#FFB9B9"/>
<path d="m563.42 416.19c-1.416 2.394-3.011 6.879-0.038 12.479 0.88 1.621 1.962 3.123 3.221 4.47 9.868 10.763 12.563 34.983 12.563 34.983v39.016l-6.729 0.519-10.764 0.828-16.183-66.367s-9.416-48.439-4.93-56.959c4.486-8.519 8.52-61.888 8.52-61.888l3.726-3.854 8.837-9.152h25.592c2.046 1.467 3.745 3.366 4.976 5.562 4.29 7.105 8.144 21.879-3.628 49.154-18.389 42.607-23.771 49.335-23.771 49.335-0.533 0.57-1.001 1.199-1.392 1.874z" fill="#4C4C78"/>
<path d="m563.42 416.19c-1.416 2.394-3.011 6.879-0.038 12.479 0.88 1.621 1.962 3.123 3.221 4.47 9.868 10.763 12.563 34.983 12.563 34.983v39.016l-6.729 0.519-10.764 0.828-16.183-66.367s-9.416-48.439-4.93-56.959c4.486-8.519 8.52-61.888 8.52-61.888l3.726-3.854 8.837-9.152h25.592c2.046 1.467 3.745 3.366 4.976 5.562 4.29 7.105 8.144 21.879-3.628 49.154-18.389 42.607-23.771 49.335-23.771 49.335-0.533 0.57-1.001 1.199-1.392 1.874z" fill="#58595B" opacity=".05"/>
<path d="m571.79 522.92-19.428 2.423 0.753-5.644s17.493-4.516 17.493-2.258c0.246 1.855 0.641 3.687 1.182 5.479z" fill="#000" opacity=".1"/>
<path d="m562.12 358.7s1.114 35.306 1.303 57.494c0.037 5.02 0 9.37-0.038 12.478 0.027 1.648-0.094 3.296-0.361 4.922-1.348 4.034 1.347 13.006 1.347 13.006 11.215 29.601 8.077 55.612 8.077 55.612v19.733l-21.543 2.695s3.59-2.695-6.278-28.705c-5.667-14.948-6.894-29.586-6.917-39.348-0.052-5.341-1.12-10.623-3.146-15.564-0.61-1.671-0.985-3.419-1.114-5.193-0.896-8.972-4.93-20.186-4.93-20.186s-10.764-31.844-13.459-55.168c-1.243-11.101-1.033-22.317 0.625-33.364 0.397-2.808 0.937-5.593 1.618-8.346 0 0 43.845-27.592 60.405-8.52 1.603 1.863 2.875 3.986 3.764 6.277 0.909 2.261 1.616 4.599 2.115 6.984 5.088 25.334-21.468 35.193-21.468 35.193z" fill="#4C4C78"/>
<path d="m560.77 162.26c12.633 0 22.875-10.24 22.875-22.872s-10.242-22.872-22.875-22.872c-12.634 0-22.875 10.24-22.875 22.872s10.241 22.872 22.875 22.872z" fill="#FFB9B9"/>
<path d="m548.21 153.73s9.417 26.463 0 40.364c-9.416 13.901 30.048 9.415 30.048 9.415l15.25-18.387s-17.944 0-18.817-31.392c-0.874-31.392-26.481 0-26.481 0z" fill="#FFB9B9"/>
<path d="m593.51 321.02c-3.252 1.126-6.597 1.964-9.996 2.506-5.585 0.858-12.172 0.896-16.025-2.506-2.259-2.017-7.911-2.258-14.671-1.618-14.233 1.362-33.503 6.675-37.191 7.722 0.397-2.808 0.937-5.594 1.618-8.347 0 0 43.846-27.592 60.405-8.52h9.567c2.046 1.467 3.744 3.366 4.976 5.562 0.835 3.568 1.317 5.201 1.317 5.201z" fill="#000" opacity=".1"/>
<path d="m574.67 533.16-3.139 8.52-20.632-5.833 1.175-8.46c3.545 7.843 9.589 8.904 9.589 8.904 6.519-3.387 10.312-4.809 12.345-5.404 0.399 1.377 0.662 2.273 0.662 2.273z" fill="#000" opacity=".1"/>
<path d="m576.02 530.91s-3.139 0-14.354 5.833c0 0-7.625-1.347-10.764-12.11 0 0-9.416 16.144-15.702 17.04-6.285 0.895-18.388 1.776-10.312 12.561 8.077 10.785 55.618 5.833 55.618 5.833s1.347-26.019-4.486-29.157z" fill="#CBCDDA"/>
<path d="m469.61 143.77s1.017-20.238 23.756-15.015l-5.834 10.936-17.922 4.079z" fill="#FFB9B9"/>
<path d="m575.6 190.51s-21.979-3.59-27.812-8.076c0 0-4.517 8.52-12.563 4.034-8.047-4.485-26.91-4.034-26.91-4.034s-15.701-8.519-18.817-27.809c0 0-3.139-11.659-2.258-14.797 0 0-11.66-12.11-17.493 4.034 2.258 11.214 4.034 10.319 3.59 19.282l7.173 19.734s0.452 6.729 13.459 15.7c13.007 8.972 27.812 22.873 27.812 22.873s-7.85 4.26-4.93 23.768c3.561 23.843-1.791 57.854-1.791 57.854v21.977s44.854-13.005 52.479-6.277c7.625 6.729 26.013 0 26.013 0s-2.258-7.624-5.382-26.011c-3.123-18.386 0.452-36.329 0.452-36.329s11.66-30.948 17.041-43.502c5.382-12.554-4.034-29.601-13.458-35.878s-12.924-2.506-12.924-2.506 16.477 11.929-3.681 15.963z" fill="#575988"/>
<path d="m536.03 133.79c-6e-3 0.933 0.152 1.861 0.467 2.739 0.523 0.999 1.236 1.887 2.1 2.612 3.357 3.281 6.308 7.18 7.49 11.726 0.798 3.078 0.752 6.299 0.707 9.483-0.196 12.877-0.753 26.778-8.686 36.879-2.921 3.725-6.684 6.683-10.214 9.836-0.496 0.371-0.869 0.883-1.069 1.468-0.098 0.613 0.019 1.24 0.331 1.776 1.641 3.41 5.096 5.502 8.37 7.399 1.506 0.865 3.071 1.761 4.802 1.814 4.08 0.135 6.775-4.178 10.486-5.871 5.404-2.469 11.463 0.963 16.83 3.522 3.884 1.849 7.958 3.27 12.149 4.238 5.743 1.324 12.232 1.648 17.064-1.716 2.794-1.968 4.702-4.955 5.314-8.317 0.391-2.19 0.331-4.734 1.987-6.217 0.858-0.752 2.025-1.083 2.943-1.761 1.438-1.053 2.115-2.822 2.725-4.516l5.525-15.105c0.712-1.596 1.079-3.325 1.076-5.073-0.263-3.635-3.62-6.276-6.985-7.676-3.364-1.4-7.09-2.085-10.056-4.215-5.006-3.598-6.556-10.319-7.008-16.468-0.308-4.223-0.278-8.463 0.091-12.681 0.549-6.255 1.768-12.923-1.017-18.553-2.973-6.021-9.642-9.084-15.806-11.703-2.371-1.009-4.81-2.025-7.385-2.138-2.724-0.12-5.374 0.753-7.948 1.679-4.095 1.422-8.28 3.259-12.473 4.222-2.371 0.542-4.975 0.136-7.263 0.994-8.408 3.161-4.547 14.856-4.547 21.623z" fill="#000" opacity=".1"/>
<path d="m536.03 132.89c-7e-3 0.934 0.151 1.861 0.466 2.74 0.523 0.999 1.237 1.886 2.1 2.612 3.357 3.281 6.308 7.18 7.49 11.726 0.798 3.078 0.753 6.299 0.707 9.483-0.195 12.877-0.752 26.778-8.686 36.878-2.92 3.726-6.684 6.684-10.214 9.837-0.494 0.362-0.869 0.862-1.077 1.438-0.097 0.612 0.02 1.24 0.332 1.776 1.641 3.409 5.096 5.502 8.37 7.398 1.505 0.866 3.071 1.762 4.802 1.814 4.08 0.136 6.774-4.177 10.485-5.87 5.405-2.469 11.464 0.963 16.831 3.522 3.884 1.849 7.957 3.27 12.149 4.237 5.743 1.325 12.231 1.649 17.064-1.716 2.793-1.968 4.702-4.954 5.314-8.316 0.391-2.19 0.331-4.734 1.987-6.217 0.858-0.753 2.025-1.084 2.943-1.761 1.438-1.054 2.115-2.822 2.725-4.516l5.525-15.105c0.712-1.596 1.078-3.325 1.076-5.073-0.263-3.635-3.62-6.277-6.985-7.677s-7.091-2.084-10.056-4.214c-5.006-3.598-6.556-10.319-7.008-16.468-0.309-4.223-0.278-8.464 0.09-12.682 0.55-6.254 1.769-12.922-1.016-18.552-2.973-6.021-9.642-9.084-15.807-11.703-2.371-1.009-4.81-2.025-7.384-2.138-2.725-0.12-5.374 0.753-7.948 1.679-4.095 1.422-8.28 3.258-12.473 4.222-2.371 0.542-4.975 0.135-7.263 0.993-8.401 3.214-4.539 14.887-4.539 21.653z" fill="#B96B6B"/>
<path d="m517.95 255.29s3.576-0.851 21.52-3.56c17.945-2.71 49.34 3.59 49.34 3.59" fill="#000" opacity=".05"/>
<defs>
<linearGradient id="c" x1="323.46" x2="323.46" y1="467.76" gradientUnits="userSpaceOnUse">
<stop stop-color="#808080" stop-opacity=".25" offset="0"/>
<stop stop-color="#808080" stop-opacity=".12" offset=".54"/>
<stop stop-color="#808080" stop-opacity=".1" offset="1"/>
</linearGradient>
<linearGradient id="b" x1="-15924" x2="-15924" y1="13585" y2="11000" gradientUnits="userSpaceOnUse">
<stop stop-color="#808080" stop-opacity=".25" offset="0"/>
<stop stop-color="#808080" stop-opacity=".12" offset=".54"/>
<stop stop-color="#808080" stop-opacity=".1" offset="1"/>
</linearGradient>
<linearGradient id="a" x1="281195" x2="281195" y1="367338" y2="85130" gradientUnits="userSpaceOnUse">
<stop stop-color="#808080" stop-opacity=".25" offset="0"/>
<stop stop-color="#808080" stop-opacity=".12" offset=".54"/>
<stop stop-color="#808080" stop-opacity=".1" offset="1"/>
</linearGradient>
</defs>
</svg>
