<?xml version="1.0" encoding="UTF-8"?>
<svg fill="none" viewBox="0 0 135 171" xmlns="http://www.w3.org/2000/svg">
<path d="m65.738 83.377c-0.2954 0.0287-0.5954 0.0144-0.8884 0.0623-0.4921 0.1017-0.9616 0.2976-1.3846 0.5777-2.0999 1.2416-4.0821 2.9483-4.952 5.2878-0.0716 0.1438-0.0944 0.3085-0.0647 0.4674 0.0516 0.1311 0.1361 0.2453 0.2446 0.3308l0.8169 0.7719c0.1033 0.1113 0.2263 0.2009 0.3623 0.2637 0.2204 0.0598 0.4528 0.0523 0.6692-0.0216 2.2453-0.5346 4.6313-1.1506 6.2074-2.8956 0.7476-0.827 1.4376-1.9656 2.5383-1.9968 0.4615 0 0.893 0.1846 1.3476 0.2398 0.4546 0.0551 1.0015-0.1463 1.11-0.6065 0.0352-0.2289 0.0097-0.4634-0.0738-0.6784l-0.6785-2.3466c-0.1846-0.6424-2.0468-0.676-2.6675-0.5609-0.9461 0.1701-1.583 1.0091-2.5868 1.105z" fill="#65617D"/>
<path d="m73.732 96.596c-0.0324 0.803 0.0299 1.6156-0.097 2.4114-0.1116 0.6275-0.3049 1.2365-0.5746 1.8095-0.415 0.922-0.9424 1.785-1.5691 2.567-0.5838 0.72-1.283 1.396-2.1484 1.678-0.8653 0.283-1.9291 0.079-2.4691-0.678-0.4407-0.616-0.4615-1.438-0.4292-2.208 0.0785-1.891 0.3646-3.8085 1.1815-5.5008 0.3508-0.7191 0.7961-1.4047 1.1538-2.131 0.7476-1.5077 1.1745-3.2959 2.4645-4.3362 0.8092 0.3884 1.6747 0.6354 2.5614 0.7311 0.3438 0.0384 1.3269 0.0623 1.4422 0.5202 0.0785 0.3092-0.5676 1.1745-0.6922 1.4789-0.4926 1.155-0.772 2.3958-0.8238 3.6579z" fill="#65617D"/>
<path d="m64.584 62.026c0.2769 0.7335 0.6276 1.4526 0.6922 2.234 0.0462 0.4794 0 0.9588 0 1.4382 0.0389 0.6569 0.1441 1.3076 0.3139 1.9416l1.2853 5.4652c0.1915 0.8174 0.383 1.6564 0.2838 2.4905-0.0669 0.5562-0.2607 1.0955-0.2584 1.654 0.0245 0.4235 0.0894 0.8435 0.1938 1.2536 0.2434 1.2673 0.1767 2.5777-0.1938 3.8113-0.038 0.093-0.0515 0.1947-0.0393 0.2949 0.0324 0.1558 0.1777 0.2516 0.3093 0.3259 1.3837 0.7865 2.8922 1.3086 4.4536 1.5413 1.4092-3.4824 2.3937-7.1343 2.9306-10.87 0.3277-2.2628 0.4869-4.5543 0.9069-6.8003 0.0096-0.1298 0.0626-0.2519 0.15-0.3452 0.1569-0.1367 0.3946-0.0504 0.5792 0.0407 2.3582 1.178 4.6269 2.5402 6.7865 4.075 0.7595-1.0215 1.2934-2.204 1.5642-3.4636 0.2708-1.2597 0.2717-2.5657 0.0027-3.8258-0.2713-1.0864-0.6582-2.138-1.1538-3.1353-0.528-1.2131-1.1859-2.3606-1.9614-3.4205-1.7123-2.2293-4.2229-3.6531-6.8074-4.6191-1.5714-0.5897-3.1891-1.0259-4.8044-1.4718-0.9045-0.2517-2.4206-1.0715-3.2998-0.4338-0.923 0.6639-1.5368 2.3107-1.9153 3.3558-0.4671 1.2963-0.7214 2.6648-0.7522 4.0486-0.038 1.5076 0.2113 3.0082 0.7338 4.4153z" fill="#3F3D56"/>
<path d="m83.135 68.616c-0.4823 0.5465-0.0762 1.419-0.1685 2.1573-0.0603 0.3333-0.175 0.6535-0.3392 0.9468l-2.2083 4.504c-0.3692 0.6759-0.6457 1.402-0.8215 2.1573-0.3023 1.6252 0.3184 3.4518-0.4754 4.8876-0.2561 0.4626-0.653 0.8605-0.7592 1.3831-0.0784 0.3811 0 0.779-0.0392 1.1649-0.0531 0.453-0.2862 0.8605-0.4154 1.2968-0.1008 0.4192-0.1725 0.8454-0.2146 1.2752-0.2799 1.8331-1.204 3.4933-2.5937 4.6598-0.7963 0.7011-1.8188 1.0625-2.8614 1.0116-1.0292-0.0911-2.0514-0.8174-2.2614-1.8673-0.0715-0.3572-0.0577-0.7551-0.2723-1.0451-0.3046-0.4147-0.9461-0.4315-1.2392-0.8557l1.1354-1.9416c0.353-0.6017 0.713-1.2297 0.7707-1.932 0.0692-0.8606-0.33-1.7187-0.1869-2.5696 0.1223-0.7311 0.6276-1.34 0.7799-2.0639 0.1892-0.8989-0.1892-1.8073-0.3946-2.7038-0.503-2.2077 0.06-4.5088 0.6208-6.7117 0.7453-2.9148 1.5091-5.8751 3.0183-8.4519 3.0114 1.6851 5.7805 3.3031 8.9257 4.6982z" fill="#3F3D56"/>
<path d="m83.163 22.957c0.18 0.5081 0.083 1.0714 0.0484 1.6108-0.0807 1.1985 0.1639 2.397 0.1085 3.6123s-0.4154 2.3754-0.6646 3.5572c-0.7084 3.3726-0.5376 6.8866-1.1792 10.274-0.7915 4.1948-2.8152 8.102-3.2144 12.359-0.1269 1.3519-0.1108 2.7997-0.8238 3.9407-4.2372-1.9374-8.2424-4.3813-11.935-7.2822 0.8123-6.2586 1.6153-12.548 1.5069-18.862-0.0526-0.7611-0.0013-1.5261 0.1523-2.2723 0.1925-0.6268 0.469-1.2224 0.8215-1.769 0.893-1.5078 1.876-2.9556 2.8567-4.401 0.6277-0.9252 1.3061-1.896 2.3076-2.3299s2.1876-0.2397 3.2791-0.0336c1.3138 0.2493 2.626 0.4986 3.9367 0.7479 0.8192 0.1558 2.4483-0.1414 2.7991 0.8486z" fill="#03C6AF"/>
<path d="m51.565 46.939c-0.5383-0.5594-1.1254-1.0657-1.7538-1.5125 0.8192-1.0355 0.6577-2.5336 0.8584-3.8592 0.1645-0.861 0.4143-1.7021 0.7454-2.5097 0.0831-0.2277 0.2007-0.4794 0.4292-0.5393 0.1403-0.018 0.2826 0.0052 0.4107 0.0671 0.6923 0.2541 2.1369 0.2397 2.6745 0.7047 0.6484 0.5657 0.0554 1.7499-0.1892 2.457-0.1731 0.4746-2.8314 5.5515-3.1752 5.1919z" fill="#BE6F72"/>
<path d="m53.575 91.704c0.3475 0.5845 0.5746 1.2374 0.6669 1.9177 0.0553 0.6807-0.1846 1.4262-0.7431 1.7857-0.5584 0.3596-1.3591 0.2397-2.0237 0.024-1.4096-0.4762-2.7066-1.2561-3.8061-2.2888-1.0994-1.0326-1.9767-2.2947-2.5744-3.7038-0.2099-0.5033-0.3922-1.0379-0.7638-1.4262-0.2759-0.252-0.5823-0.4655-0.9115-0.6352-0.9068-0.5321-1.7814-1.2321-2.2014-2.2244-0.42-0.9924-0.2307-2.318 0.6392-2.9076 0.2712-0.1628 0.5708-0.2678 0.8814-0.3089 0.3106-0.0412 0.626-0.0177 0.9278 0.0692 0.6014 0.1774 1.1773 0.4378 1.7122 0.7742 0.8953 0.5058 1.9891 0.942 2.7691 1.6156 0.6922 0.5921 1.313 1.3927 1.9037 2.0902 0.6766 0.8025 1.3105 1.6427 1.8991 2.5169 0.1893 0.2565 1.7838 2.4689 1.6246 2.7014z" fill="#65617D"/>
<path d="m36.66 86.672c-0.0785 1.2061-0.2835 2.3997-0.6115 3.5596-0.1869 0.652-0.4338 1.3303-0.953 1.745-0.4392 0.2958-0.9369 0.485-1.4561 0.5537-0.1811 0.051-0.3703 0.0633-0.5561 0.036-0.3185-0.0695-0.5446-0.3548-0.7408-0.6256-0.7707-1.0595-1.5207-2.1789-1.846-3.4638-0.4615-1.8624 0-3.8592 0.8007-5.5994 0.2878-0.7016 0.7075-1.3364 1.2346-1.8673 0.6511-0.5559 1.4334-0.9208 2.266-1.0571 0.8515-0.1774 1.8968-0.5561 1.9591 0.5202 0.0912 2.0663 0.0588 4.1365-0.0969 6.1987z" fill="#65617D"/>
<path d="m49.429 41.618c1.5922 0.8557 3.3598 1.944 3.6921 3.7729 0.2054 1.117-0.1892 2.2604-0.1246 3.3966 0.0577 0.9995 0.4615 1.9655 0.4107 2.9627-0.0539 0.4712-0.1309 0.9392-0.2307 1.4023-0.1362 0.8845-0.0554 1.7858-0.09 2.6798-0.0762 2.0135-0.7246 3.9503-1.0384 5.9375-0.2222 1.4189-0.2741 2.8609-0.1546 4.2931 0.0761 0.9252 0.2307 1.8457 0.2307 2.7757 0 0.6698-0.0532 1.3384-0.1592 1.9991-0.3093 2.0757-0.9323 4.0877-1.8461 5.9614-1.1099 2.27-0.953 5.1992-0.8353 7.7424 0.0514 0.3505 0.0083 0.709-0.1246 1.0355-0.2908 0.549-1.0153 0.6281-1.6153 0.5753-2.2249-0.2111-4.2884-1.2966-5.7689-3.0346-0.216-0.2185-0.3626-0.5004-0.42-0.8078-0.0508-0.513 0.3461-0.9348 0.6323-1.3591 0.9738-1.4382 0.7268-3.387 0.8422-5.1536 0.0842-1.2853 0.3801-2.546 0.8746-3.7274 0.2861-0.6831 0.6438-1.3567 0.7084-2.0998 0.06-0.6927-0.1431-1.3783-0.3438-2.0399l-0.6923-2.2819c-1.073-3.5452-2.153-7.112-3.7775-10.422-1.0658 0.7203-1.8287 1.834-2.1345 3.1161-0.6046 2.258 0.2561 4.7797-0.5677 6.9514-0.1363 0.3011-0.2498 0.6129-0.3392 0.9325-0.0485 0.2758-0.067 0.5564-0.0554 0.8365 0.0214 2.3365 0.1585 4.6703 0.4108 6.9921 0.0124 0.3517 0.1075 0.6949 0.2769 0.9996 0.1362 0.2037 0.3346 0.3548 0.48 0.5489 0.4038 0.5441 0.3277 1.3064 0.2307 1.9848l-0.4615 3.2072c-0.0082 0.1626-0.0601 0.3196-0.15 0.453-0.1088 0.1095-0.2445 0.1858-0.3923 0.2205-1.4663 0.473-3.012 0.62-4.5366 0.4315-0.45-0.0551-0.8585-0.3691-1.2346-0.6328-0.0392-0.4794 0.5354-0.7982 0.5561-1.2752-0.0223-0.2826-0.1487-0.5454-0.353-0.7335-0.8584-1.0068-1.883-2.0758-1.8738-3.4206 0-0.3523 0.0808-0.7047 0.0693-1.0571-0.03-0.9036-0.63-1.6779-0.84-2.548-0.2585-1.0763 0.0854-2.1933 0.2169-3.2935 0.18-1.4814-0.0323-2.9819-0.2308-4.4609l-0.773-5.4268c-0.0899-0.8424-0.2505-1.6749-0.48-2.4882-0.291-0.8007-0.6325-1.5806-1.0222-2.3347-0.7384-1.558-1.3453-3.1784-1.9499-4.794-0.1921-0.439-0.313-0.9079-0.3577-1.3879-0.0346-0.8222 0.3738-1.5988 0.8815-2.2316 0.9509-1.176 2.2486-1.9933 3.6921-2.3251 0.2413-0.0699 0.4949-0.0806 0.7408-0.0312 0.2067 0.0713 0.4009 0.1773 0.5745 0.314 1.7838 1.2119 3.8136 1.9783 5.9303 2.2391 2.1166 0.2607 4.2626 0.0088 6.2699-0.7362 0.2307 0.1822 0.6576 0.1031 0.923-0.0263 0.7407-0.3524 1.3453-0.9397 1.996-1.4382 1.2115-0.9541 2.8453-1.8601 4.3337-2.1933z" fill="#3F3D56"/>
<path d="m1.5994 103.18c0.12252 0.367 0.30692 0.709 0.54459 1.009 0.83534 1.132 2.0007 2.035 2.5383 3.356 0.11307 0.283 0.19614 0.58 0.29998 0.868 0.31581 0.868 0.83065 1.643 1.4999 2.258 0.51052 0.44 1.0652 0.822 1.6545 1.138 1.0199 0.578 2.123 1.101 3.2814 1.069 0.2329-5e-3 0.4647-0.034 0.6922-0.086 0.3606-0.078 0.7082-0.21 1.0315-0.393 0.7454-0.427 1.3846-1.261 1.2369-2.131-0.0298-0.166-0.0803-0.327-0.15-0.479-0.1224-0.243-0.2636-0.474-0.4223-0.693-0.39-0.561-0.7915-1.136-1.3615-1.496-0.6415-0.407-1.4491-0.508-2.026-1.011-0.2277-0.214-0.42429-0.461-0.58384-0.734-0.52288-0.835-0.91249-1.752-1.1538-2.716-0.17537-0.719-0.29306-1.507-0.79842-2.035-0.50536-0.527-1.1999-0.647-1.8738-0.767-0.2277-0.049-0.45978-0.072-0.69227-0.069-0.32998 0.012-0.6715 0.11-0.98072-0.051-0.30921-0.16-0.41305-0.388-0.78688-0.3568-0.29755 0.0416-0.57803 0.1688-0.80996 0.3668-0.87688 0.673-1.4584 1.872-1.1399 2.953z" fill="#3F3D56"/>
<path d="m9.7981 104.27c0.15 0.812 0.38077 1.678 0.98537 2.207 0.3853 0.346 0.923 0.561 1.1145 1.048 0.1916 0.487-0.0554 1.098-0.3738 1.544-0.4066 0.563-0.9105 1.044-1.4861 1.416-0.48918 0.314-1.073 0.554-1.6337 0.415-0.46152-0.113-0.82611-0.458-1.1699-0.791-0.78919-0.76-1.5968-1.549-2.0399-2.567-0.46152-1.074-0.48459-2.318-0.98764-3.375-0.29306-0.616-0.74535-1.156-0.92303-1.817-0.07965-0.239-0.07965-0.499 0-0.739 0.08604-0.171 0.21622-0.314 0.37597-0.412 0.15976-0.099 0.34278-0.149 0.52859-0.146 0.37155 0.013 0.73796 0.094 1.0823 0.24 1.0418 0.385 2.1081 0.695 3.1914 0.927 0.43151 0.084 0.69227 0.082 0.92303 0.516 0.21318 0.486 0.35252 1.003 0.41305 1.534z" fill="#FBBEBE"/>
<path d="m12.475 111.14c-0.171 0.272-0.2923 0.574-0.3576 0.892-0.0545 0.247-0.0631 0.502-0.0254 0.753 0.3605-0.078 0.7081-0.21 1.0315-0.393 0.7453-0.427 1.3845-1.261 1.2368-2.131-0.0298-0.166-0.0802-0.327-0.15-0.48-0.1101-0.025-0.2248-0.021-0.3325 0.014s-0.2047 0.099-0.2813 0.185c-0.4297 0.324-0.8081 0.715-1.1215 1.16z" fill="#FBBEBE"/>
<path d="m4.2043 92.924c-0.1004 0.2245-0.13026 0.4761-0.08538 0.7192 0.10615 0.4794 0.5792 0.755 1.0061 0.9731l4.059 2.0615c0.28159 0.1353 0.55583 0.2865 0.82152 0.453 0.6923 0.4411 1.2368 1.0643 1.8276 1.6348 0.5907 0.5705 1.2484 1.105 2.0306 1.3066 0.781 0.178 1.5971 0.066 2.3076-0.3142 0.3829-0.1982 0.7384-0.4489 1.0569-0.7455 0.2757-0.2513 0.5304-0.5263 0.7615-0.8222 0.1984-0.2177 0.3406-0.484 0.413-0.7742 0.0762-0.4387-0.1338-0.8702-0.3784-1.2321-0.1409-0.2087-0.295-0.4073-0.4615-0.5945-1.5392-1.7666-4.0613-2.6822-6.2305-3.0418-0.863-0.1438-1.6822-0.4794-2.5129-0.7527-0.83073-0.2732-1.7099-0.4794-2.5729-0.3523-0.86304 0.127-1.7122 0.6424-2.0422 1.4813z" fill="#3F3D56"/>
<path d="m4.2043 92.924c-0.1004 0.2245-0.13026 0.4761-0.08538 0.7192 0.10615 0.4794 0.5792 0.755 1.0061 0.9731l4.059 2.0615c0.28159 0.1353 0.55583 0.2865 0.82152 0.453 0.6923 0.4411 1.2368 1.0643 1.8276 1.6348 0.5907 0.5705 1.2484 1.105 2.0306 1.3066 0.781 0.178 1.5971 0.066 2.3076-0.3142 0.3829-0.1982 0.7384-0.4489 1.0569-0.7455 0.2757-0.2513 0.5304-0.5263 0.7615-0.8222 0.1984-0.2177 0.3406-0.484 0.413-0.7742 0.0762-0.4387-0.1338-0.8702-0.3784-1.2321-0.1409-0.2087-0.295-0.4073-0.4615-0.5945-1.5392-1.7666-4.0613-2.6822-6.2305-3.0418-0.863-0.1438-1.6822-0.4794-2.5129-0.7527-0.83073-0.2732-1.7099-0.4794-2.5729-0.3523-0.86304 0.127-1.7122 0.6424-2.0422 1.4813z" fill="#000" opacity=".1"/>
<path d="m14.363 94.24c0.312 0.3641 0.5688 0.7755 0.7615 1.2201 0.1733 0.2912 0.235 0.6393 0.173 0.9756-0.0907 0.2263-0.2362 0.4245-0.4223 0.5753l-0.4038 0.3883c-0.122 0.1317-0.2638 0.2418-0.42 0.326-0.2209 0.086-0.4567 0.1228-0.6922 0.1078-0.5423 0-1.1261 0-1.5669-0.3379-0.6023-0.4507-0.7107-1.3831-0.4361-2.0998s0.8492-1.2585 1.4284-1.7427c0.4707-0.3955 1.2484 0.2253 1.5784 0.5873z" fill="#FBBEBE"/>
<path d="m16.827 96.719c-0.0747 0.3977-0.0387 0.8093 0.1039 1.1865 0.1015 0.3595 0.2007 0.7191 0.2999 1.0858v0.0144c0.2758-0.2512 0.5305-0.5263 0.7616-0.8222 0.1984-0.2176 0.3405-0.484 0.413-0.7742 0.0762-0.4387-0.1338-0.8701-0.3784-1.2321-0.1409-0.2086-0.2951-0.4072-0.4616-0.5944-0.1084 0.1462-0.203 0.29-0.2815 0.3835-0.2019 0.2144-0.3576 0.471-0.4569 0.7527z" fill="#FBBEBE"/>
<path d="m6.224 78.854c-0.47766 2.0854-0.2746 4.2667-0.02076 6.3953 0.19383 1.6203 0.41074 3.2983-0.05077 4.8587-0.17076 0.5825-0.44075 1.1746-0.3369 1.7762 0.19614 1.1338 1.5114 1.5701 2.6006 1.7834 0.31422 0.083 0.64074 0.1033 0.96225 0.0599 0.32254-0.0912 0.62183-0.2549 0.87693-0.4794 1.5481-1.1691 2.7239-2.7928 3.3759-4.6622 0.4131-1.2512 0.5446-2.5816 0.6715-3.8976 0.2123-2.2148 0.4269-4.456 0.1154-6.6565-0.0923-0.6472-0.2307-1.2872-0.2884-1.9392-0.0727-1.134-0.0122-2.273 0.18-3.3918 0.3973-2.7717 0.999-5.5075 1.7999-8.1834-2.1974 0.303-4.431-0.1161-6.3874-1.1985 0.37839 0.2109-0.05539 3.5739-0.10154 4.0461-0.14001 1.4078-0.38457 2.8022-0.7315 4.1709-0.64381 2.5576-2.0814 4.7772-2.6652 7.3181z" fill="#3F3D56"/>
<path d="m6.224 78.854c-0.47766 2.0854-0.2746 4.2667-0.02076 6.3953 0.19383 1.6203 0.41074 3.2983-0.05077 4.8587-0.17076 0.5825-0.44075 1.1746-0.3369 1.7762 0.19614 1.1338 1.5114 1.5701 2.6006 1.7834 0.31422 0.083 0.64074 0.1033 0.96225 0.0599 0.32254-0.0912 0.62183-0.2549 0.87693-0.4794 1.5481-1.1691 2.7239-2.7928 3.3759-4.6622 0.4131-1.2512 0.5446-2.5816 0.6715-3.8976 0.2123-2.2148 0.4269-4.456 0.1154-6.6565-0.0923-0.6472-0.2307-1.2872-0.2884-1.9392-0.0727-1.134-0.0122-2.273 0.18-3.3918 0.3973-2.7717 0.999-5.5075 1.7999-8.1834-2.1974 0.303-4.431-0.1161-6.3874-1.1985 0.37839 0.2109-0.05539 3.5739-0.10154 4.0461-0.14001 1.4078-0.38457 2.8022-0.7315 4.1709-0.64381 2.5576-2.0814 4.7772-2.6652 7.3181z" fill="#000" opacity=".1"/>
<path d="m18.204 66.634c0.923 2.7781 0.7199 5.8128 0.3207 8.7228s-0.9876 5.8199-0.8145 8.7515c0.0669 1.1506 0.2469 2.3323-0.0762 3.4325-0.1795 0.5368-0.4172 1.0507-0.7084 1.5318l-7.3635 13.227c-0.18774 0.343-0.45481 0.633-0.77709 0.842-0.32229 0.209-0.68967 0.332-1.069 0.357-0.78688 0.057-1.5599-0.211-2.2937-0.511-0.48759-0.168-0.94072-0.429-1.3361-0.769-0.19599-0.17-0.34956-0.386-0.44761-0.631-0.09805-0.244-0.13766-0.51-0.11544-0.774 0.32998-2.2964 0.82611-4.6478 1.193-6.9514 0.24954-1.563 0.79377-3.0594 1.6014-4.4033 0.56997-0.9588 1.2715-1.8194 1.763-2.8165 1.4122-2.8573 0.92303-6.3426-0.16614-9.3484-1.0892-3.0059-2.7114-5.796-3.5767-8.869-0.25654-0.8552-0.40318-1.7417-0.43613-2.6368-0.01066-0.9242 0.15423-1.8416 0.48526-2.6996 0.33102-0.858 0.82167-1.6398 1.4439-2.3006 0.18158-0.2136 0.41046-0.3781 0.66689-0.4794 0.29977-0.0722 0.61208-0.0664 0.90919 0.0168 4.1006 0.827 9.4426 2.2053 10.797 6.309z" fill="#3F3D56"/>
<path d="m84.392 25.158c0.1339 1.0499-0.2307 2.1117-0.7499 3.0202-1.9638 3.4038-6.4912 4.9091-9.9918 3.3247-1.4422-0.6544-2.6629-1.7331-3.8583-2.7973-0.4015-0.3596-0.8191-0.7359-1.0222-1.2441-0.3577-0.8989 0.0738-1.9704 0.7776-2.6128s1.6153-0.9588 2.5222-1.244c2.9929-0.9684 11.609-4.0222 12.322 1.5533z" fill="#FBBEBE"/>
<path d="m82.642 21.826c2.7253 2.2772 6.692 4.4465 9.7795 6.134 1.05 0.5753 2.2153 1.2225 2.5937 2.3971 0.2031 0.628 0.1362 1.3111 0.0692 1.9727-0.1292 1.2728-0.263 2.5648-0.7361 3.7466-0.5561 1.3831-1.5391 2.524-2.3283 3.7801-1.3845 2.2004-2.1968 4.794-3.9067 6.738 1.1538 3.9815 2.416 7.9581 2.8268 12.091 0.0227 0.1137 0.0105 0.2318-0.0347 0.338-0.0472 0.0698-0.1087 0.1279-0.18 0.1702l-2.8706 1.956c-0.313 0.1897-0.593 0.4328-0.8284 0.7191-0.5077 0.6855-0.4407 1.6491-0.7546 2.4473-0.172 0.3896-0.4181 0.7391-0.7234 1.0275-0.3054 0.2883-0.6637 0.5096-1.0534 0.6504-0.7844 0.2809-1.6201 0.3727-2.4437 0.2685-1.0485-0.0686-2.0582-0.4378-2.9168-1.0667-0.7315-0.5752-1.253-1.383-1.7561-2.1789-0.3727-0.5427-0.6825-1.1293-0.923-1.7474-0.3069-0.8821-0.3254-1.8433-0.3138-2.7829 0.0076-1.7881 0.1721-3.5716 0.4915-5.3286 0.1338-0.6976 0.3-1.3855 0.4061-2.0878 0.2123-1.4143 0.1708-2.8573 0.3277-4.2787 0.2144-1.5988 0.5579-3.176 1.0269-4.715 0.2566-0.9532 0.457-1.9218 0.5999-2.9004 0.27-1.721 0.8077-3.3822 1.3454-5.0337l0.923-2.8309c0.1961-0.6113 0.3946-1.2201 0.6276-1.817 0.4339-1.1146 0.9923-2.2004 1.14-3.3894 0.1638-1.2968-1.1838-2.8356-0.7292-4.0533 0.0369-0.1343 0.2377-0.3116 0.3415-0.2254z" fill="#3F3D56"/>
<path d="m94.275 29.688c0.6392 0.2996 0.9923 1.0139 1.2208 1.7043 0.5149 1.5558 0.6388 3.2224 0.3599 4.842-0.0901 0.4071-0.1518 0.8205-0.1846 1.2368 0.0048 0.4826 0.0504 0.9639 0.1362 1.4382 0.2307 1.8338 0 3.6963 0.0761 5.5468 0.0785 2.0806 0.5146 4.2787-0.3254 6.1699-0.5584 1.256-1.6152 2.1909-2.6583 3.0394-3.8831 3.1438-8.1677 5.7124-12.731 7.6322 0.7869-0.9828 0.8008-2.4618 0.2769-3.6195-0.5238-1.1578-1.4976-2.0279-2.5383-2.7039 1.3247-0.3058 2.6075-0.7817 3.819-1.4166 2.4184-1.2752 4.4906-3.1425 6.5374-4.9906 0.3019-0.2256 0.537-0.5345 0.6784-0.8917 0.2077-0.7191-0.3646-1.4023-0.7615-2.0327-1.2022-1.9176-0.923-4.4225-0.4199-6.6422 0.5607-2.433 1.3845-4.8563 2.8867-6.8123 0.9369-1.2225 2.1599-2.1621 3.6275-2.5001z" fill="#3F3D56"/>
<path d="m79.966 61.358c-0.2074 0.3512-0.4767 0.6586-0.7938 0.9061-0.6922 0.4794-1.643 0.2972-2.416-0.0432-0.7184-0.3165-1.3812-0.7547-1.9614-1.2968-0.2495-0.2754-0.544-0.5027-0.87-0.6711-0.6046-0.2397-1.4491-0.06-1.7884-0.6377-0.0394-0.0606-0.0589-0.133-0.0553-0.2061 0.0207-0.2085 0.2838-0.2661 0.4869-0.278 0.942-0.0647 1.8564-0.3578 2.6698-0.8558-0.2598-0.195-0.4821-0.4389-0.6553-0.7191-0.0719-0.0978-0.1108-0.2174-0.1108-0.3404 0.0282-0.1336 0.0989-0.2536 0.2008-0.3403 0.7417-0.7272 1.675-1.2085 2.681-1.3827 1.0061-0.1741 2.0392-0.0333 2.9679 0.4047 0.1813 0.0762 0.3403 0.2001 0.4615 0.3595 0.0854 0.147 0.1426 0.3098 0.1685 0.4794 0.15 0.6712 0.6922 1.6779 0.4961 2.3563-0.2169 0.779-1.0361 1.606-1.4815 2.2652z" fill="#FBBEBE"/>
<path d="m64.231 58.335c2.8706-3.4445 4.1536-7.9773 5.3443-12.361l0.8515-3.1162 2.0538-7.5051c0.3023-1.1074 0.6046-2.2148 0.8053-3.3438 0.3439-1.9488 0.3762-3.9407 0.3554-5.9207-0.0293-0.8208-0.2103-1.628-0.5331-2.3778-0.2007-0.5178-0.2976-1.0691-0.4615-1.6036-0.2084-0.7453-0.5201-1.455-0.9253-2.107-0.1128-0.1939-0.2537-0.3685-0.4177-0.5178-0.284-0.2004-0.6056-0.3361-0.9438-0.3979-0.7336-0.2266-1.4938-0.3468-2.2591-0.3571-0.7661 0.0287-1.5553 0.3044-2.0491 0.9084-0.3762 0.4627-0.5492 1.0619-0.8469 1.5821-0.1386 0.2129-0.2642 0.4347-0.3761 0.6639-0.1269 0.3483-0.1971 0.7161-0.2077 1.0883-0.12 1.5101-0.2223 3.0218-0.3069 4.5352-0.0392 0.6879-0.0739 1.3807-0.0485 2.071 0.0208 0.5369 0.0762 1.0715 0.1316 1.606l0.5468 5.2351c0.127 1.2297 0.037 2.3803 0.1431 3.6123 0.2585 2.9747-0.3577 5.9495-0.9899 8.869-0.3023 1.3879-0.6138 2.795-1.26 4.051-0.5699 1.1122-1.4237 2.2412-1.1976 3.4805 0.0785 0.4315 0.2884 0.8342 0.3208 1.2704-0.0158 0.2702 0.0099 0.5412 0.0761 0.803 0.0942 0.178 0.2403 0.3204 0.4174 0.4066 0.1771 0.0861 0.376 0.1116 0.5679 0.0728 0.457-0.0833 0.8787-0.309 1.2092-0.6472z" fill="#3F3D56"/>
<path d="m64.582 44.549c0.0877 0.6879 0.0208 1.3855 0.0531 2.0782 0.0724 0.8922 0.227 1.7752 0.4615 2.6367 0.2308 0.9589 0.5261 2.0327 1.3407 2.5649 0.2043 0.1102 0.3996 0.2377 0.5838 0.3811 0.0908 0.0743 0.1575 0.1757 0.1913 0.2905s0.0331 0.2375-2e-3 0.3519l-0.6346-0.1103c0.072 0.0572 0.1315 0.1295 0.1748 0.2123 0.0432 0.0827 0.0691 0.174 0.0761 0.2679 0.0069 0.0939-0.0053 0.1882-0.0359 0.2768s-0.0789 0.1696-0.1416 0.2375c-0.0628 0.0679-0.1386 0.1213-0.2226 0.1566-0.084 0.0354-0.1743 0.0519-0.2649 0.0486-0.0905-0.0034-0.1794-0.0266-0.2607-0.0681-0.0814-0.0415-0.1534-0.1004-0.2113-0.1728 0.024 0.216 0.0044 0.4348-0.0577 0.6424-0.0322 0.1019-0.0937 0.1911-0.1762 0.2554-0.0826 0.0643-0.1822 0.1007-0.2853 0.1042-0.1197-0.0193-0.233-0.0687-0.33-0.1438l-1.6569-1.0667c-0.4964-0.2776-0.9093-0.6924-1.193-1.1985l-0.7246-1.1338c-0.1597-0.2185-0.2865-0.461-0.3761-0.7191-0.27-0.9588 0.4846-2.0231 0.0923-2.9268-0.1178-0.2227-0.2562-0.433-0.413-0.628-0.8377-1.1985-0.7846-2.8285-0.6923-4.3146 0.03-0.501 0.1177-1.0955 0.5538-1.3136 0.3461-0.175 0.7615-0.0192 1.0823 0.1989 0.3207 0.2182 0.6045 0.5058 0.9691 0.6352 0.2308 0.0815 0.4846 0.0911 0.7154 0.1774 0.323 0.1175 0.623 0.5753 0.8399 0.8462 0.3068 0.4157 0.4954 0.9122 0.5446 1.4334z" fill="#FBBEBE"/>
<path d="m44.36 23.007c-0.196 0.4674-0.4711 0.8944-0.8122 1.2608-0.1715 0.1831-0.3819 0.3219-0.6143 0.4052-0.2325 0.0832-0.4805 0.1087-0.7241 0.0742-0.5123-0.1054-0.8884-0.5441-1.2277-0.9588-0.8861-1.081-1.7837-2.1765-2.3791-3.4565-0.9092-1.9488-1.0545-4.1732-1.1861-6.3329-0.0323-0.5561-0.06-1.1458 0.1962-1.6324 0.3253-0.6208 1.0153-0.9133 1.6522-1.1602l3.5191-1.3663c0.2156-0.1061 0.4543-0.15156 0.6922-0.13183 0.5515 0.09588 0.7546 0.7862 0.9046 1.3447 0.2685 1.0037 0.7145 1.9466 1.3153 2.7806 0.7892 1.093 2.5591 2.5648 1.5484 3.9287-1.2207 1.6348-1.9961 3.399-2.8845 5.2447z" fill="#BE6F72"/>
<path d="m48.863 16.771c1.5415 1.5053 2.063 3.8496 1.9891 6.0429-0.0738 2.1932-0.6599 4.3314-0.9945 6.4983s-0.4015 4.48 0.5053 6.472c0.3116 0.6831 0.7362 1.3159 0.9531 2.0374 0.1818 0.7131 0.2435 1.4536 0.1823 2.1885-0.0038 0.7748-0.1462 1.5421-0.42 2.2628-0.4915 1.1314-1.5022 1.9176-2.4691 2.6367-1.973 1.4814-3.9852 2.9867-6.302 3.761-1.5691 0.5249-3.2306 0.6975-4.8736 0.791-1.1124 0.0921-2.2311 0.0591-3.3367-0.0983-1.934-0.3348-3.7113-1.3121-5.0652-2.7853-0.2359-0.2375-0.4303-0.5157-0.5745-0.8222-0.141-0.3989-0.2091-0.8216-0.2008-1.2465-0.0554-1.574-0.0462-3.1481 0.0277-4.7221 0.0424-1.5001 0.2412-2.991 0.593-4.4465 0.4408-1.6779 1.2046-3.2504 1.7838-4.8851 2.0168-5.6834 1.8137-12.151 4.6151-17.458 0.6046-1.1457 1.6153-2.3514 2.8614-2.1693 0.2397 0.015 0.4653 0.1228 0.6323 0.3021 0.1432 0.2181 0.2233 0.4743 0.2308 0.7382 0.2976 2.5792 0.7199 5.2256 1.8899 7.5531 0.4615 0.9132 1.1537 2.3035 2.2175 2.548s1.6915-0.8102 2.2615-1.5581c1.0015-1.3714 2.1767-2.5962 3.4936-3.641z" fill="#E3E8F4"/>
<path d="m56.24 12.89c0.3144 0.1766 0.6079 0.3905 0.8746 0.6376 0.6923 0.6808 0.9461 1.7235 0.9415 2.7111s-0.2308 1.9608-0.3692 2.9387c-0.3715 2.6368-0.0554 5.3358 0.0923 8.0061 0.045 0.4311 0.02 0.8671-0.0739 1.2896-0.113 0.4027-0.3461 0.7575-0.4961 1.1482-0.4407 1.1554-0.1084 2.4737-0.3669 3.6866-0.2769 1.292-1.2253 2.4666-1.0476 3.7777 0.0715 0.513 0.3092 0.9852 0.4107 1.4934 0.1016 0.5081 0.0139 1.1218-0.4084 1.395-0.4223 0.2733-1.0361 0.0744-1.5392 0.2254-0.2043 0.0783-0.4033 0.1712-0.5953 0.278-0.7777 0.3644-1.7053 0.2397-2.4714-0.1582-0.7509-0.4257-1.426-0.9819-1.9961-1.6443-0.8792-0.9349-1.7307-1.9584-2.116-3.2025-0.5631-1.8025-0.0623-3.7657 0.5492-5.5539s1.3407-3.5955 1.2322-5.4964c-0.06-1.0642-0.3831-2.0878-0.5769-3.1329-0.2399-1.448-0.3258-2.919-0.2561-4.3865 0.03-1.0739 0.0992-2.1813 0.5446-3.1521 0.3174-0.6476 0.7864-1.202 1.3637-1.6124 0.5773-0.4105 1.2446-0.6638 1.9407-0.7367 1.6153-0.1822 2.9998 0.6736 4.3636 1.4885z" fill="#3F3D56"/>
<path d="m51.876 36.059c0.0162 0.767 0.1486 1.5266 0.3923 2.2508 0.413-0.978 0.4615-2.0758 0.5169-3.1401 0.2307-3.6651 1.013-7.1216 1.846-10.672-0.6069 0.4794-0.9484 1.678-1.2391 2.3971-1.1539 2.8998-1.6718 6.0302-1.5161 9.1638z" fill="#000" opacity=".1"/>
<path d="m36.321 10.521c-1.1122 0.3044-2.0768 0.99-3.1544 1.4382-1.1192 0.4794-2.3238 0.6832-3.4983 0.978-2.7183 0.6855-5.4482 1.9584-7.0889 4.3146-1.2092 1.7331-1.7099 3.8736-2.5383 5.8368-0.6923 1.6468-1.6153 3.1904-2.1253 4.9043-0.6669 2.2364-0.5907 4.6335-0.4269 6.9682 0.1338 1.9176 0.3369 3.8568 1.1746 5.5563 0.4384 0.8917 1.043 1.6899 1.4814 2.5816 0.5261 1.0714 0.8031 2.2532 1.2415 3.3558s1.0822 2.2053 2.0999 2.7806l1.6845-1.0236c2.513-1.5269 5.0259-3.0562 7.4604-4.7149 2.123-1.4382 4.2644-3.0898 5.3951-5.4533 1.0015-2.0878 1.1007-4.5279 0.8423-6.8459-0.2585-2.3179-0.8492-4.5855-1.1538-6.8962-0.388-2.9083-0.3296-5.8622 0.1731-8.7515 0.2307-1.304 0.8445-2.6512 0.9714-3.9503 0.1408-1.3879-1.576-1.3424-2.5383-1.0787z" fill="#3F3D56"/>
<path d="m25.907 48.627c1.2899 1.268 3.1452 1.6371 4.7582 2.397 1.1985 0.578 2.2776 1.3921 3.1776 2.397 0.4961 0.5657 0.9761 1.3352 0.7268 2.0543-0.2099 0.6184-0.8538 0.9348-1.4445 1.1649-0.7338 0.2877-1.553 0.5418-2.2845 0.2517-0.4292-0.1702-0.7753-0.5105-1.1699-0.7526-0.9669-0.5969-2.1853-0.5993-3.1776-1.1506-1.3984-0.7766-2.0952-2.4857-3.4106-3.4086-0.7199-0.5034-1.7145-0.9156-1.7883-1.8145-0.0034-0.3251 0.0628-0.6469 0.1938-0.9421 0.2654-0.7335 0.7177-3.2527 1.7284-3.1856 1.1007 0.0743 1.8714 2.3826 2.6906 2.9891z" fill="#FBBEBE"/>
<path d="m19.148 37.392c0.4222 1.5772 1.403 2.922 2.4206 4.1732 0.7315 0.8989 1.5345 1.8769 1.5599 3.0538 0.0231 1.1122-0.6923 2.1358-1.6153 2.7039s-2.0099 0.7502-3.0783 0.8221c-0.8547 0.0855-1.7171 0.0231-2.5522-0.1845-2.1091-0.5945-3.5721-2.5049-5.2312-3.9815-0.98537-0.8749-2.093-1.6372-2.8476-2.7326-0.75457-1.0954-1.073-2.6679-0.32998-3.7729 0.26813-0.3582 0.57819-0.6803 0.92302-0.9588 1.2602-1.135 2.3348-2.4748 3.1821-3.9671 0.3415-0.6017 0.6692-1.2537 1.2438-1.6156 0.8238-0.5202 1.8807-0.2829 2.8129-0.0288 1.0131 0.2757 3.8675 0.815 4.066 2.1574 0.0807 0.5513-0.5769 1.4094-0.6761 2.0015-0.1263 0.7764-0.0846 1.5723 0.1223 2.3299z" fill="#FBBEBE"/>
<path d="m24.365 40.398c0.3023 0.5691 0.5512 1.1672 0.7431 1.7858 0.7038 2.5409-0.5538 5.1584-1.1538 7.728-0.7661 3.2911-0.4408 6.7333-0.4777 10.12-0.0161 1.5485-0.1753 3.2527-1.2484 4.3266-0.2769 0.2733-0.6092 0.5034-0.7961 0.8486-0.1155 0.2529-0.2015 0.5192-0.2561 0.7934-0.1639 0.5922-0.4544 1.1384-0.85 1.5976s-0.886 0.8196-1.4346 1.0542c-0.5485 0.2347-1.141 0.3375-1.7332 0.3009-0.5922-0.0367-1.1687-0.2119-1.6865-0.5126-0.8746-0.5057-1.6338-1.383-2.6353-1.4094-0.3149 0.0158-0.6286 0.0518-0.9392 0.1079-0.9968 0.103-1.973-0.2805-2.9075-0.6568-0.22306-0.0732-0.43117-0.1886-0.61382-0.3404-0.16845-0.1606-0.27691-0.3763-0.43152-0.5489-0.56997-0.6376-1.5438-0.5274-2.3653-0.7048-0.61294-0.1424-1.1742-0.463-1.6184-0.9244-0.44413-0.4614-0.7528-1.0444-0.88996-1.6811-0.16614-0.8246-0.02538-1.6779 0.11307-2.5097l0.61844-3.7058c0.25952-1.3593 0.43907-2.7337 0.53766-4.1157 0.07581-1.5617-0.05305-3.1269-0.38306-4.6526-0.27229-1.2465-0.67842-2.4666-0.82611-3.737-0.25734-2.2768 0.31928-4.5709 1.6153-6.4264 0.32076-0.4579 0.74073-0.9157 1.2853-0.9588 0.44074-0.0408 0.8538 0.2037 1.2369 0.4386 3.3276 2.0455 6.6782 4.0486 10.052 6.0094 0.9231 0.5393 1.8668 1.081 2.896 1.3471 0.3092 0.0815 0.7523 0.0479 0.7961-0.2781 0.0055-0.1242-0.0259-0.2472-0.09-0.3523-0.5769-1.153-1.4122-2.143-2.0768-3.2408s-1.1768-2.397-0.9807-3.6723c0.2677-1.7642 1.8461-2.9315 3.136-1.5484 1.4469 1.57 2.416 3.5883 3.3644 5.5179z" fill="#F86D70"/>
<path d="m14.032 62.769c2.7068 0.1798 5.4736 0.3716 7.9796 1.4502 0.8054 0.3452 1.6592 0.791 2.506 0.5777 0.4216-0.1332 0.8136-0.3515 1.1538-0.6424 1.0434-0.7947 2.0291-1.6679 2.9491-2.6128-0.0923-0.5249-0.7776-0.5968-1.2899-0.592-1.2491 0.0077-2.4813-0.2999-3.5906-0.8965-0.3646-0.2278-0.7514-0.415-1.1538-0.5585-1.0961-0.314-2.213 0.2852-3.3137 0.5777-1.6291 0.4314-3.3459 0.1797-5.0097-0.0743l-4.4905-0.688c-0.41767-0.0623-0.88841-0.1126-1.2207 0.1558-0.22213 0.218-0.37438 0.5017-0.43614 0.8126-0.5492 1.9176-0.28613 2.0782 1.5415 2.1981l4.3751 0.2924z" fill="#FBBEBE"/>
<path d="m75.349 29.489c4.0782 0 7.3842-3.4342 7.3842-7.6705s-3.306-7.6705-7.3842-7.6705-7.3843 3.4342-7.3843 7.6705 3.3061 7.6705 7.3843 7.6705z" fill="#000" opacity=".1"/>
<path d="m75.296 29.156c4.0783 0 7.3843-3.4342 7.3843-7.6705s-3.306-7.6705-7.3843-7.6705c-4.0782 0-7.3842 3.4342-7.3842 7.6705s3.306 7.6705 7.3842 7.6705z" fill="#FBBEBE"/>
<path d="m81.529 11.746c0.5907 0.3787 1.2091 0.7862 1.5322 1.4238 0.1737 0.4329 0.3059 0.8825 0.3946 1.3424 0.4038 1.4382 1.4791 2.687 1.5438 4.1852 0.0715 1.6419-1.1146 3.0682-2.4576 3.9287-0.3065 0.2347-0.6761 0.3638-1.0569 0.3691-0.39-0.0263-0.7269-0.2804-1.0845-0.4434-1.5161-0.6999-3.2122 0.187-4.8183 0.5945-1.6689 0.4186-3.4201 0.3118-5.0305-0.3069-0.8653-0.3355-1.7053-0.8389-2.2475-1.618-0.5423-0.779-0.7362-1.8696-0.2746-2.7062 0.2307-0.4267 0.6138-0.8126 0.5884-1.2992-0.0139-0.2924-0.18-0.5561-0.2308-0.8437-0.0738-0.4579 0.157-0.9037 0.3923-1.2944 1.068-1.7852 2.4175-3.371 3.9921-4.691 0.4615-0.39313 0.9946-0.77666 1.5992-0.80542 1.2138-0.05513 2.2568 0.88452 3.5052 0.88932 1.4168 0.0048 2.4345 0.4938 3.6529 1.2752z" fill="#3F3D56"/>
<path d="m48.114 19.865c4.2057 0 7.615-3.5415 7.615-7.9102 0-4.3687-3.4093-7.9102-7.615-7.9102-4.2056 0-7.615 3.5415-7.615 7.9102 0 4.3687 3.4094 7.9102 7.615 7.9102z" fill="#000" opacity=".1"/>
<path d="m48.246 19.671c4.2057 0 7.615-3.5415 7.615-7.9102 0-4.3687-3.4093-7.9102-7.615-7.9102-4.2056 0-7.615 3.5415-7.615 7.9102 0 4.3687 3.4094 7.9102 7.615 7.9102z" fill="#BE6F72"/>
<path d="m52.316 16.229c1.0753 0.6257 2.4021 0.5609 3.6021 0.2757 0.6805-0.1328 1.3257-0.4157 1.8922-0.8294 0.2813-0.2088 0.5133-0.4813 0.6784-0.7969s0.259-0.666 0.2746-1.0248c0-0.803-0.5076-1.5269-0.57-2.3299-0.0761-1.0116 0.5585-1.9464 0.6254-2.9627s-0.4154-1.932-0.8861-2.8045c-0.81-1.4981-1.6522-3.0155-2.8845-4.1612-1.2322-1.1458-2.9398-1.8769-4.5551-1.4909-0.7938 0.18936-1.5299 0.63282-2.3399 0.71911-0.72 0.069514-1.4307-0.15581-2.1484-0.25169-0.7176-0.095881-1.523-0.035955-2.0375 0.47941-0.2816 0.28764-0.4616 0.69274-0.7915 0.90368-0.2238 0.10721-0.4553 0.19617-0.6923 0.26607-0.833 0.34757-1.2138 1.3232-1.5092 2.2005l-1.9799 5.8943c0.6623 0.4794 1.4607 0.6975 2.1853 1.0667 0.7246 0.3691 1.4284 0.9588 1.5761 1.7833 0.1131 0.6257-0.1016 1.3448 0.2492 1.8673 0.3207 0.4794 0.9738 0.5609 1.5276 0.4794s1.11-0.2804 1.6638-0.1917c1.3845 0.2181 1.8991 1.1002 3.1798 0 1.2807-1.1003 1.7492 0.2133 2.9399 0.9084z" fill="#3F3D56"/>
<path d="m15.885 36.79c3.8233 0 6.9227-3.2195 6.9227-7.1911 0-3.9715-3.0994-7.191-6.9227-7.191s-6.9227 3.2195-6.9227 7.191c0 3.9716 3.0994 7.1911 6.9227 7.1911z" fill="#000" opacity=".1"/>
<path d="m16.154 36.399c3.8233 0 6.9227-3.2195 6.9227-7.191 0-3.9716-3.0994-7.1911-6.9227-7.1911s-6.9227 3.2195-6.9227 7.1911c0 3.9715 3.0994 7.191 6.9227 7.191z" fill="#FBBEBE"/>
<path d="m21.453 22.178c-1.6481-1.3135-3.5-2.3252-5.4759-2.9915-1.2645-0.4267-2.6398-0.7191-3.9228-0.326-1.7399 0.5154-4.0683 1.2848-5.1459 2.7973-0.53074 0.7431-1.0684 1.5078-1.3245 2.3971-0.51229 1.7882 0.2169 3.6938 0.16844 5.5587-0.05769 2.1741-1.1676 4.1588-2.3791 5.9326-1.2115 1.7738-1.4561 4.3147-2.1714 6.3617-0.2446 0.7024-0.32306 1.6779 0.30691 2.0303 0.55382 0.3188 1.223-0.0791 1.7353-0.4626l3.0806-2.3132c0.23945-0.2044 0.51552-0.3576 0.81227-0.4506 0.63458-0.1534 1.2553 0.2589 1.7861 0.6496l6.4612 4.7461c0.1277-0.2708 0.1966-0.5675 0.2018-0.869 0.0052-0.3016-0.0535-0.6006-0.1718-0.876 0.6069 0.1941 1.0476 0.7191 1.5807 1.093 0.533 0.374 1.343 0.4962 1.7307-0.0263 0.3876-0.5226 0.0946-1.2249-0.3369-1.6468-0.4316-0.4219-0.9992-0.6736-1.4215-1.1074-0.8377-0.8653-0.923-2.2317-1.4515-3.3247-0.3784-0.7671-0.9899-1.4095-1.2576-2.2268-0.4361-1.3352 0.1338-2.7734 0.6923-4.0582 0.6669-1.5245 1.4214-3.1521 2.8406-3.9479 0.4777-0.2685 1.0061-0.4267 1.4953-0.6712 1.2184-0.6064 2.7391-2.0374 3.3344-3.3199 0.5216-1.1385-0.2815-2.2388-1.1676-2.9483z" fill="#3F3D56"/>
<path d="m10.975 45.942c0.6623 0.4387 1.4099 0.7191 2.0607 1.177 0.6507 0.4578 1.2207 1.1529 1.2391 1.9679 0.0185 0.7791-0.4615 1.4622-0.923 2.0806l-5.6212 7.6633 2.866 0.7887c-0.4615 0.6615-0.5792 1.5053-0.81922 2.2819-0.23999 0.7767-0.69227 1.5845-1.4584 1.7882-0.69227 0.1846-1.4168-0.1941-2.1322-0.151-0.52844 0.0336-1.0269 0.2924-1.5553 0.314-0.68074 0.0264-1.313-0.3452-1.8807-0.7383-1.2646-0.8797-2.5199-2.1405-2.5106-3.7226 0.029955-0.535 0.1333-1.0629 0.3069-1.5676 0.82842-2.8069 1.6868-5.681 3.4037-8.0157 0.92303-1.2464 2.0514-2.2987 3.1798-3.3438 0.25656-0.2683 0.55851-0.4853 0.89072-0.64 0.73843-0.2877 1.5438 0.0671 2.3076 0.2972 0.7638 0.2301 1.7261 0.2637 2.1668-0.4147" fill="#000" opacity=".1"/>
<path d="m10.733 45.47c0.6623 0.4362 1.4099 0.7191 2.0607 1.1769 0.6507 0.4579 1.2207 1.153 1.2414 1.9656 0.0208 0.8126-0.4615 1.4646-0.923 2.083l-5.6235 7.6561 2.866 0.7886c-0.46155 0.6616-0.57924 1.503-0.81922 2.282-0.23999 0.779-0.69228 1.5844-1.4584 1.7882-0.69228 0.1846-1.4168-0.1942-2.1322-0.151-0.52843 0.0311-1.0269 0.2924-1.5553 0.3116-0.68073 0.0264-1.313-0.3452-1.8807-0.7383-1.2646-0.8773-2.5199-2.1405-2.5083-3.7202 0.027643-0.5351 0.13026-1.0632 0.3046-1.5676 0.82842-2.8094 1.6868-5.6834 3.4037-8.0157 0.92303-1.2488 2.0537-2.3011 3.1798-3.3558 0.25778-0.2668 0.55944-0.4836 0.89072-0.64 0.73842-0.2877 1.5438 0.0671 2.3076 0.2996 0.7638 0.2325 1.726 0.2637 2.1668-0.4147" fill="#F86D70"/>
<g fill="#000" opacity=".1">
<path d="m68.545 19.632c0.5423 0.779 1.3846 1.2848 2.2476 1.618 1.6099 0.6211 3.3618 0.7279 5.0305 0.3068 1.6153-0.4075 3.3022-1.2944 4.8183-0.5945 0.3576 0.1654 0.6922 0.4171 1.0822 0.4459 0.3815-0.0072 0.7516-0.137 1.0592-0.3716 0.9345-0.5992 1.793-1.4718 2.2037-2.5001 0 0.0528 0 0.1055 0.0138 0.1606 0.0716 1.642-1.1145 3.0682-2.4575 3.9287-0.3065 0.2347-0.6761 0.3638-1.0569 0.3692-0.39-0.0264-0.7269-0.2805-1.0845-0.4435-1.5161-0.6999-3.2122 0.187-4.8183 0.5945-1.6689 0.4187-3.4201 0.3119-5.0305-0.3068-0.8653-0.3356-1.7053-0.839-2.2475-1.618-0.5423-0.779-0.7362-1.8697-0.2747-2.7063l0.0347-0.0599c0.0747 0.4242 0.2386 0.8261 0.4799 1.177z" opacity=".1"/>
<path d="m68.852 15.627c0.0184 0.3691-0.1962 0.6784-0.4015 0.9924-0.0286-0.0779-0.051-0.1581-0.0669-0.2397-0.0693-0.4291 0.1292-0.8462 0.3484-1.2225 0.0629 0.1493 0.1033 0.3077 0.12 0.4698z" opacity=".1"/>
</g>
<path d="m41.514 3.6398-1.9799 5.8919c0.6623 0.47944 1.4607 0.69994 2.1853 1.0666 0.7246 0.3668 1.4284 0.9588 1.5761 1.7834 0.1131 0.6256-0.1015 1.3447 0.2492 1.8697 0.3208 0.4794 0.9738 0.5585 1.5276 0.4794s1.11-0.2804 1.6638-0.1918c1.3845 0.2182 1.8991 1.1003 3.1798 0.012 1.2807-1.0882 1.7445 0.2038 2.9352 0.8989 1.0754 0.628 2.4022 0.5633 3.6022 0.2757 0.6803-0.1322 1.3255-0.4141 1.8922-0.827 0.0806-0.0684 0.1576-0.1412 0.2307-0.2181-0.1766 0.3928-0.4428 0.7351-0.7753 0.9971-0.5665 0.4137-1.2117 0.6966-1.8922 0.8294-1.2 0.2852-2.5383 0.35-3.6021-0.2757-1.1907-0.6951-1.6799-1.9631-2.9353-0.8988-1.2553 1.0642-1.7999 0.2061-3.1798 0-0.5538-0.0887-1.1076 0.1102-1.6638 0.1917-0.5561 0.0815-1.2068 0-1.5276-0.4794-0.3507-0.5225-0.1361-1.2416-0.2492-1.8673-0.1477-0.8245-0.8515-1.4166-1.5761-1.7834-0.7245-0.3667-1.523-0.5896-2.1852-1.0666l1.9891-5.9087c0.2307-0.6496 0.4846-1.3519 0.9461-1.8146-0.1599 0.33484-0.2972 0.68085-0.4108 1.0355z" fill="#000" opacity=".1"/>
<g fill="#000" opacity=".1">
<path d="m15.93 44.622c0.51 0.2397 1.1538 0.2757 1.4769-0.1726 0.3623-0.4794 0.0946-1.2225-0.3369-1.6467-0.4315-0.4243-0.9992-0.6736-1.4215-1.1075-0.8376-0.8629-0.923-2.2292-1.4514-3.3223-0.3785-0.7694-0.99-1.4118-1.2577-2.2292-0.4361-1.3327 0.1339-2.7733 0.6923-4.0558 0.6669-1.5245 1.4215-3.152 2.8406-3.9479 0.4777-0.2684 1.0061-0.4266 1.4953-0.6711 1.2184-0.6065 2.7391-2.0399 3.3345-3.3223 0.5007-1.0811-0.2054-2.131-1.0454-2.8429 0.4085 0.2757 0.8077 0.5657 1.1954 0.8749 0.8884 0.7191 1.6891 1.8098 1.1537 2.9436-0.5953 1.2824-2.116 2.7134-3.3344 3.3199-0.4892 0.2397-1.0176 0.4027-1.4953 0.6711-1.4192 0.7958-2.1737 2.4234-2.8406 3.9479-0.5608 1.2848-1.1307 2.7231-0.6923 4.0582 0.2677 0.8174 0.8792 1.4598 1.2576 2.2268 0.5354 1.0931 0.6138 2.4594 1.4515 3.3247 0.4223 0.4339 0.9899 0.6832 1.4215 1.1074 0.4315 0.4243 0.6922 1.1578 0.3369 1.6468-0.3554 0.489-1.2 0.3883-1.7307 0.0264-0.3577-0.2517-0.6831-0.5825-1.05-0.8294z" opacity=".1"/>
<path d="m1.934 42.495 3.0806-2.3107c0.23935-0.2052 0.5154-0.3591 0.81226-0.453 0.63458-0.1511 1.2553 0.2612 1.7861 0.6519l6.4612 4.7461c0.1278-0.2712 0.1967-0.5683 0.2019-0.8702s-0.0535-0.6014-0.1719-0.8772c0.5931 0.1918 1.0246 0.7047 1.5392 1.0643-0.0748-0.0352-0.1519-0.0649-0.2308-0.0887 0.1183 0.2754 0.177 0.5744 0.1718 0.876-0.0052 0.3015-0.0741 0.5982-0.2018 0.869l-6.4612-4.7461c-0.53075-0.3907-1.1538-0.803-1.7861-0.6496-0.29675 0.0931-0.57281 0.2462-0.81226 0.4507l-3.0806 2.3131c-0.51229 0.3835-1.1815 0.7814-1.7353 0.4626-0.15148-0.0967-0.2758-0.2331-0.36046-0.3955-0.08465-0.1624-0.12667-0.3451-0.12182-0.5297 0.32685-0.121 0.63358-0.294 0.90919-0.513z" opacity=".1"/>
</g>
<path d="m78.899 58.15s-13.222 1.1002-15.853-0.8462l12.096-1.9368 3.7567 2.783z" fill="#E3E8F4"/>
<path d="m78.899 58.15s-13.222 1.1002-15.853-0.8462l12.096-1.9368 3.7567 2.783z" fill="#000" opacity=".1"/>
<path d="m78.898 58.15-3.7036-2.4354s-11.049 3.2983-14.076 1.9368l3.0806-4.4896 10.947 2.2173 3.7521 2.7709z" fill="#E3E8F4"/>
<path d="m62.469 25.858c-0.4084 0.5359-0.736 1.1332-0.9715 1.7714-0.1061 0.338-0.1592 0.6903-0.2492 1.0331-0.2532 0.8536-0.6433 1.6567-1.1538 2.3755-1.1376 1.7186-2.5591 3.3774-2.8452 5.4412-0.1385 1.0187 0.0138 2.0543 0.2076 3.0634 0.105 0.6655 0.2879 1.3151 0.5446 1.9344 0.2931 0.6568 0.7292 1.2345 1.0638 1.8697 0.3057 0.6235 0.5634 1.2711 0.7708 1.9368 0.3945-0.4099 0.6276-0.9588 0.9438-1.4382 0.3161-0.4794 0.7868-0.9109 1.343-0.9181 0.6415 0 1.1699 0.5513 1.8045 0.6376 0.099 0.0208 0.2017 0.0108 0.2954-0.0287 0.2307-0.1127 0.2492-0.4363 0.2307-0.6952-0.1823-1.8097-1.1792-3.5955-0.7084-5.3501 0.4338-1.6228 1.9845-2.6368 2.7991-4.0918 0.5907-1.0571 0.7661-2.3035 0.923-3.5164 0.1961-1.4502 0.3946-2.9124 0.3069-4.3722-0.0438-0.7359-0.6069-5.3861-1.6361-4.8995-0.3576 0.1678-0.6692 0.8797-0.893 1.1985l-0.923 1.3591-1.853 2.6895z" fill="#3F3D56"/>
<path d="m34.849 55.857-7.4234 6.2778-9.5511-1.7738 6.4312-5.2447 10.543 0.7407z" fill="#E3E8F4"/>
<path d="m35.117 55.466-7.4235 6.2778-9.551-1.7738 6.4312-5.2447 10.543 0.7407z" fill="#000" opacity=".1"/>
<path d="m35.064 55.132-7.4234 6.2754-9.5534-1.7714 6.4335-5.2471 10.543 0.7431z" fill="#E3E8F4"/>
<path d="m35.279 54.406-7.4258 6.2778-9.551-1.7738 6.4335-5.2447 10.543 0.7407z" fill="#000" opacity=".1"/>
<path d="m35.223 54.073-7.4234 6.2778-9.5511-1.7738 6.4312-5.2447 10.543 0.7407z" fill="#E3E8F4"/>
<path d="m132.87 139.85c0.175-0.088 0.368-0.131 0.563-0.124s0.385 0.063 0.554 0.163c0.169 0.101 0.311 0.242 0.416 0.413 0.104 0.171 0.166 0.366 0.182 0.567l0.413 5.564-2.451 0.46-1.292-4.022 1.615-3.021z" fill="#3F3D56"/>
<path d="m47.134 102.56-37.505 19.77c-0.43012 0.228-0.79094 0.576-1.0423 1.004s-0.38346 0.92-0.38154 1.422c0.00191 0.502 0.13774 0.993 0.39238 1.419 0.25463 0.426 0.61809 0.771 1.0499 0.995l80.777 42.109c1.4371 0.747 3.0291 1.116 4.6359 1.074 1.6067-0.041 3.1789-0.493 4.5782-1.314l34.022-19.929c0.413-0.245 0.754-0.602 0.986-1.033 0.231-0.431 0.345-0.919 0.33-1.413-0.016-0.493-0.162-0.972-0.421-1.386s-0.622-0.747-1.049-0.962l-84.067-41.783c-0.3605-0.179-0.7559-0.27-1.1556-0.265-0.3997 4e-3 -0.793 0.104-1.1497 0.292z" fill="#3F3D56"/>
<path d="m9.3777 118.89-1.1746 0.906-0.0923 4.338c-0.00745 0.339 0.0769 0.672 0.24339 0.963 0.1665 0.291 0.40842 0.527 0.6981 0.682l82.156 43.793c0.1865 0.1 0.3945 0.149 0.6041 0.141 0.2097-8e-3 0.4139-0.071 0.593-0.185 0.1792-0.113 0.3272-0.273 0.43-0.463 0.1027-0.189 0.1567-0.404 0.1567-0.622v-6.301l-83.615-43.252z" fill="#3F3D56"/>
<path d="m47.134 97.531-37.505 19.768c-0.43045 0.228-0.79176 0.575-1.0438 1.002-0.25198 0.428-0.38476 0.92-0.38356 1.422 0.00119 0.501 0.13631 0.993 0.39034 1.419 0.25402 0.427 0.61698 0.772 1.0485 0.997l80.784 42.109c1.4373 0.747 3.0292 1.115 4.6359 1.074 1.6066-0.042 3.1788-0.493 4.5783-1.314l34.023-19.931c0.412-0.245 0.753-0.602 0.985-1.033 0.231-0.431 0.345-0.92 0.33-1.413-0.016-0.493-0.162-0.973-0.421-1.387s-0.621-0.746-1.049-0.961l-84.067-41.781c-0.3607-0.179-0.7561-0.2694-1.1558-0.2644s-0.793 0.1053-1.1494 0.2931z" fill="#E3E8F4"/>
<path d="m54.897 101.12-41.324 21.796 71.025 36.89 42.616-22.469-72.317-36.217z" fill="#3F3D56"/>
<path d="m110.59 153.1c2.407 0 4.359-1.201 4.359-2.682 0-1.482-1.952-2.683-4.359-2.683s-4.359 1.201-4.359 2.683c0 1.481 1.952 2.682 4.359 2.682z" fill="#3F3D56"/>
<path d="m31.087 108.5c0.223 0 0.4038-0.188 0.4038-0.42s-0.1808-0.419-0.4038-0.419-0.4038 0.187-0.4038 0.419 0.1808 0.42 0.4038 0.42z" fill="#3F3D56"/>
<path d="m29.879 111.85c0.2677 0 0.4846-0.226 0.4846-0.504s-0.2169-0.503-0.4846-0.503c-0.2676 0-0.4846 0.225-0.4846 0.503s0.217 0.504 0.4846 0.504z" fill="#3F3D56"/>
<path d="m31.652 110.51 4.8436-2.347" stroke="#3F3D56" stroke-miterlimit="10"/>
<path d="m74.56 121.42-13.673 8.2c-1.9867 1.191-2.6673 3.83-1.5203 5.894 1.147 2.063 3.6873 2.77 5.6739 1.579l13.673-8.2c1.9867-1.192 2.6673-3.831 1.5203-5.894-1.1469-2.064-3.6873-2.771-5.6739-1.579z" fill="#03C6AF"/>
<path d="m86.79 127.89-13.673 8.2c-1.9867 1.191-2.6674 3.83-1.5204 5.894s3.6873 2.771 5.674 1.579l13.673-8.2c1.9866-1.192 2.6673-3.83 1.5203-5.894s-3.6873-2.771-5.674-1.579z" fill="#03C6AF"/>
<path d="m63.484 113.99-13.673 8.2c-1.9866 1.191-2.6673 3.83-1.5203 5.894 1.147 2.063 3.6873 2.77 5.674 1.579l13.673-8.2c1.9867-1.192 2.6674-3.83 1.5204-5.894s-3.6874-2.771-5.674-1.579z" fill="#03C6AF"/>
</svg>
