<?xml version="1.0" encoding="UTF-8"?>
<svg viewBox="0 0 796 629" xmlns="http://www.w3.org/2000/svg">
<path d="m555.89 544.19h-1.861v-203.63c1e-3 -0.83-0.183-1.649-0.539-2.398-0.357-0.75-0.876-1.41-1.52-1.932l1.176-1.443c0.859 0.697 1.551 1.577 2.026 2.576 0.475 0.998 0.72 2.091 0.718 3.197v203.63z" fill="#3F3D56"/>
<path d="m382.8 78.506s0 1.284-1.387 5.9178l1.387-5.9178z" fill="#3F3D56"/>
<path d="m552.72 272.33c-36.603 19.075-84.485 35.544-98.826 40.317 10.935-2.847 42.763-6.681 92.078 24.081 61.963 38.642 128.22 12.877 128.22 12.877s-14.723 28.221-46.011 30.054c-31.289 1.843-112.88-49.677-140.48-34.957-27.612 14.72-40.493-3.685-51.539 33.124-11.038 36.8-31.28 137.38-7.967 193.82l23.304 56.424h-132.51s47.854-127.58 21.47-206.08c-14.77-43.964-35.505-75.805-43.238-91.986-3.881-8.104-4.495-12.272 0.53-12.068 2.857 0.121 7.539 1.657 14.49 4.69 0 0-31.902-31.282-42.325-31.282-10.433 0-59.516-4.904-75.458-21.466 0 0-22.698-15.948-63.191 23.308-40.492 39.256-30.674 39.256-66.867 36.186-35.625-3.024-63.535-20.303-64.401-20.843 1.033 0.419 42.642 17.046 68.077 8.579 25.77-8.588 47.854-41.099 70.553-52.134 22.698-11.044 36.193-25.764 66.867-9.816l-20.214-47.649-5.537-13.055-0.01-0.018s-6.756-89.548-19.636-95.68c-12.88-6.1411-4.905-22.08-28.832-25.15 0 0 29.446-3.6847 34.965 16.562 5.528 20.237 43.564 129.42 43.564 129.42s23.303 46.607 49.073 35.572c25.769-11.045-9.819-72.986-9.819-72.986l-44.168-20.247s33.131-1.228 53.372 17.791c20.242 19.009 21.471 80.345 21.471 80.345s50.916 7.36 63.191 34.967c0 0 7.975-24.536-7.362-39.256-3.834-3.685-7.864-10.086-11.744-17.614-14.711-28.892-20.028-61.656-15.207-93.716 2.28-15.688 3.685-31.031 1.182-34.651-5.519-7.974-28.832-57.038-30.675-69.924-1.833-12.878 1.843-39.861 1.843-39.861s0.614 33.115 7.976 43.546c7.361 10.431 28.217 61.951 28.217 61.951s0 65.011 17.18 96.908c17.18 31.896 50.301 67.468 48.468 90.776v13.492s36.807-34.958 34.35-46.617c-2.457-11.649-5.518-39.256-28.831-55.809-23.313-16.562-38.65-42.941-22.085-80.969 9.316-21.392 13.393-32.883 15.179-38.847l-9.66 41.303s-6.133 42.318 11.047 57.038c0.047 0.037 0.084 0.074 0.13 0.111 17.152 14.739 39.739 41.602 39.739 41.602l-0.065-1.182-4.839-87.138 1.061 2.326 7.649 16.767 7.241 15.864s34.35-44.16 74.843-58.879c40.483-14.72 65.639-66.24 65.639-66.24l34.359-26.993-28.226 33.739s-8.59 39.861-57.049 68.082c-48.469 28.211-79.748 69.915-81.59 95.68-1.843 25.764-3.686 48.458-3.686 48.458s90.794-3.07 111.04-42.941c20.251-39.861 36.817-41.703 36.817-41.703l-11.661 34.343-12.881 29.44s52.759 1.228 80.362 32.511c27.612 31.282 96.313 40.484 96.313 40.484l-38.641 10.421s-36.816-12.263-71.781-34.957c-34.964-22.694-31.288-42.932-74.842-20.238z" fill="#3F3D56"/>
<path d="m572.28 188.64c-3.881 17.177-8.451 33.767-14.872 46.412-20.242 39.87-111.04 42.941-111.04 42.941s0.428-5.267 1.079-13.576c23.053-1.898 86.067-10.002 102.51-42.392 1.507-2.959 2.903-6.141 4.225-9.49l18.092-23.895z" opacity=".1"/>
<path d="m431.04 237.51s-22.699-26.992-39.869-41.712c-3.769-3.22-6.412-7.779-8.246-12.915-0.149-0.41-0.288-0.828-0.428-1.247 0.4 0.391 0.8 0.772 1.229 1.135 15.03 12.887 34.303 35.181 38.873 40.531 0.642 0.763 0.996 1.182 0.996 1.182l-4.775-85.994 7.65 16.767 4.57 82.253z" opacity=".1"/>
<path d="m444.18 160.07c-0.134 15.101-2.094 24.083-2.094 24.083s34.34-44.142 74.818-58.872c2.392-1.513 4.819-3.003 7.303-4.449 48.465-28.214 57.053-68.082 57.053-68.082l28.22-33.734-34.354 26.987s-25.153 51.521-65.642 66.242c-27.599 10.034-52.343 33.744-65.304 47.825z" opacity=".1"/>
<path d="m391.17 306.21v13.493s36.808-34.961 34.354-46.614c-1.876-8.913-4.123-27.148-15.498-42.643 5.127 11.71 6.688 23.132 8.053 29.616 1.76 8.357-16.669 28.698-27.238 39.538 0.371 2.183 0.482 4.401 0.329 6.61z" opacity=".1"/>
<path d="m341.79 213.61c0.291 0.622 0.592 1.233 0.911 1.825 9.407 17.467 23.59 36.035 34.201 53.09-8.576-16.89-23.501-36.204-35.112-54.915z" opacity=".1"/>
<path d="m546.9 336.73c-20.18-12.586-37.43-19.377-51.52-22.818-14.781 5.562-26.946 9.71-33.068 11.746 10.978-2.841 42.784-6.615 92.033 24.098 38.641 24.098 78.95 23.148 103.82 19.02 6.878-5.188 12.642-11.706 16.951-19.166 0 0-66.255 25.761-128.22-12.88z" opacity=".1"/>
<path d="m371.7 187.49c-4.947-12.118-5.762-26.539-0.079-43.437-0.071-6.124 0.283-12.245 1.058-18.32l9.66-41.314c-1.781 5.9578-5.856 17.451-15.181 38.86-11.805 27.103-7.399 48.282 4.542 64.211z" opacity=".1"/>
<path d="m642.61 276.62c-19.145-21.694-50.382-28.931-67.735-31.33l-5.185 11.849s52.759 1.226 80.365 32.507c15.309 17.347 43.254 27.9 65.116 33.863l23.753-6.408s-68.708-9.201-96.314-40.481z" opacity=".1"/>
<path d="m267.25 268.18c25.765-11.041-9.816-72.989-9.816-72.989l-0.973-0.446c8.87 18.712 21.735 52.527 3.343 60.408-17.21 7.374-33.322-10.972-42.127-23.97 0.32 0.919 0.495 1.423 0.495 1.423s23.312 46.614 49.078 35.574z" opacity=".1"/>
<path d="m351.29 308.05s7.764-23.926-6.821-38.699c3.577 12.727-0.624 25.673-0.624 25.673-9.491-21.351-42.105-30.588-56.39-33.677 0.554 7.108 0.648 11.743 0.648 11.743s50.918 7.36 63.187 34.96z" opacity=".1"/>
<path d="m382.34 84.423c1.382-4.6248 1.383-5.9141 1.383-5.9141l-1.383 5.9141z" opacity=".1"/>
<path d="m76.084 330.24c0.1238-0.039 0.2494-0.076 0.3723-0.117 25.766-8.587 47.85-41.094 70.55-52.134 22.698-11.041 36.194-25.761 66.868-9.814 0 0-5.366-21.961-15.765-36.389 3.444 7.532 6.228 15.349 8.32 23.362-30.674-15.947-44.17-1.226-66.868 9.814-22.699 11.04-44.784 43.548-70.55 52.135s-68.095-8.587-68.095-8.587 28.22 17.787 64.414 20.854c4.1405 0.35 7.6733 0.66 10.754 0.876z" opacity=".1"/>
<path d="m188.11 207.46s-1.005 0.019-2.829 0.047l-5.537-13.055c0.605-9e-3 0.921-0.018 0.921-0.018s-4.262-56.479-12.471-82.802c0.103 0.046 0.186 0.102 0.28 0.148 12.88 6.132 19.636 95.68 19.636 95.68z" opacity=".1"/>
<path d="m331.85 628.07c11.24-34.451 38.273-129.72 16.99-193.06-9.191-27.355-17.711-44.798-24.913-55.926 5.386 10.534 11.275 24.468 17.467 42.899 26.38 78.509-21.471 206.09-21.471 206.09h11.927z" opacity=".1"/>
<path d="m320.62 335.65c-7.402-3.255-15.324-5.167-23.396-5.648-3.881-8.105-4.495-12.273 0.53-12.069 1.396 0.252 2.801 0.549 4.197 0.894 9.865 8.188 18.669 16.823 18.669 16.823z" opacity=".1"/>
<path d="m154.54 92.795c0.7 1.1782 1.548 2.2619 2.523 3.2246-0.716-1.1668-1.563-2.2486-2.523-3.2246z" opacity=".1"/>
<path d="m266.63 192.74c0.948 0.896 1.837 1.854 2.66 2.867-2.688-6.459-6.006-12.044-10.105-15.894-20.245-19.013-53.372-17.787-53.372-17.787l41.545 19.038c7.119 2.655 13.662 6.653 19.272 11.776z" opacity=".1"/>
<path d="m310.72 109.79c2.503 3.615 1.097 18.959-1.189 34.651-4.819 32.059 0.5 64.822 15.212 93.711 1.955 3.866 4.137 7.612 6.537 11.219-14.021-28.462-19.011-60.527-14.304-91.903 2.286-15.693 3.692-31.036 1.189-34.652-5.521-7.973-28.833-57.042-30.674-69.922-0.551-4.997-0.68-10.032-0.384-15.05-4.765-13.518-5.221-37.844-5.221-37.844s-3.68 26.987-1.84 39.868c1.84 12.88 25.152 61.948 30.674 69.922z" opacity=".1"/>
<path d="m151.59 86.769c5.407 0.6617 11.626 2.3202 16.37 6.1666-0.31-1.0464-0.579-1.9845-0.794-2.7727-5.522-20.241-34.968-16.56-34.968-16.56 13.307 1.7057 16.744 7.3963 19.392 13.167z" opacity=".1"/>
<path d="m730.11 596.56c-9.149 14.028-6.642 31.87-6.642 31.87s17.341-4.902 26.49-18.93 6.642-31.87 6.642-31.87-17.34 4.903-26.49 18.93z" fill="#3F3D56"/>
<path d="m736.98 599.04c-0.723 16.732-13.145 29.784-13.145 29.784s-11.25-14.075-10.527-30.806c0.723-16.732 13.145-29.784 13.145-29.784s11.25 14.075 10.527 30.806z" fill="#03C6AF"/>
<path d="m575.84 493.16s10.527-11.042 14.836-8.82c4.309 2.221-12.389 12.095-12.389 12.095l-2.447-3.275z" fill="#FFB9B9"/>
<path d="m575.84 493.16s10.527-11.042 14.836-8.82c4.309 2.221-12.389 12.095-12.389 12.095l-2.447-3.275z" opacity=".1"/>
<path d="m543.72 469.06s-3.87 6.935-2.858 14.411c1.013 7.476 10.274 31.466 13.423 31.04 3.148-0.426 26.47-17.608 26.47-17.608l-4.448-6.21-17.037 10.321s-2.596-36.913-15.55-31.954z" fill="#D0CDE1"/>
<path d="m606.89 485.94-26.561 14.586c-0.154 0.102-0.328 0.17-0.511 0.197-0.183 0.028-0.369 0.015-0.547-0.037-0.177-0.053-0.34-0.143-0.479-0.265-0.139-0.123-0.249-0.274-0.322-0.443l-6.507-13.598c-0.123-0.387-0.103-0.806 0.057-1.181 0.159-0.374 0.448-0.678 0.813-0.857l22.052-11.364c0.272-0.163 0.594-0.221 0.905-0.161 0.312 0.059 0.59 0.231 0.782 0.483l11.015 10.376c0.109 0.193 0.177 0.406 0.2 0.626 0.024 0.221 2e-3 0.443-0.063 0.655s-0.173 0.408-0.316 0.577c-0.144 0.169-0.32 0.307-0.518 0.406z" fill="#2F2E41"/>
<path d="m605.12 483.93-24.899 14.229-6.627-11.939 21.361-11.615 10.165 9.325z" fill="#03C6AF"/>
<path d="m584.23 479.82c0.13-0.155 0.127-0.371-5e-3 -0.481-0.133-0.111-0.345-0.075-0.475 0.081-0.13 0.155-0.127 0.371 5e-3 0.481 0.133 0.111 0.345 0.075 0.475-0.081z" fill="#F2F2F2"/>
<path d="m593.39 491.97c0.086-0.104 0.085-0.247-4e-3 -0.321-0.088-0.074-0.23-0.049-0.316 0.054-0.087 0.104-0.085 0.247 3e-3 0.321s0.23 0.05 0.317-0.054z" fill="#F2F2F2"/>
<path d="m543.72 469.06s-3.87 6.935-2.858 14.411c1.013 7.476 10.274 31.466 13.423 31.04 3.148-0.426 26.47-17.608 26.47-17.608l-4.448-6.21-17.037 10.321s-2.596-36.913-15.55-31.954z" opacity=".1"/>
<path d="m568.72 495.27s11.915-9.529 15.886-6.75c3.972 2.78-13.9 10.324-13.9 10.324l-1.986-3.574z" fill="#FFB9B9"/>
<path d="m552.83 457.15c6.361 0 11.518-5.156 11.518-11.516 0-6.359-5.157-11.515-11.518-11.515s-11.517 5.156-11.517 11.515c0 6.36 5.156 11.516 11.517 11.516z" fill="#FFB9B9"/>
<path d="m592.55 525.84s12.312 1.588 11.915 9.132c-0.397 7.545-9.532 38.913-9.532 38.913l-0.794 12.31s0.794 20.647-1.589 20.25-7.943-14.691-7.943-14.691-6.751-4.368-3.574-8.339 5.56-3.574 4.766-7.941c-0.795-4.368-0.398-22.633 1.985-28.192s3.772-8.625 3.772-8.625l-7.743-0.508 8.737-12.309z" fill="#FFB9B9"/>
<path d="m592.55 525.84s12.312 1.588 11.915 9.132c-0.397 7.545-9.532 38.913-9.532 38.913l-0.794 12.31s0.794 20.647-1.589 20.25-7.943-14.691-7.943-14.691-6.751-4.368-3.574-8.339 5.56-3.574 4.766-7.941c-0.795-4.368-0.398-22.633 1.985-28.192s3.772-8.625 3.772-8.625l-7.743-0.508 8.737-12.309z" opacity=".1"/>
<path d="m593.34 527.83s11.914 2.78 13.106 10.721c1.191 7.942 7.148 31.369 7.148 31.369l6.355 14.691s9.928 17.868 5.56 17.471c-4.369-0.397-10.326-9.132-12.312-9.132s-7.943-2.383-7.546-3.971 3.177-6.353 3.177-6.353l-9.608-16.734c-1.855-3.231-3.258-6.701-4.168-10.313-0.987-3.919-2.11-8.72-2.11-10.278 0-2.779-7.943-3.97-7.943-3.97l8.341-13.501z" fill="#FFB9B9"/>
<path d="m554.42 502.41 5.56 15.882s8.738 2.383 15.092 4.368c6.354 1.986 18.269-0.794 19.46 3.971 1.192 4.765-2.383 13.103-5.957 15.089-3.574 1.985-5.56 3.97-17.077 0.794-11.518-3.177-38.921-3.971-38.921-3.971-2.657 1.594-5.648 2.545-8.737 2.78-5.163 0.397-6.355 0.794-7.943-0.398-1.589-1.191 0.794-1.191 1.588-4.367 0.795-3.177 1.192-1.986 4.766-5.559 3.574-3.574 6.355-14.295 8.34-17.868 1.986-3.574 3.177-10.721 3.177-10.721h20.652z" fill="#2F2E41"/>
<path d="m553.63 455.16c-1.443 1.054-2.624 2.426-3.45 4.01-0.827 1.584-1.277 3.337-1.316 5.123 0 5.956-11.915-6.353-11.915-6.353s6.355-7.942 6.355-10.324c0-2.383 10.326 7.544 10.326 7.544z" fill="#FFB9B9"/>
<path d="m538.54 452.78s7.149 2.779 8.737 6.75c1.589 3.971 7.546 12.309 7.546 12.309s8.34 8.736 5.56 18.265c-2.78 9.53-5.163 11.913-5.163 13.501s-3.971 4.368-7.148 3.971c-3.177-0.398-15.092-1.986-15.886-3.574-0.795-1.588-5.56-24.221-2.383-32.56 2.577-6.372 5.494-12.602 8.737-18.662z" fill="#D0CDE1"/>
<path d="m556.17 446.16c2.577 0.611 5.107-1.031 7.218-2.659 1.2-0.924 2.519-2.242 2.152-3.73-0.326-1.319-1.881-2.067-2.107-3.409-0.158-0.932 0.387-1.838 0.432-2.783-0.04-0.72-0.276-1.415-0.684-2.01s-0.971-1.066-1.629-1.362c-1.255-0.676-2.679-0.958-3.969-1.563-1.97-0.924-3.608-2.589-5.712-3.123-2.874-0.729-5.8 0.823-8.755 1.024-1.789 0.122-3.6-0.255-5.369 0.038-1.687 0.341-3.21 1.24-4.324 2.552s-1.753 2.961-1.815 4.681c-0.023 1.263 0.229 2.673-0.525 3.676-0.298 0.345-0.637 0.652-1.01 0.914-2.628 2.125-3.821 5.675-3.957 9.095-0.067 1.683 0.286 3.682 1.779 4.398 0.8 0.273 1.646 0.391 2.49 0.346 0.424-0.018 0.847 0.068 1.23 0.251s0.715 0.457 0.968 0.798c0.681 1.2-0.339 2.972 0.551 4.019 0.669 0.787 1.973 0.526 2.753-0.145 0.781-0.67 1.268-1.634 2.008-2.35 1.44-1.394 3.575-1.647 5.548-1.859 0.585-5e-3 1.154-0.191 1.627-0.534 0.359-0.376 0.592-0.854 0.668-1.368 0.26-1.183 0.263-2.408 0.01-3.592-0.125-0.367-0.141-0.762-0.046-1.138 0.131-0.266 0.332-0.492 0.583-0.652 1.223-0.918 3.365-2.256 4.955-2.003 1.763 0.281 3.151 2.065 4.93 2.488z" fill="#2F2E41"/>
<path d="m540.12 467.07s-4.766 6.353-4.766 13.898c0 7.544 5.957 32.559 9.134 32.559s28.595-13.897 28.595-13.897l-3.574-6.75-18.269 7.941s2.383-36.927-11.12-33.751z" fill="#D0CDE1"/>
<path d="m594.05 538.74h-91.204v17.679h91.204v-17.679z" fill="#03C6AF"/>
<path d="m548.45 557.35c-1.974-2e-3 -3.866-0.787-5.262-2.183-1.396-1.395-2.181-3.287-2.183-5.261v-209.35c0-1.408 0.399-2.787 1.151-3.977s1.826-2.142 3.098-2.746c1.271-0.605 2.688-0.836 4.086-0.668 1.397 0.168 2.719 0.729 3.811 1.618l-1.176 1.443c-0.819-0.667-1.81-1.087-2.858-1.213-1.049-0.126-2.111 0.047-3.065 0.501-0.953 0.453-1.759 1.167-2.323 2.06-0.564 0.892-0.863 1.926-0.863 2.982v209.35c2e-3 1.48 0.591 2.9 1.638 3.946 1.046 1.047 2.466 1.636 3.946 1.637v1.861z" fill="#3F3D56"/>
<path d="M796 627.139H45.896V629H796V627.139Z" fill="#3F3D56"/>
<path d="m534.37 440.43c0.401-0.322-0.057-1.557-1.023-2.759-0.965-1.202-2.073-1.916-2.474-1.594-0.4 0.322 0.058 1.557 1.023 2.759 0.966 1.202 2.073 1.916 2.474 1.594z" fill="#03C6AF"/>
<path d="m454.64 596.56c-9.149 14.028-6.642 31.87-6.642 31.87s17.341-4.902 26.49-18.93 6.642-31.87 6.642-31.87-17.341 4.903-26.49 18.93z" fill="#3F3D56"/>
<path d="m461.51 599.04c-0.724 16.732-13.146 29.784-13.146 29.784s-11.25-14.075-10.527-30.806c0.723-16.732 13.146-29.784 13.146-29.784s11.25 14.075 10.527 30.806z" fill="#03C6AF"/>
<path d="m304.07 601.86c4.374 16.166 19.356 26.178 19.356 26.178s7.89-16.198 3.516-32.364-19.356-26.178-19.356-26.178-7.89 16.198-3.516 32.364z" fill="#3F3D56"/>
<path d="m310.49 598.39c12.002 11.681 13.468 29.639 13.468 29.639s-17.993-0.983-29.996-12.664c-12.002-11.682-13.468-29.639-13.468-29.639s17.994 0.982 29.996 12.664z" fill="#03C6AF"/>
<path d="m270.71 160.08c-1.043 16.715-13.713 29.526-13.713 29.526s-10.978-14.287-9.935-31.001c1.043-16.715 13.714-29.526 13.714-29.526s10.978 14.287 9.934 31.001z" fill="#03C6AF"/>
<path d="m138.64 54.418c14.169 8.9314 19.337 26.192 19.337 26.192s-17.804 2.7794-31.974-6.152c-14.169-8.9313-19.337-26.191-19.337-26.191s17.805-2.7795 31.974 6.1519z" fill="#03C6AF"/>
<path d="m107 258.19c14.169 8.932 19.337 26.192 19.337 26.192s-17.804 2.779-31.974-6.152c-14.169-8.931-19.337-26.192-19.337-26.192s17.805-2.779 31.974 6.152z" fill="#03C6AF"/>
<path d="m395.05 84.208c-4.273 16.193-19.192 26.298-19.192 26.298s-7.991-16.148-3.718-32.341c4.273-16.193 19.192-26.298 19.192-26.298s7.991 16.149 3.718 32.341z" fill="#03C6AF"/>
<path d="m529.84 96.834c-5.023 15.976-20.396 25.376-20.396 25.376s-7.231-16.503-2.209-32.479c5.023-15.976 20.396-25.376 20.396-25.376s7.231 16.503 2.209 32.479z" fill="#03C6AF"/>
<path d="m675.53 274.64c-9.098 14.062-26.42 19.028-26.42 19.028s-2.573-17.833 6.525-31.894c9.097-14.062 26.42-19.027 26.42-19.027s2.572 17.832-6.525 31.893z" fill="#03C6AF"/>
<path d="m84.916 495.03c-0.0025 0.25-0.0199 0.5-0.0523 0.749 0.0324-0.249 0.0498-0.499 0.0523-0.749z" fill="#03C6AF" opacity=".1"/>
<path d="m81.817 500.14c0.4463-0.233 0.8596-0.525 1.229-0.867-0.3694 0.342-0.7827 0.634-1.229 0.867z" fill="#03C6AF" opacity=".1"/>
<path d="m94.454 458.43c-0.0028 0.262 0.0092 0.524 0.036 0.785 0.2153 2.457 1.3841 4.731 3.2557 6.336 1.8716 1.604 4.2967 2.411 6.7557 2.247 2.459-0.165 4.756-1.287 6.398-3.126s2.498-4.249 2.385-6.713c-0.113-2.463-1.186-4.785-2.989-6.466s-4.193-2.588-6.656-2.526c-2.464 0.061-4.8053 1.086-6.5224 2.855-1.7171 1.77-2.6731 4.142-2.663 6.608z" fill="#FDC2CC"/>
<path d="m110.54 453.65c0.052 0.428-0.076 0.86-0.04 1.288 0.049 0.56 0.37 1.047 0.612 1.551 0.241 0.504 0.418 1.112 0.17 1.613-0.21 0.425-0.654 0.654-0.981 1.03-0.49 0.592-0.52 1.459-0.298 2.195 0.157 0.527 0.422 1.115 0.144 1.59-0.242 0.409-0.82 0.559-0.98 1.004-0.073 0.287-0.043 0.59 0.085 0.857 0.248 0.67 0.578 1.308 0.797 1.989 0.255 0.672 0.294 1.407 0.111 2.103-0.021 0.088-0.065 0.17-0.127 0.236-0.096 0.066-0.21 0.103-0.327 0.104l-0.902 0.095c-0.356 0.039-0.798 0.036-0.981-0.278-0.085-0.15-0.091-0.356-0.238-0.445-0.147-0.088-0.412 0.066-0.569 0.223-0.901 0.908-2.083 1.485-3.354 1.635-0.334 0.07-0.682 0.017-0.98-0.15-0.272-0.19-0.406-0.53-0.654-0.723-0.602-0.445-1.494 0.055-2.1901-0.219-0.6178-0.246-0.8498-1.001-0.876-1.669-0.0261-0.667 0.0621-1.364-0.2255-1.962-0.2486-0.398-0.5295-0.774-0.8401-1.126-0.4975-0.775-0.6897-1.707-0.5393-2.616 0.1487-0.897 0.4238-1.768 0.8171-2.588 0.6244-1.439 1.3467-2.888 2.5099-3.925 0.261-0.207 0.498-0.441 0.707-0.7 0.529-0.746 0.389-1.839 0.98-2.535 0.474-0.563 1.281-0.697 2.017-0.684 1.017 0.016 2.019 0.245 2.942 0.674 0.279 0.146 0.575 0.256 0.882 0.327 0.572 0.101 0.857-0.389 1.409-0.144 0.247 0.113 0.461 0.287 0.622 0.505 0.16 0.219 0.263 0.475 0.297 0.745z" fill="#464A5F"/>
<g opacity=".1">
<path d="m107.76 452.57c-0.308-0.069-0.606-0.179-0.886-0.327-0.888-0.407-1.85-0.629-2.827-0.654h0.327c1.017 0.016 2.019 0.245 2.942 0.674 0.262 0.139 0.54 0.249 0.827 0.327-0.128 0.02-0.258 0.013-0.383-0.02z" opacity=".1"/>
<path d="m108.36 469.3 0.905-0.095c0.117-1e-3 0.231-0.037 0.327-0.104 0.063-0.064 0.108-0.145 0.127-0.233 0.182-0.696 0.145-1.432-0.107-2.106-0.223-0.681-0.553-1.309-0.798-1.989-0.129-0.267-0.16-0.571-0.085-0.857 0.167-0.445 0.745-0.596 0.981-1.004 0.281-0.471 0-1.064-0.144-1.59-0.222-0.736-0.193-1.603 0.297-2.195 0.304-0.367 0.762-0.605 0.981-1.031 0.248-0.5 0.075-1.108-0.167-1.609-0.242-0.5-0.565-0.981-0.614-1.554-0.036-0.428 0.091-0.86 0.039-1.289-0.039-0.265-0.144-0.516-0.307-0.73-0.162-0.213-0.376-0.382-0.621-0.49-0.036-0.013-0.072-0.024-0.108-0.032 0.179-0.059 0.374-0.047 0.546 0.032 0.245 0.109 0.459 0.277 0.622 0.491 0.163 0.213 0.269 0.464 0.309 0.729 0.052 0.429-0.075 0.861-0.039 1.289 0.049 0.56 0.369 1.05 0.611 1.554s0.419 1.109 0.17 1.609c-0.209 0.426-0.654 0.655-0.98 1.031-0.491 0.592-0.52 1.459-0.298 2.195 0.157 0.526 0.422 1.119 0.144 1.59-0.242 0.408-0.821 0.559-0.981 1.004-0.073 0.287-0.043 0.59 0.085 0.857 0.249 0.67 0.579 1.308 0.798 1.989 0.254 0.673 0.293 1.41 0.111 2.106-0.021 0.088-0.065 0.168-0.127 0.233-0.097 0.066-0.21 0.103-0.327 0.104l-0.903 0.095c-0.157 0.018-0.316 0.018-0.473 0h0.026z" opacity=".1"/>
<path d="m103.22 470.45c1.27-0.152 2.451-0.729 3.354-1.635 0.153-0.157 0.379-0.327 0.569-0.223 0.023 0.016 0.043 0.036 0.058 0.059-0.067 0.05-0.13 0.104-0.189 0.164-0.902 0.907-2.084 1.483-3.354 1.635-0.177 0.022-0.356 0.022-0.533 0h0.095z" opacity=".1"/>
<path d="m101.09 469.39c-0.301 0.036-0.603 0.048-0.906 0.036 0.3-0.041 0.603-0.053 0.906-0.036z" opacity=".1"/>
</g>
<path d="m57.835 601.1c0.6047 3.251 10.561 3.801 10.411 3.693-0.0378-0.295-0.0189-0.595 0.0555-0.883 0.1406-0.982 0.4446-2.473 0.4446-2.473s1.8631-0.72 1.4807-1.659c-0.3825-0.938 0.6047-2.914 0.6047-2.914 1.5395-1.155 2.7522-4.792 2.7522-4.792l3.8472-6.87 1.9808-3.47c0.3269-3.134 5.1188-4.508 5.1188-4.508s10.617-19.434 11.002-20.867c0.3857-1.432 1.2094-1.593 1.2094-1.593s12.362 15.95 12.417 16.794c0.056 0.844 1.926 2.149 1.926 2.149s-0.275 2.202 0.055 3.465c0.33 1.262 0.549 1.485 0.549 1.485s1.213 0.441 1.373 3.196c0.16 2.754 4.576 12.332 4.576 12.332s3.792 6.437 3.792 7.268c0.047 0.74 0.143 1.475 0.288 2.202 0.081 0.471 0.153 0.824 0.153 0.824s9.46-3.543 10.172-3.808c0.246-0.095 0.259-0.415 0.164-0.795-0.172-0.571-0.411-1.12-0.713-1.635 0 0-1.307-0.105-1.101-1.263s-0.88-2.146-0.88-2.146l-3.922-14.039s-0.49-7.265-1.206-7.54-0.219-2.316 0.327-3.082c0.546-0.765-1.043-3.925-1.043-3.925s-0.601-2.915-1.484-2.915c-0.882 0-1.758-2.976-1.758-2.976l-4.903-11.724-5.858-10.271-1.239-2.169s-24.646-2.205-27.669-0.772c-1.0166 0.481-1.2748 1.541-1.1702 2.735 0.2092 2.355 1.8304 5.233 1.8304 5.233s-0.9348 2.372-0.7158 3.801c0.219 1.43-2.1443 3.631-2.1443 3.631s0.1635 2.535-0.6537 3.474-1.2225 4.678-1.2225 4.678-3.1347 3.69-3.0268 4.792c0.1079 1.103-1.265 5.116-1.265 5.116s-2.0887 0.609-2.0887 1.983c0 1.373-1.8141 3.925-1.8141 3.925-4.4911 3.968-6.9655 16.464-6.9655 16.464s-2.3665 5.341-2.4188 6.326c-0.0327 0.566-0.4315 1.613-0.7714 2.424-0.2681 0.621-0.4969 1.099-0.4969 1.099z" fill="#5F5D7E"/>
<path d="m94.454 458.43c-0.0028 0.262 0.0092 0.524 0.0359 0.785 1.1114 0.576 2.2162 1.135 3.1347 1.6 1.3075 0.654 2.2194 1.099 2.2194 1.099s4.8054-2.944 5.6844-4.295 3.595-3.412 3.595-3.412 0.68-0.206 1.419-0.501c0.419-0.161 0.827-0.351 1.219-0.569-1.137-1.677-2.78-2.946-4.69-3.62-1.91-0.675-3.985-0.72-5.922-0.128-1.9374 0.592-3.634 1.789-4.8418 3.416-1.2077 1.627-1.8631 3.598-1.87 5.625h0.0164z" opacity=".1"/>
<path d="m109.12 453.77s3.485-1.066 3.269-1.799c-0.216-0.732-2.053-4.147-2.566-4.252s-7.299-5.067-8.825-5.433c-1.5268-0.367-5.6094-1.028-6.3448-0.916-0.7355 0.111-2.8242-1.871-3.8146 2.384-0.9904 4.256-1.5395 5.506-1.5395 5.506s-0.5851 5.541-0.255 6.313c0.3302 0.772 10.816 5.908 10.816 5.908s4.8048-2.944 5.6838-4.295c0.88-1.351 3.576-3.416 3.576-3.416z" fill="#65617D"/>
<path d="m79.604 538.16c4.7526 1.011 22.963 1.011 22.963 1.011s3.7-0.37 7.122-0.801l-1.239-2.169s-24.646-2.205-27.669-0.772c-1.0231 0.471-1.2813 1.537-1.1767 2.731z" opacity=".1"/>
<path d="m78.574 536.91c1.6344 1.374 23.986 1.374 23.986 1.374s7.701-0.772 11.163-1.374c3.461-0.602 3.196-1.93 2.536-2.097s-1.379-6.271-1.379-6.271c-1.043-1.655-2.419-14.533-2.419-14.533s-0.441-9.029-0.327-10.684-3.85-15.577-4.511-16.074c-0.418-0.327-1.739-3.271-2.654-5.401-0.526-1.236-0.925-2.191-0.925-2.191-2.801-5.064-16.608-6.281-17.706-5.62-0.3581 0.292-0.6397 0.667-0.8204 1.092-0.8629 1.665-1.6572 4.528-1.6572 4.528s-4.952 25.043-3.7982 30.441c1.1538 5.397-1.1015 12.603-1.1015 12.603s-2.0364 12.83-0.3858 14.207z" fill="#03C6AF"/>
<path d="m94.029 532.56h4.9521v2.202h-4.9521v-2.202z" fill="#5F5D7E"/>
<path d="m106.52 536.69s2.534 4.579 3.413 4.733 2.144 7.102-2.916 9.486c-5.06 2.385-5.23-7.101-5.23-7.101l-2.0131-7.982 5.4811-2.038 1.265 2.902z" opacity=".1"/>
<path d="m106.96 536.25s2.53 4.58 3.409 4.737 2.148 7.101-2.916 9.466c-5.063 2.365-5.229-7.101-5.229-7.101l-2.011-7.982 5.479-2.038 1.268 2.918z" fill="#464A5F"/>
<path d="m85.671 556.56s-3.9617 4.252-6.1059 2.368c-2.1443-1.884 6.1059-2.368 6.1059-2.368z" opacity=".1"/>
<path d="m79.454 563.17s-3.2425 4.073-3.2981 1.872c-0.0556-2.202 3.2981-1.872 3.2981-1.872z" opacity=".1"/>
<path d="m76.156 572.86s-2.311 0.163-3.138-1.047l3.138 1.047z" opacity=".1"/>
<path d="m73.845 576.49s-1.5395 0.827-2.5855-0.439l2.5855 0.439z" opacity=".1"/>
<path d="m101.79 546.93s-0.981 5.617-5.0603 7.818l5.0603-7.818z" opacity=".1"/>
<path d="m118.18 577.77s0.497 1.432-2.255 1.818c-2.753 0.386 2.255-1.818 2.255-1.818z" opacity=".1"/>
<path d="m116.92 572.86s-1.814 3.405-2.53 3.186l2.53-3.186z" opacity=".1"/>
<path d="m114.6 569.87s-0.549 1.557-1.925 1.393c-1.376-0.163 1.925-1.393 1.925-1.393z" opacity=".1"/>
<path d="m121.71 603.63c0.082 0.471 0.154 0.824 0.154 0.824s9.466-3.526 10.178-3.791c0.246-0.095 0.259-0.415 0.164-0.795-1.589-1.423-5.282 1.181-5.282 1.181s-3.789 0.985-5.214 2.581z" opacity=".1"/>
<path d="m127.63 619.18c-2e-3 0.01-2e-3 0.021 0 0.032 0 0-0.383 2.202-0.278 3.193s2.919 0.494 4.017 0 11.552-4.792 12.748-5.119c1.196-0.328 6.492-4.076 8.361-7.266 0.902-1.547 0.124-1.962-1.033-1.877-1.19 0.118-2.349 0.451-3.422 0.981-0.981 0.586-3.301-0.196-5.168-0.033-1.866 0.164-4.295-0.327-5.449-0.88-1.153-0.552-3.131-5.233-4.452-7.487-1.32-2.254-5.615 0.772-5.615 0.772s-4.374 1.135-5.488 2.964c-1.115 1.828 3.922 8.037 3.739 9.188-0.183 1.152 1.84 5.136 2.04 5.532z" fill="#464A5F"/>
<path d="m127.37 622.4c0.115 0.981 2.919 0.494 4.017 0 1.099-0.494 11.552-4.792 12.748-5.119 1.197-0.327 6.492-4.076 8.361-7.266 0.903-1.547 0.125-1.962-1.032-1.877-0.623 1.327-1.598 2.459-2.818 3.271-3.246 2.29-10.287 5.522-10.287 5.522s-3.961-0.164-5.775 0.981c-1.197 0.762-3.524 1.093-4.962 1.233-2e-3 0.011-2e-3 0.022 0 0.033 0 0-0.356 2.231-0.252 3.222z" fill="#464A5F"/>
<path d="m128.91 604.8s3.906 7.419 3.906 7.916 1.539 5.119 1.539 5.119l-2.722 1.103-1.02-5.947-3.628-7.157 1.925-1.034z" fill="#464A5F"/>
<path d="m57.834 601.1c0.6047 3.251 10.561 3.801 10.411 3.693-0.0377-0.295-0.0189-0.595 0.0556-0.883-1.3173-1.603-4.9586-1.603-4.9586-1.603-1.3158-1.377-3.1093-2.197-5.0109-2.29-0.268 0.605-0.4968 1.083-0.4968 1.083z" opacity=".1"/>
<path d="m51.072 618.49c0.438 1.818 10.891 5.724 10.891 5.724s10.891 0.389 13.254-0.491c0.7029-0.212 1.3017-0.678 1.6801-1.308 0.4184-0.805 0.1111-1.636-0.4642-1.874-0.9381-0.386-5.1776-1.652-5.1776-1.652s-2.8601-3.523-3.9583-4.793c-1.0983-1.269 0.219-3.523 1.3074-7.196 1.0885-3.674-5.2625-3.71-5.2625-3.71-2.8601-2.917-6.1615-2.26-6.1615-2.26s-0.3824 6.389-2.4188 8.698-2.3633 6.058-2.3633 6.058c-0.0876 0.051-0.1717 0.108-0.2517 0.17-0.4772 0.354-1.412 1.256-1.0754 2.634z" fill="#464A5F"/>
<path d="m51.072 618.49c0.438 1.818 10.891 5.724 10.891 5.724s10.891 0.389 13.254-0.491c0.7029-0.212 1.3017-0.678 1.6801-1.308-2.2521 0.353-6.4981 0.981-7.1911 0.824-0.9316-0.219-4.5761 0.164-6.655-1.655s-5.2299-3.085-5.2299-3.085-3.7492-1.524-5.694-2.616c-0.4576 0.327-1.3925 1.229-1.0558 2.607z" fill="#464A5F"/>
<path d="m61.908 606.38-1.9253 7.265-2.4776 5.725-1.9809-0.936 2.9157-5.558 2.092-6.496h1.3761z" fill="#464A5F"/>
<path d="m126.98 605.83 1.925-1.034s3.906 7.419 3.906 7.916c0 0.393 0.98 3.392 1.369 4.609 1.375-0.29 2.78-0.415 4.184-0.373 0 0 7.041-3.245 10.287-5.522 1.22-0.812 2.195-1.943 2.818-3.271 1.157-0.068 1.935 0.327 1.032 1.878-1.869 3.189-7.148 6.931-8.361 7.265s-11.659 4.625-12.748 5.119c-1.088 0.494-3.903 0.982-4.017 0-0.114-0.981 0.278-3.192 0.278-3.192-1e-3 -0.011-1e-3 -0.022 0-0.033 1.331-0.105 2.646-0.356 3.922-0.749l-0.931-5.44-3.664-7.173z" opacity=".1"/>
<path d="m52.141 615.86c1.0296 0.589 2.5659 1.292 3.7819 1.826l2.5169-4.806 2.0886-6.493h1.3761l-1.9252 7.265-2.1017 4.861c0.3824 0.16 3.2359 1.374 5.1808 3.065 2.0919 1.819 5.7234 1.436 6.655 1.655 0.6832 0.157 4.9292-0.471 7.1911-0.824-0.3784 0.63-0.9772 1.096-1.6801 1.308-2.3633 0.88-13.254 0.491-13.254 0.491s-10.46-3.906-10.891-5.724c-0.3432-1.368 0.5916-2.27 1.0623-2.624z" opacity=".1"/>
<path d="m102.41 463.53s-4.8768-5.761-6.4196-6.68-7.737-4.22-7.737-4.22-1.3924 1.103-0.8792 2.054c0 0-0.7355 1.836-1.1735 2.058s-5.3181 6.238-4.988 8.698 2.7882 2.018 3.7786 1.635c0.9904-0.382 8.6522-1.871 8.6522-1.871l8.7665-1.674z" fill="#03C6AF"/>
<path d="m94.967 459.57s-3.3373-0.981-3.5955 0c-0.2582 0.982 3.5955 0 3.5955 0z" opacity=".1"/>
<path d="m85.514 475.13c0.067 0.064 0.138 0.123 0.2125 0.177 0.6537 0.438 7.6487 0.438 9.2405 0.438 1.3271 0 7.6221 4.377 9.9991 6.104-0.526-1.236-0.925-2.191-0.925-2.191-2.801-5.064-16.608-6.281-17.707-5.62-0.3581 0.292-0.6398 0.667-0.8204 1.092z" opacity=".1"/>
<path d="m84.847 473.33s0.219 1.099 0.8792 1.54c0.6603 0.442 7.6488 0.442 9.2406 0.442 1.5919 0 10.46 6.385 10.891 6.771 0.432 0.386 2.864 2.365 2.864 0.654 0-1.71 3.628-4.792 3.677-5.011-0.11-0.915 0.123-1.838 0.654-2.591 0.555-0.811 0.101-3.088-0.363-4.811-0.177-0.65-0.491-1.255-0.921-1.772-0.43-0.518-0.967-0.937-1.573-1.228-2.017-0.981-5.178-2.542-6.825-3.579-0.402-0.258-1.076-0.363-1.926-0.366-4.4319 0-13.604 2.901-13.604 2.901-0.022 0.124-0.0582 0.245-0.1079 0.36-0.5458 1.233-2.6149 1.58-3.8799 2.441-1.3761 0.945 0.9937 4.249 0.9937 4.249z" fill="#5F5D7E"/>
<path d="m110.2 472.83s-5.334 0.274-5.612 0.523 5.612-0.523 5.612-0.523z" opacity=".1"/>
<path d="m95.571 478.56s8.3446 4.073 7.7206 7.377c0 0-1.062 1.155-0.569 2.42 0.494 1.266 0.935 10.183 0.327 10.844s-1.265 2.257-0.935 3.36c0.33 1.102-0.493 6.055-0.493 6.055s-1.213 2.476 0.219 3.029c1.431 0.552 0.163 2.365 0.163 2.365s0 2.257 1.34 2.368 0.255 2.973 0.255 2.973 0.654 1.927 1.707 1.76c1.052-0.167-0.605 2.755-0.605 2.755s4.017 2.695 3.52 7.157l0.556 3.026-7.92 3.415-1.0461-1.983s-2.1443-0.497-1.8697-1.818c0.2745-1.322-1.4317-2.091-1.4317-2.091s-0.3269-2.038-1.4284-2.918c-1.1016-0.879-2.8045-4.625-2.8045-4.625s-0.9806-2.09-2.3666-2.97c-1.3859-0.88-2.4744-5.175-2.4744-5.175l-0.8269-29.564s3.0235-9.081 8.9627-7.76z" opacity=".1"/>
<path d="m93.813 478.56s8.342 4.073 7.721 7.377c0 0-1.066 1.155-0.569 2.42 0.497 1.266 0.935 10.183 0.327 10.844s-1.265 2.257-0.935 3.36c0.33 1.102-0.4969 6.055-0.4969 6.055s-1.2094 2.476 0.2189 3.029c1.429 0.552 0.167 2.365 0.167 2.365s-0.02 2.257 1.337 2.368c1.356 0.111 0.258 2.973 0.258 2.973s0.654 1.927 1.706 1.76c1.053-0.167-0.608 2.755-0.608 2.755s4.017 2.695 3.524 7.157l0.549 3.026-7.9233 3.415-1.0427-1.983s-2.1475-0.497-1.8697-1.818c0.2779-1.322-1.4317-2.091-1.4317-2.091s-0.3268-2.038-1.4316-2.918c-1.1049-0.879-2.8046-4.625-2.8046-4.625s-0.9806-2.09-2.3665-2.97-2.4744-5.175-2.4744-5.175l-0.8237-29.564s3.0137-9.081 8.9692-7.76z" opacity=".1"/>
<path d="m94.692 478.56s8.3448 4.073 7.7208 7.377c0 0-1.066 1.155-0.569 2.42 0.497 1.266 0.935 10.183 0.327 10.844s-1.265 2.257-0.935 3.36c0.33 1.102-0.497 6.055-0.497 6.055s-1.2092 2.476 0.223 3.029c1.431 0.552 0.163 2.365 0.163 2.365s-0.016 2.257 1.34 2.368c1.357 0.111 0.255 2.973 0.255 2.973s0.654 1.927 1.706 1.76c1.053-0.167-0.604 2.755-0.604 2.755s4.014 2.695 3.52 7.157l0.549 3.026-7.9199 3.415-1.046-1.983s-2.1442-0.497-1.8697-1.818c0.2746-1.322-1.4316-2.091-1.4316-2.091s-0.3269-2.038-1.4284-2.918c-1.1016-0.879-2.8079-4.625-2.8079-4.625s-0.9806-2.09-2.3632-2.97c-1.3827-0.88-2.4744-5.175-2.4744-5.175l-0.8237-29.564s3.0268-9.081 8.966-7.76z" fill="#03C6AF"/>
<path d="m100.47 515.94s-2.2554 2.149-2.2554 2.754c0 0.606 2.9714-1.102 2.9714-1.102l-0.716-1.652z" opacity=".1"/>
<path d="m101.79 521.22s-2.2003 2.477-1.484 2.588c0.715 0.111 1.484-2.588 1.484-2.588z" opacity=".1"/>
<path d="m98.213 528.98s5.0073 0.824 3.8503 1.154c-1.157 0.331-3.8503-1.154-3.8503-1.154z" opacity=".1"/>
<path d="m96.81 512.63s-9.0477 4.072-7.5179 5.175c1.5297 1.102 7.5179-5.175 7.5179-5.175z" opacity=".1"/>
<path d="m87.743 466.64c0.2157-0.167 14.67-3.118 14.67-3.118l-0.958-0.143c-4.432 0-13.604 2.901-13.604 2.901-0.022 0.124-0.0582 0.244-0.1078 0.36z" opacity=".1"/>
<path d="m98.049 445.51s-4.3277 5.708-6.3804 4.252c-2.0528-1.455 3.2261-4.69 6.3804-4.252z" opacity=".1"/>
<path d="m107.9 478.83s-3.671-1.102-3.982-1.308c-0.31-0.206 3.982 1.308 3.982 1.308z" opacity=".1"/>
<path d="m90.711 473.3s-3.821 0.327-4.1871 0.226 4.1871-0.226 4.1871-0.226z" opacity=".1"/>
<path d="m88.711 469.36s-3.8178 0.327-4.1872 0.222c-0.3693-0.104 4.1872-0.222 4.1872-0.222z" opacity=".1"/>
<path d="m99.403 469.12s-3.8178 0.327-4.1872 0.226c-0.3693-0.102 4.1872-0.226 4.1872-0.226z" opacity=".1"/>
<path d="m108.78 476.86s-3.668-1.103-3.978-1.309c-0.311-0.206 3.978 1.309 3.978 1.309z" opacity=".1"/>
</svg>
