<svg width="286" height="272" viewBox="0 0 286 272" fill="none" xmlns="http://www.w3.org/2000/svg">
<path d="M143 0C64.4063 0 0 61.7848 0 136.531C0 210.844 63.8193 272 143 272C222.082 272 286 210.935 286 136.531C286 61.7848 221.594 0 143 0ZM168.137 253.672C160.094 255.266 151.547 256.062 143 256.062C134.453 256.062 125.906 255.266 117.863 253.672V216.379C117.863 207.453 120.377 204.266 123.729 199.962C125.435 198.106 126.465 196.442 134.117 185.46L121.215 183.547C88.0331 178.925 74.9628 162.509 69.7675 149.759C63.0644 132.707 66.5839 111.349 78.6504 97.804C80.4942 95.7308 82.002 92.2238 80.6622 88.559C78.1464 81.2273 78.4824 69.5938 80.1582 65.13C89.0433 66.3378 98.1794 72.3911 105.799 76.7656C109.31 78.7142 111.151 78.1996 112.836 78.3594C118.959 77.1475 128.509 74.2152 143.168 74.2152C152.217 74.2152 161.77 75.4894 171.154 78.0398C172.832 78.0024 175.529 79.3596 180.203 76.7656C188.168 72.1504 196.994 66.3046 205.842 65.13C207.518 69.5938 207.854 81.2273 205.34 88.559C203.998 92.2238 205.506 95.7308 207.352 97.804C219.416 111.351 222.936 132.707 216.233 149.759C211.037 162.509 197.967 178.925 164.785 183.547L151.883 185.46C159.793 196.812 160.626 198.173 162.274 199.962C165.623 204.266 168.137 207.453 168.137 216.379V253.672ZM184.895 249.05V216.379C184.895 207.293 182.883 201.238 180.201 196.774C205.674 190.241 223.774 175.896 231.816 155.337C240.363 133.663 236.51 107.844 222.264 89.9929C224.779 79.316 224.779 62.2621 218.746 54.2933C216.064 50.7883 212.377 48.875 207.686 48.875C207.518 48.875 207.518 48.875 207.518 48.875C194.524 49.5432 184.297 55.7667 173.332 62.1023C163.277 59.5519 153.055 58.2777 142.832 58.2777C132.443 58.2777 122.053 59.7117 112.838 62.1023C101.295 55.4824 91.1664 49.5266 77.8125 48.875C73.6231 48.875 69.9355 50.7883 67.2538 54.2933C61.2227 62.2621 61.2227 79.316 63.7364 89.9929C49.4901 107.844 45.6367 133.821 54.1836 155.337C62.2265 175.896 80.3262 190.241 105.799 196.774C103.72 200.234 102.074 204.697 101.426 210.738C96.2811 212.425 91.8188 212.975 87.6687 211.815C83.2916 210.585 79.8811 207.806 76.9179 203.066C70.2628 192.433 58.9273 183.752 46.0207 184.881L47.4936 200.756C53.4701 200.236 59.4182 206.25 62.5079 211.207C67.6051 219.371 74.4719 224.725 82.9228 227.099C89.1961 228.857 94.9304 228.815 101.105 227.562V249.05C52.3398 232.793 16.7578 188.488 16.7578 136.531C16.7578 70.5504 73.6231 15.9375 143 15.9375C212.377 15.9375 269.242 70.5504 269.242 136.531C269.242 188.488 233.66 232.793 184.895 249.05Z" fill="white"/>
</svg>
