<?xml version="1.0" encoding="UTF-8"?>
<svg fill="none" viewBox="0 0 753 475" xmlns="http://www.w3.org/2000/svg">
<path d="m721 427.57s-9.543-6.561-19-1.901c0 0 2.912 5.849 14.885 5.29l4.115-3.389z" fill="#098B5F"/>
<path d="m722.42 428s2.945 11.306-4.434 19c0 0-4.442-4.661-0.04-16.078l4.474-2.922z" fill="#098B5F"/>
<path d="m734 417.01s-0.708-9.525-22-6.371c0 0-0.093 6.151 7.38 9.061 7.474 2.91 10.891 0.456 14.62-2.69z" fill="#098B5F"/>
<path d="m735.51 417s9.385 2.906 1.015 23c0 0-6.187-1.332-7.307-9.33-1.121-7.998 2.224-10.764 6.292-13.67z" fill="#098B5F"/>
<path d="m747.99 404.22s1.247-15.715-20.953-14.098c0 0-1.589 14.193 17.037 17.883l3.916-3.785z" fill="#098B5F"/>
<path d="M753 24.1913V426.283C753 438.235 741.468 448 727.23 448H181.77C167.532 448 156 438.274 156 426.283V24.1913C156 12.2159 167.532 0 181.77 0L727.199 1.3263C741.437 1.3263 753 12.2546 753 24.1913Z" fill="#F3F1F1"/>
<path d="m753 24.355v18.645h-597v-18.645c0-3.2003 0.63-6.3692 1.853-9.3256s3.016-5.6424 5.276-7.9042c2.26-2.2619 4.943-4.0554 7.895-5.278 2.953-1.2226 6.116-1.8503 9.311-1.8472h548.36c6.447 0.00206 12.628 2.5689 17.186 7.1362 4.558 4.5672 7.118 10.761 7.118 17.219z" fill="#03C6AF"/>
<path d="m184.5 30c4.694 0 8.5-3.8056 8.5-8.5s-3.806-8.5-8.5-8.5-8.5 3.8056-8.5 8.5 3.806 8.5 8.5 8.5z" fill="#FA5959" opacity=".8"/>
<path d="m209.5 30c4.694 0 8.5-3.8056 8.5-8.5s-3.806-8.5-8.5-8.5-8.5 3.8056-8.5 8.5 3.806 8.5 8.5 8.5z" fill="#FED253" opacity=".8"/>
<path d="m234.5 30c4.694 0 8.5-3.8056 8.5-8.5s-3.806-8.5-8.5-8.5-8.5 3.8056-8.5 8.5 3.806 8.5 8.5 8.5z" fill="#8CCF4D" opacity=".8"/>
<path d="m507 147.59v43.097c0 1.285-2.419 2.309-5.411 2.309h-114.18c-2.984 0-5.411-1.039-5.411-2.309v-43.097c0-1.286 2.412-2.594 5.411-2.594h114.18c2.999-8e-3 5.411 1.301 5.411 2.594z" fill="#098B5F" opacity=".2"/>
<path d="m497 160h-60v3h60v-3z" fill="#03C6AF"/>
<path d="m407 156c-3.01 2e-3 -5.939 0.982-8.353 2.796-2.415 1.815-4.187 4.366-5.053 7.276-0.867 2.91-0.781 6.025 0.243 8.883 1.024 2.857 2.932 5.306 5.442 6.983v-0.938c2e-3 -0.784 0.288-1.541 0.804-2.128 0.516-0.586 1.226-0.962 1.997-1.057 0.479 0.883 1.184 1.619 2.042 2.132 0.857 0.513 1.836 0.784 2.832 0.784 0.997 0 1.975-0.271 2.833-0.784 0.857-0.513 1.562-1.249 2.041-2.132 0.771 0.095 1.482 0.471 1.998 1.057 0.516 0.587 0.802 1.344 0.803 2.128v1c2.532-1.662 4.464-4.105 5.508-6.966s1.145-5.985 0.287-8.909c-0.858-2.923-2.628-5.488-5.047-7.312-2.419-1.825-5.357-2.812-8.377-2.813zm5.496 17.933c-0.091 1.42-0.714 2.753-1.743 3.726-1.028 0.974-2.385 1.516-3.795 1.516s-2.767-0.542-3.795-1.516c-1.029-0.973-1.652-2.306-1.743-3.726-0.34-0.749-0.527-1.56-0.55-2.383-0.023-0.824 0.118-1.644 0.415-2.411s0.744-1.466 1.315-2.055c0.57-0.589 1.253-1.056 2.006-1.374-0.193-0.303-0.297-0.655-0.3-1.015 0-0.246 0.048-0.489 0.142-0.716 0.093-0.228 0.23-0.434 0.403-0.607 0.172-0.174 0.377-0.311 0.602-0.405 0.226-0.093 0.467-0.141 0.711-0.14h0.13c-0.466 0.034-0.903 0.244-1.222 0.589s-0.496 0.799-0.497 1.271c1e-3 0.327 0.086 0.647 0.245 0.93h0.054c-0.011-0.123-0.011-0.248 0-0.372 0-0.39 0.123-0.771 0.353-1.085 0.116-0.381 0.349-0.716 0.667-0.953s0.703-0.365 1.099-0.364h0.13c-0.283 0.019-0.559 0.105-0.804 0.25-0.245 0.146-0.453 0.346-0.608 0.587 0.301-0.205 0.657-0.313 1.021-0.31 0.49 0 0.961 0.197 1.308 0.547 0.346 0.35 0.541 0.825 0.541 1.321 4e-3 0.069 4e-3 0.139 0 0.209 1.295 0.35 2.439 1.121 3.255 2.194 0.816 1.074 1.258 2.389 1.258 3.742-0.019 0.883-0.223 1.752-0.598 2.55z" fill="#03C6AF" opacity=".2"/>
<path d="m497 166h-60v2h60v-2z" fill="#03C6AF" opacity=".2"/>
<path d="m497 171h-60v2h60v-2z" fill="#03C6AF" opacity=".2"/>
<path d="m497 176h-60v2h60v-2z" fill="#03C6AF" opacity=".2"/>
<path d="m373 232.59v43.097c0 1.278-2.431 2.309-5.454 2.309h-115.09c-3.008 0-5.454-1.047-5.454-2.309v-43.097c0-1.286 2.431-2.594 5.454-2.594h115.11c3.007 0 5.438 1.308 5.438 2.594z" fill="#098B5F" opacity=".2"/>
<path d="m362 246h-59v2h59v-2z" fill="#03C6AF"/>
<path d="m272 241c-3.009-1e-3 -5.939 0.978-8.354 2.792s-4.187 4.367-5.053 7.278c-0.866 2.912-0.78 6.028 0.245 8.886 1.026 2.859 2.936 5.307 5.447 6.982v-0.945c2e-3 -0.784 0.288-1.539 0.804-2.124 0.516-0.586 1.225-0.96 1.995-1.053 0.479 0.883 1.183 1.619 2.04 2.132s1.834 0.783 2.83 0.783 1.973-0.27 2.83-0.783 1.561-1.249 2.04-2.132c0.77 0.093 1.48 0.467 1.995 1.053 0.516 0.585 0.802 1.34 0.804 2.124v1.007c2.533-1.66 4.466-4.103 5.512-6.964 1.045-2.862 1.147-5.988 0.29-8.912-0.858-2.925-2.628-5.491-5.048-7.315-2.419-1.825-5.358-2.81-8.377-2.809zm5.483 17.927c-0.09 1.42-0.713 2.753-1.74 3.726-1.028 0.973-2.384 1.515-3.793 1.515-1.408 0-2.764-0.542-3.792-1.515s-1.65-2.306-1.741-3.726c-0.358-0.801-0.544-1.67-0.544-2.549 0-1.21 0.353-2.395 1.016-3.403 0.663-1.009 1.606-1.798 2.711-2.268-0.191-0.3-0.293-0.65-0.292-1.007 0-0.496 0.195-0.971 0.541-1.323 0.347-0.351 0.817-0.55 1.308-0.552h0.138c-0.313 0.022-0.615 0.123-0.878 0.294-0.263 0.172-0.479 0.408-0.627 0.687s-0.223 0.591-0.219 0.907c5e-3 0.317 0.088 0.627 0.244 0.901h0.061c-0.012-0.121-0.012-0.243 0-0.364 0.056-0.576 0.291-1.119 0.671-1.551 0.38-0.433 0.886-0.733 1.445-0.858h0.069c-0.282 0.021-0.557 0.108-0.801 0.253-0.245 0.145-0.453 0.344-0.61 0.584 0.3-0.202 0.652-0.31 1.013-0.31 0.492 0 0.964 0.197 1.312 0.549 0.348 0.351 0.544 0.828 0.544 1.326 3e-3 0.069 3e-3 0.139 0 0.209 0.859 0.229 1.658 0.645 2.34 1.22s1.232 1.294 1.609 2.107c0.377 0.812 0.574 1.699 0.575 2.596 1e-3 0.898-0.192 1.785-0.567 2.599l7e-3 -0.047z" fill="#098B5F" opacity=".2"/>
<path d="m362 251h-59v2h59v-2z" fill="#03C6AF" opacity=".2"/>
<path d="m362 256h-59v2h59v-2z" fill="#03C6AF" opacity=".2"/>
<path d="m362 261h-59v2h59v-2z" fill="#03C6AF" opacity=".2"/>
<path d="m342 94.648v43.995c0 1.304-2.412 2.357-5.411 2.357h-114.18c-2.976 0-5.411-1.068-5.411-2.357v-43.995c0-1.312 2.42-2.6476 5.411-2.6476h114.19c2.984 0 5.396 1.3356 5.396 2.6476z" fill="#098B5F" opacity=".2"/>
<path d="m331 108h-59v2h59v-2z" fill="#00CDB3"/>
<path d="m331 113h-59v2h59v-2z" fill="#00CDB3" opacity=".2"/>
<path d="m331 118h-59v2h59v-2z" fill="#00CDB3" opacity=".2"/>
<path d="m331 123h-59v2h59v-2z" fill="#00CDB3" opacity=".2"/>
<path d="m241.45 103c-3.113 0.015-6.139 1.004-8.631 2.823s-4.319 4.37-5.21 7.278c-0.891 2.907-0.799 6.017 0.261 8.87 1.061 2.853 3.034 5.298 5.629 6.975v-2.395c2e-3 -0.784 0.298-1.541 0.833-2.128 0.534-0.586 1.27-0.962 2.069-1.057 0.496 0.883 1.227 1.619 2.115 2.132s1.902 0.784 2.934 0.784c1.033 0 2.046-0.271 2.935-0.784 0.888-0.513 1.618-1.249 2.114-2.132 0.8 0.093 1.537 0.468 2.072 1.055s0.83 1.345 0.83 2.13v2.449c2.626-1.664 4.629-4.112 5.71-6.977s1.181-5.994 0.286-8.92c-0.894-2.925-2.736-5.49-5.25-7.311s-5.565-2.801-8.697-2.792zm6.361 17.266c-0.05 0.09-0.114 0.171-0.191 0.24-0.124 0.085-0.27 0.133-0.421 0.14h-0.294c-0.399 1.288-1.26 2.393-2.424 3.115-1.165 0.722-2.557 1.013-3.922 0.82-1.366-0.193-2.616-0.858-3.522-1.873s-1.408-2.313-1.415-3.658c0-0.969 0.261-1.92 0.756-2.759l-0.064-0.039c-0.321-0.372-0.481-0.851-0.445-1.336s0.264-0.937 0.636-1.26c0.37-0.206 0.773-0.35 1.193-0.426 1.257-0.364 2.333-1.167 3.021-2.256 0.02 0.284 0.02 0.569 0 0.853 0.115-0.122 0.253-0.22 0.407-0.289s0.321-0.107 0.49-0.113 0.338 0.021 0.497 0.08c0.158 0.058 0.303 0.146 0.427 0.26 0.15 0.208 0.324 0.401 0.516 0.573 0.2 0.104 0.419 0.164 0.644 0.179l1.448 0.178c0.598 0.015 1.176 0.219 1.645 0.581 0.251 0.273 0.438 0.595 0.549 0.945 0.428 0.958 0.745 1.959 0.946 2.984 0.203 1.035 0.049 2.105-0.437 3.046l-0.04 0.015z" fill="#00CDB3" opacity=".2"/>
<path d="m539 300.59v43.104c0 1.285-2.431 2.309-5.454 2.309h-115.09c-3.008 0-5.454-1.039-5.454-2.309v-43.104c0-1.285 2.431-2.586 5.454-2.586h115.11c3.007-0.039 5.438 1.262 5.438 2.586z" fill="#098B5F" opacity=".2"/>
<path d="m528 313h-60v2h60v-2z" fill="#03C6AF"/>
<path d="m528 318h-60v2h60v-2z" fill="#03C6AF" opacity=".2"/>
<path d="m528 323h-60v3h60v-3z" fill="#03C6AF" opacity=".2"/>
<path d="m528 329h-60v2h60v-2z" fill="#03C6AF" opacity=".2"/>
<path d="m438 309c-3.01 2e-3 -5.939 0.982-8.353 2.796-2.415 1.815-4.187 4.366-5.053 7.276-0.867 2.91-0.781 6.025 0.243 8.883 1.024 2.857 2.932 5.306 5.442 6.983v-2.395c4e-3 -0.783 0.29-1.538 0.806-2.123s1.225-0.96 1.995-1.054c0.479 0.883 1.184 1.619 2.042 2.132 0.857 0.513 1.836 0.784 2.832 0.784 0.997 0 1.975-0.271 2.833-0.784 0.857-0.513 1.562-1.249 2.041-2.132 0.771 0.093 1.481 0.467 1.997 1.053 0.516 0.585 0.802 1.341 0.804 2.124v2.457c2.532-1.662 4.464-4.105 5.508-6.966s1.145-5.985 0.287-8.909c-0.858-2.923-2.628-5.488-5.047-7.312-2.419-1.825-5.357-2.812-8.377-2.813zm6.14 17.258c-0.046 0.094-0.108 0.178-0.184 0.248-0.119 0.085-0.261 0.133-0.407 0.14h-0.291c-0.218 0.763-0.594 1.47-1.103 2.076-0.508 0.605-1.139 1.095-1.849 1.436s-1.483 0.526-2.269 0.543c-0.787 0.017-1.567-0.135-2.291-0.445-0.724-0.311-1.374-0.773-1.908-1.356s-0.939-1.274-1.189-2.026c-0.249-0.753-0.338-1.551-0.26-2.341s0.322-1.554 0.714-2.242h-0.061c-0.31-0.372-0.464-0.851-0.429-1.336 0.034-0.485 0.254-0.937 0.613-1.261 0.358-0.205 0.747-0.349 1.152-0.426 1.213-0.361 2.251-1.161 2.916-2.247 0.02 0.284 0.02 0.569 0 0.852 0.111-0.121 0.245-0.219 0.393-0.288 0.149-0.069 0.31-0.108 0.473-0.114 0.164-5e-3 0.327 0.022 0.48 0.08s0.293 0.147 0.412 0.26c0.143 0.208 0.311 0.398 0.499 0.566 0.191 0.108 0.403 0.172 0.621 0.186l1.397 0.178c0.579 0.012 1.137 0.216 1.589 0.582 0.242 0.272 0.423 0.595 0.53 0.945 0.413 0.957 0.72 1.958 0.913 2.984 0.184 1.023 0.03 2.079-0.438 3.006h-0.023z" fill="#03C6AF" opacity=".2"/>
<path d="m404 442.79-17.088-24.72s-0.319-6.124-1.441-7.554c-1.121-1.43-0.241-4.608-0.241-4.608s1.199-1.749 0.164-1.912c-1.036-0.163-0.164-4.056-0.164-4.056l-0.078-6.217s0.958-5.969 0.164-7.398c-0.235-0.386-0.353-0.832-0.339-1.283s0.159-0.888 0.417-1.259c0 0 0.958-3.419 0-4.297s-0.725-6.217-0.483-10.414c0.241-4.196-1.675-6.597-1.675-7.235 0-0.637-6.308-6.83-6.308-7.39s-3.996-2.86-6.395-3.497c-2.398-0.637-3.59-1.111-3.512-1.43s-3.754-1.554-3.754-1.554-3.349-0.241-4.634-1.904-5.179-2.161-5.296-2.168l-0.07-0.335-0.07-0.357c0.296-0.505 0.576-1.026 0.833-1.554 0.078-0.163 0.148-0.319 0.218-0.482 1.406 6e-3 2.779-0.42 3.933-1.22 0.565-0.471 1.026-1.052 1.354-1.709s0.517-1.374 0.554-2.107c0.067-1.468-0.252-2.928-0.927-4.235-0.7-1.43-1.729-2.914-1.378-4.469 0.156-0.668 0.561-1.258 0.779-1.911 0.308-1.283 0.102-2.636-0.577-3.769-0.599-1.15-1.44-2.168-2.118-3.288-0.861-1.429-1.432-3.013-1.682-4.662-0.051-0.876-0.262-1.734-0.623-2.534-0.365-0.563-0.842-1.044-1.402-1.414-2.495-1.776-5.504-2.688-8.567-2.596-2.173 0.078-4.346 0.661-6.504 0.397-1.289-0.225-2.558-0.555-3.793-0.987-2.679-0.777-5.771-1.119-8.099 0.412-2.329 1.531-3.264 4.538-4.845 6.893-1.402 2.075-3.442 3.823-4.509 6.03v-0.132c-0.257 0.513-0.456 1.052-0.592 1.609-0.296 1.759-0.176 3.564 0.35 5.269 0.123 0.911 0.585 1.743 1.293 2.331 0.779 0.505 1.869 0.389 2.796 0.552-0.039 0.147-0.078 0.303-0.109 0.45-0.267 1.244-0.4 2.513-0.397 3.785-1e-3 3.923 1.267 7.743 3.616 10.889s5.654 5.452 9.422 6.573v0.482c-2e-3 0.457-0.028 0.913-0.078 1.367 0 0-8.03-1.647-10.18-0.528-2.149 1.119-6.394 1.982-7.009 2.619s-2.235 0.163-3.676 3.886c-1.441 3.722-1.597 7.553-3.427 9.325s-2.796 2.945-2.882 4.22c-0.085 1.274 0.242 1.554-0.475 1.981-0.716 0.428-1.76 2.068-1.441 2.705 0.111 0.44 0.087 0.903-0.07 1.328-0.157 0.426-0.439 0.795-0.81 1.058-0.377 0.266-0.679 0.626-0.874 1.045-0.196 0.418-0.278 0.88-0.239 1.34 0 0-0.483 1.749-1.597 2.145-1.114 0.397-1.838 3.023-1.838 3.023l-3.622 4.158-7.18-7.927c-0.539-0.592-1.29-0.947-2.089-0.987-0.8-0.041-1.584 0.236-2.179 0.77l-3.536 3.131c-1.361 0.33-2.591 1.061-3.528 2.099-0.766 0.787-1.384 1.706-1.823 2.712l-1.931 1.733c-0.61 0.75-0.982 1.663-1.071 2.625-0.089 0.961 0.111 1.927 0.572 2.776l4.603 5.074v0.047c-1.632 0.135-3.183 0.764-4.447 1.803-6.862 6.046-6.947 11.61-5.904 14.151 1.044 2.542 9.744 12.325 9.744 12.325s5.054 6.559 12.352 10.049l-0.055 0.054c-0.148 0.155-0.288 0.319-0.428 0.497l-0.117 0.156c-0.041 0.048-0.077 0.1-0.109 0.155l-0.132 0.187-0.102 0.155-0.14 0.233-0.085 0.148-0.164 0.311s-0.039 0.07-0.054 0.101c-0.016 0.031-0.133 0.287-0.195 0.435l-0.07 0.163c0 0.101-0.078 0.21-0.125 0.311l-0.07 0.21c0 0.101-0.07 0.202-0.101 0.311l-0.07 0.225c-0.031 0.109-0.063 0.225-0.094 0.35 0 0.07-0.039 0.14-0.054 0.21-0.016 0.07-0.086 0.38-0.125 0.575-4e-3 0.075-4e-3 0.15 0 0.225-0.031 0.136-0.055 0.273-0.07 0.412 0 0.093 0 0.186-0.039 0.288-0.039 0.101-0.039 0.256-0.054 0.396-0.016 0.14 0 0.194 0 0.303v0.451 0.279 0.778c-0.164 9.325 0.381 10.654 0.381 10.654 0.354 0.86 0.935 1.609 1.681 2.167 0.746 0.559 1.629 0.905 2.556 1.004 0.458 0.033 0.918 9e-3 1.371-0.07 4.151-0.723 13.894-2.386 17.329-1.749 2.064 0.381 5.888-0.186 8.606-0.699l0.716-0.14 0.499 1.554 1.557-0.435 1.34 0.777 0.849 0.482c1.558 5.331 7.975 3.512 7.975 3.512l1.519 0.878 15.413 0.397c1.728 1.046 3.554 1.92 5.452 2.611 0.254 0.078 0.515 0.135 0.779 0.171 1.427 0.115 2.86 0.14 4.291 0.078 1.184 0 2.095-0.078 2.095-0.078s-0.156-4.173-0.382-8.851c4.777-0.118 9.544-0.507 14.276-1.166 8.233-1.446 11.683-8.914 12.929-12.9 0.373 1.63 0.633 3.284 0.779 4.95 0.336 1.455 0.763 2.887 1.277 4.29 0.449 1.132 1.04 2.203 1.76 3.186 6.067-2.067 2.391-5.168 1.114-6.52s0.88-2.464 0.88-2.464 1.682-1.119 1.558-2.152c-0.125-1.034-0.242-2.145 5.195-2.067 5.436 0.077 5.07-4.407 5.07-4.407zm-84.332-50.761c0.07 0.458 0.825 5.354 1.511 6.644 0.196 0.858 0.256 1.742 0.179 2.619-3.217-0.257-6.566-0.396-6.566-0.396 0.097 0.117 0.156 0.26 0.172 0.411l-0.506-0.116-0.74-0.179 5.934-8.991 0.016 8e-3zm-11.745 18.651 5.569 0.885 0.467 0.07c-0.154 0.869-0.251 1.746-0.288 2.627 0 0.078 0.125 0.179 0.304 0.295-0.071 0.435-0.108 0.874-0.109 1.314 0.093 0.443 2.694 1.391 5.685 2.183-0.047 0.156-0.086 0.311-0.125 0.451-2.64-1.383-6.791-2.028-7.274-3.054s-14.611-5.96-14.611-5.96-0.522-0.272-1.409-0.7l3.722 0.7 1.021-0.101c2.319 0.578 4.673 1.006 7.048 1.282v8e-3z" fill="url(#c)"/>
<path d="m385.95 446.01s-2.227 13.41-13.502 15.392c-11.276 1.983-48.914 1.561-48.914 1.561s-21.519-3.122-29.302-21.253c-7.782-18.132-12.791-25.391-6.118-25.703s42.647 12.137 44.71 12.293 55.11-27.584 53.126 17.71z" fill="#65617D"/>
<path d="m385.95 446.01s-2.227 13.41-13.502 15.392c-11.276 1.983-48.914 1.561-48.914 1.561s-21.519-3.122-29.302-21.253c-7.782-18.132-12.791-25.391-6.118-25.703s42.647 12.137 44.71 12.293 55.11-27.584 53.126 17.71z" fill="#000" opacity=".05"/>
<path d="m285.4 460.86c0.346 0.843 0.92 1.58 1.661 2.131s1.621 0.897 2.547 1c0.456 0.03 0.914 4e-3 1.364-0.076 4.137-0.695 13.854-2.292 17.279-1.704 2.061 0.375 5.877-0.183 8.619-0.679 1.803-0.329 3.135-0.642 3.135-0.642s-3.182-10.325-3.581-10.631c-0.4-0.305-14.364-8.492-14.364-8.492l-11.041-0.764c-1.484 0.218-2.824 0.987-3.738 2.146-1.168 1.375-2.171 3.628-2.234 7.324-0.196 9.096 0.353 10.387 0.353 10.387z" fill="#62BD69"/>
<path d="m285.38 460.87c0.346 0.844 0.919 1.581 1.66 2.132 0.741 0.552 1.621 0.898 2.547 1.001-1.083-1.363-2.082-2.787-2.993-4.264l0.055-7.534c-0.226-2.069 0.05-4.16 0.805-6.106 0.756-1.946 1.969-3.692 3.543-5.096 0 0-5.813 0.39-5.97 9.475s0.353 10.392 0.353 10.392z" fill="#000" opacity=".05"/>
<path d="m332.45 444 10.318-7.984 16.236-15.821-4.399-0.195c-0.662 0.412-2.503 1.72-2.574 3.307-0.079 1.93-4.384 0.133-6.627 1.238s-13.198 14.973-15.103 14.887c-1.904-0.086-3.439-0.965-4.234 0.381-0.019 0.03-0.04 0.059-0.063 0.086l6.446 4.101z" fill="#000" opacity=".1"/>
<path d="m287 443.21 1.122 0.508c7.898 3.336 17.574 10.32 18.3 11.594 0.443 0.781 6.074 4.156 10.419 6.687 1.816-0.336 3.159-0.656 3.159-0.656s-3.207-10.563-3.61-10.875c-0.402-0.313-14.47-8.688-14.47-8.688l-11.129-0.781c-1.506 0.221-2.866 1.014-3.791 2.211z" fill="#000" opacity=".1"/>
<path d="m265.48 420.04c1.021 2.538 9.596 12.298 9.596 12.298s5.417 7.145 13.156 10.479c7.74 3.335 17.228 10.316 17.932 11.588 0.456 0.781 6.601 4.545 10.927 7.114l0.976 0.57 2.143 1.257 1.138 0.656s2.631-2.132 5.255-4.279c2.623-2.147 5.169-4.248 5.208-4.365 0.077-0.242 1.099-2.936 0.859-3.123-0.124-0.079-0.658-1.18-1.656-2.452-1.054-1.417-2.425-2.562-4.001-3.342-2.295-1.176-4.126-3.104-5.193-5.466 0 0-0.348-0.25-0.867-0.586-1.073-0.736-2.272-1.266-3.537-1.562-1.733-0.218-4.953-3.787-4.953-3.787-1.269-0.827-2.329-1.942-3.095-3.256-0.828-1.741-13.025-10.151-14.155-10.932l29.594 19.123 7.081 4.584 10.146-8.012 15.966-15.875-5.27-0.234c-7.739-0.343-21.538-0.874-23.279-0.476-1.417 0.334-2.879 0.429-4.326 0.281 0 0-3.932 0.179-6.524-1.203-2.593-1.382-6.695-2.03-7.167-3.053s-14.394-5.95-14.394-5.95-18.953-10.151-25.717-4.123-6.88 11.588-5.843 14.126z" fill="#65617D"/>
<path d="m327 362.59 2.445 8.188 3.152 18.44 11.599 0.782 3.361-5.615 3.346-5.591s2.089-7.453 3.595-14.663c1.327-6.373 2.189-12.567 0.776-13.239-1.281-0.595-2.119-2.745-2.671-5.052-0.069-0.282-0.132-0.571-0.186-0.861-0.389-1.956-0.648-3.936-0.776-5.927 0 0-24.307-1.275-20.915 8.821 0.609 1.722 0.919 3.537 0.916 5.365-1e-3 0.457-0.027 0.914-0.077 1.368-0.17 1.577-0.664 3.101-1.449 4.476-0.786 1.374-1.847 2.569-3.116 3.508z" fill="#EE8E9E"/>
<path d="m322 361.52 0.86 13.748 1.95 11.701 2.187 5.409 1.95 29.645s18.807 2.194 23.382 0c0.329-0.139 0.615-0.363 0.829-0.65 5.527-8.4 3.716-32.727 3.716-32.727l2.126-15.735-1.405-8.153-3.393-0.363-2.617-0.278s-0.591 0.726-1.436 1.862c-2.303 3.092-6.571 9.119-6.287 11.646 0.392 3.455-0.468 6.956-1.796 7.535-1.328 0.58-2.418 1.499-2.648 0.557-0.33-0.794-0.413-1.67-0.238-2.512 0.238-1.337-1.014-5.41-1.014-5.41s-2.103-4.791-1.949-6.831c0.153-2.04-0.231-4.397-0.86-4.946-0.63-0.549-1.482-1.105-0.768-3.617 0.714-2.511-3.07-7.403-3.07-7.403l-9.519 6.522z" fill="#E3E8F4"/>
<path d="m347.03 395.88 0.771 23.585 4.523 2.53c0.332-0.139 0.62-0.367 0.832-0.66 5.548-8.435 3.73-32.866 3.73-32.866l2.111-15.777-1.41-8.188-3.406-0.365c1.318-6.325 2.181-12.463 0.771-13.131-1.272-0.597-2.112-2.724-2.651-5.013l-2.45 16.678s0.208 1.497 0.277 3.05c0.101 0.984 0.033 1.979-0.2 2.941-0.547 1.42-0.154 3.942-0.154 3.942-1.411 2.507-2.119 7.148-2.459 11.641-0.462 5.96-0.285 11.633-0.285 11.633z" fill="#000" opacity=".1"/>
<path d="m351.99 345s3.974 0.498 5.231 2.157c1.257 1.658 4.579 1.899 4.579 1.899s3.787 1.269 3.702 1.558c-0.085 0.288 1.11 0.778 3.477 1.424 2.367 0.647 6.31 2.928 6.31 3.488 0 0.561 6.209 6.719 6.209 7.358 0 0.638 1.886 3.005 1.653 7.202-0.233 4.196-0.474 9.491 0.473 10.363s0 4.274 0 4.274c-0.254 0.37-0.396 0.805-0.41 1.254-0.014 0.448 0.102 0.892 0.333 1.276 0.776 1.425-0.163 7.358-0.163 7.358l0.085 6.174s-0.869 3.893 0.155 4.033c1.025 0.14-0.155 1.9-0.155 1.9s-0.869 3.168 0.233 4.593 1.42 7.514 1.42 7.514l16.881 24.61s0.232 4.508-5.131 4.43c-5.363-0.077-5.285 1.028-5.122 2.056s-1.498 2.141-1.498 2.141-2.134 1.106-0.869 2.452c1.265 1.347 4.889 4.431-1.102 6.486-0.71-0.976-1.294-2.038-1.739-3.161-0.507-1.398-0.929-2.825-1.265-4.274 0 0-0.551-6.019-1.653-6.805s-0.947-4.594-0.947-4.594 1.553-3.114-0.628-4.352-34.235-19.067-34.235-19.067l-0.776-23.661s-0.551-17.487 2.763-23.357c0 0-0.396-2.531 0.156-3.956 0.551-1.424-0.078-6.018-0.078-6.018l2.111-16.755z" fill="#62BD69"/>
<path d="m331.76 354.91s-7.909-1.631-10.06-0.533c-2.152 1.097-6.292 1.963-6.919 2.597-0.626 0.634-2.205 0.155-3.621 3.865-1.417 3.711-1.548 7.46-3.382 9.192-1.834 1.731-2.755 2.906-2.833 4.159-0.077 1.252 0.24 1.546-0.472 1.963-0.712 0.418-1.725 2.049-1.416 2.675 0.31 0.626 16.36 14.456 16.36 14.456s0.774 5.264 1.493 6.601c0.72 1.338-0.773 19.721-2.36 20.973-1.586 1.252 10.649 1.136 10.649 1.136s0.557-12.059 1.029-12.693-0.317-13.513-0.317-13.513-0.078-11 0.944-13.914c1.021-2.915 0.905-12.57 0.905-12.57s0.906-5.798 2.004-7.15c1.099-1.353-2.004-7.244-2.004-7.244z" fill="#000" opacity=".1"/>
<path d="m331.79 354.91s-7.918-1.624-10.072-0.526-6.299 1.963-6.926 2.59c-0.628 0.626-2.208 0.162-3.618 3.865-1.41 3.702-1.55 7.467-3.386 9.191s-2.758 2.906-2.835 4.166c-0.078 1.26 0.232 1.546-0.473 1.964-0.705 0.417-1.735 2.041-1.418 2.674 0.318 0.634 16.378 14.456 16.378 14.456s0.775 5.264 1.496 6.594c0.72 1.329-0.775 19.719-2.363 20.979-1.589 1.26 10.629 1.137 10.629 1.137s0.55-12.059 1.023-12.686c0.472-0.626-0.318-13.512-0.318-13.512s-0.077-11 0.945-13.914c1.023-2.914 0.914-12.569 0.914-12.569s0.899-5.798 1.999-7.151-1.975-7.258-1.975-7.258z" fill="#62BD69"/>
<path d="m330.32 347.88c0.608 1.723 0.918 3.538 0.916 5.367 3.878 1.163 8.032 0.982 11.796-0.516s6.92-4.225 8.963-7.745c-0.389-1.957-0.648-3.938-0.776-5.93 0 0-24.292-1.275-20.899 8.824z" fill="#000" opacity=".1"/>
<path d="m319 335.04c9e-3 4.61 1.787 9.041 4.968 12.379 3.18 3.338 7.52 5.329 12.124 5.561 4.605 0.233 9.123-1.311 12.623-4.311 3.5-3.001 5.716-7.23 6.19-11.816 0.473-4.586-0.831-9.179-3.644-12.832-2.812-3.653-6.92-6.087-11.475-6.801-4.554-0.714-9.21 0.348-13.005 2.965s-6.442 6.591-7.393 11.103c-0.26 1.233-0.39 2.491-0.388 3.752z" fill="#EE8E9E"/>
<path d="m306.69 377-4.302 1.337c0.101 0.429 0.073 0.878-0.081 1.291-0.153 0.413-0.425 0.771-0.781 1.028-0.365 0.26-0.657 0.61-0.849 1.016-0.191 0.407-0.275 0.855-0.244 1.303 0 0-0.47 1.732-1.539 2.126-1.07 0.394-1.794 2.984-1.794 2.984l-3.602 4.167s-1.331 1.097-1.093 1.646c0.239 0.549-1.408 0.704-1.408 0.704l0.862 13.991 7.427 1.407 4.618-0.472 3.756-1.406 3.286-1.972 1.486-3.865 6.565-10.049-12.307-15.236z" fill="#62BD69"/>
<path d="m291.91 395.82s-9.412-14.227-16.432-6.545c-7.021 7.682 2.853 20.12 5.168 19.714 2.315-0.405 13.351-1.049 13.351-1.049l-2.087-12.12z" fill="#EE8E9E"/>
<path d="m319 331.36c0.501 0.043 0.972 0.255 1.335 0.602 0.609 0.648 0.641 1.796 1.445 2.202 0.298 0.126 0.626 0.164 0.945 0.109 2.108-0.304 3.326-2.686 5.356-3.342 1.186-0.299 2.436-0.192 3.553 0.304 0.453 0.153 0.857 0.422 1.172 0.781 0.679 0.883 0.203 2.171 0.515 3.233 0.437 1.476 2.194 2.062 3.725 2.249 1.53 0.188 3.241 0.305 4.256 1.453 0.337 0.428 0.581 0.923 0.715 1.452 0.135 0.528 0.157 1.079 0.066 1.617-0.09 0.375-0.09 0.765 0 1.14 0.421 1.187 2.483 1.015 3.021 0.07 0.391-0.679 0.274-1.249 1.195-1.437 0.666-0.056 1.336 0.06 1.945 0.336 1.615 0.562 3.319 0.827 5.028 0.781 1.091-2.32 1.679-4.844 1.725-7.408 0.046-2.563-0.45-5.107-1.457-7.465-1.006-2.358-2.5-4.476-4.383-6.216-1.883-1.739-4.112-3.061-6.542-3.878s-5.005-1.111-7.557-0.862c-2.551 0.248-5.021 1.034-7.248 2.305-2.226 1.27-4.159 2.998-5.67 5.068-1.512 2.071-2.569 4.438-3.101 6.945l-0.039-0.039z" fill="#000" opacity=".1"/>
<path d="m342.1 343.18c-0.088-0.373-0.088-0.761 0-1.133 0.09-0.534 0.068-1.082-0.064-1.607-0.133-0.525-0.373-1.016-0.705-1.442-1-1.141-2.692-1.25-4.191-1.444-1.5-0.194-3.238-0.775-3.669-2.234-0.307-1.055 0.162-2.328-0.507-3.212-0.307-0.361-0.706-0.629-1.154-0.776-1.099-0.496-2.331-0.605-3.499-0.311-1.999 0.652-3.199 3.019-5.276 3.321-0.314 0.054-0.637 0.017-0.93-0.108-0.769-0.404-0.823-1.552-1.423-2.188-0.953-1.017-2.753-0.365-3.914-1.118-0.7-0.585-1.151-1.418-1.262-2.327-0.519-1.692-0.638-3.484-0.346-5.23 0.677-2.933 3.277-4.943 4.938-7.449 1.538-2.327 2.414-5.284 4.737-6.835 2.322-1.552 5.306-1.195 7.929-0.412 1.207 0.436 2.45 0.766 3.714 0.986 2.107 0.263 4.23-0.318 6.36-0.388 3.005-0.1 5.957 0.806 8.398 2.576 0.55 0.362 1.016 0.838 1.369 1.396 0.357 0.793 0.566 1.645 0.615 2.514 0.249 1.629 0.808 3.195 1.646 4.609 0.662 1.11 1.484 2.118 2.077 3.267 0.664 1.122 0.866 2.462 0.561 3.732-0.2 0.652-0.592 1.234-0.769 1.901-0.346 1.552 0.661 3.01 1.346 4.43 0.663 1.297 0.979 2.747 0.915 4.206-0.04 0.726-0.227 1.436-0.549 2.086-0.323 0.65-0.775 1.226-1.328 1.692-1.16 0.815-2.546 1.239-3.96 1.211-1.717 0.054-3.429-0.209-5.053-0.776-0.597-0.274-1.253-0.389-1.907-0.334-0.915 0.186-0.769 0.776-1.184 1.428-0.469 0.977-2.5 1.148-2.915-0.031z" fill="#3F3D56"/>
<path d="m332.03 445 10.092-7.971 15.88-15.796-5.242-0.233c-0.616 0.558-1.009 1.323-1.109 2.152-0.077 1.935-4.287 0.14-6.481 1.243-2.194 1.104-12.909 14.949-14.772 14.856-1.863-0.094-3.364-0.956-4.141 0.38l-0.062 0.094c-0.312 0.36-0.73 0.611-1.193 0.714l7.028 4.561z" fill="#000" opacity=".1"/>
<path d="m312 444.06 5.118 16.37 0.777 2.573 2.438-0.67 5.375-1.482 23.92-6.595c3.006-0.143 5.945-0.941 8.613-2.338 4.521-2.548 9.697-3.682 14.865-3.259 3.161 0.296 6.679-1.068 9.599-6.486 0 0 6.625-19.644-10.096-25.265s-17.537 2.986-17.537 2.986l-0.225 0.14c-0.652 0.413-2.469 1.723-2.539 3.313-0.078 1.933-4.326 0.133-6.54 1.24-2.213 1.107-13.008 15.061-14.888 14.975-1.879-0.086-3.394-0.967-4.178 0.382-0.019 0.03-0.04 0.058-0.062 0.086-0.583 0.779-2.33 0.997-3.503 1.029h-1.095l-0.148 0.046-1.211 0.359-8.683 2.596z" fill="#65617D"/>
<path d="m313 412.59 2.824 0.408 1.176-10.488s-1.292-0.176-2.913-0.512c0.427 1.456-0.552 7.12-1.087 10.592z" fill="#000" opacity=".1"/>
<path d="m377.18 365.24s7.337-2.097 5.528 18.437c-1.809 20.535-15.389 33.523-15.389 33.523s-15.63 6.766-22.649 5.679-12.136-1.324-12.136-1.324c-2.212-1.099-4.631-1.735-7.104-1.868-3.944-0.153-12.229-2.564-12.423-3.344-0.194-0.781 2.057-12.208 1.11-13.065 0 0 11.049 0.444 12.152 1.232 1.102 0.789 2.678 0.222 3.882 0 1.203-0.222 4.814-3.329 11.996-0.612 0 0 2.446 0.237 3.393-0.39 0.774-0.355 1.656-0.41 2.469-0.153 0.608-0.205 1.183-0.494 1.708-0.858 0.241-0.306 2.135 0 2.135 0 0.113 0.054 0.236 0.083 0.36 0.083 0.125 1e-3 0.249-0.025 0.362-0.077s0.213-0.129 0.292-0.224c0.079-0.094 0.136-0.206 0.166-0.325 0.249-0.636 0.624-1.216 1.103-1.707 0 0 2.135-11.825 6.157-16.256 0.324-0.276 0.573-0.626 0.725-1.021 0.151-0.394 0.201-0.819 0.145-1.237-0.319-1.247 6.545-19.004 16.018-16.493z" fill="#000" opacity=".1"/>
<path d="m320 441.39 10.98 12.612 0.073-0.078c0.082-0.232 1.162-2.918 0.909-3.104-0.254-0.186-2.16-4.106-5.989-5.759-1.94-0.903-3.568-2.311-4.697-4.059l-1.276 0.388z" fill="#000" opacity=".1"/>
<path d="m320.23 463.33 1.162 0.67s2.69-2.176 5.371-4.369c2.681-2.192 5.283-4.337 5.323-4.456 0.079-0.248 1.123-2.998 0.878-3.189-0.127-0.08-0.673-1.204-1.693-2.504-7.197-2.033-2.61 3.006-2.001 3.237 0 0-8.763-2.025-9.246 7.59-0.064 1.012 5e-3 2.028 0.206 3.021z" fill="#000" opacity=".1"/>
<path d="m329.12 466.87 1.489 0.868 15.056 0.396c1.688 1.035 3.473 1.902 5.328 2.588 0.251 0.078 0.507 0.135 0.767 0.171 1.397 0.11 2.8 0.136 4.2 0.077 1.151 0 2.042-0.077 2.042-0.077s-0.714-19.175-1.251-21.19c-0.254-0.969-1.536-0.775-2.764-0.271-0.936 0.382-1.837 0.843-2.695 1.379 0 0-6.395 0.62-7.416 1.178s-3.9-0.317-5.697 0c-1.796 0.318-4.99-2.131-4.99-2.131-8.737-2.914-3.839 2.519-3.201 2.759 0 0-8.499-1.968-8.967 7.379-0.469 9.347 8.099 6.874 8.099 6.874z" fill="#62BD69"/>
<path d="m351.01 459.48c0.159 3.976 3.175 8.916 4.982 11.525 1.134 0 2.011-0.078 2.011-0.078s-0.703-19.213-1.232-21.232c-0.25-0.971-1.512-0.777-2.722-0.272-1.489 2.866-3.168 6.85-3.039 10.057z" fill="#565387"/>
<path d="m351.01 459.48c0.159 3.976 3.175 8.916 4.982 11.525 1.134 0 2.011-0.078 2.011-0.078s-0.703-19.213-1.232-21.232c-0.25-0.971-1.512-0.777-2.722-0.272-1.489 2.866-3.168 6.85-3.039 10.057z" fill="#000" opacity=".1"/>
<path d="m348.26 459.99c1.043 3.831 1.028 8.135 2.689 10.733 0.253 0.078 0.511 0.135 0.773 0.171 1.406 0.11 2.817 0.136 4.227 0.077 1.159 0 2.055-0.077 2.055-0.077s-0.719-19.187-1.259-21.203c-0.255-0.97-1.546-0.776-2.782-0.272-0.942 0.382-1.849 0.844-2.712 1.381 0 0-4.327 4.281-2.991 9.19z" fill="#000" opacity=".05"/>
<path d="m296 422s7.576 2.416 14 11l-14-11z" fill="#000" opacity=".1"/>
<path d="m358 327-0.15 0.206c-0.236 0.271-0.52 0.537-0.85 0.794 0.247-0.344 0.582-0.679 1-1z" fill="#000" opacity=".1"/>
<path d="m315.16 323.54c0.132-0.533 0.327-1.049 0.579-1.537-0.039 0.131-0.077 0.269-0.108 0.407-0.293 1.73-0.174 3.504 0.347 5.18 0.111 0.901 0.564 1.725 1.265 2.305 1.165 0.768 2.97 0.1 3.919 1.099 0.61 0.638 0.64 1.775 1.427 2.167 0.295 0.133 0.624 0.171 0.941 0.107 2.083-0.292 3.287-2.635 5.293-3.281 1.167-0.3 2.403-0.195 3.502 0.3 0.452 0.145 0.855 0.41 1.165 0.768 0.671 0.861 0.2 2.137 0.509 3.182 0.432 1.444 2.168 2.021 3.672 2.213s3.201 0.292 4.212 1.429c0.337 0.42 0.579 0.906 0.712 1.427 0.134 0.521 0.154 1.064 0.059 1.593-0.084 0.367-0.084 0.748 0 1.114 0.417 1.176 2.453 0.999 2.986 0.077 0.385-0.676 0.27-1.229 1.18-1.422 0.658-0.052 1.319 0.062 1.921 0.331 1.628 0.562 3.346 0.822 5.068 0.768 1.417 0.021 2.806-0.398 3.973-1.198 0.504-0.407 0.919-0.911 1.219-1.484-0.262 1.042-0.855 1.972-1.689 2.652-1.165 0.806-2.555 1.226-3.973 1.198-1.723 0.054-3.44-0.206-5.069-0.768-0.601-0.272-1.262-0.386-1.921-0.331-0.91 0.185-0.771 0.769-1.18 1.414-0.532 0.93-2.569 1.099-2.985-0.069-0.085-0.369-0.085-0.752 0-1.122 0.094-0.529 0.074-1.072-0.059-1.593-0.133-0.52-0.376-1.007-0.713-1.427-1.01-1.129-2.7-1.237-4.212-1.429s-3.24-0.768-3.672-2.213c-0.308-1.045 0.162-2.305-0.509-3.181-0.308-0.357-0.708-0.623-1.157-0.769-1.103-0.49-2.338-0.599-3.51-0.307-2.006 0.645-3.209 2.989-5.292 3.289-0.318 0.054-0.644 0.016-0.941-0.108-0.772-0.399-0.818-1.537-1.427-2.167-0.949-1.007-2.754-0.361-3.919-1.106-0.702-0.58-1.154-1.405-1.265-2.306-0.526-1.682-0.644-3.465-0.348-5.202z" fill="#000" opacity=".1"/>
<path d="m358.43 385.9c-1.472 2.009-3.165 3.873-4.454 6.002-1.411 2.082-2.098 4.578-1.954 7.098 1.345-1.4 1.962-3.337 2.816-5.089 1.44-2.977 3.592-5.498 5.403-8.227 0.348-0.52 2.571-3.537 1.448-3.681-0.926-0.12-2.729 3.209-3.259 3.897z" fill="#000" opacity=".1"/>
<path d="m319 354.65 15.906 29.583c0.477 0.876-0.82 2.465-2.889 3.548l-79.394 41.295c-2.069 1.076-4.138 1.237-4.607 0.354l-15.907-29.576c-0.476-0.883 0.719-2.657 2.788-3.732l79.394-41.295c2.077-1.083 4.24-1.06 4.709-0.177z" fill="#fff"/>
<path d="m319 354.65 15.906 29.583c0.477 0.876-0.82 2.465-2.889 3.548l-79.394 41.295c-2.069 1.076-4.138 1.237-4.607 0.354l-15.907-29.576c-0.476-0.883 0.719-2.657 2.788-3.732l79.394-41.295c2.077-1.083 4.24-1.06 4.709-0.177z" fill="#098B5F" opacity=".2"/>
<path d="m316.16 367.2-41.092 21.723 0.766 1.446 41.092-21.723-0.766-1.446z" fill="#03C6AF"/>
<path d="m318.03 370.74-41.091 21.723 0.765 1.447 41.092-21.723-0.766-1.447z" fill="#03C6AF" opacity=".2"/>
<path d="m319.9 374.27-41.092 21.723 0.765 1.447 41.092-21.723-0.765-1.447z" fill="#03C6AF" opacity=".2"/>
<path d="m321.77 377.81-41.092 21.723 0.765 1.446 41.092-21.723-0.765-1.446z" fill="#03C6AF" opacity=".2"/>
<path d="m252.86 396.28c-2.092 1.107-3.772 2.86-4.791 4.999-1.019 2.14-1.322 4.552-0.864 6.877 0.457 2.326 1.651 4.442 3.403 6.034 1.753 1.592 3.971 2.576 6.326 2.805l-0.868-1.645c-0.286-0.541-0.365-1.167-0.222-1.762 0.142-0.594 0.497-1.116 0.997-1.467 0.653 0.434 1.411 0.683 2.194 0.722 0.782 0.039 1.561-0.134 2.253-0.501 0.693-0.367 1.275-0.914 1.683-1.584 0.409-0.67 0.63-1.438 0.64-2.223 0.57-0.216 1.198-0.216 1.768-2e-3s1.043 0.629 1.331 1.166l0.89 1.692c1.158-2.077 1.614-4.473 1.301-6.831-0.314-2.358-1.381-4.551-3.041-6.251-1.661-1.701-3.826-2.817-6.171-3.183-2.346-0.366-4.747 0.039-6.845 1.154h0.016zm10.557 9.632c3e-3 0.079-0.01 0.158-0.038 0.232-0.054 0.102-0.135 0.188-0.233 0.249l-0.193 0.108c0.125 0.605 0.121 1.229-0.011 1.832s-0.391 1.172-0.758 1.667c-0.367 0.496-0.835 0.909-1.372 1.211-0.538 0.302-1.133 0.486-1.747 0.541-0.614 0.056-1.232-0.02-1.815-0.221-0.582-0.202-1.115-0.524-1.565-0.947-0.449-0.423-0.804-0.936-1.041-1.506-0.238-0.569-0.352-1.183-0.336-1.8h-0.054c-0.35-0.145-0.629-0.42-0.781-0.768-0.152-0.347-0.163-0.74-0.032-1.095 0.171-0.274 0.389-0.515 0.642-0.714 0.712-0.696 1.142-1.63 1.209-2.624 0.109 0.193 0.205 0.392 0.286 0.598 0.068-0.25 0.231-0.463 0.455-0.592 0.223-0.13 0.489-0.165 0.738-0.099 0.179 0.087 0.366 0.157 0.558 0.21 0.173 1e-3 0.344-0.033 0.504-0.101l1.03-0.396c0.314-0.209 0.694-0.296 1.067-0.244 0.374 0.051 0.716 0.237 0.962 0.524 0.634 0.507 1.21 1.083 1.72 1.715 0.502 0.632 0.785 1.412 0.805 2.22z" fill="#03C6AF" opacity=".2"/>
<path d="m286 398.95c-0.079 10.531 21.849 12.769 21.849 12.769l5.603 0.879 2.505 0.401 1.043-10.296s-1.146-0.172-2.584-0.502c-2.118-0.495-4.868-1.343-5.444-2.537-0.965-1.995-22.893-11.254-22.972-0.714z" fill="#EE8E9E"/>
<path d="m377.19 363.24s7.336-2.134 5.527 18.758c-1.809 20.891-15.386 34.105-15.386 34.105s-15.626 6.883-22.643 5.778c-7.018-1.106-12.149-1.347-12.149-1.347-2.212-1.118-4.63-1.765-7.103-1.9-3.943-0.156-12.226-2.609-12.42-3.403s2.057-12.459 1.11-13.292c0 0 11.046 0.452 12.149 1.254 1.102 0.802 2.678 0.226 3.881 0s4.813-3.395 11.993-0.623c0 0 2.446 0.241 3.393-0.397 0.774-0.361 1.655-0.417 2.468-0.156 0.608-0.208 1.183-0.502 1.708-0.872 0.241-0.311 2.135 0 2.135 0 0.112 0.056 0.235 0.086 0.36 0.088s0.249-0.025 0.363-0.078c0.113-0.053 0.213-0.132 0.293-0.229 0.079-0.097 0.135-0.212 0.164-0.334 0.249-0.648 0.623-1.241 1.102-1.744 0 0 2.135-12.022 6.156-16.539 0.324-0.278 0.573-0.633 0.725-1.033s0.201-0.832 0.144-1.256c-0.303-1.269 6.567-19.287 16.03-16.78z" fill="#62BD69"/>
<path d="m682 105.65v43.995c0 1.312-2.43 2.357-5.453 2.357h-115.09c-3.007 0-5.453-1.061-5.453-2.357v-43.995c0-1.312 2.43-2.648 5.453-2.648h115.11c3.007 0.024 5.437 1.336 5.437 2.648z" fill="#fff"/>
<path d="m668 113.65v43.995c0 1.304-2.419 2.357-5.41 2.357h-114.18c-2.983 0-5.41-1.068-5.41-2.357v-43.995c0-1.312 2.411-2.648 5.41-2.648h114.2c2.976 0 5.395 1.336 5.395 2.648z" fill="#098B5F" opacity=".1"/>
<path d="m682 105.65v43.995c0 1.312-2.43 2.357-5.453 2.357h-115.09c-3.007 0-5.453-1.061-5.453-2.357v-43.995c0-1.312 2.43-2.648 5.453-2.648h115.11c3.007 0.024 5.437 1.336 5.437 2.648z" fill="#fff"/>
<path d="m682 105.65v43.995c0 1.312-2.43 2.357-5.453 2.357h-115.09c-3.007 0-5.453-1.061-5.453-2.357v-43.995c0-1.312 2.43-2.648 5.453-2.648h115.11c3.007 0.024 5.437 1.336 5.437 2.648z" fill="#098B5F" opacity=".2"/>
<path d="m671 119h-60v2h60v-2z" fill="#03C6AF"/>
<path d="m671 124h-60v2h60v-2z" fill="#03C6AF" opacity=".2"/>
<path d="m671 129h-60v2h60v-2z" fill="#03C6AF" opacity=".2"/>
<path d="m671 134h-60v2h60v-2z" fill="#03C6AF" opacity=".2"/>
<path d="m581.02 114c-3.011-6e-3 -5.944 0.97-8.363 2.782s-4.195 4.364-5.064 7.277-0.784 6.031 0.24 8.892c1.025 2.86 2.936 5.311 5.449 6.987v-2.394c4e-3 -0.784 0.29-1.539 0.805-2.126 0.515-0.586 1.224-0.962 1.994-1.058 0.479 0.882 1.183 1.618 2.04 2.131s1.834 0.784 2.83 0.784 1.974-0.271 2.83-0.784c0.857-0.513 1.561-1.249 2.04-2.131 0.77 0.096 1.479 0.472 1.994 1.058 0.515 0.587 0.801 1.342 0.805 2.126v2.456c2.531-1.659 4.464-4.1 5.51-6.959s1.149-5.983 0.295-8.906c-0.854-2.924-2.621-5.49-5.037-7.316-2.415-1.826-5.351-2.815-8.368-2.819zm6.135 17.253c-0.047 0.117-0.13 0.217-0.235 0.285-0.106 0.068-0.23 0.101-0.355 0.095-0.095 8e-3 -0.19 8e-3 -0.284 0-0.38 1.292-1.208 2.402-2.332 3.128-1.123 0.726-2.468 1.019-3.788 0.825s-2.527-0.861-3.4-1.88-1.354-2.321-1.354-3.669c-2e-3 -0.967 0.246-1.918 0.721-2.758l-0.062-0.039c-0.308-0.372-0.46-0.851-0.426-1.335s0.253-0.936 0.61-1.26c0.358-0.205 0.747-0.349 1.151-0.426 1.213-0.358 2.251-1.159 2.914-2.247 0.022 0.284 0.022 0.569 0 0.852 0.11-0.121 0.244-0.219 0.392-0.288 0.149-0.069 0.31-0.108 0.473-0.114 0.163-5e-3 0.326 0.022 0.479 0.08s0.293 0.147 0.412 0.26c0.176 0.178 0.291 0.426 0.506 0.566 0.189 0.11 0.403 0.171 0.621 0.178l1.388 0.186c0.48-0.049 0.96 0.081 1.351 0.367 0.39 0.286 0.663 0.707 0.766 1.182 0.417 0.956 0.723 1.957 0.912 2.983 0.192 1.034 0.035 2.103-0.444 3.037l-0.016-8e-3z" fill="#03C6AF" opacity=".2"/>
<path d="m717.95 461.61c-1.071-3.877-1.769-7.274-1.769-7.274s0.046-4.257-1.987-7.374l-0.039-1.063-0.311-7.878c0.489-1.446 1.102-2.847 1.832-4.188 1.32-2.52-0.442-11.515-0.442-11.515s-5.744-12.555-4.774-20.689c0.97-8.135-12.163-35.509-12.163-35.509-0.023-2.679 0.255-5.354 0.831-7.971 0.102-0.552 0.131-1.116 0.085-1.675 4e-3 -0.067 4e-3 -0.135 0-0.202v0.062c-0.388-5.327-4.991-15.16-4.991-15.16l-0.17-19.084s2.266-11.345-2.717-26.257c-1.739-5.203-2.88-9.383-3.625-12.609-0.085-0.364-0.17-0.713-0.24-1.054 8.996-1.722 15.857-3.102 15.857-3.102s-6.085-21.713-9.78-25.435c-3.694-3.722-6.985-15.656-6.985-15.656s-2.438-15.424 0.364-20.061c2.802-4.638 2.911-12.532 2.911-12.532s6.613-5.203 7.382-7.429c0.768-2.225 1.994-7.219 1.893-9.817-0.1-2.598-1.04-4.908-0.776-6.289 0.264-1.38-2.243-6.506-1.203-9.018 0.267-0.77 0.391-1.582 0.365-2.396v-0.101c-0.075-2.158-0.358-4.303-0.846-6.406-2.031-1.586-4.374-2.725-6.877-3.342l-0.171-0.581-0.442-1.551c-0.233-0.14-0.458-0.264-0.683-0.372v-0.559l-0.148-2.225 0.87-5.049c1.762-8.785-9.92-9.638-9.92-9.638-0.751-1.308-1.963-2.29-3.4-2.753-2.375-0.776 0.109 13.113 1.242 13.958 0.846 0.636 3.555 4.901 4.859 6.979l0.217 0.341c-0.184 0.181-0.356 0.376-0.512 0.582l0.559 3.001 0.085 0.465c-0.736 0.982-1.32 2.07-1.73 3.226 0 0 2.212 2.249 1.886 4.87s0.877 5.831 0.939 6.002c-0.132-0.14-1.692-1.698-3.167-1.241-1.475 0.458-5.612 1.861-5.612 1.861s-3.105 0.667-2.786 1.342c0.318 0.674-1.98 3.784-1.98 3.784l-8.693-7.615c-0.093-0.233-0.186-0.465-0.271-0.706-0.39-1.122-0.679-2.277-0.862-3.45 0.905-0.252 1.79-0.571 2.647-0.954 0.869-0.328 1.646-0.86 2.266-1.551 0.776-1.032 0.916-2.404 1.211-3.66 0.567-2.466 1.91-4.692 2.841-7.049 1.548-3.961 1.944-8.278 1.141-12.454-0.186-1.293-0.675-2.523-1.428-3.59-1.444-1.83-3.951-2.505-5.814-3.932s-3.105-3.676-5.262-4.722c-1.941-0.946-4.254-0.776-6.381-0.303-4.17 0.844-8.146 2.462-11.72 4.769-1.187 0.776-2.499 1.66-3.881 1.458-1.211-0.171-2.127-1.101-2.942-1.993-3e-3 -0.039-3e-3 -0.078 0-0.116l-0.1-0.101c-0.809 2.002-1.169 4.156-1.056 6.312 0 0.334 0 0.667 0.078 1.001v0.348c7e-3 0.099 7e-3 0.197 0 0.295 3e-3 0.151-0.012 0.303-0.047 0.45-0.171 0.437-0.436 0.831-0.776 1.155-0.244 0.302-0.462 0.624-0.652 0.962 0-0.116 0.062-0.233 0.101-0.349-0.513 0.798-0.782 1.727-0.776 2.675-0.022 0.691 0.229 1.362 0.698 1.869 0.436 0.394 0.909 0.744 1.413 1.047-0.135 0.924-0.185 1.859-0.148 2.792 0.123 2.787 0.963 5.495 2.44 7.863 1.476 2.368 3.539 4.315 5.99 5.653 0.108 0.232 0.209 0.465 0.318 0.705 1.18 2.777 2.111 6.026 1.87 9.073 0 0.225-0.046 0.45-0.077 0.667s-0.202 0.241-0.287 0.365c0 0-13.84 0.667-17.208-2.156-3.369-2.823-7.948 7.514-7.948 7.514s-4.921 1.155-5.954 0.233c-1.032-0.923-6.815 0.124-6.815 0.124-2.454-2.023-5.588-3.032-8.763-2.823-1.996-1.395-4.181-2.5-6.489-3.28l-0.162-0.047c-1.002-0.32-2.062-0.416-3.105-0.279 0 0-7.025-5.358-9.128-8.297-2.104-2.939-11.984-13.764-12.031-13.819l-0.054-0.535-0.171-1.628c-0.279 0.056-0.562 0.093-0.846 0.108l-0.21-0.558c-0.6-1.568-1.333-3.083-2.188-4.529 0 0-0.078-2.062 0.504-2.597 0.582-0.536-0.559-8.05-0.559-8.05s-6.683-14.09-11.767-3.179c0 0-10.09 7.32-1.094 15.036 0 0 3.547 1.551 4.09 2.869 0.357 0.853 1.63 3.226 2.484 4.8 0.14 0.264 0.272 0.497 0.38 0.706l-0.093 0.085 0.179 1.342 0.07 0.519c-1.599 0.993-2.678 1.962-2.383 2.652 0.533 1.167 0.914 2.397 1.133 3.66 0 0 12.636 14.618 14.445 21.008 0 0 33.065 17.951 43.753 18.913l-1.397 9.647c-0.175 2.606-0.217 5.221-0.124 7.832 0.217 2.055-0.838 11.43-0.838 11.43s-1.32 13.78-2.802 15.765c-1.483 1.985-0.893 10.189-0.893 10.189-0.222 3.954-0.783 7.882-1.677 11.741-1.358 5.265 0 11.67 0 11.67s-4.913 12.547 7.669 3.684c0 0 6.318-0.636 13.599-1.164v0.729c0 0.939 0.046 1.955 0.077 3.025 0.171 7.072 0.505 16.812 1.11 24.171 1.079 13.004 6.039 38.594 6.039 38.594l0.497 12.95c-0.205 1.227-0.281 2.472-0.225 3.714 0.066 4.578 1.439 9.041 3.958 12.865l1.327 8.592s2.546 5.607 2.725 9.003c1e-3 0.278-0.022 0.556-0.07 0.83-0.072 0.438-0.093 0.883-0.062 1.326 0 3.924 2.748 13.222 2.748 13.222s0.504 9.452 1.94 9.949c1.234 0.418-1.405 5.513-2.197 6.979-0.025-0.09-0.046-0.18-0.062-0.272-0.101 0.194-0.163 0.295-0.163 0.295-0.262 0.776-0.38 1.593-0.349 2.412-0.057 0.649 0.073 1.301 0.374 1.879 0.301 0.579 0.761 1.059 1.326 1.385 2.755 1.551 4.253 2.854 1.995 3.49-0.839 0.165-1.668 0.375-2.484 0.628 0-0.109-0.093-0.217-0.132-0.318-0.312 0.146-0.567 0.391-0.724 0.697-0.158 0.306-0.209 0.655-0.145 0.994 0.068 1.121 0.4 2.21 0.97 3.179 2.468 4.986 4.114 6.847 4.114 6.847l1.078-0.163c-0.146 0.42-0.341 0.821-0.582 1.195-0.393 0.609-0.925 1.116-1.552 1.481-0.574 0.391-1.225 0.655-1.909 0.775-0.77 0.052-1.519 0.267-2.199 0.631-0.68 0.363-1.275 0.867-1.744 1.478-1.343 1.877-2.135 4.405 0.776 6.483l10.276 3.102s17.527 1.597 16.448-2.28-1.77-7.274-1.77-7.274c-0.023-2.391-0.6-4.746-1.684-6.878-0.194-0.348-0.412-0.682-0.652-1l0.613-0.093s0.939-8.685 2.577-10.399c0.38-0.388 0.458-0.683 0.357-0.907 0.155-0.481-0.295-0.776-0.877-0.869 0 0.109-0.07 0.225-0.109 0.341-0.561-0.097-1.131-0.138-1.7-0.124 0 0-0.776-4.497 1.04-6.203 0.142-0.194 0.241-0.414 0.293-0.647 0.053-0.234 0.056-0.476 0.01-0.71-0.01-0.619-0.099-1.234-0.264-1.831-0.023 0.034-0.041 0.071-0.054 0.109-1.095-4.071-4.487-10.476-4.487-10.476s-0.295-4.11 0.777-5.793c1.071-1.683-1.009-22.349-1.009-22.349s0.046-10.026-1.413-14.632c-1.459-4.607 1.172-10.205 1.172-10.205s0-0.109-0.047-0.303v-0.07s-0.085-0.612-0.225-1.551c4e-3 0.034 4e-3 0.068 0 0.101-0.38-2.636-1.11-7.413-1.552-9.623-0.691-3.102-0.559-18.239-0.559-18.239l2.329-6.545 4.967 10.934 5.395 14.625s2.507 3.032 2.685 6.204v0.465c-0.019 0.331-0.019 0.662 0 0.993-0.01 1.87 0.574 3.694 1.669 5.211 0 0 1.552 6.979 3.601 8.654 2.05 1.675 2.189 5.133 2.189 5.133s2.802 10.081 4.005 11.795c1.009 1.466 1.219 5.591 1.258 6.855v0.372s0.481 3.614 0.582 6.662v1.085-0.077c0.026 0.829-0.042 1.659-0.202 2.473v0.148-0.512c-0.419 2.087-0.581 4.217-0.481 6.343 0.078 3.652 0.776 7.948 3.105 10.399 3.997 4.242 6.388 3.598 6.388 3.598s-1.63 5.552-3.881 6.739c-0.085 0.047-0.166 0.101-0.241 0.163 0-0.101-0.046-0.21-0.062-0.311-0.237 0.284-0.411 0.614-0.513 0.969-0.102 0.356-0.128 0.728-0.077 1.094-0.07 2.42 1.607 6.281 3.105 8.026 0.555 0.503 1.228 0.86 1.956 1.039-0.11 0.086-0.224 0.167-0.342 0.241-0.25 0.147-0.51 0.279-0.776 0.395-0.362 0.174-0.75 0.289-1.149 0.341-0.769 0.055-1.517 0.27-2.197 0.634-0.679 0.363-1.274 0.866-1.746 1.475-1.335 1.877-2.134 4.397 0.776 6.483l10.277 3.102s17.495 1.512 16.385-2.365z" fill="url(#b)"/>
<path d="m651.92 470.68-10.016-3.124c-2.805-2.101-2.032-4.647-0.727-6.537 0.45-0.607 1.026-1.11 1.688-1.475 0.662-0.366 1.394-0.584 2.148-0.642 0.669-0.122 1.304-0.388 1.86-0.781 0.617-0.366 1.135-0.878 1.508-1.491 0.679-1.171 1.019-2.506 0.984-3.858 0 0 10.72-3.593 13.814-0.532 0.549 0.557 1.017 1.188 1.391 1.875 1.06 2.16 1.623 4.529 1.648 6.935 0 0 0.688 3.421 1.735 7.326s-16.033 2.304-16.033 2.304z" fill="#62BD69"/>
<path d="m699.9 463.66-9.995-3.129c-2.809-2.096-2.037-4.646-0.734-6.531 0.447-0.61 1.022-1.116 1.683-1.482 0.662-0.366 1.395-0.583 2.148-0.637 0.388-0.061 0.764-0.179 1.116-0.352 0.269-0.115 0.53-0.249 0.78-0.399 2.708-1.627 2.489-5.358 2.489-5.358s10.713-3.598 13.795-0.532c0.416 0.413 0.782 0.872 1.093 1.369 1.982 3.129 1.943 7.446 1.943 7.446s0.686 3.442 1.732 7.345c1.045 3.902-16.05 2.26-16.05 2.26z" fill="#62BD69"/>
<path d="m662.62 452.1c0.543 0.495 1.006 1.057 1.375 1.668l-16 2.231c0.671-1.041 1.008-2.23 0.973-3.433 0 0 10.595-3.191 13.652-0.466z" fill="#000" opacity=".1"/>
<path d="m711.88 446.62 0.116 3.065c-2.311 4.291-14.418 3.843-18 1.878 0.265-0.116 0.523-0.25 0.77-0.401 2.673-1.635 2.457-5.383 2.457-5.383s10.575-3.616 13.618-0.535c0.396 0.417 0.745 0.878 1.039 1.376z" fill="#000" opacity=".1"/>
<path d="m713.52 433.26c-0.704 1.341-1.292 2.741-1.757 4.183l0.41 10.844c-2.563 4.648-16.859 3.672-18.872 1.278-2.014-2.393-4.314-8.745-2.161-9.93s3.717-6.724 3.717-6.724-2.323 0.635-6.195-3.602-3.144-14.004-2.548-16.359-0.395-10.14-0.395-10.14-0.069-5.484-1.231-7.219-3.872-11.781-3.872-11.781-0.132-3.424-2.114-5.136c-1.983-1.712-3.485-8.644-3.485-8.644-1.19-1.702-1.753-3.763-1.595-5.833 0.278-3.439-2.602-7.034-2.602-7.034l-5.228-14.608-4.809-10.93-2.207 6.545s-0.108 15.089 0.566 18.219c0.673 3.129 1.812 11.448 1.812 11.448s-2.533 5.585-1.115 10.194c1.417 4.609 1.386 14.624 1.386 14.624s2.021 20.628 0.991 22.317c-1.03 1.688-0.774 5.786-0.774 5.786s6.079 11.836 4.359 13.548c-1.719 1.711-0.999 6.196-0.999 6.196s3.873-0.147 2.262 1.549c-1.611 1.697-2.486 10.388-2.486 10.388l-16.479 2.556s-1.596-1.859-3.981-6.847c-2.385-4.989 0.24-4.532 2.424-5.167s0.774-1.944-1.928-3.493c-2.703-1.55-1.301-5.299-1.301-5.299s3.709-6.863 2.323-7.358c-1.386-0.496-1.89-9.938-1.89-9.938s-3.167-11.124-2.602-14.168c0.566-3.044-2.586-10.186-2.586-10.186l-1.286-8.59c-3.119-4.78-4.411-10.525-3.639-16.181l-0.48-13.331s-4.825-25.562-5.871-38.591c-0.673-8.319-1.014-19.69-1.169-26.793-0.085-3.981-0.116-6.623-0.116-6.623l58.909-8.435c0.206 2.952 0.678 5.878 1.409 8.745 0.728 3.223 1.836 7.398 3.524 12.595 4.825 14.903 2.656 26.236 2.656 26.236l0.186 19.055s5.692 12.533 4.763 16.963c-0.548 2.626-0.808 5.304-0.775 7.987 0 0 12.708 27.351 11.787 35.476-0.922 8.126 4.646 20.674 4.646 20.674s1.696 9.016 0.418 11.534z" fill="#65617D"/>
<path d="m677 363.16 18-3.165s-9.844 11.044-18 3.165z" fill="#000" opacity=".05"/>
<path d="m691.51 343s1.023 6.421-3.511 9c0.028 0 8.294-1.38 3.511-9z" fill="#000" opacity=".1"/>
<path d="m689 323s-13.932 12.764-19.247 11.964 19.247-11.964 19.247-11.964z" fill="#000" opacity=".1"/>
<path d="m655 370s-11.828 3.151-11.998 7.926c-0.17 4.776 11.998-7.926 11.998-7.926z" fill="#000" opacity=".1"/>
<path d="m659.08 427s-15.833 3.739-11.242 5.668c4.592 1.929 12.114 3.332 12.114 3.332s5.15 0.072-0.872-9z" fill="#000" opacity=".05"/>
<path d="m645.04 436.24c-0.409-0.237-0.76-0.562-1.027-0.95-0.266-0.388-0.442-0.83-0.514-1.293-0.092 0.183-0.154 0.289-0.154 0.289s-1.356 3.681 1.295 5.202c0.308 0.174 0.593 0.342 0.863 0.509 0.478-0.106 0.986-0.19 1.479-0.335 2.112-0.585 0.671-1.901-1.942-3.422z" fill="#000" opacity=".05"/>
<path d="m665.71 433.82c0.403-0.427 0.352-1.481 0.044-2.822-0.583 1.238-0.836 2.621-0.732 4 0.145-0.442 0.38-0.844 0.688-1.178z" fill="#000" opacity=".05"/>
<path d="m660.8 366c-0.476 1.617-0.745 3.3-0.8 5 0.235-1.183 0.57-2.339 1-3.453 0 0-0.076-0.594-0.2-1.547z" fill="#000" opacity=".05"/>
<path d="m666.12 441c-0.736 2.719-1.249 5.493-1.533 8.293l-16.304 2.488s-1.57-1.81-3.93-6.657c-0.207-0.43-0.376-0.814-0.514-1.161-0.965 0.482-1.31 1.508 0.092 4.38 2.36 4.848 3.938 6.657 3.938 6.657l16.304-2.488s0.889-8.444 2.452-10.102c0.759-0.852 0.23-1.259-0.505-1.41z" fill="#000" opacity=".05"/>
<path d="m643.44 417.01s0.494 9.488 1.852 9.986c0.622-1.594 1.017-3.111 0.41-3.321-1.366-0.497-1.852-9.985-1.852-9.985s-3.111-11.168-2.549-14.216c0.561-3.049-2.535-10.227-2.535-10.227l-1.267-8.625c-3.056-4.799-4.322-10.567-3.566-16.245l-0.501-13.338s-4.727-25.664-5.751-38.744c-0.66-8.353-0.994-19.777-1.146-26.9 0-1.291-0.045-2.435-0.068-3.399l-0.463 0.07s0 2.644 0.121 6.649c0.152 7.124 0.486 18.548 1.139 26.9 1.031 13.042 5.759 38.745 5.759 38.745l0.5 13.337c-0.756 5.679 0.51 11.447 3.567 16.246l1.259 8.625s3.096 7.17 2.534 10.226c-0.561 3.057 2.557 14.216 2.557 14.216z" fill="#000" opacity=".05"/>
<path d="m693.46 446.01c-1.423-1.781-2.406-3.835-2.879-6.014-1.642 1.456 0.537 6.989 2.459 9.122 2.023 2.25 16.386 3.153 18.962-1.194l-0.101-2.453c-3.572 3.596-16.527 2.679-18.441 0.539z" fill="#000" opacity=".05"/>
<path d="m713.92 430.1c-0.77 1.296-1.414 2.647-1.924 4.04l0.076 1.855c0.314-0.688 0.763-1.608 1.391-2.701 0.429-1.056 0.602-2.18 0.508-3.299l-0.051 0.105z" fill="#000" opacity=".05"/>
<path d="m693.73 433c0.501-1.075 0.925-2.183 1.27-3.314 0 0-2.411 0.636-6.429-3.609-2.917-3.104-3.319-9.119-3.078-13.077-0.619 2.328-1.366 12.146 2.644 16.391 2.644 2.779 4.573 3.462 5.593 3.609z" fill="#000" opacity=".05"/>
<path d="m685.98 402.86c0.347 2.701 0.545 5.419 0.594 8.142 0.05-0.433 0.129-0.862 0.234-1.284 0.602-2.336-0.398-10.182-0.398-10.182s-0.078-5.511-1.25-7.262c-1.171-1.752-3.905-11.839-3.905-11.839s-0.133-3.441-2.14-5.153c-2.008-1.713-3.515-8.687-3.515-8.687-1.2-1.713-1.768-3.787-1.61-5.869 0.282-3.456-2.624-7.06-2.624-7.06l-5.28-14.689-4.851-10.975-2.234 6.562v2.094l1.82-5.332 4.851 10.975 5.264 14.681s2.906 3.604 2.625 7.06c-0.163 2.083 0.406 4.157 1.609 5.869 0 0 1.507 7.005 3.515 8.687 2.007 1.681 2.132 5.152 2.132 5.152s2.742 10.12 3.906 11.84 1.257 7.27 1.257 7.27z" fill="#000" opacity=".05"/>
<path d="m686.82 149.92-0.835 5.247 0.147 2.313 0.108 1.709-5.686 0.806-0.689-1.209c-1.261-2.184-3.868-6.625-4.703-7.254-1.083-0.878-3.505-15.273-1.215-14.508 1.401 0.5 2.575 1.522 3.296 2.87 0 0 11.279 0.902 9.577 10.026z" fill="#FFCDD3"/>
<path d="m687 159.23-6.244 0.767-0.756-1.151c0.807-0.897 1.934-1.515 3.188-1.747 1.255-0.232 2.56-0.065 3.693 0.474l0.119 1.657z" fill="#000" opacity=".1"/>
<path d="m688 161.77-7.275 2.234-0.197-1.223-0.528-3.296s2.755-4.486 7.072-1.394l0.422 1.699 0.506 1.98z" fill="#DCE6F2"/>
<path d="m566 155.24-8.03 4.761s-0.339-0.635-0.79-1.524c-0.844-1.587-2.1-4.047-2.455-4.92-0.537-1.341-4.027-2.936-4.027-2.936-8.898-7.935 1.058-15.387 1.058-15.387 4.99-11.157 11.583 3.27 11.583 3.27s1.137 7.689 0.561 8.237c-0.577 0.547-0.49 2.65-0.49 2.65 0.844 1.486 1.565 3.038 2.156 4.642 0.284 0.731 0.434 1.207 0.434 1.207z" fill="#FFCDD3"/>
<path d="m566 155.2-8.194 4.805s-0.347-0.641-0.806-1.537c1.136-1.025 5.197-4.565 6.575-4.461 0.659 0.062 1.323 0.062 1.982 0 0.29 0.713 0.443 1.193 0.443 1.193z" fill="#000" opacity=".1"/>
<path d="m567 157.17-9.534 4.834-0.275-1.949-0.191-1.349s5.445-4.718 7.119-4.608c0.833 0.077 1.674 0.046 2.498-0.094l0.183 1.63 0.2 1.536z" fill="#DCE6F2"/>
<path d="m667 184.04s-39.4 5.926-32.097 3.271c5.086-1.863 6.999-5.18 7.295-8.781 0.226-3.024-0.677-6.249-1.828-9.012-1.032-2.429-2.309-4.749-3.811-6.926 0 0 29.609-17.615 24.11-2.416-0.848 2.298-1.333 4.712-1.439 7.157-0.088 2.427 0.27 4.849 1.058 7.149 1.302 3.738 3.625 7.047 6.712 9.558z" fill="#FFCDD3"/>
<path d="m660.32 160.06c-0.854 2.256-1.343 4.625-1.449 7.025-2.774 2.432-5.932 2.394-9.975 2.545-3.134 0.114-6.519 0.967-9.058-0.385-1.04-2.384-2.326-4.662-3.839-6.798 0 0 29.83-17.297 24.321-2.387z" fill="#000" opacity=".1"/>
<path d="m648 171c8.837 0 16-7.387 16-16.5s-7.163-16.5-16-16.5-16 7.387-16 16.5 7.163 16.5 16 16.5z" fill="#FFCDD3"/>
<path d="m667 184.04s-39.4 5.927-32.097 3.271c5.086-1.862 6.999-5.18 7.295-8.782 1.89-2.194 5.786-3.849 8.298-4.772 2.29-0.86 4.793-0.995 7.163-0.385 0.936 0.235 1.832 0.603 2.66 1.093 1.291 3.741 3.603 7.055 6.681 9.575z" fill="#000" opacity=".1"/>
<path d="m688 161.5-6.816 2.503-0.184-1.371c0.698-1.398 1.698-2.473 2.866-3.079 1.168-0.607 2.446-0.714 3.66-0.309l0.474 2.256z" fill="#000" opacity=".1"/>
<path d="m567 157.42-9.72 4.581-0.28-1.847c3.151-1.599 6.437-2.988 9.83-4.153l0.17 1.419z" fill="#000" opacity=".1"/>
<path d="m686 282.71c-15.077 2.987-36.553 6.945-40.041 6.027-2.88-0.772-11.951-0.317-19.843 0.262-0.085-3.966-0.116-6.597-0.116-6.597l58.575-8.403c0.213 2.941 0.69 5.856 1.425 8.711z" fill="#000" opacity=".1"/>
<path d="m701 278.38s-49.984 10.508-55.451 9.082-33.119 1.403-33.119 1.403c-12.151 8.788-7.421-3.677-7.421-3.677s-1.341-6.36 0-11.603c0.858-3.837 1.395-7.738 1.605-11.663 0 0-0.589-8.164 0.846-10.13 1.434-1.966 2.69-15.665 2.69-15.665s1.009-9.32 0.776-11.363 0.116-7.778 0.116-7.778l1.396-9.606c-10.337-0.971-42.331-18.856-42.331-18.856-1.76-6.344-13.958-20.891-13.958-20.891-0.216-1.256-0.586-2.48-1.101-3.647-0.907-2.15 11.267-6.984 11.267-6.984s9.616 10.793 11.632 13.753 8.832 8.264 8.832 8.264c1.018-0.147 2.056-0.054 3.032 0.27l0.155 0.046c2.239 0.782 4.352 1.883 6.273 3.269 3.088-0.193 6.131 0.816 8.483 2.813 0 0 5.591-1.033 6.584-0.115 0.992 0.917 5.761-0.216 5.761-0.216s4.405-10.276 7.669-7.462c3.265 2.813 16.649 2.158 16.649 2.158 1.69-2.42 5.963-4.278 8.646-5.25 2.282-0.864 4.778-1.001 7.142-0.393 1.024 0.249 1.997 0.671 2.876 1.249l8.422 7.593s2.217-3.083 1.915-3.762c-0.302-0.678 2.698-1.326 2.698-1.326s3.924-1.379 5.428-1.85c1.505-0.47 2.932 1.11 3.063 1.241-0.062-0.169-1.217-3.43-0.915-5.966 0.303-2.537-1.837-4.842-1.837-4.842 4.35-11.902 15.555-2.505 15.555-2.505s1.489 6.36 0.481 8.858c-1.008 2.497 1.395 7.585 1.17 8.957-0.224 1.373 0.691 3.662 0.776 6.253 0.085 2.59-1.078 7.547-1.815 9.759-0.736 2.213-7.134 7.37-7.134 7.37s-0.108 7.786-2.814 12.396c-2.707 4.61-0.326 19.943-0.326 19.943s3.21 11.888 6.785 15.572c3.575 3.685 9.499 25.301 9.499 25.301z" fill="#62BD69"/>
<path d="m624.78 191s-1.833-4.372-3.379-4.721c-1.505-0.443-2.975-0.976-4.401-1.594l0.845-1.685s5.668 1.184 6.631 2.634c0.963 1.449 0.304 5.366 0.304 5.366z" fill="#000" opacity=".1"/>
<path d="m596 182.1c-0.217 1.288-12 2.895-12 2.895l5.738-6 0.15 0.043c2.18 0.729 4.239 1.76 6.112 3.062z" fill="#000" opacity=".1"/>
<path d="m560 166c0.552 0 1-0.448 1-1s-0.448-1-1-1-1 0.448-1 1 0.448 1 1 1z" fill="#575988"/>
<path d="m562 168c0.552 0 1-0.448 1-1s-0.448-1-1-1-1 0.448-1 1 0.448 1 1 1z" fill="#575988"/>
<path d="m563 170c0.552 0 1-0.448 1-1s-0.448-1-1-1-1 0.448-1 1 0.448 1 1 1z" fill="#575988"/>
<path d="m565 172c0.552 0 1-0.448 1-1s-0.448-1-1-1-1 0.448-1 1 0.448 1 1 1z" fill="#575988"/>
<path d="m694 167c0.552 0 1-0.448 1-1s-0.448-1-1-1-1 0.448-1 1 0.448 1 1 1z" fill="#575988"/>
<path d="m694 169c0.552 0 1-0.448 1-1s-0.448-1-1-1-1 0.448-1 1 0.448 1 1 1z" fill="#575988"/>
<path d="m694.5 171c0.276 0 0.5-0.448 0.5-1s-0.224-1-0.5-1-0.5 0.448-0.5 1 0.224 1 0.5 1z" fill="#575988"/>
<path d="m626 228c-0.13-0.155 32.038 37.876 55 14.278-8e-3 0-37.441 6.632-55-14.278z" fill="#000" opacity=".1"/>
<path d="m609 249s18.635-0.226 20.789 5.447l0.211 5.992c-0.518 0.34-1.109 0.532-1.715 0.557-0.607 0.025-1.209-0.117-1.75-0.414-1.912-1.007-13.383-6.714-17.246-3.567l-0.289-8.015z" fill="#000" opacity=".1"/>
<path d="m609 249s17.746-0.21 19.798 4.994l0.202 5.494c-0.495 0.311-1.058 0.486-1.636 0.508-0.578 0.023-1.152-0.108-1.668-0.379-1.818-0.928-12.747-6.131-16.424-3.267l-0.272-7.35z" fill="#62BD69"/>
<path d="m617 209c2.135 4.218 4.798 8.178 7.932 11.795 3.41 3.998 7.486 7.445 12.068 10.205 0 0-19.582-19.521-20-22z" fill="#000" opacity=".1"/>
<path d="m611 188s3.376 12.867 11 17l-11-17z" fill="#000" opacity=".1"/>
<path d="m606.2 189c-0.092-0.246-2.315 10.572 10.803 15.996 0.023 0-5.54-1.649-10.803-15.996z" fill="#000" opacity=".1"/>
<path d="m686 177.02c-0.215 0 7.004 4.047 8.995 5.979 0 0-4.84-6.414-8.995-5.979z" fill="#000" opacity=".1"/>
<path d="m644.18 169.5c0.014 0.36 0.101 0.713 0.256 1.037 0.154 0.323 0.373 0.61 0.643 0.842 0.269 0.231 0.582 0.403 0.92 0.503s0.692 0.127 1.04 0.079c4.904 0.117 10.005 0.141 14.489-1.969 0.828-0.334 1.564-0.87 2.143-1.562 0.762-1.039 0.869-2.414 1.151-3.688 0.542-2.476 1.808-4.687 2.7-7.094 1.479-4.02 1.853-8.378 1.083-12.601-0.171-1.298-0.636-2.537-1.358-3.618-1.372-1.851-3.767-2.523-5.536-3.968-1.769-1.446-2.966-3.712-5.01-4.766-1.845-0.953-4.049-0.781-6.1-0.313-3.976 0.857-7.755 2.485-11.134 4.797-1.136 0.782-2.379 1.664-3.729 1.461-1.182-0.179-2.066-1.156-2.859-2.07-0.871 2.292-1.19 4.766-0.931 7.211 0.061 0.357 0.061 0.721 0 1.078-0.154 0.435-0.396 0.831-0.709 1.164-1.151 1.485-1.822 3.789-0.572 5.188 0.542 0.617 1.35 0.93 1.884 1.562 0.945 1.118 0.701 2.789 0.762 4.266-0.036 0.517 0.11 1.03 0.412 1.445 0.271 0.238 0.597 0.4 0.947 0.471s0.712 0.049 1.051-0.064c0.674-0.238 1.386-0.336 2.097-0.289 0.765 0.224 1.432 0.709 1.891 1.375 2.387 2.82 3.386 6.023 4.469 9.523z" fill="#2D293D"/>
<path d="m664.82 167.34c-0.593 0.686-1.347 1.217-2.194 1.547-4.544 2.089-9.741 2.073-14.743 1.95-0.356 0.048-0.718 0.023-1.063-0.075-0.344-0.099-0.665-0.268-0.94-0.497-0.276-0.228-0.5-0.512-0.659-0.832s-0.249-0.669-0.264-1.026c-1.097-3.473-2.124-6.645-4.543-9.469-0.468-0.657-1.145-1.137-1.922-1.362-0.728-0.042-1.457 0.055-2.147 0.286-0.346 0.112-0.715 0.134-1.072 0.064-0.357-0.071-0.69-0.231-0.967-0.466-0.304-0.414-0.452-0.92-0.42-1.431 0-1.463 0.218-3.095-0.778-4.225-0.537-0.618-1.369-0.928-1.922-1.547-0.361-0.453-0.593-0.995-0.671-1.568s1e-3 -1.157 0.228-1.689c-0.817 1.416-1.128 3.203-0.062 4.371 0.552 0.604 1.385 0.913 1.921 1.548 0.965 1.106 0.724 2.762 0.779 4.231-0.036 0.51 0.113 1.015 0.42 1.424 0.275 0.237 0.608 0.399 0.965 0.469 0.358 0.071 0.727 0.048 1.073-0.067 0.691-0.232 1.42-0.329 2.147-0.286 0.776 0.228 1.452 0.707 1.922 1.362 2.42 2.831 3.439 5.996 4.544 9.469 0.161 0.864 0.648 1.633 1.361 2.151 0.49 0.212 1.022 0.31 1.556 0.286 5.003 0.116 10.208 0.132 14.782-1.957 0.847-0.332 1.599-0.863 2.194-1.547 0.294-0.409 0.514-0.864 0.654-1.346-0.055 0.081-0.114 0.158-0.179 0.232z" fill="#000" opacity=".1"/>
<path d="m632.11 145c0.187-0.247 0.327-0.537 0.41-0.85 0.058-0.356 0.058-0.72 0-1.076-0.187-2.005-0.025-4.032 0.478-5.965l-0.089-0.109c-0.779 2.288-1.065 4.756-0.833 7.197 0.032 0.266 0.043 0.535 0.034 0.803z" fill="#000" opacity=".1"/>
<path d="m642 179.35s20.302 2.136 22-1.353l-22 1.353z" fill="#000" opacity=".1"/>
<path d="m681 170.01s11.356-0.335 14 2.991l-14-2.991z" fill="#000" opacity=".1"/>
<path d="m126 133.65v43.995c0 1.312-2.439 2.357-5.454 2.357h-115.09c-3.0072 0-5.4535-1.061-5.4535-2.357v-43.995c0-1.312 2.4307-2.648 5.4535-2.648h115.11c3 0 5.438 1.336 5.438 2.648z" fill="#fff"/>
<path d="m126 133.65v43.995c0 1.312-2.439 2.357-5.454 2.357h-115.09c-3.0072 0-5.4535-1.061-5.4535-2.357v-43.995c0-1.312 2.4307-2.648 5.4535-2.648h115.11c3 0 5.438 1.336 5.438 2.648z" fill="#098B5F" opacity=".2"/>
<path d="m115 147h-59v2h59v-2z" fill="#03C6AF"/>
<path d="m25.499 142c-3.1173 2e-3 -6.151 0.982-8.652 2.796-2.5009 1.815-4.3359 4.366-5.2332 7.276s-0.8091 6.025 0.2514 8.883c1.0606 2.857 3.0371 5.306 5.6368 6.983v-0.945c0.0021-0.784 0.2984-1.54 0.8329-2.125 0.5345-0.586 1.2704-0.96 2.0686-1.053 0.4959 0.883 1.2261 1.619 2.1142 2.132s1.9014 0.784 2.9336 0.784c1.0323 0 2.0456-0.271 2.9337-0.784s1.6183-1.249 2.1141-2.132c0.7983 0.093 1.5341 0.467 2.0686 1.053 0.5346 0.585 0.8308 1.341 0.833 2.125v1.007c2.6218-1.662 4.6225-4.105 5.704-6.966s1.1858-5.985 0.2974-8.909c-0.8883-2.923-2.7218-5.488-5.2272-7.312-2.5054-1.825-5.5486-2.812-8.6759-2.813zm5.6838 17.925c-0.1078 1.41-0.7584 2.728-1.8214 3.69s-2.4597 1.496-3.9101 1.496c-1.4503 0-2.847-0.534-3.91-1.496s-1.7136-2.28-1.8214-3.69c-0.3522-0.749-0.5462-1.559-0.5703-2.383-0.024-0.824 0.1222-1.643 0.43-2.411 0.3079-0.767 0.7711-1.466 1.3619-2.055 0.5909-0.589 1.2974-1.056 2.0773-1.373-0.204-0.299-0.312-0.649-0.31-1.008 0-0.246 0.0498-0.489 0.1466-0.716 0.0968-0.228 0.2386-0.434 0.4173-0.607 0.1788-0.174 0.3909-0.311 0.6243-0.405 0.2333-0.093 0.4833-0.141 0.7355-0.14h0.1352c-0.4843 0.034-0.9376 0.245-1.2681 0.592-0.3306 0.347-0.5138 0.803-0.5126 1.276-0.0024 0.324 0.0855 0.643 0.2544 0.922h0.0557c-0.0122-0.121-0.0122-0.243 0-0.364-7e-4 -0.389 0.1244-0.769 0.3577-1.085 0.1209-0.382 0.3646-0.717 0.6952-0.954s0.7306-0.364 1.1411-0.363h0.1351c-0.2932 0.021-0.5775 0.107-0.831 0.253-0.2536 0.145-0.4697 0.344-0.6317 0.584 0.2882-0.186 0.6226-0.293 0.9677-0.308 0.3452-0.016 0.6883 0.059 0.993 0.218s0.5597 0.395 0.7379 0.684c0.1782 0.288 0.2731 0.619 0.2745 0.956 0.0039 0.069 0.0039 0.139 0 0.209 0.8853 0.23 1.7085 0.646 2.4119 1.218 0.7035 0.573 1.2703 1.288 1.6609 2.096s0.5956 1.689 0.6006 2.583c5e-3 0.893-0.1901 1.776-0.5716 2.589l-0.0556-8e-3z" fill="#03C6AF" opacity=".2"/>
<path d="m115 152h-59v2h59v-2z" fill="#03C6AF" opacity=".2"/>
<path d="m115 157h-59v2h59v-2z" fill="#03C6AF" opacity=".2"/>
<path d="m115 162h-59v2h59v-2z" fill="#03C6AF" opacity=".2"/>
<path d="m204.99 267.03c-0.44-2.358-0.699-4.746-0.775-7.143 0-2.869-3.872-5.428-3.872-5.428s-2.408-5.584-3.988-6.398c-1.58-0.815-6.56-8.128-6.56-8.128-0.057-1.441-0.582-2.824-1.495-3.939-1.484-1.955-2.84-4.004-4.058-6.135-0.666-0.822-0.333-1.396-1.332-6.157-0.057-0.249-0.119-0.489-0.186-0.722 0-0.108-0.07-0.201-0.101-0.302 1.064-1.071 1.805-2.42 2.139-3.893s0.248-3.01-0.249-4.436c-0.184-0.566-0.513-1.074-0.953-1.474-1.13-0.922-2.935-0.542-4.097-1.419l1.232-5.475c0.302-1.334 0.457-3.04-0.721-3.761-0.438-0.212-0.901-0.368-1.378-0.465-2.029-0.644-3.168-2.784-3.687-4.832-0.504-1.974-0.641-4.025-0.402-6.049 0.224-1.939 0.774-3.831 1.006-5.777 0.373-3.608-0.493-7.235-2.455-10.284-0.77-1.308-1.895-2.37-3.245-3.063-1.247-0.558-2.695-0.628-3.872-1.365-2.494-1.551-2.37-5.343-4.353-7.522-1.982-2.18-5.506-2.156-8.403-1.412-2.896 0.745-5.769 2.024-8.743 1.691-1.913-0.21-3.71-1.078-5.623-1.28-0.551-0.055-1.107-0.029-1.65 0.078l0.039-0.07c-1.425 0.256-2.726 1.047-3.059 2.396-0.074 0.32-0.106 0.649-0.093 0.977 0 0.776 0.186 1.598 0.201 2.327 0.023 0.297-0.013 0.597-0.106 0.88-0.093 0.284-0.241 0.546-0.436 0.772-0.379 0.411-0.945 0.628-1.316 1.047-0.16 0.162-0.285 0.355-0.369 0.567s-0.124 0.438-0.119 0.666c0 1.194 1.487 2.241 2.486 2.722-0.271 0.271-0.535 0.55-0.775 0.837-2.839 3.245-4.39 7.42-4.36 11.734 0.013 3.491 1.047 6.901 2.974 9.811 1.927 2.909 4.662 5.189 7.869 6.56-0.047 0.147-0.086 0.287-0.14 0.434-0.275 0.864-0.601 1.711-0.976 2.536-0.692-0.233-1.427-0.313-2.154-0.233-0.726 0.081-1.426 0.319-2.051 0.699-1.913 1.31-5.646 1.233-6.645 0.984-0.999-0.248-11.377-1.551-12.206-1.233s-2.494-1.147-3.57 0.822c-1.077 1.97-1.549 3.04-2.657 3.529-1.107 0.489-2.989 2.055-2.741 2.381s-2.742 2.326-2.742 2.326-2.571 2.707-4.066 3.04c-1.4946 0.334-4.6467 2.381-4.6467 2.381l-3.6555 2.87s-2.7417 0.411-1.913-1.474c0.8287-1.884-1.4947-4.273-1.4947-4.273s-4.6468-9.438-4.6468-11.4-3.8182-10.26-3.8182-10.26l-0.4724-0.047c-0.0697-0.201-0.1394-0.403-0.2169-0.612-0.697-1.978-1.6031-4.397-2.3234-5.824-1.3166-2.707-2.1685-3.017-2.1685-3.017s-16.109-12.114-26.572-8.422c-10.463 3.691 19.098 14.688 21.755 15.844 0.9294 0.395 1.5955 1.698 2.0679 3.21-2.3517 1.152-4.3264 2.952-5.6924 5.188 0 0 6.3894 14.192 6.5521 17.721 0.1626 3.529 4.4067 13.378 4.4067 13.378s1.549 7.305 10.13 6.894c0 0 11.788 2.164 14.359 0 2.571-2.164 4.902-3.878 6.149-4.118 0.922-0.303 1.731-0.876 2.324-1.644 0 0-3.873 24.615-5.809 26.755s-18.851 29.787-12.794 34.704c4.8056 3.737 9.8853 7.107 15.195 10.082 0.519 0.256 2.06-2.327 4.267-4.149v1.419c0.039 9.834 1.317 24.817 3.137 28.167 2.656 4.924 1.549 14.448 1.549 14.448 1.409 0.66 2.937 1.027 4.492 1.078 0.077 0.318 0.17 0.651 0.263 1 1.464 5.537 3.834 14.099 5.042 16.379 1.835 3.451 3.16 14.362 3.16 14.362s1.076 10.749 0.666 12.23c-0.163 0.566 0.542 5.025 1.642 10.687-0.674 7.693-1.937 22.528-2.153 27.918v0.303 0.271 0.326c-0.028 0.335-0.028 0.672 0 1.008 0.093 0.518 0.056 1.051-0.109 1.551-0.466 1.485-1.07 2.924-1.804 4.296-0.039 0.14-0.488 1.071-0.775 2.086-0.658 0.287-1.479 1.009-1.936 2.754-0.829 3.202-2.076 12.067-2.076 12.067s-0.495 5.428-1.494 6.646c-0.999 1.217-1.991 8.941 5.065 9.926 7.055 0.985 10.13-3.753 10.13-3.753l-0.248-21.482c0.143-0.182 0.265-0.38 0.364-0.589v-0.047c0.046-0.108 0.101-0.209 0.147-0.333 0.047-0.124 0-0.101 0.062-0.155 0.062-0.055 0.07-0.171 0.101-0.264-4e-3 -0.031-4e-3 -0.062 0-0.093 0.687-2.059 0.891-4.248 0.596-6.398v-0.109-0.17-0.163c4e-3 -0.049 4e-3 -0.099 0-0.148-4e-3 -0.062-4e-3 -0.124 0-0.186v-0.132c0-0.139 0-0.286 0.047-0.434-5e-3 -0.028-5e-3 -0.057 0-0.085v-0.256c3e-3 -0.039 3e-3 -0.078 0-0.116 0-0.086 0.038-0.179 0.054-0.272v-0.062c0.062-0.318 0.147-0.636 0.232-0.969v-0.07l0.093-0.326c0.109-0.349 0.225-0.69 0.341-1.031v-0.07l0.116-0.318v-0.039c0.116-0.325 0.24-0.643 0.364-0.946v-0.085l0.116-0.272v-0.077l0.256-0.605 1.959 6.057s1.077 4.513 0.496 5.576c-0.581 1.062 0.666 5.506 1.495 5.583l-0.775 5.584c-0.427 3.086-0.686 6.192-0.774 9.306-0.055 0.349-0.109 0.652-0.147 0.884-0.535 2.854 0.774 7.29 0.774 7.29 6.56 7.755 14.367 0.605 14.367 0.605s0.913-4.11 0-4.924c-0.914-0.815-0.496-3.777-0.496-3.777s0.41-7.306 0.496-12.641c0.085-5.336-4.361-10.027-4.361-10.027l-0.248 0.224c-0.774-2.086-1.727-4.529-1.549-5.622 0.333-1.885-0.913-21.823-0.913-21.823 0.455-5.333 0.551-10.691 0.286-16.038 0.109-0.907 0.209-1.799 0.31-2.66 0.503-4.288 0.906-7.956 1.069-9.872v-0.225c0.038-0.519 0.062-0.884 0.054-1.062 0-0.636 0-1.435 0.062-2.272 0.162-2.327 0.519-4.871 0.519-4.871l1.742-10.585s1.325-5.165 3.238-8.043l0.224-0.364c0.078-0.124 0.155-0.264 0.233-0.411v-0.062l0.232-0.442v-0.062c0.271-0.528 0.558-1.14 0.852-1.807l0.07-0.148 0.224-0.511 0.085-0.202 0.225-0.512c0-0.07 0.054-0.132 0.085-0.201 0.085-0.21 0.17-0.419 0.263-0.629l0.124-0.302c0.07-0.155 0.132-0.31 0.194-0.473l0.17-0.403 0.116-0.303 0.186-0.457c0-0.07 0.062-0.14 0.086-0.21 0.472-1.186 0.937-2.326 1.339-3.428 0.132-0.333 0.256-0.651 0.372-0.961 4.252 0.263 7.141 0.504 7.141 0.504s1.332-9.601 0.914-15.921c-0.287-4.312 0.511-9.741 1.045-12.742 0.062-0.334 0.116-0.628 0.163-0.892l0.116 0.093c2.083 1.636 3.57-3.777 3.57-3.777s-0.557-5.064-1.308-11.183c0-0.201-0.055-0.411-0.078-0.612 1.199 0.255 2.412 0.442 3.632 0.558 0 0 0.666-0.062 1.549-0.178 2.506 1.435 5.147 2.619 7.884 3.536l4.399-8.205c0.831-1.692 1.802-3.311 2.905-4.839 1.332-1.644 6.064-6.894 5.979-7.879-0.086-0.985 1.549-6.646 3.237-9.19s2.672-7.709 2.579-8.127zm-18.433 6.204c-1.742 0.736-3.407 4.839-3.485 6.072-0.077 1.233-1.913 6.646-3.826 7.305-1.75 0.605-5.111 3.692-5.645 4.188-0.55 0.054-1.17 0.124-1.82 0.233-0.729-5.181-1.449-9.462-1.913-10.33-1.325-2.466 1.463-10.338 1.463-10.338s0.279-7.956 2.022-9.849c1.742-1.892 1.332-6.646 1.332-6.646s0.41-1.97 0.581-2.869c0.17-0.9 2.47 0 2.486 0 0 0 4.484 2.458 5.15 6.15 0.666 3.691 5.561 10.081 5.561 10.081s-0.775 2.21 0 3.366c0.774 1.155-0.155 1.931-1.898 2.668l-8e-3 -0.031z" fill="url(#a)"/>
<path d="m66 202.63c1.4277-2.319 3.5177-4.171 6.0082-5.323 2.4904-1.153 5.2705-1.555 7.9918-1.156v9.85h-6.0381l-4.7852-1.219-3.1767-2.152z" fill="#4C4981"/>
<path d="m66 202.63c1.4277-2.319 3.5177-4.171 6.0082-5.323 2.4904-1.153 5.2705-1.555 7.9918-1.156v9.85h-6.0381l-4.7852-1.219-3.1767-2.152z" fill="#000" opacity=".1"/>
<path d="m80 199.02-7.1467 4.985s-0.0622-1.005-0.2411-2.365c-0.3577-2.574-1.1587-6.438-2.8851-7.188-2.6285-1.144-31.884-12.08-21.51-15.751 10.374-3.671 26.277 8.37 26.277 8.37s0.8244 0.279 2.1308 2.976c0.6922 1.414 1.5554 3.826 2.2864 5.789 0.6299 1.777 1.0887 3.184 1.0887 3.184z" fill="#AE6E79"/>
<path d="m136.93 206.41 0.801-0.413 2.265 2.769-1.849 4.231-3.151-1.355 0.732-3.381 1.202-1.851z" fill="#4C4981"/>
<path d="m126.22 439s-2.089-0.243-2.927 2.978c-0.839 3.22-2.089 12.168-2.089 12.168s-0.499 5.485-1.503 6.7c-1.005 1.214-2.002 9.019 5.095 10.014s10.199-3.785 10.199-3.785l-0.253-21.704-8.522-6.371z" fill="#444053"/>
<path d="m150.44 440s4.252 4.747 4.177 10.206-0.482 12.872-0.482 12.872-0.391 3.007 0.482 3.845c0.873 0.839 0 5.008 0 5.008s-7.474 7.295-13.75-0.609c0 0-1.227-4.517-0.753-7.429 0.474-2.911 1.904-16.021 1.904-16.021l8.422-7.872z" fill="#444053"/>
<path d="m161 342.53s-4.373 12.423-6.234 15.249-3.147 8.043-3.147 8.043l-1.7 10.583c-0.334 2.364-0.523 4.747-0.567 7.135 0.077 2.376-4.204 37.057-4.204 37.057l-6.793 8.774s-2.994 6.149-2.512 8.695c0.483 2.547-0.321 6.639-1.294 7.865 0 0-0.161 8.036-0.406 9.845s0.896 6.887 0 7.764-12.773 0.489-13.103-0.986c-0.329-1.475 1.463-8.61 1.463-8.61l1.049-6.887s2.099-3.773 1.616-5c-0.482-1.227 0.888-4.099 0.973-4.348 0.084-0.248 2.297-4.262 1.861-5.815-0.437-1.553 2.504-34.604 2.504-34.604l8.332-59.286 22.162 4.526z" fill="#AE6E79"/>
<path d="m161 342.51s-0.659 1.863-1.578 4.317c-1.44 3.882-3.516 9.177-4.657 10.932-1.861 2.872-3.156 8.035-3.156 8.035l-1.692 10.583c-0.334 2.362-0.523 4.742-0.567 7.127 0 0.94-0.62 6.934-1.417 13.828-1.226 10.552-2.788 23.238-2.788 23.238l-6.802 8.774s-0.344 0.706-0.766 1.731c-0.85 2.011-2.052 5.28-1.731 6.988 0.483 2.546-0.321 6.646-1.294 7.872 0 0-0.161 8.044-0.406 9.838-0.245 1.793 0.896 6.894 0 7.764-0.896 0.869-12.776 0.497-13.105-0.986-0.33-1.483 1.455-8.603 1.455-8.603l1.057-6.895s2.099-3.773 1.616-5c-0.483-1.226 0.889-4.099 0.973-4.348 0.084-0.248 2.298-4.262 1.861-5.823-0.314-1.187 1.302-20.605 2.083-29.814 0.253-2.903 0.422-4.782 0.422-4.782l7.169-51.003 0.574-4.115 0.59-4.169 22.159 4.511z" fill="#000" opacity=".1"/>
<path d="m154 465.43c0.078 0.898-11.709 2.206-13.369 1.223-1.659-0.983 0-13.161 0-13.161l0.787-5.558c-0.834-0.085-2.076-4.498-1.494-5.566 0.582-1.069-0.504-5.559-0.504-5.559l-1.958-6.038-1.195-3.685c-1.934-4.219-4.718-16.257-6.495-25.238-1.101-5.643-1.801-10.064-1.644-10.66 0.417-1.471-0.668-12.177-0.668-12.177s-1.321-10.838-3.146-14.307c-1.211-2.276-3.577-10.838-5.048-16.327-0.747-2.825-1.266-4.853-1.266-4.853s12.582-1.038 20.162-1.402c3.507-0.162 5.961-0.185 5.67 0.101s-0.354 1.781-0.338 3.94c0 5.613 0.825 15.484 1.667 18.131 1.164 3.677 2.359 14.709 1.824 15.777-0.534 1.069-0.33 8.176-0.33 8.176 0.853 2.889 1.341 5.872 1.455 8.879 0.264 5.327 0.167 10.665-0.291 15.979 0 0 1.25 19.864 0.912 21.746-0.338 1.881 2.658 7.741 2.658 8.91s0.755 8.911 0.755 8.911 1.777 11.86 1.856 12.758z" fill="#AE6E79"/>
<path d="m160 226.1-1.379 1.569-0.894 0.996-5.242 5.764-13.523 1.569-7.182-1.992-1.78-0.486s0-3.741 0.326-8.227c0.454-5.749 1.553-12.737 4.159-14.635 1.305-1.06 2.344-2.429 3.03-3.992 0.524-1.078 0.962-2.198 1.311-3.349 0.053-0.149 0.091-0.29 0.136-0.431 0.594-2.008 1.019-4.066 1.273-6.149 0 0 1.727-0.988 4.121-2.141 6.265-3.028 17.083-7.2 13.318 2.141-0.555 1.369-1.025 2.773-1.409 4.204-0.06 0.204-0.113 0.415-0.159 0.619-1.258 5.208-0.424 8.361 0.515 10.102 0.162 0.298 0.344 0.584 0.546 0.855 0.253 0.366 0.559 0.689 0.909 0.956l1.56 10.235 0.129 0.847 0.235 1.545z" fill="#AE6E79"/>
<path d="m158.21 197.82c-0.726 1.795 0.355-1.469 0 0-2.903 2.129-9.752 8.182-13.605 8.182-2.594 0-3.374-0.485-5.605-1.517 0.676-2.172 1.157-4.403 1.436-6.665 0 0 23.071-13.091 17.774 0z" fill="#000" opacity=".1"/>
<path d="m164 186.98c3e-3 4.452-1.644 8.747-4.621 12.056-2.978 3.308-7.076 5.396-11.502 5.858-0.626 0.07-1.255 0.104-1.885 0.102-3.558 0-7.037-1.056-9.996-3.034-2.959-1.977-5.265-4.789-6.626-8.078-1.362-3.289-1.719-6.908-1.024-10.4 0.694-3.491 2.408-6.699 4.924-9.216s5.722-4.232 9.212-4.926c3.49-0.695 7.108-0.338 10.395 1.024 3.288 1.363 6.098 3.67 8.075 6.63s3.032 6.44 3.032 10l0.016-0.016z" fill="#AE6E79"/>
<path d="m166 265.95-2.525 6.6s-2.069 0.093-5.281 0.193c-10.808 0.347-34.742 0.771-35.816-1.989-0.245-0.705-0.37-1.445-0.37-2.19-0.147-4.241 1.837-10.757 1.837-10.757s1.143-13.032 1.143-13.595-0.981-9.732-0.981-9.732l1.954-7.325 5.466-3.856s2.447 3.748 3.914 4.072 3.428 2.12 3.428 2.12 4.803 2.93 6.354 1.296c1.552-1.635 13.62-8.791 13.62-8.791l6.361 7.002 0.896 36.952z" fill="#000" opacity=".1"/>
<path d="m166 266.97-2.525 6.603s-2.069 0.093-5.281 0.185h-0.316l-4.687 0.124c-8.616 0.192-20.498 0.246-26.698-0.656-2.316-0.34-3.86-0.772-4.115-1.466-0.144-0.391-0.242-0.797-0.293-1.211-0.042-0.325-0.068-0.652-0.077-0.98-0.147-4.243 1.837-10.8 1.837-10.8s1.143-13.037 1.143-13.608-0.981-9.697-0.981-9.697l1.954-7.328 3.76-2.631 1.706-1.196c0.573 0.859 1.2 1.681 1.876 2.461 0.523 0.708 1.227 1.262 2.038 1.605 1.467 0.332 3.428 2.121 3.428 2.121s4.803 2.939 6.354 1.304c1.189-1.25 8.493-5.732 11.906-7.776l1.714-1.026 0.857 0.949 5.504 6.063 0.896 36.96z" fill="#fff"/>
<path d="m80 199.12-6.7716 4.882s-0.0589-0.984-0.2284-2.316c3.3453-1.446 5.379-4.655 5.9684-5.684 0.5969 1.741 1.0316 3.118 1.0316 3.118z" fill="#000" opacity=".1"/>
<path d="m104.61 215.84-1.539-0.41s-2.525 2.747-3.9878 3.079c-1.4626 0.331-4.5494 2.423-4.5494 2.423l-3.5795 2.913s-2.6865 0.419-1.8705-1.5c0.8159-1.918-1.4626-4.334-1.4626-4.334s-4.5494-9.591-4.5494-11.589c0-1.997-3.7412-10.42-3.7412-10.42s-4.7187 9.418-13.333 6.418c0 0 6.2583 14.423 6.42 18.007 0.1616 3.584 4.3108 13.594 4.3108 13.594s1.5395 7.421 9.9147 7.002c0 0 11.547 2.203 14.064 0 2.518-2.202 4.796-3.947 6.02-4.184 0.902-0.31 1.693-0.89 2.271-1.666v-9.915l-4.388-9.418z" fill="#62BD69"/>
<path d="m90 225s3.4354 8.123 1.3013 9l-1.3013-9z" fill="#000" opacity=".1"/>
<path d="m159 273.77c-11.052 0.314-35.524 0.697-36.621-1.791-0.25-0.637-0.379-1.306-0.379-1.98l36.226 1.687 0.774 2.084z" fill="#000" opacity=".1"/>
<path d="m161 342.31s-0.668 1.78-1.592 4.124c-4.526-0.267-10.521-0.542-16.212-0.579-2.019 0-3.991 0-5.847 0.06-3.215 2e-3 -6.421 0.343-9.558 1.016-2.763 0.814-5.652 1.167-8.541 1.046-0.738-2.708-1.25-4.651-1.25-4.651s12.423-0.994 19.908-1.343l0.598-3.983 22.494 4.31z" fill="#000" opacity=".1"/>
<path d="m171 312.34-1.398 2.922s-0.195 0.869-0.445 2.254c-0.531 2.968-1.327 8.344-1.046 12.612 0.422 6.253-0.906 15.75-0.906 15.75s-30.344-2.514-39.245 0c-8.902 2.515-13.275 0-13.275 0s1.07-9.421-1.562-14.289c-1.811-3.337-3.076-18.149-3.123-27.878 0-4.499 0.226-7.905 0.781-8.59 1.811-2.199 9.565-24.125 9.565-24.125l1.765 0.092 4.685 0.246 26.854 1.392 4.208 0.216 0.445 1.346 12.697 38.052z" fill="#65617D"/>
<path d="m183.76 302.42 0.237 2.575s-12.6-4.22-11.978-9.407c0.623-5.187 0-4.57 0-4.57l10.14 0.883 1.601 10.519z" fill="#4C4981"/>
<path d="m183.76 302.42 0.237 2.575s-12.6-4.22-11.978-9.407c0.623-5.187 0-4.57 0-4.57l10.14 0.883 1.601 10.519z" fill="#000" opacity=".1"/>
<path d="m99.128 227.32c1.4124 1.268 3.0784 2.183 4.8724 2.676-0.529-0.105-1.023-0.35-1.437-0.712-0.991-0.746-1.933-1.552-2.8832-2.341-0.7633-0.635-1.7297-1.715-2.6798-1.947 0.6312 0.85 1.3442 1.629 2.1276 2.324z" fill="#000" opacity=".1"/>
<path d="m99.655 230.28c0.4268 0.482 0.7688 1.032 1.0138 1.629 0.211 0.68 0.31 1.39 0.294 2.103 0.107 1.01-0.018 2.03-0.364 2.984l-2.143-5.119c-0.3637-0.872-0.7737-1.745-1.176-2.586-0.1935-0.359-1.4082-1.839-1.2689-2.151 0.4023-0.895 3.2495 2.649 3.6441 3.14z" fill="#000" opacity=".1"/>
<path d="m158.23 258.72c1.412-0.162 2.734-0.766 3.774-1.724-2.121 0.261-4.121 1.082-6.211 1.493-1.936 0.447-3.967 0.264-5.789-0.523 2.377 1.18 5.645 1.217 8.226 0.754z" fill="#000" opacity=".1"/>
<path d="m152 243.98c-0.182 0.033-0.367 0.023-0.546-0.029-0.178-0.051-0.346-0.144-0.492-0.271-1.53-1.002-3.041-2.055-4.532-3.157-1.574-1.005-3.057-2.185-4.43-3.524 3.043 3.165 5.875 5.837 10 6.981z" fill="#000" opacity=".1"/>
<path d="m156.89 260.99c0.938 0.023 1.879-0.019 2.8-0.124 0.932-0.111 1.755-0.414 2.306-0.85-0.334-0.045-0.685-0.014-0.979 0.086-2.847 0.671-5.972 0.881-9.021 0.606 1.455 0.349 3.336 0.277 4.894 0.282z" fill="#000" opacity=".1"/>
<path d="m141 299.39c-1.634 0.297-3.314 0.495-5.015 0.59-1.322 0.036-2.647 0.021-3.967-0.045l-6.426-0.244-3.217-0.124c-0.378 0-1.931 0-1.166-0.444 0.386-0.217 2.533-0.08 3.083-0.089 1.07 0 2.132-0.031 3.195-0.035 2.124 0 4.256 0 6.381 0.08 2.387 0.056 4.765 0.16 7.132 0.311z" fill="#000" opacity=".1"/>
<path d="m134 302.78c-1.188-0.059-2.717 0.81-3.937 0.988-1.365 0.203-2.741 0.272-4.116 0.208-2.723-0.082-5.414-0.752-7.947-1.977 5.344 0.326 10.672 0.524 16 0.781z" fill="#000" opacity=".1"/>
<path d="m119.26 306.18c0.477 0.088 0.947 0.203 1.407 0.344 2.71 0.71 5.598 0.088 8.33-0.527-0.685 0.933-1.958 1.352-3.164 1.596-2.019 0.459-4.121 0.528-6.171 0.203-0.648-0.115-2.233-0.325-2.59-0.933-0.492-0.9 1.585-0.771 2.188-0.683z" fill="#000" opacity=".1"/>
<path d="m135.19 311.36c0.843 0.157 1.676 0.355 2.495 0.594 3.167 0.708 6.457-0.268 9.64-0.933 3.826-0.799 7.75-1.132 11.671-0.99-0.703 0-1.815 0.566-2.503 0.756-0.903 0.248-1.815 0.474-2.726 0.708-1.799 0.409-3.619 0.735-5.453 0.976-3.703 0.491-7.45 0.64-11.185 0.445-1.707-0.085-4.635 0.078-6.133-0.707 1.261-0.692 2.733-0.989 4.194-0.849z" fill="#000" opacity=".1"/>
<path d="m136.73 210.88s0.168 7.546-1.101 10.982c-0.39 1.07-1.013 3.048-1.683 5.266-0.742 2.458-1.548 5.212-2.17 7.345-0.622 2.132-1.029 3.606-1.029 3.606s-2.848 22.538-3.59 33.272v0.558c-0.04 0.605-0.112 1.233-0.207 1.885-1.644 10.664-11.105 27.106-14.28 28.424-0.989 0.443-1.893 1.046-2.673 1.784 0-4.537 0.231-7.973 0.798-8.663 1.851-2.218 9.772-24.33 9.772-24.33l1.803 0.094c-0.043-0.327-0.07-0.656-0.079-0.985-0.152-4.266 1.898-10.858 1.898-10.858s1.181-13.107 1.181-13.681-1.013-9.749-1.013-9.749l2.018-7.368 3.885-2.645c0.479-5.685 1.636-12.595 4.38-14.472 1.374-1.048 2.469-2.402 3.191-3.947 0.551 0.069-0.446-0.396-0.446-0.396l-0.655 3.878z" fill="#000" opacity=".1"/>
<path d="m138 206.26c-0.684-0.231-1.412-0.308-2.13-0.227-0.718 0.082-1.409 0.32-2.024 0.698-1.886 1.299-5.574 1.221-6.56 0.974s-11.234-1.545-12.049-1.221c-0.816 0.325-2.461-1.143-3.525 0.812s-1.553 3.021-2.624 3.516c-1.072 0.494-2.958 2.04-2.71 2.364 0.249 0.325-2.702 2.319-2.702 2.319l5.979 19.319s-3.882 24.481-5.738 26.598c-1.855 2.117-18.633 29.628-12.624 34.527 4.7413 3.716 9.7547 7.074 15 10.046 0.66 0.325 3.035-4.08 6.32-5.471 3.284-1.391 13.446-19.791 14.114-30.207 0.668-10.417 3.525-33.708 3.525-33.708s3.525-12.735 4.759-16.159c1.234-3.423 1.033-10.95 1.033-10.95l1.956-3.23z" fill="#62BD69"/>
<path d="m171 311.78-1.432 2.946s-0.2 0.876-0.456 2.271c-0.269-0.027-0.522-0.132-0.728-0.302-2.111-1.644-14.534-13.999-15.118-24.975-0.44-8.093-0.232-15.061-0.096-18.169 0.048-0.977 0.08-1.551 0.088-1.698 0 0 9.599-11.301 8.527-15.309-1.072-4.007-3.632-25.463-3.632-25.463l-0.376-2.814-0.639-4.751-1.512-11.519 1.6 0.357c0.267 0.361 0.59 0.68 0.959 0.945l1.648 10.116 5.704 6.092 0.927 37.083-2.615 6.635s-2.144 0.093-5.472 0.186h-0.328l12.951 38.369z" fill="#000" opacity=".1"/>
<path d="m176.35 251.04s-2.403-0.899-2.54 0c-0.136 0.899-0.593 2.859-0.593 2.859s0.417 4.751-1.354 6.634c-1.77 1.883-2.059 9.819-2.059 9.819s-2.844 7.859-1.498 10.315c0.489 0.891 1.25 5.363 2.011 10.711 0.481 3.34 0.962 7.021 1.394 10.377 0.801 6.114 1.338 11.159 1.338 11.159s-1.522 5.425-3.637 3.767c-2.115-1.659-14.558-14.012-15.151-24.962-0.417-7.712-0.248-14.4-0.112-17.701 0.064-1.403 0.112-2.193 0.112-2.193s9.614-11.292 8.549-15.298c-1.066-4.007-3.638-25.459-3.638-25.459l-0.448-3.309-0.473-3.565-0.104-0.775-1.531-11.423c0.273 0.054 9.767 2.131 11.017 3.34s8.966 2.945 8.966 2.945c1.168 0.308 2.231 0.914 3.076 1.753 0.845 0.84 1.443 1.883 1.731 3.021 0.072 0.225 0.128 0.465 0.184 0.713 1.018 4.751 0.681 5.316 1.362 6.138 0.681 0.821-6.602 21.134-6.602 21.134z" fill="#62BD69"/>
<path d="m172 302c-3.688-0.69-9.117-2.341-8.998-5.956 0.119-3.393 4.333-4.609 7.52-5.044 0.552 3.541 1.019 7.443 1.478 11z" fill="#000" opacity=".1"/>
<path d="m181.98 300.35c-0.131 0.286-0.686 0.533-1.419 0.772-1.775 0.425-3.58 0.72-5.399 0.88 0 0-11.321-0.895-11.159-6.028 0.115-3.69 5.229-4.632 8.105-4.886 1.126-0.101 1.913-0.085 1.913-0.085s8.453 8.29 7.959 9.347z" fill="#AE6E79"/>
<path d="m181.98 300.24c-0.137 0.282-0.717 0.527-1.483 0.763-3.087-3.905-7.391-8.916-9.495-9.358 0 0 0.242-0.222 0.637-0.557 1.177-0.099 1.999-0.084 1.999-0.084s8.858 8.191 8.342 9.236z" fill="#000" opacity=".1"/>
<path d="m179.17 229 3.352 0.491c1.206 2.139 2.545 4.198 4.011 6.166 0.9 1.123 1.416 2.507 1.471 3.948 0 0 4.909 7.319 6.457 8.144 1.549 0.825 3.926 6.416 3.926 6.416s3.871 2.546 3.871 5.45c0.066 2.398 0.312 4.787 0.736 7.148 0.077 0.412-0.573 5.512-2.215 8.058-1.641 2.546-3.267 8.222-3.182 9.211s-4.583 6.229-5.892 7.895c-1.087 1.533-2.043 3.155-2.857 4.851l-4.336 8.222s-9.159-13.563-12.512-14.303c0 0 3.763-3.621 5.644-4.275 1.882-0.654 3.678-6.088 3.763-7.319 0.086-1.23 1.711-5.349 3.43-6.088 1.719-0.74 2.617-1.48 1.882-2.632-0.736-1.152 0-3.371 0-3.371s-4.824-6.416-5.482-10.122-5.064-6.167-5.064-6.167l-2.539-6.229 5.536-15.494z" fill="#62BD69"/>
<path d="m191.18 259.76c1.912-1.727 4.32-2.702 6.823-2.762-1.6 0.299-3.296 0.667-4.463 1.864-0.463 0.525-0.876 1.098-1.232 1.71-0.408 0.616-3.664 5.045-4.184 4.353-0.776-1.061 2.4-4.566 3.056-5.165z" fill="#000" opacity=".1"/>
<path d="m184 256c0.472-0.044 0.924-0.219 1.311-0.508 0.386-0.289 0.692-0.681 0.887-1.136 0.376-0.92 0.609-1.897 0.688-2.895 0.228-1.668 0.548-3.32 0.96-4.949 0.106-0.333 0.158-0.683 0.154-1.034-0.038-0.347-0.135-0.685-0.286-0.996-0.169-0.52-0.396-1.017-0.674-1.482-0.579 0.687-0.732 2.223-0.974 3.088-0.283 1.112-0.554 2.223-0.813 3.335-0.125 0.586-1.202 6.577-1.253 6.577z" fill="#000" opacity=".1"/>
<path d="m181 222.94c-0.33 0.43-0.707 0.822-1.124 1.167-1.3 1.066-3.078 1.969-3.263 3.649 0.047 0.55-0.018 1.104-0.192 1.627-0.423 0.731-1.47 0.677-2.309 0.529-0.7-0.067-1.371-0.316-1.947-0.724-0.87-0.778-0.954-2.101-1.616-3.042-0.401-0.486-0.905-0.874-1.476-1.132-0.571-0.259-1.193-0.383-1.818-0.362-1.247-0.039-2.486 0.241-3.725 0.303-0.799 0.039-1.599-0.015-2.386-0.163-0.261-0.047-0.515-0.101-0.769-0.164-0.556-0.139-1.1-0.327-1.624-0.56-0.263-0.111-0.52-0.235-0.77-0.373-0.837-0.43-1.614-0.972-2.309-1.611-1.216-1.136-2.224-2.684-2.124-4.365 0.175-1.009 0.406-2.006 0.693-2.988 0.5-2.902-1.408-5.649-3.479-7.726-0.823-0.817-1.7-1.627-2.524-2.467-1.285-1.194-2.3-2.654-2.978-4.28-0.543-1.727-0.724-3.551-0.531-5.353 0.192-1.832 0.246-3.676 0.161-5.517-0.615-6.536-6.156-11.539-11.651-14.27l-0.239-0.124c1.645-1.866 3.657-3.363 5.909-4.395s4.692-1.575 7.164-1.595c2.472-0.021 4.92 0.483 7.188 1.478s4.304 2.459 5.978 4.297c1.675 1.839 2.949 4.012 3.742 6.38 0.793 2.367 1.087 4.876 0.862 7.365-0.224 2.489-0.962 4.903-2.165 7.086s-2.845 4.087-4.82 5.59c-0.062 0.202-0.116 0.412-0.162 0.615-1.278 5.166-0.431 8.294 0.523 10.022 0.262 0.054 9.382 2.139 10.582 3.353 1.201 1.214 8.612 2.957 8.612 2.957 1.117 0.314 2.131 0.924 2.938 1.767 0.806 0.842 1.375 1.887 1.649 3.026z" fill="#000" opacity=".1"/>
<path d="m131.48 170.35c0.363-0.42 0.918-0.637 1.289-1.049 1.149-1.257 0-3.315 0.424-4.976 0.455-1.848 2.701-2.655 4.583-2.453 1.883 0.201 3.642 1.063 5.517 1.273 2.917 0.334 5.741-0.94 8.588-1.685 2.848-0.745 6.281-0.776 8.249 1.405 1.967 2.182 1.821 5.932 4.259 7.523 1.127 0.73 2.546 0.777 3.766 1.359 1.333 0.693 2.439 1.758 3.186 3.067 1.927 3.054 2.772 6.673 2.4 10.271-0.201 1.941-0.772 3.835-0.988 5.776-0.232 2.021-0.099 4.067 0.394 6.04 0.517 2.042 1.628 4.185 3.626 4.829 0.468 0.098 0.922 0.255 1.351 0.466 1.149 0.714 1.003 2.422 0.71 3.75l-1.235 5.473c1.142 0.878 2.909 0.497 4.02 1.421 0.438 0.398 0.761 0.908 0.934 1.475 0.531 1.539 0.587 3.204 0.16 4.775-0.427 1.572-1.317 2.976-2.552 4.029-1.304 1.072-3.087 1.964-3.272 3.649 0.05 0.546-0.016 1.096-0.193 1.615-0.424 0.73-1.474 0.675-2.315 0.528-0.7-0.064-1.37-0.314-1.944-0.722-0.88-0.776-0.957-2.096-1.62-3.036-0.402-0.485-0.908-0.871-1.48-1.129-0.573-0.259-1.196-0.382-1.823-0.361-1.258-0.039-2.492 0.24-3.742 0.302-2.899 0.127-5.73-0.902-7.878-2.864-0.65-0.524-1.178-1.185-1.547-1.936-0.37-0.751-0.571-1.574-0.591-2.412 0.179-1.008 0.411-2.006 0.695-2.989 0.501-2.888-1.412-5.636-3.48-7.702-2.068-2.065-4.506-3.982-5.517-6.738-1.265-3.416 0-7.221-0.378-10.87-0.617-6.521-6.173-11.513-11.675-14.23-1.257-0.614-3.356-2.236-1.921-3.874z" fill="#444053"/>
<path d="m175.12 226.67c-0.873-0.776-0.951-2.086-1.615-3.032-0.405-0.483-0.914-0.866-1.488-1.123-0.575-0.257-1.199-0.379-1.828-0.358-1.251-0.039-2.488 0.24-3.74 0.302-2.897 0.133-5.73-0.881-7.89-2.823-1.229-1.132-2.234-2.683-2.141-4.35 0.179-1.004 0.411-1.998 0.696-2.977 0.502-2.893-1.415-5.63-3.494-7.7-2.078-2.071-4.505-3.978-5.525-6.731-1.26-3.404 0-7.211-0.371-10.856-0.618-6.514-6.183-11.507-11.7-14.221-1.291-0.636-3.393-2.249-1.956-3.877 0.364-0.419 0.912-0.629 1.291-1.04 1.151-1.256 0-3.318 0.425-4.978 0.08-0.326 0.222-0.634 0.417-0.907-0.676 0.065-1.319 0.324-1.852 0.746-0.534 0.422-0.934 0.99-1.154 1.635-0.41 1.659 0.726 3.722-0.425 4.978-0.371 0.411-0.927 0.62-1.291 1.039-1.437 1.644 0.665 3.257 1.963 3.877 5.541 2.722 11.075 7.708 11.693 14.221 0.34 3.614-0.889 7.421 0.379 10.856 1.012 2.753 3.446 4.653 5.525 6.731s3.988 4.808 3.486 7.7c-0.284 0.98-0.516 1.973-0.696 2.978-0.093 1.667 0.912 3.218 2.141 4.35 2.151 1.959 4.987 2.988 7.89 2.861 1.252-0.062 2.489-0.341 3.748-0.302 0.627-0.021 1.251 0.102 1.824 0.358 0.573 0.257 1.08 0.641 1.484 1.123 0.665 0.946 0.773 2.287 1.623 3.032 0.574 0.408 1.246 0.656 1.947 0.721 0.835 0.155 1.886 0.209 2.319-0.528 0.147-0.297 0.212-0.63 0.185-0.961-0.679-0.073-1.326-0.33-1.87-0.744z" fill="#000" opacity=".1"/>
<defs>
<linearGradient id="c" x1="334.51" x2="334.51" y1="471.04" y2="305.98" gradientUnits="userSpaceOnUse">
<stop stop-color="#808080" stop-opacity=".25" offset="0"/>
<stop stop-color="#808080" stop-opacity=".12" offset=".54"/>
<stop stop-color="#808080" stop-opacity=".1" offset="1"/>
</linearGradient>
<linearGradient id="b" x1="-27982" x2="-33730" y1="242565" y2="92796" gradientUnits="userSpaceOnUse">
<stop stop-color="#808080" stop-opacity=".25" offset="0"/>
<stop stop-color="#808080" stop-opacity=".12" offset=".54"/>
<stop stop-color="#808080" stop-opacity=".1" offset="1"/>
</linearGradient>
<linearGradient id="a" x1="31428" x2="31428" y1="233953" y2="106836" gradientUnits="userSpaceOnUse">
<stop stop-color="#808080" stop-opacity=".25" offset="0"/>
<stop stop-color="#808080" stop-opacity=".12" offset=".54"/>
<stop stop-color="#808080" stop-opacity=".1" offset="1"/>
</linearGradient>
</defs>
</svg>
