<?xml version="1.0" encoding="UTF-8"?>
<svg fill="none" viewBox="0 0 182 212" xmlns="http://www.w3.org/2000/svg">
<path d="m19.815 1.5h-6.0293c-3.128-3.9e-4 -6.1285 1.2437-8.3416 3.4594-2.213 2.2157-3.4572 5.2215-3.4583 8.3566v5e-4 168.8 1e-3c0.00101 3.135 1.2452 6.141 3.4583 8.356 2.213 2.216 5.2136 3.46 8.3418 3.46h65.491 3e-4c3.1272-1e-3 6.1265-1.246 8.3384-3.461 2.2121-2.216 3.4555-5.221 3.4562-8.355l-71.257-180.62zm0 0c-0.0635 0.55881-0.067 1.1249-9e-3 1.6884 0.1314 1.2758 0.5736 2.4999 1.288 3.5648 0.7144 1.0648 1.6792 1.9379 2.8097 2.5422 1.1306 0.60428 2.3922 0.92125 3.6739 0.92285h0.0019 37.339 0.0019c1.2817-0.0016 2.5433-0.31855 3.6739-0.92282l-0.7071-1.3229 0.7071 1.3229c1.1305-0.60426 2.0953-1.4773 2.8097-2.5422l-1.2456-0.83569 1.2456 0.83568c0.7144-1.0648 1.1566-2.289 1.2879-3.5648 0.058-0.56355 0.0546-1.1296-0.0089-1.6884h6.5942 3e-4c3.1271 7.1e-4 6.1265 1.2452 8.3384 3.4608 2.212 2.2156 3.4555 5.2209 3.4562 8.3552v3e-4 168.8l-71.257-180.62z" fill="#DEDEDE" stroke="#000" stroke-width="3"/>
<path d="m46.557 55.146c3.9804 0 7.2072-3.232 7.2072-7.2189s-3.2268-7.2189-7.2072-7.2189c-3.9805 0-7.2073 3.232-7.2073 7.2189s3.2268 7.2189 7.2073 7.2189z" fill="#03C6AF"/>
<path d="m65.785 122.98h-38.808v38.87h38.808v-38.87z" fill="#03C6AF"/>
<path d="m31.966 172.95v-3.332h28.829v3.332" fill="#03C6AF"/>
<path d="m146.38 71.165 0.787 8.2796s-0.394 20.108-0.787 21.29c-0.341 0.942-0.735 1.863-1.181 2.76l-4.33-11.828v-19.713l5.511-0.7886z" fill="#A0616A"/>
<path d="m108.19 185.11 0.787 8.279 6.692-0.788-1.575-8.28-5.904 0.789z" fill="#A0616A"/>
<path d="m111.34 189.05s-2.755 0-3.149 1.577-3.543 10.251-3.543 10.251-4.7233 10.251 2.362 11.039c7.085 0.789 9.447-4.337 9.447-5.914s0.394-6.308 0.787-6.702c0.394-0.395 1.575-3.549 0.788-3.943-0.788-0.394-2.362-3.932-2.362-3.932s-1.575-3.165-4.33-2.376z" fill="#2F2E41"/>
<path d="m149.13 189.53 2.196 11.746 7.842-5.339-3.137-7.475-6.901 1.068z" fill="#A0616A"/>
<path d="m152.89 198.57s-3.46-3.119-3.114-1.04 0 13.169 2.422 13.169 31.139-4.158 29.755-7.277-8.65-4.506-8.65-4.506-14.531-7.624-15.223-5.545c-0.692 2.08-1.384 2.773-1.384 2.773l-3.806 2.426z" fill="#2F2E41"/>
<path d="m133.39 32.133c5.869 0 10.628-4.766 10.628-10.645 0-5.8792-4.759-10.645-10.628-10.645-5.87 0-10.628 4.766-10.628 10.645 0 5.8791 4.758 10.645 10.628 10.645z" fill="#A0616A"/>
<path d="m127.88 28.584s0.787 6.7025-7.479 9.0681 20.075 11.04 22.043 6.7025c0 0-3.543-4.3369-2.755-8.6738 0.787-4.3369 0-10.251 0-10.251l-11.809 3.1541z" fill="#A0616A"/>
<path d="m146.38 47.903s4.724 0.3943 5.117 2.7599c0.394 2.3656 0 9.4624 0 9.4624s3.149 9.4623 0 11.828-11.415 2.7599-11.415 2.7599l6.298-26.81z" fill="#098B5F"/>
<path d="m106.23 101.52-4.33 7.096s1.181 2.76 0.788 4.732c-0.394 1.971-0.394 3.154 0 3.942 0.393 0.789 1.968 17.742 1.574 19.714-0.393 1.971-0.787 2.759-0.393 3.548 0.393 0.789 0.393 0.789 0.393 1.577v4.337l1.181 37.849s-3.149 1.578 0.787 2.76c3.937 1.183 9.054 1.577 9.841-2.365 0.787-3.943-0.787-32.33 0-33.119 0.787-0.788 1.575 0.395 1.181-1.577-0.224-1.037-0.356-2.093-0.394-3.154l0.394-1.577 6.298-23.262 14.564 32.33 8.66 36.273s14.565 0 12.203-5.126c-2.362-5.125-9.447-41.792-9.447-41.792s0.393-1.577 0-2.76c-0.394-1.183-1.181-1.183-1.181-1.971 0-0.789-0.394-1.183-0.394-1.971 0-0.789-0.393-3.155-0.393-3.155l-2.756-24.838-38.576-7.491z" fill="#2F2E41"/>
<path d="m125.89 14.132c-0.622 0.0576-1.249-0.0361-1.828-0.2732-0.555-0.283-0.969-0.9487-0.754-1.534l0.72-0.1235-0.417-1.5162 0.89-0.1066 2e-3 -1.5882 1.08 0.08155-0.402-1.9466c3.853-1.089 7.861-2.0936 11.823-1.513 3.961 0.5807 7.897 3.1267 8.929 7.0016 0.536 2.0118 0.251 4.1538-0.257 6.1729-1.021 4.0606-2.154 7.8917-4.795 11.138-0.092-1.7551-0.972-3.5102-1.064-5.2653-8e-3 -0.8129-0.121-1.6214-0.336-2.4054-0.462-1.4393-1.573-2.557-2.427-3.8038-0.718-1.0482-0.929-2.0046-1.076-3.2278-0.174-1.4552-0.456-1.2162-2.007-1.1951-2.694 0.0366-5.387 0.0714-8.081 0.1044z" fill="#2F2E41"/>
<path d="m122.76 35.681s3.186 8.7428 17.732 5.357c0 0 9.822 6.4709 10.215 8.048 0.394 1.5771-7.479 21.685-7.479 21.685l-0.787 15.376s5.117 11.434 4.33 18.924c-0.787 7.491 4.724 7.886-2.362 8.28-6.151 0.342-31.056-7.768-37.198-11.237-0.933-0.526-3.108 1.796-2.952 1.38 1.181-3.154 0-2.759 1.181-3.548 1.181-0.7886 3.149-28.387 3.149-28.387s-2.362-29.964 0.394-30.753c2.755-0.7885 13.777-5.1254 13.777-5.1254z" fill="#098B5F"/>
<path d="m99.928 64.462-1.9681 11.828 3.1486 28.388 1.969 3.154 3.739-5.323-0.197-21.882 4.33-12.222-11.022-3.9428z" fill="#A0616A"/>
<path d="m110.16 41.201s-4.723-0.3943-5.904 3.5484c-1.181 3.9426-11.022 18.925-9.0538 20.502 1.9681 1.577 16.926 7.0968 17.32 6.7025s-2.362-30.753-2.362-30.753z" fill="#098B5F"/>
<path d="m17.953 76.167v5.5003h-1.9103v-5.4832l1.9103-0.0171z" fill="#038A7A"/>
<path d="m15.28 85.015h-1.7447c1.7804 0 2.6714-1.116 2.6728-3.348h1.7447c0 2.2334-0.8909 3.3494-2.6728 3.348z" fill="#038A7A"/>
<path d="m15.248 84.966h-1.747c0.2184 8e-4 0.4365-0.0176 0.6517-0.0551h1.7492c-0.216 0.0374-0.4347 0.0559-0.6539 0.0551z" fill="#038A7A"/>
<path d="m15.902 84.918h-1.7492c0.2114-0.0379 0.4175-0.1013 0.6139-0.1887h1.7492c-0.1965 0.0871-0.4026 0.1505-0.6139 0.1887z" fill="#038A7A"/>
<path d="m16.516 84.722h-1.7492c0.9391-0.4243 1.4093-1.4244 1.4107-3.0002h1.7471c0 1.5702-0.4696 2.5702-1.4086 3.0002z" fill="#038A7A"/>
<path d="m15.206 86.091h-1.7752c-2.6371 0-3.9557-1.4747-3.9557-4.4241h1.7752c0.0042 2.948 1.3228 4.4227 3.9557 4.4241z" fill="#038A7A"/>
<path d="m15.116 86.116h-1.7491c-2.5986 0-3.8978-1.4754-3.8978-4.4261h1.7492c0 2.9493 1.2972 4.4246 3.8915 4.4261" fill="#038A7A"/>
<path d="m11.147 75.49v6.1773h-1.6715v-6.5764l1.6715 0.3991z" fill="#038A7A"/>
<path d="m19.147 76.291v5.227c0 3.0502-1.361 4.5746-4.0832 4.5732-2.6093 0-3.9147-1.4668-3.9161-4.4002v-6.2417l1.2687 0.289v5.8641c0 2.2275 0.929 3.3398 2.787 3.337 1.796 0 2.6932-1.0743 2.6918-3.2231v-5.4148l1.2518-0.0105z" fill="#03C6AF"/>
<path d="m10.312 75.688 1.3214 0.279 0.9471 0.199" fill="#62BD69"/>
<path d="m14.311 68.514c-2.2552 0-4.4598 0.6698-6.3349 1.9246s-3.3366 3.0384-4.1995 5.1251c-0.86294 2.0866-1.0886 4.3827-0.64849 6.5979 0.44012 2.2151 1.5263 4.2498 3.1211 5.8467s3.6267 2.6843 5.8387 3.1246c2.2119 0.4404 4.5045 0.214 6.588-0.6506 2.0834-0.8646 3.864-2.3286 5.1166-4.2067 1.2527-1.8781 1.921-4.0861 1.9206-6.3447 3e-4 -1.4995-0.2945-2.9844-0.8674-4.3698-0.5729-1.3855-1.4128-2.6443-2.4717-3.7045-1.0589-1.0603-2.316-1.9012-3.6994-2.4747-1.3835-0.5735-2.8663-0.8684-4.3636-0.8679zm0 20.96c-1.8845 0-3.7268-0.5596-5.2937-1.6082-1.567-1.0485-2.7882-2.5389-3.5094-4.2826-0.72118-1.7436-0.90988-3.6623-0.54222-5.5134 0.36765-1.8511 1.2752-3.5514 2.6077-4.886s3.0304-2.2434 4.8787-2.6116 3.7642-0.1792 5.5053 0.543c1.7411 0.7223 3.2292 1.9454 4.2762 3.5147 1.047 1.5692 1.6059 3.4142 1.6059 5.3015 0 1.2532-0.2465 2.4941-0.7254 3.6518-0.4788 1.1578-1.1807 2.2098-2.0655 3.0959s-1.9352 1.589-3.0912 2.0686c-1.1561 0.4795-2.3951 0.7263-3.6464 0.7263z" fill="url(#a)"/>
<path d="m14.311 70.308c-1.8773 0-3.7124 0.5645-5.2733 1.6222s-2.7775 2.5609-3.4959 4.3198c-0.71841 1.7588-0.90638 3.6942-0.54014 5.5613 0.36625 1.8672 1.2702 3.5823 2.5977 4.9284 1.3274 1.3462 3.0188 2.2629 4.86 2.6343s3.7497 0.1808 5.4841-0.5477c1.7344-0.7286 3.2168-1.9623 4.2598-3.5452s1.5996-3.4439 1.5996-5.3476c0-1.2641-0.2455-2.5157-0.7225-3.6835s-1.1761-2.2289-2.0575-3.1228c-0.8814-0.8938-1.9278-1.6028-3.0794-2.0865s-2.3859-0.7327-3.6324-0.7327zm0 18.425c-1.7161 0-3.3938-0.5161-4.8208-1.483-1.427-0.9669-2.5391-2.3411-3.1959-3.949-0.65676-1.6079-0.8286-3.3772-0.49379-5.0841s1.1612-3.2748 2.3748-4.5054c1.2135-1.2307 2.7597-2.0687 4.4429-2.4082 1.6832-0.3396 3.4279-0.1653 5.0135 0.5007 1.5855 0.666 2.9407 1.7938 3.8942 3.2409 0.9534 1.4471 1.4623 3.1483 1.4623 4.8887 0 2.3337-0.9142 4.5719-2.5414 6.2221-1.6273 1.6502-3.8344 2.5773-6.1358 2.5773z" fill="#62BD69"/>
<path d="m34.518 77.528c-0.5369-0.469-1.1776-0.8076-1.8708-0.9886-0.3505-0.0897-0.7114-0.1345-1.0735-0.1332-0.5804-0.0082-1.1558 0.1068-1.6873 0.3372-0.5237 0.2265-1.0017 0.5445-1.411 0.9387-0.4108 0.3977-0.749 0.8624-0.9997 1.3737-0.2565 0.5148-0.4091 1.074-0.4492 1.6463h0.8795c0.0436-0.5437 0.207-1.0715 0.4787-1.5464 0.2462-0.4317 0.5775-0.8104 0.9744-1.1136 0.3832-0.2906 0.8213-0.5029 1.2887-0.6244 0.4638-0.126 0.9479-0.1627 1.4257-0.1082 0.5087 0.0626 0.9977 0.2321 1.4343 0.4971s0.8106 0.6193 1.0967 1.0389l0.3459-0.2851 0.1835-0.154 0.0759-0.0645 0.0232-0.0229c-0.2048-0.2914-0.4449-0.557-0.715-0.791zm0.5252 6.2275-0.4493-0.3476c-0.0943 0.1197-0.195 0.2343-0.3016 0.3434-0.303 0.3158-0.6537 0.5833-1.0398 0.7931-0.5227 0.2818-1.1106 0.4252-1.7062 0.4162-0.4746-0.0115-0.9427-0.1118-1.3794-0.2955-0.4011-0.172-0.7676-0.4138-1.082-0.7139-0.074-0.0656-0.1444-0.1351-0.2109-0.2082-0.1235-0.138-0.2356-0.2856-0.3353-0.4412-0.0773-0.1181-0.1477-0.2404-0.2109-0.3664-0.2017-0.3937-0.3438-0.8144-0.4218-1.2488h-0.8732c0.0501 0.5552 0.2076 1.0957 0.464 1.5923 0 0.0104 0.0105 0.0187 0.0148 0.0291 0.2522 0.4856 0.5851 0.926 0.9849 1.303 0.4053 0.3832 0.8767 0.6919 1.392 0.9116 0.521 0.225 1.0849 0.3372 1.6536 0.3289 0.7321 6e-3 1.4537-0.1723 2.0964-0.5183 0.6407-0.3447 1.1961-0.8252 1.6261-1.407l-0.2214-0.1707z" fill="#58595B"/>
<path d="m45.903 79.331c-0.2202-0.5557-0.5415-1.0655-0.9473-1.5032-0.403-0.4346-0.8849-0.788-1.4199-1.041-0.5537-0.251-1.1543-0.3807-1.7618-0.3807-0.6076 0-1.2081 0.1297-1.7619 0.3807-0.5362 0.252-1.019 0.6054-1.422 1.041-0.4072 0.4371-0.7292 0.947-0.9493 1.5032-0.23 0.5687-0.3476 1.1768-0.3462 1.7906-5e-4 0.3183 0.0272 0.636 0.083 0.9494 0.0561 0.3128 0.1457 0.6185 0.2673 0.9119 0.0333-0.0235 0.0687-0.0437 0.1058-0.0604l0.2487-0.1332 0.3731-0.2082c-0.0622-0.2332-0.1223-0.4664-0.1803-0.6975-0.0599-0.2486-0.0829-0.5046-0.0684-0.7599-0.0024-0.4995 0.0927-0.9947 0.2798-1.4575 0.1807-0.4521 0.4436-0.8666 0.7752-1.2221 0.3296-0.3532 0.7237-0.6394 1.1608-0.8432 0.4486-0.2072 0.9365-0.3144 1.4302-0.3144s0.9816 0.1072 1.4302 0.3144c0.4349 0.2054 0.8274 0.4915 1.1567 0.8432 0.331 0.3556 0.5932 0.7701 0.7731 1.2221 0.1907 0.4621 0.2893 0.9573 0.2902 1.4575 0.0011 0.4991-0.0932 0.9939-0.2778 1.4574-0.1003 0.2549-0.226 0.4991-0.3751 0.7287-0.105 0.1601-0.2221 0.3119-0.3503 0.4539-0.0125 0.0166-0.0291 0.0333-0.0436 0.05-0.3293 0.3568-0.7251 0.6454-1.1649 0.8494-0.4918 0.2259-1.0297 0.3319-1.57 0.3095-0.5402-0.0225-1.0676-0.1727-1.5392-0.4386-0.3561-0.2069-0.6801-0.465-0.9617-0.7661-0.1224-0.1317-0.2367-0.2707-0.3421-0.4165l-0.7234 0.4165h-0.0145c0.3953 0.6306 0.9401 1.1528 1.5857 1.5198 0.3215 0.1792 0.6632 0.319 1.0178 0.4165 0.3621 0.0985 0.7358 0.1482 1.111 0.1478 0.6157 0.0062 1.225-0.1268 1.7826-0.3894 0.5356-0.2508 1.0173-0.6044 1.4178-1.041 0.3039-0.3349 0.5612-0.7096 0.7648-1.1139 0.0622-0.127 0.1223-0.2602 0.1762-0.3956 0.2247-0.5691 0.3387-1.1762 0.3358-1.7884 0.0027-0.6146-0.1149-1.2237-0.3461-1.7927z" fill="#58595B"/>
<path d="m54.04 83.765-0.3527-0.4545-5.3426-6.9047h-0.1846v1.2779l4.5209 5.6289 0.3652 0.4545 1.6805 2.0848v-1.1988l-0.6867-0.8881zm-5.8799-4.6636v6.6713h0.9232v-5.5309l-0.9232-1.1404z" fill="#58595B"/>
<path d="m62.619 83.767-0.3589-0.4545-5.4363-6.9063h-0.1879v1.2782l4.6003 5.6302 0.3757 0.4524 1.7101 2.0853v-1.1969l-0.703-0.8884zm-5.9831-4.6646v6.6727h0.9395v-5.5321l-0.9395-1.1406z" fill="#58595B"/>
<path d="m65.113 76.406v4.2906h0.8788v-3.4215h4.8521v-0.8691h-5.7309zm0.8788 8.5769v-2.4184h4.1924v-0.8691h-5.0712v4.1567h5.7309v-0.8692h-4.8521z" fill="#58595B"/>
<path d="m80.137 77.529c-0.5337-0.4688-1.1713-0.8077-1.8617-0.9895-0.3508-0.0896-0.7119-0.1344-1.0743-0.1333-0.5876-0.0095-1.1702 0.1071-1.7076 0.3416-0.5242 0.2268-1.0025 0.5451-1.4121 0.9396-0.4111 0.3976-0.749 0.8628-0.9984 1.3749-0.2512 0.5148-0.3982 1.0731-0.4327 1.6436h0.8718c0.0448-0.544 0.2082-1.072 0.4791-1.5478 0.2463-0.4321 0.5779-0.811 0.9752-1.1145 0.3839-0.2901 0.8222-0.5025 1.2896-0.625 0.4642-0.1261 0.9486-0.1629 1.4269-0.1083 0.509 0.0627 0.9984 0.2324 1.4353 0.4976 0.437 0.2652 0.8112 0.6197 1.0975 1.0398l0.3483-0.2854 0.1963-0.1479 0.0739-0.0646c0.0082-0.0071 0.016-0.0147 0.0232-0.0229-0.2085-0.2952-0.4539-0.5632-0.7303-0.7979zm0.5277 6.2329-0.4433-0.3479c-0.0922 0.1211-0.1908 0.2372-0.2955 0.3479-0.3077 0.3173-0.6638 0.5851-1.0554 0.7937-0.5231 0.2823-1.1114 0.4259-1.7075 0.4167-0.4743-0.0116-0.942-0.112-1.3783-0.2959-0.4021-0.1709-0.7691-0.4131-1.0828-0.7145-0.0742-0.0656-0.1446-0.1351-0.2111-0.2083-0.1286-0.1422-0.2457-0.294-0.3504-0.4541-0.0773-0.1182-0.1478-0.2406-0.2111-0.3667-0.2009-0.3944-0.3431-0.8154-0.4221-1.2499h-0.8717c0.0491 0.5558 0.2068 1.097 0.4643 1.5936 0 0.0105 0 0.0188 0.0148 0.0292 0.081 0.156 0.1705 0.3076 0.2681 0.4541 0.2055 0.3089 0.4455 0.594 0.7155 0.85 0.4064 0.3826 0.8779 0.6915 1.3931 0.9124 0.5221 0.2252 1.0871 0.3374 1.6569 0.3292 0.732 0.0061 1.4535-0.1725 2.0959-0.5188 0.6414-0.3455 1.1978-0.8263 1.6295-1.4082l-0.2089-0.1625z" fill="#58595B"/>
<path d="m82.664 76.406v0.8691h2.4116v3.4215h0.8776l0.0107-3.43h2.431v-0.8606h-5.7309zm2.4116 5.2894v4.1567h0.8776v-4.1567h-0.8776z" fill="#58595B"/>
<path d="m28.515 83.341c0.0895 0.169 0.1904 0.3289 0.3017 0.478h-0.9617c-0.0846-0.1542-0.1621-0.3138-0.2323-0.478h0.8923z" fill="#58595B"/>
<path d="m34.598 83.461 0.4291 0.3586h-0.7171c0.1018-0.114 0.1979-0.2336 0.288-0.3586z" fill="#58595B"/>
<path d="m38.74 83.341c0.1063 0.1673 0.2215 0.3269 0.345 0.478h-1.0746l0.7296-0.478z" fill="#58595B"/>
<path d="m44.686 83.341h0.966c-0.0767 0.1646-0.1625 0.3242-0.2569 0.478h-1.0564c0.1271-0.1495 0.2432-0.3094 0.3473-0.478z" fill="#58595B"/>
<path d="m49.116 83.341h-0.9561v0.478h0.9561v-0.478z" fill="#58595B"/>
<path d="m53.7 83.341 0.3098 0.478h-0.8731l-0.3208-0.478h0.8841z" fill="#58595B"/>
<path d="m57.473 83.341h-0.8366v0.478h0.8366v-0.478z" fill="#58595B"/>
<path d="m62.234 83.341 0.3719 0.478h-1.0478l-0.385-0.478h1.0609z" fill="#58595B"/>
<path d="m66.069 83.341h-0.9561v0.478h0.9561v-0.478z" fill="#58595B"/>
<path d="m74.123 83.341c0.0906 0.1685 0.1921 0.3283 0.3035 0.478h-0.9618c-0.0845-0.1542-0.162-0.3138-0.2322-0.478h0.8905z" fill="#58595B"/>
<path d="m80.202 83.461 0.4335 0.3586h-0.7171c0.1003-0.1141 0.1949-0.2338 0.2836-0.3586z" fill="#58595B"/>
<path d="m86.008 83.341h-0.9562v0.478h0.9562v-0.478z" fill="#58595B"/>
<defs>
<radialGradient id="a" cx="0" cy="0" r="1" gradientTransform="translate(14.311 79.931) scale(11.4 11.417)" gradientUnits="userSpaceOnUse">
<stop stop-color="#03C6AF" offset="0"/>
<stop stop-color="#03C4AD" offset=".52"/>
<stop stop-color="#03BDA7" offset=".71"/>
<stop stop-color="#03B29D" offset=".84"/>
<stop stop-color="#03A18E" offset=".95"/>
<stop stop-color="#039684" offset="1"/>
</radialGradient>
</defs>
</svg>
