<?xml version="1.0" encoding="UTF-8"?>
<svg fill="none" viewBox="0 0 265 281" xmlns="http://www.w3.org/2000/svg">
<path d="m116.34 280.08c64.254 0 116.34-1.808 116.34-4.039s-52.088-4.04-116.34-4.04c-64.253 0-116.34 1.809-116.34 4.04s52.088 4.039 116.34 4.039z" fill="#03C6AF" opacity=".1"/>
<path d="m212.22 274.7h-3.817l-27.92-144.37-3.581 144.37h-4.053l-4.536-144.13-27.205 144.13h-4.295l18.491-148.39 0.603-4.824 36.272-4.064 1.128 8.888 18.913 148.39z" fill="#464353"/>
<path d="m135.19 88.333h-23.16v14.543h23.16v-14.543z" fill="#464353"/>
<path d="m246.15 82.175 14.072-5.6914h3.084c0.45 0 0.881 0.1789 1.199 0.4975s0.497 0.7507 0.497 1.2012v39.692c0 0.451-0.179 0.883-0.497 1.202-0.318 0.318-0.749 0.497-1.199 0.497h-3.084l-14.072-5.869v-31.529z" fill="#464353"/>
<path d="m246.15 84.024h-28.546v27.47h28.546v-27.47z" fill="#464353"/>
<path d="m186.36 31.778h-18.313v3.2317h18.313v-3.2317z" fill="#514E7F"/>
<path d="m198.75 36.087h-51.708v38.242h51.708v-38.242z" fill="#514E7F"/>
<path d="m198.75 69.482h-51.708v4.8476h51.708v-4.8476z" fill="#000" opacity=".1"/>
<path d="m218.14 84.024h-1.077v27.47h1.077v-27.47z" fill="#000" opacity=".1"/>
<path d="m135.19 88.333h-8.079v14.543h8.079v-14.543z" fill="#000" opacity=".1"/>
<path d="m193.36 126.04h-38.242l0.606-4.677 36.501-3.941 1.135 8.618z" fill="#000" opacity=".1"/>
<path d="m212.97 70.02h-80.692c-2.556 0-4.629 2.0748-4.629 4.6343v46.209c0 2.559 2.073 4.634 4.629 4.634h80.692c2.556 0 4.629-2.075 4.629-4.634v-46.209c0-2.5595-2.073-4.6343-4.629-4.6343z" fill="#514E7F"/>
<path d="m245.86 82.409h0.291v31.239h-0.291c-0.637 0-1.248-0.235-1.699-0.654-0.45-0.419-0.703-0.987-0.703-1.58v-26.771c0-0.5925 0.253-1.1608 0.703-1.5798 0.451-0.4189 1.062-0.6543 1.699-0.6543z" fill="#514E7F"/>
<path d="m260.15 76.484h2.961c0.5 0 0.98 0.1963 1.334 0.5458 0.354 0.3494 0.553 0.8234 0.553 1.3176v39.363c0 0.494-0.199 0.968-0.553 1.317-0.354 0.35-0.834 0.546-1.334 0.546h-2.961v-43.089z" fill="#514E7F"/>
<path d="m115.8 88.333h-3.77v14.543h3.77v-14.543z" fill="#000" opacity=".1"/>
<path d="m112.16 84.024h-1.861c-1.717 0-3.109 1.3814-3.109 3.0854v18.067c0 1.704 1.392 3.085 3.109 3.085h1.861c1.717 0 3.109-1.381 3.109-3.085v-18.067c0-1.704-1.392-3.0854-3.109-3.0854z" fill="#514E7F"/>
<path d="m147.04 61.941c14.278 0 25.853-11.575 25.853-25.854s-11.575-25.854-25.853-25.854c-14.279 0-25.854 11.575-25.854 25.854s11.575 25.854 25.854 25.854z" fill="#464353"/>
<path d="m147.04 55.478c10.709 0 19.39-8.6813 19.39-19.39 0-10.709-8.681-19.39-19.39-19.39s-19.391 8.6813-19.391 19.39c0 10.709 8.682 19.39 19.391 19.39z" fill="#62BD69"/>
<path d="m194.98 55.478c10.411 0 18.851-8.4402 18.851-18.852 0-10.411-8.44-18.852-18.851-18.852-10.412 0-18.852 8.4402-18.852 18.852 0 10.412 8.44 18.852 18.852 18.852z" fill="#464353"/>
<path d="m194.98 51.169c7.734 0 14.004-6.3904 14.004-14.273 0-7.8829-6.27-14.273-14.004-14.273-7.735 0-14.004 6.3905-14.004 14.273 0 7.883 6.269 14.273 14.004 14.273z" fill="#62BD69"/>
<path d="m193.63 80.793c1.339 0 2.424-1.0851 2.424-2.4238 0-1.3386-1.085-2.4237-2.424-2.4237-1.338 0-2.424 1.0851-2.424 2.4237 0 1.3387 1.086 2.4238 2.424 2.4238z" fill="#03C6AF"/>
<path d="m201.17 80.793c1.338 0 2.424-1.0851 2.424-2.4238 0-1.3386-1.086-2.4237-2.424-2.4237-1.339 0-2.424 1.0851-2.424 2.4237 0 1.3387 1.085 2.4238 2.424 2.4238z" fill="#03C6AF" opacity=".5"/>
<path d="m169.74 87.093-0.177-0.3489c1.092 0.3629 2.139 0.8454 3.125 1.4386-0.431-3.7431-14.776-14.253-17.358-14.253s-5.453-4.4624-5.453-4.4624-7.459-1.15-8.608-2.369-8.897-0.5083-10.76-0.0775c-1.864 0.4307-4.735-1.1501-4.735-1.1501s-1.579-2.5844-3.585-2.5844c-2.005 0-4.153-2.8773-4.153-2.8773s-1.872-1.7229-3.594-2.0158-3.874-2.1537-4.881-3.5967c-1.007-1.4429-6.025-2.1536-8.892-1.7229-2.8661 0.4307-10.618-0.5858-10.618-0.5858 3.1548-1.4387 3.9166-4.8931 3.9166-4.8931-2.8234-0.1465-10.244-6.3835-10.244-6.3835s0.3056 2.0158 0.6585 4.8285l-0.4777-0.6159-0.0646 0.0517c-0.1516-2.0066-0.1732-4.0209-0.0645-6.0303 0-0.1551 0.0258-0.3102 0.0344-0.4695 1.8375-1.6111 3.2001-3.6941 3.9405-6.024 0.7403-2.3299 0.8303-4.8179 0.2602-7.1952-0.0775-0.3274-0.1679-0.6461-0.2712-0.9606 0.5493 0.2286 1.1295 0.3738 1.7216 0.4308h0.3056c0.3561 0.0023 0.7086-0.071 1.0343-0.215 0.3257-0.1441 0.6172-0.3556 0.8552-0.6207 0.0806-0.102 0.1513-0.2117 0.2109-0.3273 0.0145-0.0221 0.0274-0.0451 0.0387-0.0689 0.0512-0.1058 0.0943-0.2152 0.1291-0.3274 0.0121-0.0397 0.0221-0.0799 0.0301-0.1206 0.0218-0.0881 0.039-0.1772 0.0517-0.2671v-0.2283-0.1679c-0.0178-0.6623-0.1639-1.3147-0.4304-1.9211-0.4519-1.1113-1.1018-2.2097-1.0545-3.4114 0-0.0991 0.0215-0.1939 0.0344-0.2886 0.1206-0.9433 0.6155-1.8177 0.9125-2.7266v-0.0387c0.043-0.1336 0.0775-0.2671 0.1076-0.4006 0.014-0.0394 0.0255-0.0797 0.0344-0.1206 0.0321-0.1578 0.0536-0.3175 0.0646-0.4781v-0.0345c0.1119-1.8005-1.3386-3.3726-2.9827-4.1006-1.4719-0.65471-3.1548-0.83131-4.5019-1.7229-1.5366-1.0122-2.3801-2.7653-3.5164-4.2169-1.6527-2.1106-4.2394-3.6871-6.8864-3.3856-1.6312 0.18522-3.1118 1.0424-4.7344 1.374-2.4661 0.51257-5.0744-0.2326-7.5276 0.34028-0.5957 0.09904-1.1379 0.40386-1.5322 0.86146-0.1649 0.23095-0.2712 0.49848-0.3099 0.77963-0.0346 0.26017-0.0346 0.52377 0 0.78394v0.02153c0.0277 0.24826 0.0723 0.49435 0.1334 0.73656l0.0387 0.15076c0 0.05169 0.0215 0.09906 0.0344 0.15075 0.013 0.05169 0.056 0.20244 0.0818 0.30151 0.0474 0.16799 0.0861 0.33598 0.1292 0.50827v0.06031c0.0387 0.1766 0.0774 0.3532 0.1076 0.53411 0.0694 0.37292 0.1154 0.74983 0.1377 1.1285 0.1012 1.0657-0.1288 2.1368-0.6585 3.0668-1.076 1.723-3.3614 2.4854-4.3557 4.2815-0.2349 0.4334-0.3812 0.9093-0.4304 1.3999-0.0179 0.163-0.0251 0.3271-0.0215 0.491v0.0647c0 0.1421 0 0.2842 0.0388 0.4307-0.0021 0.0344-0.0021 0.0689 0 0.1034 0.022 0.1277 0.0507 0.2543 0.086 0.379 0 0.0431 0.0216 0.0819 0.0345 0.1206 0.0474 0.1474 0.1049 0.2913 0.1721 0.4308 0.4605 0.9605 1.33 1.753 1.5107 2.7954 0 0.0302 0 0.0603 0.0215 0.0948 0.099 0.7839-0.2238 1.5506-0.3916 2.3216-0.0222 0.0938-0.0394 0.1887-0.0517 0.2843v0.0905 0.1981 0.112 0.1723c-0.0023 0.0402-0.0023 0.0804 0 0.1206v0.1637 0.1163c0 0.0387 0.0259 0.1077 0.0431 0.1593l0.0301 0.1077c0.0203 0.0514 0.0433 0.1018 0.0689 0.1508l0.0473 0.0947c0.0315 0.0523 0.066 0.1026 0.1033 0.1508 0.0158 0.024 0.0331 0.047 0.0517 0.0689 0.0586 0.0692 0.125 0.1314 0.1979 0.1852 0.594 0.4308 1.5193 0.3188 2.0057 0.8615 0.0547 0.0657 0.101 0.1381 0.1377 0.2154l0.0258 0.0517c0.0356 0.0758 0.063 0.1552 0.0818 0.2369 0.0688 0.3237 0.0688 0.6583 0 0.982-0.1721 0.8615-0.538 1.6454-0.7317 2.4897-0.0387 0.1723-0.0645 0.3489-0.086 0.5255 0 0.0818 0 0.1593-0.0216 0.2369v0.0517 0.2239 0.0604c0 0.1076 0 0.2196 0.0259 0.3273 0.0258 0.1077 0 0.1034 0.0258 0.1508l0.0258 0.1249c0 0.056 0.0301 0.112 0.0474 0.168l0.0387 0.1077c0.0215 0.0603 0.0516 0.1206 0.0775 0.1809 0.0126 0.0281 0.027 0.0554 0.043 0.0818 0.0434 0.0881 0.0953 0.1718 0.1549 0.2498 0.5208 0.7064 1.3773 0.9433 2.2812 0.9476 0.5125-0.0029 1.0233-0.0606 1.5236-0.1723 0.1119 0.2628 0.2281 0.5255 0.3529 0.7797 0.6239 1.2573 1.4416 2.4085 2.4231 3.4114 0 0.1335-0.0258 0.2627-0.043 0.4006-0.099 0.982-0.2195 2.0373-0.3572 3.1013-1.1148-0.5126-1.9756-0.7108-2.3156-0.3403-1.4418 1.5851 0 7.0554 0 7.0554s-7.037 0-8.7586 1.5808-4.8764 0-4.8764 0-6.456 0.7236-6.0256 2.0201-3.4432 0-3.4432 0-2.7287 0.2886-2.5824 2.1537c0.1464 1.8651-4.1619 2.7309-3.5895 4.0274 0.5725 1.2965-2.5824 2.1536-2.5824 2.1536s-3.1548-0.1421-2.0056 1.723c0 0-1.7216 4.0316-3.1548 4.3073-1.4333 0.2757-3.3012 3.5966-3.3012 3.5966s-5.5263 1.0079-5.2767 2.7352c0.2496 1.7272-8.496 14.085-8.496 14.085s-2.8708 5.9226-0.86079 10.243 3.4431 7.1972 3.8735 8.7782 5.6469 8.542 5.6038 9.838c0 0.405 1.2912 2.585 3.0515 5.35l-0.5164 0.534-1.132 1.167s-3.5895 8.925 0.7145 9.356c3.6369 0.362 6.2494 0.624 7.575 0.263 0.2151-0.051 0.4193-0.14 0.6026-0.263l0.0516-0.039c1.5667 2.313 2.6771 3.928 2.6771 3.928s0.1549-0.228 0.4304-0.62l0.4304 0.616s0.3443-0.491 0.9296-1.292c-0.1893 3.915-0.2152 7.775-0.2152 7.775s1.868-0.289 1.0072 8.347 5.1648 15.688 5.1648 15.688v12.814s0 0.323 0.0602 0.861c0.1593 1.84 0.6843 6.177 2.2338 9.046 2.0099 3.739 0 13.529 0 13.529s-0.1334 7.986 0.3486 17.944c0 0.272 0.0301 0.552 0.043 0.827-8.7026 7.28-18.038 16.928-18.038 16.928 0.4571 0.128 0.8924 0.324 1.2912 0.582l-0.5207 0.667-2.3715 2.925-1.8335 2.266 2.9051 8.955 3.1721-1.241s1.7216 2.985 1.3601 5.01c-0.055 0.366-0.2032 0.711-0.4304 1.003-0.1096 0.147-0.186 0.316-0.2239 0.496-0.8306 3.243 2.6341 17.229 8.1303 17.836 0 0 1.8636 0.616 2.4619-1.064 0.2883-0.809 0.284-2.153-0.3616-4.337 0 0-2.9052-3.506-1.0243-7.284 1.1018-2.209 2.9224-5.169 4.2394-7.258l0.5423-0.861c1.1836 1.495 1.911 2.455 1.911 2.455l4.2265-4.548c0.0904 0.193 0.1807 0.383 0.2754 0.564 0.3163 0.633 0.6818 1.241 1.0932 1.817l2.8665 11.376 1.1578-0.258c-0.0259 0.275-0.0431 0.568-0.0603 0.861-0.0947 2.042 0 4.691 0.9426 6.582 0.7058 1.447 1.898 2.455 3.8434 2.408 6.6712-0.164 8.608-3.778 8.608-3.778v-9.045l2.294-0.513s-0.1678-19.874-0.7575-30.957c0-0.245-0.0258-0.482-0.0387-0.715v-0.099l14.732-15.855 1.132-0.452c9.4688-3.744 9.6151-13.388 9.6151-13.388s0-5.324 1.1449-9.786c1.1448-4.462 0.1463-27.64-2.0057-33.395-2.152-5.754-2.8708-12.241-2.8708-12.241s2.152-3.015 0-5.527c-0.6078-0.751-1.1143-1.58-1.5064-2.463l2.8019-0.461 1.614-0.267 0.8608-0.147c-0.4304 3.808-0.5036 6.733 0.5165 7.43 3.1591 2.154 13.773-5.039 13.773-5.039-3.873 0-6.025-28.933-5.238-29.652 0.788-0.719 1.963-15.218 0.934-17.802-1.028-2.5844 3.611-14.124 3.611-14.124l0.715-1.0596s16.932 7.3957 18.795 8.8128c1.864 1.4171 7.747-3.4459 8.75-1.5636s7.317 4.6864 7.317 4.6864 9.327-0.9433 10.329 1.3611c1.003 2.3044 7.033 7.7015 7.033 7.7015 3e-3 -1.2654 0.08-2.5295 0.228-3.7861 0.125 0.2972 0.246 0.5987 0.375 0.9045 2.858 6.7668 7.614 15.334 12.021 10.725 4.992-5.237 1.192-14.92-1.248-19.8zm-127.61 30.582v0.082l-0.0344-0.035 0.0344-0.047zm-3.3399-33.201-1.8249 19.258-3.5852 3.717-0.4304 0.457-3.7057-4.036s-1.8679-0.862 0-2.447c1.8679-1.5849-3.1548-5.1686-3.1548-5.1686s-0.1464-2.5844 1.7216-3.3081c1.8679-0.7236 4.3039-5.4703 4.3039-5.4703l6.7444-3.4459-0.0689 0.4437zm23.999 98.569c0.1307-0.121 0.2752-0.227 0.4304-0.314 0.8049-0.457 1.3214 0.043 1.5882 0.921 0.3516 1.473 0.245 3.018-0.3056 4.428-1.0028 2.305 1.4376 11.518 1.4376 11.518s-3.1592 1.434-3.7316 4.174c-0.0851 0.337-0.2309 0.655-0.4304 0.939-0.0387-0.241-0.0732-0.474-0.1076-0.698-0.2798-1.723-0.4304-2.834-0.4304-2.834-0.5145-2.217-0.6123-4.51-0.2884-6.763 0.4563-2.769 1.3773-8.395 1.7216-10.527 0.0861-0.517 0.1335-0.827 0.1378-0.861l-0.0216 0.017z" fill="url(#a)"/>
<path d="m82.877 42.658 0.8645-0.6463 2.4375 5.7677-0.9366 1.2343h-2.8337s0.1001-3.1419 0.1681-3.2541 0.3002-3.1016 0.3002-3.1016z" fill="#464353"/>
<path d="m65.172 262.31v11.844s-2.0208 3.605-8.9813 3.769c-0.8452 0.048-1.685-0.157-2.4034-0.587s-1.2799-1.063-1.6068-1.812c-0.97-1.887-1.0823-4.531-0.9835-6.568 0.0496-1.019 0.1621-2.035 0.3368-3.041l13.638-3.605z" fill="#3F3D56"/>
<path d="m65.172 262.31v3.565l-14.004 2.898c0.0496-0.991 0.1623-1.978 0.3375-2.957l13.666-3.506z" fill="#000" opacity=".1"/>
<path d="m67.327 264.49-16.765 3.742-2.8629-11.368c-0.41-0.577-0.7751-1.184-1.0919-1.817-0.1849-0.362-0.3654-0.747-0.5374-1.148-3.1209-7.168-4.5094-20.098-5.1026-31.099-0.0301-0.557-0.0602-1.109-0.086-1.653-0.4814-9.952-0.3482-17.937-0.3482-17.937s2.0075-9.783 0-13.521c-1.5475-2.883-2.072-7.216-2.231-9.063-0.043-0.548-0.0602-0.863-0.0602-0.863l0.3095-0.816 1.2638-3.358h13.902l8.0817 6.867 1.2294 1.044-0.1376 0.863c-0.3482 2.132-1.2681 7.769-1.7195 10.522-0.3235 2.251-0.2258 4.544 0.2881 6.759 0 0 0.1676 1.096 0.4298 2.835 0.0645 0.432 0.1376 0.889 0.2193 1.386 1.0274 6.378 2.9532 18.027 3.7743 20.81 0.2278 0.764 0.4299 2.68 0.5803 5.274 0.0344 0.518 0.0645 1.057 0.0946 1.623 0.6018 11.057 0.7695 30.918 0.7695 30.918z" fill="#514E7F"/>
<path d="m65.173 274.16v0.117s-2.0107 3.489-8.9366 3.647c-0.841 0.047-1.6766-0.152-2.3914-0.568s-1.2735-1.028-1.5988-1.753c3.1055 0.712 8.1457 1.171 12.927-1.443z" fill="#000" opacity=".1"/>
<path d="m171.03 108.03c-4.322 4.638-8.945-3.985-11.741-10.795-1.568-3.8333-2.551-7.0972-2.551-7.0972l11.5-5.0328s0.707 1.1604 1.594 2.9988c2.383 4.9111 6.095 14.655 1.198 19.927z" fill="#A1616A"/>
<path d="m84.144 40.118c-0.1899 4.3103 0.1315 8.628 0.9574 12.862 0 0-24.111 2.6125-21.945-1.1582 1.2693-2.2119 2.0923-8.0507 2.5515-12.514 0.3335-3.1611 0.4808-5.6299 0.4808-5.6299s23.102-9.2873 19.636-1.4499c-1.0353 2.3382-1.5162 5.1074-1.6808 7.8897z" fill="#A1616A"/>
<path d="m85.695 102.18-3.286 38.394 15.081-2.432-2.6358-31.664 0.8786-8.4546-10.038 4.1566z" fill="#464353"/>
<path d="m97.49 138.15-6.5481 1.057-8.5332 1.375 0.6017-7.006 2.6877-31.388 3.4212-1.419 2.4242-1.0011 4.1898-1.7365-0.8784 8.4546 2.6351 31.664z" fill="#000" opacity=".1"/>
<path d="m35.149 264.62c-1.8552 3.777 1.0103 7.282 1.0103 7.282 0.6368 2.188 0.6411 3.527 0.3566 4.316-0.59 1.68-2.4282 1.062-2.4282 1.062-5.7821-0.647-9.2845-16.507-7.7986-18.324 1.4858-1.817-0.9042-5.991-0.9042-5.991l-3.1288 1.238-2.8656-8.952 1.8085-2.267 2.3392-2.926 1.5834-1.986 15.814 16.779s-0.675 1.032-1.6048 2.512c-1.299 2.077-3.0947 5.055-4.1815 7.257z" fill="#3F3D56"/>
<path d="m66.25 233.89-19.739 21.414c-3.4598-6.836-4.9474-20.55-5.5764-32.127 3.6765-3.096 7.2255-5.761 9.9118-7.047 0 0 9.0872-6.65 11.004-9.84 1.0158 6.354 2.92 17.957 3.7318 20.73 0.2678 0.911 0.4888 3.469 0.6673 6.87z" fill="#000" opacity=".1"/>
<path d="m61.402 182.59-23.161-3.579 1.2591-3.424h13.85l8.0514 7.003z" fill="#000" opacity=".1"/>
<path d="m66.25 232.2-20.599 22.023c-3.1677-7.186-4.5693-20.146-5.1681-31.173-0.0304-0.558-0.0608-1.111-0.0868-1.656 3.7882-3.15 7.4549-5.858 10.206-7.164 0 0 8.6569-6.242 11.013-9.56 0.065 0.432 0.1388 0.891 0.2212 1.388 1.0371 6.394 2.9812 18.07 3.81 20.86 0.23 0.761 0.4209 2.682 0.6031 5.282z" fill="#000" opacity=".1"/>
<path d="m40.935 255.4s-0.6687 1.065-1.5898 2.595c-3.3437-4.482-11.272-14.801-15.646-17.878l1.5688-2.051 15.667 17.334z" fill="#000" opacity=".1"/>
<path d="m93.232 193.46c-1.1502 4.455-1.1502 9.767-1.1502 9.767s-0.147 9.62-9.6596 13.356l-1.1372 0.431-39.348 42.061s-14.559-18.956-19.315-20.107c0 0 19.168-19.675 28.248-23.984 0 0 10.957-7.897 11.532-10.624 0.5751-2.727 3.7489-4.166 3.7489-4.166s-2.4517-9.19-1.4442-11.49c0.5531-1.406 0.6603-2.947 0.307-4.416-0.2681-0.862-0.787-1.374-1.5955-0.922-0.156 0.088-0.3011 0.193-0.4324 0.314l-24.932-3.735v-12.765s-6.0535-7.036-5.1887-15.652c0.8648-8.617-1.0118-8.328-1.0118-8.328s0.0908-14.553 1.3232-15.768c1.2323-1.215 13.071-6.782 13.071-6.782l37.116 6.571 1.5307 7.074s1.2972 5.626 3.4591 8.125c2.162 2.499 0 5.51 0 5.51s0.7221 6.463 2.8841 12.214c2.1619 5.752 3.1478 28.866 1.9933 33.316z" fill="#514E7F"/>
<path d="m85.825 32.276c-1.0351 2.3731-1.5158 5.2014-1.6804 8.0076-2.5935 2.2923-5.9488 3.4844-9.3767 3.3315-3.428-0.1528-6.6685-1.6391-9.0562-4.1535 0.3335-3.2083 0.4808-5.714 0.4808-5.714s23.097-9.4263 19.632-1.4716z" fill="#000" opacity=".1"/>
<path d="m88.333 29.901c-2e-3 3.3647-1.2893 6.6016-3.5986 9.0487-2.3092 2.4472-5.4661 3.9198-8.825 4.1168-3.359 0.1969-6.6663-0.8966-9.2458-3.0571s-4.2362-5.2248-4.6315-8.5662c-0.3952-3.3414 0.5008-6.7076 2.505-9.4103 2.0042-2.7028 4.965-4.5378 8.2772-5.13s6.7256 0.1032 9.5421 1.944 4.8235 4.688 5.6105 7.9594c0.2438 1.0135 0.3667 2.0523 0.3661 3.0947z" fill="#A1616A"/>
<path d="m77.809 52.973s-9.6054-4.4537-10.205-5.0314c-0.5993-0.5778-20.526 50.59-20.526 50.59l-5.6046 25.438s29.89 12.788 36.357 11.063c6.4668-1.724 7.0402 0 7.0402 0s6.6134-37.078 8.7691-40.381c2.1556-3.3026-2.0134-36.936-2.0134-36.936l-7.4713-9.7783-6.3462 5.0357z" fill="#000" opacity=".1"/>
<path d="m77.809 51.358s-9.6054-4.4537-10.205-5.0315c-0.5993-0.5777-20.526 50.591-20.526 50.591l-5.6046 25.437s29.89 12.788 36.357 11.063c6.4668-1.724 7.0402 0 7.0402 0s6.6134-37.078 8.7691-40.381c2.1556-3.3026-2.0134-36.936-2.0134-36.936l-7.4713-9.7784-6.3462 5.0358z" fill="#000" opacity=".1"/>
<path d="m93.63 94.109c-0.4356 0.6855-1.0934 2.8154-1.8296 5.7644-0.514 2.0525-1.0715 4.4965-1.6422 7.1265-2.5701 11.87-5.3841 27.494-5.3841 27.494s-0.1786-0.526-1.4375-0.707c-1.0193-0.146-2.753-0.064-5.6628 0.707-6.5341 1.725-36.739-11.067-36.739-11.067l0.8712-3.88 4.7916-21.558s20.186-51.164 20.765-50.586c0.3529 0.3492 4.1252 2.1557 7.0002 3.4966 1.8339 0.8622 3.3106 1.5305 3.3106 1.5305l6.0984-4.7684 0.3355-0.263 7.5141 9.774s4.1862 33.629 2.0082 36.936z" fill="#03C6AF"/>
<path d="m70.554 57.478c0.8648 3.3167-1.1502 8.7684-1.1502 8.7684s-6.9183 16.968-8.9376 24.809c-2.0192 7.841-13.568 23.644-13.568 23.644s-1.695 1.695-4.0689 4.055c-0.2637 0.263-0.5405 0.534-0.8172 0.819l4.7563-21.565s20.037-51.183 20.612-50.605c0.3503 0.3493 4.0948 2.1565 6.9486 3.4978-1.7858 1.6217-4.3499 4.3821-3.7748 6.5774z" fill="#000" opacity=".1"/>
<path d="m69.985 57.223c0.8654 3.3307-1.1511 8.8052-1.1511 8.8052s-6.9235 17.039-8.9443 24.913c-2.0209 7.874-13.579 23.743-13.579 23.743s-1.6962 1.702-4.0719 4.071c-0.2812 0.282-0.5755 0.572-0.8654 0.867-4.6388 4.621-11.16 11.1-13.198 12.993-0.2986 0.281-0.502 0.463-0.5885 0.524-0.1843 0.124-0.3895 0.214-0.6059 0.264-1.3327 0.364-3.9594 0.1-7.6159-0.264-4.3272-0.433-0.7183-9.381-0.7183-9.381l1.1381-1.174 1.0385-1.074 11.787-12.14 0.8654-0.914 3.6046-3.721 1.8347-19.316 0.0433-0.4634s-0.5366-1.2258-1.3631-3.0968c-2.2025-5.0631-6.5298-14.834-8.1135-17.992-0.1818-0.3682-0.3246-0.641-0.4327-0.8099 0-0.0217-0.0217-0.0434-0.0347-0.0607-1.1553-1.8754 2.0165-1.7324 2.0165-1.7324s3.1762-0.8663 2.5964-2.1656c-0.5799-1.2993 3.7517-2.1656 3.6089-4.0409-0.1428-1.8754 2.5963-2.1656 2.5963-2.1656s3.8945 1.2993 3.4618 0c-0.4328-1.2994 6.0581-2.0227 6.0581-2.0227s3.1718 1.5896 4.9027 0c1.7309-1.5895 8.8319-1.5851 8.8319-1.5851s-1.4496-5.4876 0-7.0771 12.32 7.0771 12.32 7.0771-6.2875 4.6126-5.422 7.9389z" fill="#464353"/>
<path d="m33.933 130.69s11.797 16.997 20.038 11.479c8.2412-5.517-11.085-19.904-11.085-19.904l-8.9532 8.425z" fill="#000" opacity=".1"/>
<path d="m33.933 129.94s11.797 16.562 20.038 11.185c8.2412-5.376-11.085-19.393-11.085-19.393l-8.9532 8.208z" fill="#A1616A"/>
<path d="m90.969 138.96c0.9228-7.896 3.5994-19.761 1.417-23.36-1.0803-1.784-1.8806-5.185-2.4667-8.909-0.3149-2.003-0.5642-4.1-0.7654-6.09-0.5335-5.2806-0.7041-9.8016-0.7041-9.8016s-5.2482-22.957-4.2292-27.675c0.6385-2.9511-0.0962-10.346-0.7348-15.467l0.3368-0.2617 7.5443 9.724s4.2249 33.457 2.0381 36.747c-0.4373 0.682-1.0977 2.8009-1.8369 5.7349l4.1724-1.7158-0.8747 8.4376 2.6241 31.599-6.5209 1.038z" fill="#000" opacity=".1"/>
<path d="m84.024 42.012s7.4501 6.2442 10.285 6.3868c0 0-0.7649 3.457-3.9325 4.9003 0 0 7.7785 1.0285 10.661 0.5834 2.882-0.4451 7.921 0.2809 8.928 1.7285 1.006 1.4476 3.193 3.3058 4.922 3.591 1.728 0.2852 3.608 2.018 3.608 2.018l-12.683 18.724s-4.611 11.525-3.604 14.118c1.007 2.5928-0.147 17.142-0.938 17.859-0.791 0.718 1.37 29.675 5.259 29.675 0 0-10.656 7.203-13.828 5.042-3.1719-2.16 4.0362-25.495 0.8643-30.827-3.1719-5.333-3.8892-24.986-3.8892-24.986s-5.1857-23.123-4.1745-27.876-1.4779-20.936-1.4779-20.936z" fill="#464353"/>
<path d="m170.2 88.035c-3.851-1.1803-9.752-1.2143-10.841 8.9159-1.613-3.7447-2.624-6.9332-2.624-6.9332l11.827-4.9164s0.726 1.1378 1.638 2.9337z" fill="#000" opacity=".1"/>
<path d="m110.89 60.325 7.073 0.8594s2.163 2.8662 4.175 2.8662c2.011 0 3.603 2.5783 3.603 2.5783s2.886 1.5728 4.759 1.1431 9.66-1.1388 10.815 0.0773 8.652 2.3592 8.652 2.3592 2.885 4.439 5.481 4.439c2.595 0 17.014 10.459 17.446 14.181 0 0-14.275-9.024-14.418 10.816 0 0-6.056-5.3715-7.069-7.6618-1.012-2.2904-10.382-1.358-10.382-1.358s-6.342-2.7974-7.354-4.6581c-1.013-1.8607-6.922 2.9651-8.795 1.5513s-18.892-8.7705-18.892-8.7705l-5.264-9.8277 10.17-8.5943z" fill="#464353"/>
<path d="m78.638 78.1c0.5949 0 1.0772-0.6029 1.0772-1.3466 0-0.7436-0.4823-1.3465-1.0772-1.3465-0.595 0-1.0773 0.6029-1.0773 1.3465 0 0.7437 0.4823 1.3466 1.0773 1.3466z" fill="#3F3D56"/>
<path d="m77.292 103.42c0.7436 0 1.3465-0.603 1.3465-1.347s-0.6029-1.346-1.3465-1.346c-0.7437 0-1.3466 0.602-1.3466 1.346s0.6029 1.347 1.3466 1.347z" fill="#3F3D56"/>
<path d="m78.638 89.949c0.5949 0 1.0772-0.6029 1.0772-1.3466 0-0.7436-0.4823-1.3465-1.0772-1.3465-0.595 0-1.0773 0.6029-1.0773 1.3465 0 0.7437 0.4823 1.3466 1.0773 1.3466z" fill="#3F3D56"/>
<path d="m75.137 116.88c0.7437 0 1.3465-0.603 1.3465-1.346 0-0.744-0.6028-1.347-1.3465-1.347s-1.3466 0.603-1.3466 1.347c0 0.743 0.6029 1.346 1.3466 1.346z" fill="#3F3D56"/>
<path d="m36.626 276.23c-0.5931 1.655-2.4409 1.047-2.4409 1.047-5.8121-0.638-9.3327-16.269-7.8391-18.061 1.4936-1.791-0.9303-5.926-0.9303-5.926l-3.145 1.221-2.8805-8.824 1.8179-2.234c1.8094 3.127 4.3996 7.624 5.0099 8.773 1.1586 2.382 1.7084 5.013 1.6002 7.658-0.0981 2.766 3.1195 15.989 8.8078 16.346z" fill="#000" opacity=".1"/>
<path d="m88.32 26.676c-0.2935-0.097-0.5871-0.2108-0.8634-0.3246-0.9886-0.3919-2.029-0.8429-2.6291-1.6859-0.5482-0.784-0.7252-1.8883-1.58-2.335-0.9843-0.5142-2.1586 0.1812-3.2249 0.4215-1.2692 0.2908-2.5902-0.0548-3.8249-0.4974-1.8391-0.6617-4.4077-1.8798-6.2943-0.6196-1.4678 0.9779-0.8979 3.0516-1.2735 4.531-0.5828 2.2971-3.0824 3.7934-3.553 6.1158-0.2115 1.0242-0.0734 2.276-0.9238 2.9124-0.2482 0.1728-0.5305 0.2933-0.8289 0.3541-0.8336-1.6479-1.3016-3.449-1.3737-5.2856-0.072-1.8365 0.2536-3.6673 0.9556-5.3726s1.7647-3.2469 3.1185-4.524c1.3538-1.277 2.9683-2.2609 4.7381-2.8872 1.7698-0.6264 3.655-0.8812 5.5325-0.7478s3.7051 0.6521 5.3633 1.5221 3.1098 2.0717 4.2599 3.5267 1.9729 3.1306 2.4146 4.9172l-0.013-0.0211z" fill="#000" opacity=".1"/>
<path d="m75.822 21.078c1.22 0.457 2.5478 0.8138 3.8195 0.5092 1.082-0.2568 2.2331-0.9749 3.216-0.4352 0.8621 0.4656 1.0346 1.6015 1.5778 2.411 0.5992 0.8704 1.6381 1.3578 2.6296 1.7408 0.7393 0.3481 1.5301 0.5715 2.3409 0.6615 0.4058 0.0401 0.8152-0.0148 1.1965-0.1605s0.7242-0.3782 1.0021-0.6794c0.7673-0.9357 0.5345-2.3371 0.0776-3.4555-0.457-1.1185-1.1036-2.2326-1.0562-3.4425 0.056-1.4362 1.0863-2.6852 1.1726-4.117 0.112-1.8148-1.3407-3.3989-2.9875-4.1344-1.4744-0.65716-3.1599-0.83994-4.5093-1.7408-1.539-1.0184-2.3839-2.7853-3.522-4.2476-1.6554-2.1281-4.2463-3.7166-6.8975-3.412-1.6339 0.18714-3.1168 1.0488-4.7421 1.384-2.4701 0.51789-5.0826-0.23501-7.5398 0.34381-0.5937 0.09429-1.1363 0.39435-1.5347 0.84864-0.6035 0.81818-0.2932 1.9628-0.0259 2.9463 0.4785 1.7713 0.6812 3.7776-0.2716 5.3356-1.0777 1.7626-3.3668 2.5068-4.3627 4.3172-0.2879 0.5311-0.447 1.1236-0.4643 1.7288-0.0172 0.6052 0.1079 1.2059 0.3652 1.7528 0.4742 1.001 1.3924 1.8148 1.5347 2.9159 0.0991 0.7921-0.2242 1.5624-0.3923 2.337-0.1681 0.7747-0.1207 1.7408 0.513 2.1761 0.6337 0.4352 1.5218 0.3264 2.0089 0.8704 0.1474 0.216 0.2444 0.4629 0.284 0.7221s0.0206 0.5242-0.0555 0.775c-0.1725 0.8704-0.5389 1.6581-0.7329 2.5111-0.1244 0.4183-0.1591 0.8587-0.1019 1.2916 0.0572 0.433 0.2051 0.8487 0.4339 1.2195 0.8363 1.1402 2.5262 1.0706 3.8798 0.766 0.3907-0.0628 0.7631-0.2113 1.0907-0.4352 0.8622-0.6572 0.7113-1.9498 0.9225-3.0073 0.4699-2.3936 2.966-3.9473 3.5479-6.3148 0.3751-1.5276-0.194-3.6731 1.2718-4.6828 1.9054-1.2403 4.4747 0.0174 6.3112 0.7007z" fill="#464353"/>
<path d="m73.79 177.2s13.572 8.955 14.004 12.389l-14.004-12.389z" fill="#000" opacity=".1"/>
<path d="m73.252 184.21s15.362 7.602 14.508 10.234l-14.508-10.234z" fill="#000" opacity=".1"/>
<path d="m72.175 190.67s8.5945 4.733 9.1565 7.54l-9.1565-7.54z" fill="#000" opacity=".1"/>
<path d="m75.945 200.9s5.7398 5.488 6.8895 4.077c1.1497-1.41-6.8895-4.077-6.8895-4.077z" fill="#000" opacity=".1"/>
<path d="m67.866 204.14s4.974 7.605 2.5804 8.062c-2.3937 0.456-2.5804-8.062-2.5804-8.062z" fill="#000" opacity=".1"/>
<path d="m48.476 76.484s-7.8468 4.6336-5.4799 5.7941c2.3669 1.1606 5.4799-5.7941 5.4799-5.7941z" fill="#000" opacity=".1"/>
<path d="m48.476 59.787s-8.1671 13.856-4.3875 12.877c3.7795-0.9783 4.3875-12.877 4.3875-12.877z" fill="#000" opacity=".1"/>
<path d="m130.88 73.791s-5.128 5.5758-4.195 8.6179l4.195-8.6179z" fill="#000" opacity=".1"/>
<path d="m142.73 76.484s-6.825 6.7695-5.825 7.5406l5.825-7.5406z" fill="#000" opacity=".1"/>
<path d="m147.76 84.563s-0.593 4.1538 0.356 4.3089l-0.356-4.3089z" fill="#000" opacity=".1"/>
<path d="m69.837 172.15c-1.8559 2.341-1.8559 6.49-2.6944 8.192-0.4585 0.936-1.4803 2.554-2.31 3.864-0.2708-0.851-0.7948-1.357-1.6114-0.91-0.5371-3.903-1.4847-10.639-1.7904-11.997-0.4367-1.915 4.3669-7.022 4.3669-7.022s4.6943 0.958 5.8952 3.299c1.2009 2.34 0 2.238-1.8559 4.574z" fill="#000" opacity=".05"/>
<path d="m45.783 122.27c-5.208 0.717-14.899 14.543-14.899 14.543s-1.2717-1.841-3.038-4.411c-2.2221-3.263-5.208-7.709-7.378-11.079l12.716-13.057 2.3132 2.48s4.4876 4.464 4.4876 5.328c0 0.337 0.868 1.361 1.9703 2.48 1.6883 1.741 3.8279 3.716 3.8279 3.716z" fill="#000" opacity=".1"/>
<path d="m29.494 63.831c-0.1716-0.3694-0.3065-0.6432-0.4087-0.8127l5.28 0.3737 2.7993 18.478c-2.0883-5.067-6.1749-14.871-7.6706-18.039z" fill="#000" opacity=".1"/>
<path d="m40.935 119.46c-4.5137 4.555-10.859 10.94-12.842 12.806-0.2905 0.277-0.4884 0.457-0.5726 0.516-0.1793 0.123-0.379 0.211-0.5895 0.261-1.9831-2.954-4.8126-7.21-7.002-10.672l1.0105-1.058 11.478-11.97 1.4189 1.55s4.3536 4.409 4.3536 5.263c0 0.41 1.36 1.895 2.7453 3.304z" fill="#000" opacity=".1"/>
<path d="m35.145 63.45-6.4274-0.4315s-1.714 4.0261-3.1409 4.3153c-1.4269 0.2891-3.2866 3.5946-3.2866 3.5946s-5.5019 1.0097-5.262 2.7358c0.24 1.7261-8.4585 14.072-8.4585 14.072s-2.8581 5.9205-0.857 10.236c2.0011 4.3152 3.428 7.1932 3.8565 8.7732 0.4285 1.579 5.5019 8.488 5.459 9.782-0.0428 1.295 12.966 20.282 12.966 20.282s9.5683-13.809 14.71-14.529c0 0-5.7119-5.321-5.7119-6.184s-4.3964-5.321-4.3964-5.321l-5.5704-6.041s-1.8597-0.863 0-2.447-3.1409-5.1783-3.1409-5.1783-0.1457-2.5891 1.714-3.3098c1.8597-0.7206 4.285-5.4631 4.285-5.4631l6.7145-3.4521-3.4537-21.434z" fill="#464353"/>
<path d="m10.772 92.004s7.4031-1.6999 7.5388-0.6177c0.1358 1.0822-7.5388 0.6177-7.5388 0.6177z" fill="#000" opacity=".1"/>
<path d="m17.236 99.644s6.7503 0.8977 6.454 2.3597c-0.2964 1.462-6.454-2.3597-6.454-2.3597z" fill="#000" opacity=".1"/>
<path d="m22.622 75.406s6.1619 9.1826 7.002 7.2815l-7.002-7.2815z" fill="#000" opacity=".1"/>
<g fill="#000" opacity=".1">
<path d="m60.596 8.6707c0.0387-1.0451-0.0924-2.0895-0.3883-3.0926-0.1246-0.42425-0.2198-0.85662-0.2847-1.294-0.0553 0.73084 0.0417 1.4652 0.2847 2.1567 0.205 0.7282 0.3351 1.4754 0.3883 2.23z" opacity=".1"/>
<path d="m90.855 18.16c0.1683-1.294 1.0571-2.4715 1.1391-3.7957 0.0131-0.2203 0.0044-0.4414-0.0259-0.66-0.1683 1.3372-1.0959 2.5233-1.1477 3.882-0.0056 0.1919 6e-3 0.3839 0.0345 0.5737z" opacity=".1"/>
<path d="m91.8 24.414c-0.278 0.2985-0.6212 0.5289-1.0029 0.6733-0.3816 0.1444-0.7914 0.1988-1.1975 0.1591-0.8115-0.0892-1.6029-0.3107-2.3428-0.6556-0.9924-0.4011-2.0322-0.8627-2.6319-1.7253-0.548-0.8023-0.7249-1.9281-1.5792-2.3896-0.9837-0.5262-2.1573 0.1855-3.223 0.4313-1.2684 0.3019-2.5887-0.0517-3.8184-0.5046-1.838-0.6772-4.4095-1.9238-6.2949-0.6384-1.467 1.0007-0.8975 3.1271-1.2728 4.6411-0.5825 2.3465-3.0807 3.882-3.5509 6.2587-0.2115 1.0481-0.0734 2.3292-0.9234 2.9805-0.3291 0.2226-0.7033 0.3699-1.0959 0.4313-1.372 0.3019-3.0633 0.371-3.8831-0.7591-0.2369-0.323-0.3855-0.7021-0.4315-1.0999-0.1114 0.6852 0.0429 1.3871 0.4315 1.9625 0.837 1.1301 2.5283 1.0611 3.8831 0.7592 0.3926-0.0615 0.7668-0.2087 1.0959-0.4314 0.8629-0.6513 0.7119-1.9323 0.9234-2.9805 0.4702-2.3723 2.9684-3.9122 3.5509-6.2586 0.3753-1.514-0.1942-3.6405 1.2728-4.6411 1.8854-1.294 4.4569-0.0389 6.2949 0.6383 1.2211 0.4529 2.55 0.8066 3.8184 0.5047 1.0873-0.2545 2.2393-0.9662 3.223-0.4314 0.863 0.4616 1.0312 1.5874 1.5792 2.3896 0.5997 0.8627 1.6395 1.3458 2.6319 1.7254 0.7399 0.3449 1.5313 0.5664 2.3428 0.6556 0.4061 0.0397 0.8159-0.0147 1.1975-0.1591 0.3817-0.1444 0.7249-0.3748 1.0029-0.6734 0.2094-0.2803 0.3589-0.6008 0.4391-0.9414 0.0801-0.3406 0.0893-0.6941 0.0269-1.0384-0.0455 0.4092-0.2072 0.7969-0.466 1.1172z" opacity=".1"/>
<path d="m57.007 21.468c-0.1424-1.0913-1.0614-1.8979-1.536-2.8899-0.1783-0.3736-0.2921-0.7746-0.3365-1.1862-0.0826 0.701 0.0341 1.4111 0.3365 2.0488 0.4617 0.9619 1.3332 1.7556 1.5144 2.7951 0.0439-0.2536 0.0512-0.5122 0.0216-0.7678z" opacity=".1"/>
<path d="m59.406 28.206c0.0617-0.232 0.0716-0.4748 0.0291-0.711-0.0425-0.2363-0.1364-0.4603-0.275-0.6563-0.4876-0.5565-1.4152-0.4314-2.0106-0.8627-0.1579-0.1248-0.2893-0.2799-0.3863-0.4562-0.0971-0.1763-0.1579-0.3702-0.1789-0.5704-0.095 0.7031 0 1.4795 0.5652 1.8893 0.5652 0.4097 1.523 0.3235 2.0106 0.8626 0.1215 0.146 0.2058 0.3191 0.2459 0.5047z" opacity=".1"/>
</g>
<defs>
<linearGradient id="a" x1="90.28" x2="90.28" y1="277.43" y2="-.014652" gradientUnits="userSpaceOnUse">
<stop stop-color="#808080" stop-opacity=".25" offset="0"/>
<stop stop-color="#808080" stop-opacity=".12" offset=".54"/>
<stop stop-color="#808080" stop-opacity=".1" offset="1"/>
</linearGradient>
</defs>
</svg>
