<?xml version="1.0" encoding="UTF-8"?>
<svg fill="none" viewBox="0 0 160 160" xmlns="http://www.w3.org/2000/svg">
<mask id="a" x="0" y="0" width="160" height="160" mask-type="alpha" maskUnits="userSpaceOnUse">
<circle cx="80" cy="80" r="79.5" fill="#C4C4C4" stroke="#000"/>
</mask>
<g mask="url(#a)">
<path d="m228.28 102.85c3e-3 4.353-0.595 8.686-1.779 12.876-1.144 4.039-2.827 7.905-5.003 11.495 0 13.006-8.781 24.247-21.527 29.595-5.327 2.212-11.04 3.342-16.807 3.323h-195.53c-10.451 0-20.136-2.819-28.078-7.622-2.2731-1.368-4.4294-2.922-6.447-4.644-8.828-7.586-14.301-18.069-14.301-29.647-4.9545-7.628-7.5816-16.533-7.5609-25.628 0-19.045 11.266-35.42 27.406-42.65 2.1432-0.9596 4.3577-1.7512 6.6236-2.3676 0.8015-0.218 1.6116-0.4136 2.4303-0.5867 2.1826-0.4647 4.3964-0.7684 6.6236-0.9086 0.8049-0.0502 1.6141-0.0787 2.4277-0.0857h0.4466c0.8983 0 1.7889 0.0312 2.6743 0.0831l0.2908-0.4932c0.3566-0.5954 0.7219-1.1847 1.0957-1.7679 0.6751-1.0627 1.3831-2.1097 2.124-3.1412 0.7754-1.0886 1.5847-2.1599 2.4276-3.2139l0.2156-0.2596c0.4777-0.5954 0.9658-1.1838 1.4644-1.7653 1.5578-1.8155 3.2023-3.5765 4.9332-5.283 18.723-18.349 48.055-30.161 81.03-30.161 25.658 0 49.112 7.1521 67.077 18.969 6.806-3.8508 14.494-5.8714 22.314-5.8645 25.378 0 45.957 20.864 45.957 46.602-3e-3 1.6284-0.09 3.2557-0.259 4.8753 6.117 4.3297 11.103 10.067 14.538 16.728 3.434 6.6607 5.216 14.05 5.195 21.544z" fill="#03C6AF" opacity=".1"/>
<path d="m1.4869 28.81h-6.6236v6.6225h6.6236v-6.6225z" fill="#03C6AF" opacity=".2"/>
<path d="m10.54 28.81h-6.6236v6.6225h6.6236v-6.6225z" fill="#03C6AF" opacity=".2"/>
<path d="m19.592 28.81h-6.6235v6.6225h6.6235v-6.6225z" fill="#03C6AF" opacity=".2"/>
<path d="m28.645 28.81h-6.6236v6.6225h6.6236v-6.6225z" fill="#03C6AF" opacity=".2"/>
<path d="m37.698 28.81h-6.6236v6.6225h6.6236v-6.6225z" fill="#03C6AF" opacity=".2"/>
<path d="m46.75 28.81h-6.6235v6.6225h6.6235v-6.6225z" fill="#03C6AF"/>
<path d="m55.803 28.81h-6.6236v6.6225h6.6236v-6.6225z" fill="#03C6AF" opacity=".2"/>
<path d="m64.856 28.81h-6.6236v6.6225h6.6236v-6.6225z" fill="#03C6AF" opacity=".2"/>
<path d="m73.909 28.81h-6.6235v6.6225h6.6235v-6.6225z" fill="#03C6AF" opacity=".2"/>
<path d="m82.962 28.81h-6.6236v6.6225h6.6236v-6.6225z" fill="#03C6AF"/>
<path d="m92.014 28.81h-6.6236v6.6225h6.6236v-6.6225z" fill="#03C6AF" opacity=".2"/>
<path d="m101.07 28.81h-6.6236v6.6225h6.6236v-6.6225z" fill="#03C6AF" opacity=".2"/>
<path d="m110.12 28.81h-6.624v6.6225h6.624v-6.6225z" fill="#03C6AF" opacity=".2"/>
<path d="m119.17 28.81h-6.623v6.6225h6.623v-6.6225z" fill="#03C6AF" opacity=".2"/>
<path d="m128.22 28.81h-6.623v6.6225h6.623v-6.6225z" fill="#03C6AF" opacity=".2"/>
<path d="m137.28 28.81h-6.624v6.6225h6.624v-6.6225z" fill="#03C6AF" opacity=".2"/>
<path d="m146.33 28.81h-6.624v6.6225h6.624v-6.6225z" fill="#03C6AF"/>
<path d="m155.38 28.81h-6.623v6.6225h6.623v-6.6225z" fill="#03C6AF"/>
<path d="m164.44 28.81h-6.624v6.6225h6.624v-6.6225z" fill="#03C6AF" opacity=".2"/>
<path d="m1.4869 37.199h-6.6236v6.6225h6.6236v-6.6225z" fill="#03C6AF"/>
<path d="m10.54 37.199h-6.6236v6.6225h6.6236v-6.6225z" fill="#03C6AF" opacity=".2"/>
<path d="m19.592 37.199h-6.6235v6.6225h6.6235v-6.6225z" fill="#03C6AF" opacity=".7"/>
<path d="m28.645 37.199h-6.6236v6.6225h6.6236v-6.6225z" fill="#03C6AF" opacity=".2"/>
<path d="m37.698 37.199h-6.6236v6.6225h6.6236v-6.6225z" fill="#03C6AF" opacity=".4"/>
<path d="m46.75 37.199h-6.6235v6.6225h6.6235v-6.6225z" fill="#03C6AF"/>
<path d="m55.803 37.199h-6.6236v6.6225h6.6236v-6.6225z" fill="#03C6AF" opacity=".4"/>
<path d="m64.856 37.199h-6.6236v6.6225h6.6236v-6.6225z" fill="#03C6AF" opacity=".2"/>
<path d="m73.909 37.199h-6.6235v6.6225h6.6235v-6.6225z" fill="#03C6AF" opacity=".4"/>
<path d="m82.962 37.199h-6.6236v6.6225h6.6236v-6.6225z" fill="#03C6AF"/>
<path d="m92.014 37.199h-6.6236v6.6225h6.6236v-6.6225z" fill="#03C6AF" opacity=".4"/>
<path d="m101.07 37.199h-6.6236v6.6225h6.6236v-6.6225z" fill="#03C6AF" opacity=".4"/>
<path d="m110.12 37.199h-6.624v6.6225h6.624v-6.6225z" fill="#03C6AF" opacity=".2"/>
<path d="m119.17 37.199h-6.623v6.6225h6.623v-6.6225z" fill="#03C6AF" opacity=".4"/>
<path d="m128.22 37.199h-6.623v6.6225h6.623v-6.6225z" fill="#03C6AF" opacity=".4"/>
<path d="m137.28 37.199h-6.624v6.6225h6.624v-6.6225z" fill="#03C6AF" opacity=".2"/>
<path d="m146.33 37.199h-6.624v6.6225h6.624v-6.6225z" fill="#03C6AF" opacity=".2"/>
<path d="m155.38 37.199h-6.623v6.6225h6.623v-6.6225z" fill="#03C6AF" opacity=".4"/>
<path d="m164.44 37.199h-6.624v6.6225h6.624v-6.6225z" fill="#03C6AF" opacity=".2"/>
<path d="m1.4869 45.589h-6.6236v6.6225h6.6236v-6.6225z" fill="#03C6AF"/>
<path d="m10.54 45.589h-6.6236v6.6225h6.6236v-6.6225z" fill="#03C6AF" opacity=".7"/>
<path d="m19.592 45.589h-6.6235v6.6225h6.6235v-6.6225z" fill="#03C6AF" opacity=".7"/>
<path d="m28.645 45.589h-6.6236v6.6225h6.6236v-6.6225z" fill="#03C6AF" opacity=".2"/>
<path d="m37.698 45.589h-6.6236v6.6225h6.6236v-6.6225z" fill="#03C6AF" opacity=".4"/>
<path d="m46.75 45.589h-6.6235v6.6225h6.6235v-6.6225z" fill="#03C6AF" opacity=".4"/>
<path d="m55.803 45.589h-6.6236v6.6225h6.6236v-6.6225z" fill="#03C6AF"/>
<path d="m64.856 45.589h-6.6236v6.6225h6.6236v-6.6225z" fill="#03C6AF" opacity=".2"/>
<path d="m73.909 45.589h-6.6235v6.6225h6.6235v-6.6225z" fill="#03C6AF" opacity=".4"/>
<path d="m82.962 45.589h-6.6236v6.6225h6.6236v-6.6225z" fill="#03C6AF"/>
<path d="m92.014 45.589h-6.6236v6.6225h6.6236v-6.6225z" fill="#03C6AF" opacity=".2"/>
<path d="m101.07 45.589h-6.6236v6.6225h6.6236v-6.6225z" fill="#03C6AF" opacity=".4"/>
<path d="m110.12 45.589h-6.624v6.6225h6.624v-6.6225z" fill="#03C6AF" opacity=".2"/>
<path d="m119.17 45.589h-6.623v6.6225h6.623v-6.6225z" fill="#03C6AF"/>
<path d="m128.22 45.589h-6.623v6.6225h6.623v-6.6225z" fill="#03C6AF" opacity=".2"/>
<path d="m137.28 45.589h-6.624v6.6225h6.624v-6.6225z" fill="#03C6AF" opacity=".7"/>
<path d="m146.33 45.589h-6.624v6.6225h6.624v-6.6225z" fill="#03C6AF" opacity=".7"/>
<path d="m155.38 45.589h-6.623v6.6225h6.623v-6.6225z" fill="#03C6AF" opacity=".4"/>
<path d="m164.44 45.589h-6.624v6.6225h6.624v-6.6225z" fill="#03C6AF" opacity=".2"/>
<path d="m1.4869 53.977h-6.6236v6.6224h6.6236v-6.6224z" fill="#03C6AF"/>
<path d="m10.54 53.977h-6.6236v6.6224h6.6236v-6.6224z" fill="#03C6AF" opacity=".7"/>
<path d="m19.592 53.977h-6.6235v6.6224h6.6235v-6.6224z" fill="#03C6AF" opacity=".7"/>
<path d="m28.645 53.977h-6.6236v6.6224h6.6236v-6.6224z" fill="#03C6AF" opacity=".2"/>
<path d="m37.698 53.977h-6.6236v6.6224h6.6236v-6.6224z" fill="#03C6AF" opacity=".2"/>
<path d="m46.75 53.977h-6.6235v6.6224h6.6235v-6.6224z" fill="#03C6AF" opacity=".4"/>
<path d="m55.803 53.977h-6.6236v6.6224h6.6236v-6.6224z" fill="#03C6AF" opacity=".4"/>
<path d="m64.856 53.977h-6.6236v6.6224h6.6236v-6.6224z" fill="#03C6AF"/>
<path d="m73.909 53.977h-6.6235v6.6224h6.6235v-6.6224z" fill="#03C6AF" opacity=".2"/>
<path d="m82.962 53.977h-6.6236v6.6224h6.6236v-6.6224z" fill="#03C6AF" opacity=".4"/>
<path d="m92.014 53.977h-6.6236v6.6224h6.6236v-6.6224z" fill="#03C6AF" opacity=".4"/>
<path d="m101.07 53.977h-6.6236v6.6224h6.6236v-6.6224z" fill="#03C6AF" opacity=".4"/>
<path d="m110.12 53.977h-6.624v6.6224h6.624v-6.6224z" fill="#03C6AF" opacity=".4"/>
<path d="m119.17 53.977h-6.623v6.6224h6.623v-6.6224z" fill="#03C6AF" opacity=".2"/>
<path d="m128.22 53.977h-6.623v6.6224h6.623v-6.6224z" fill="#03C6AF" opacity=".2"/>
<path d="m137.28 53.977h-6.624v6.6224h6.624v-6.6224z" fill="#03C6AF" opacity=".2"/>
<path d="m146.33 53.977h-6.624v6.6224h6.624v-6.6224z" fill="#03C6AF" opacity=".2"/>
<path d="m155.38 53.977h-6.623v6.6224h6.623v-6.6224z" fill="#03C6AF" opacity=".7"/>
<path d="m164.44 53.977h-6.624v6.6224h6.624v-6.6224z" fill="#03C6AF" opacity=".7"/>
<path d="m1.4869 62.368h-6.6236v6.6225h6.6236v-6.6225z" fill="#03C6AF" opacity=".2"/>
<path d="m10.54 62.368h-6.6236v6.6225h6.6236v-6.6225z" fill="#03C6AF" opacity=".7"/>
<path d="m19.592 62.368h-6.6235v6.6225h6.6235v-6.6225z" fill="#03C6AF" opacity=".7"/>
<path d="m28.645 62.368h-6.6236v6.6225h6.6236v-6.6225z" fill="#03C6AF" opacity=".2"/>
<path d="m37.698 62.368h-6.6236v6.6225h6.6236v-6.6225z" fill="#03C6AF" opacity=".2"/>
<path d="m46.75 62.368h-6.6235v6.6225h6.6235v-6.6225z" fill="#03C6AF" opacity=".4"/>
<path d="m55.803 62.368h-6.6236v6.6225h6.6236v-6.6225z" fill="#03C6AF"/>
<path d="m64.856 62.368h-6.6236v6.6225h6.6236v-6.6225z" fill="#03C6AF" opacity=".2"/>
<path d="m73.909 62.368h-6.6235v6.6225h6.6235v-6.6225z" fill="#03C6AF"/>
<path d="m82.962 62.368h-6.6236v6.6225h6.6236v-6.6225z" fill="#03C6AF"/>
<path d="m92.014 62.368h-6.6236v6.6225h6.6236v-6.6225z" fill="#03C6AF"/>
<path d="m101.07 62.368h-6.6236v6.6225h6.6236v-6.6225z" fill="#03C6AF" opacity=".2"/>
<path d="m110.12 62.368h-6.624v6.6225h6.624v-6.6225z" fill="#03C6AF"/>
<path d="m119.17 62.368h-6.623v6.6225h6.623v-6.6225z" fill="#03C6AF" opacity=".2"/>
<path d="m128.22 62.368h-6.623v6.6225h6.623v-6.6225z" fill="#03C6AF" opacity=".2"/>
<path d="m137.28 62.368h-6.624v6.6225h6.624v-6.6225z" fill="#03C6AF" opacity=".2"/>
<path d="m146.33 62.368h-6.624v6.6225h6.624v-6.6225z" fill="#03C6AF" opacity=".2"/>
<path d="m155.38 62.368h-6.623v6.6225h6.623v-6.6225z" fill="#03C6AF" opacity=".2"/>
<path d="m164.44 62.368h-6.624v6.6225h6.624v-6.6225z" fill="#03C6AF" opacity=".7"/>
<path d="m1.4869 70.755h-6.6236v6.6225h6.6236v-6.6225z" fill="#03C6AF" opacity=".2"/>
<path d="m10.54 70.755h-6.6236v6.6225h6.6236v-6.6225z" fill="#03C6AF" opacity=".2"/>
<path d="m19.592 70.755h-6.6235v6.6225h6.6235v-6.6225z" fill="#03C6AF" opacity=".7"/>
<path d="m28.645 70.755h-6.6236v6.6225h6.6236v-6.6225z" fill="#03C6AF" opacity=".2"/>
<path d="m37.698 70.755h-6.6236v6.6225h6.6236v-6.6225z" fill="#03C6AF" opacity=".2"/>
<path d="m46.75 70.755h-6.6235v6.6225h6.6235v-6.6225z" fill="#03C6AF" opacity=".2"/>
<path d="m55.803 70.755h-6.6236v6.6225h6.6236v-6.6225z" fill="#03C6AF"/>
<path d="m64.856 70.755h-6.6236v6.6225h6.6236v-6.6225z" fill="#03C6AF" opacity=".2"/>
<path d="m73.909 70.755h-6.6235v6.6225h6.6235v-6.6225z" fill="#03C6AF"/>
<path d="m82.962 70.755h-6.6236v6.6225h6.6236v-6.6225z" fill="#03C6AF"/>
<path d="m92.014 70.755h-6.6236v6.6225h6.6236v-6.6225z" fill="#03C6AF" opacity=".2"/>
<path d="m101.07 70.755h-6.6236v6.6225h6.6236v-6.6225z" fill="#03C6AF" opacity=".2"/>
<path d="m110.12 70.755h-6.624v6.6225h6.624v-6.6225z" fill="#03C6AF" opacity=".2"/>
<path d="m119.17 70.755h-6.623v6.6225h6.623v-6.6225z" fill="#03C6AF" opacity=".2"/>
<path d="m128.22 70.755h-6.623v6.6225h6.623v-6.6225z" fill="#03C6AF" opacity=".2"/>
<path d="m137.28 70.755h-6.624v6.6225h6.624v-6.6225z" fill="#03C6AF" opacity=".2"/>
<path d="m146.33 70.755h-6.624v6.6225h6.624v-6.6225z" fill="#03C6AF" opacity=".2"/>
<path d="m155.38 70.755h-6.623v6.6225h6.623v-6.6225z" fill="#03C6AF" opacity=".2"/>
<path d="m164.44 70.755h-6.624v6.6225h6.624v-6.6225z" fill="#03C6AF" opacity=".2"/>
<path d="m1.4869 79.146h-6.6236v6.6225h6.6236v-6.6225z" fill="#03C6AF" opacity=".7"/>
<path d="m10.54 79.146h-6.6236v6.6225h6.6236v-6.6225z" fill="#03C6AF" opacity=".2"/>
<path d="m19.592 79.146h-6.6235v6.6225h6.6235v-6.6225z" fill="#03C6AF" opacity=".2"/>
<path d="m28.645 79.146h-6.6236v6.6225h6.6236v-6.6225z" fill="#03C6AF" opacity=".2"/>
<path d="m37.698 79.146h-6.6236v6.6225h6.6236v-6.6225z" fill="#03C6AF" opacity=".2"/>
<path d="m46.75 79.146h-6.6235v6.6225h6.6235v-6.6225z" fill="#03C6AF" opacity=".2"/>
<path d="m55.803 79.146h-6.6236v6.6225h6.6236v-6.6225z" fill="#03C6AF" opacity=".2"/>
<path d="m64.856 79.146h-6.6236v6.6225h6.6236v-6.6225z" fill="#03C6AF"/>
<path d="m73.909 79.146h-6.6235v6.6225h6.6235v-6.6225z" fill="#03C6AF" opacity=".2"/>
<path d="m82.962 79.146h-6.6236v6.6225h6.6236v-6.6225z" fill="#03C6AF" opacity=".2"/>
<path d="m92.014 79.146h-6.6236v6.6225h6.6236v-6.6225z" fill="#03C6AF" opacity=".2"/>
<path d="m101.07 79.146h-6.6236v6.6225h6.6236v-6.6225z" fill="#03C6AF"/>
<path d="m110.12 79.146h-6.624v6.6225h6.624v-6.6225z" fill="#03C6AF" opacity=".2"/>
<path d="m119.17 79.146h-6.623v6.6225h6.623v-6.6225z" fill="#03C6AF" opacity=".2"/>
<path d="m128.22 79.146h-6.623v6.6225h6.623v-6.6225z" fill="#03C6AF" opacity=".2"/>
<path d="m137.28 79.146h-6.624v6.6225h6.624v-6.6225z" fill="#03C6AF" opacity=".2"/>
<path d="m146.33 79.146h-6.624v6.6225h6.624v-6.6225z" fill="#03C6AF" opacity=".2"/>
<path d="m155.38 79.146h-6.623v6.6225h6.623v-6.6225z" fill="#03C6AF" opacity=".2"/>
<path d="m164.44 79.146h-6.624v6.6225h6.624v-6.6225z" fill="#03C6AF" opacity=".2"/>
<path d="m121.96 103.51c5 0 9.054-4.0528 9.054-9.0523s-4.054-9.0524-9.054-9.0524-9.054 4.0529-9.054 9.0524 4.054 9.0523 9.054 9.0523z" fill="#767D9F"/>
<path d="m121.49 82.941c0.903 3.9425 1.67 7.9145 2.3 11.916 0.19 1.189 0.358 2.4429-0.073 3.567-0.36 0.9372-1.095 1.669-1.672 2.49-0.576 0.82-1.012 1.871-0.662 2.811 0.351 0.94 1.374 1.454 2.35 1.719 2.794 0.753 5.772 0.205 8.553-0.61 1.259-0.324 2.466-0.824 3.586-1.485 1.178-0.748 2.144-1.786 3.032-2.856 4.053-4.9143 6.707-10.812 9.205-16.674-1.605 0.146-3.222-0.0919-4.717-0.6941-1.495-0.6021-2.825-1.5513-3.88-2.7691-1.023-1.2019-1.774-2.8764-1.197-4.3457-1.69 0.9268-3.698 0.9891-5.518 1.6225-1.128 0.431-2.215 0.9655-3.245 1.5966-1.243 0.7182-2.479 1.4503-3.708 2.1962-1.405 0.8463-2.721 1.5992-4.354 1.5161z" fill="#AE6E79"/>
<path d="m140.42 89.737c-1.587 3.0867-3.651 6.054-6.598 7.892s-6.914 2.3364-9.867 0.5192c-1.454-0.8878-2.554-2.2378-3.824-3.3748-1.27-1.1371-2.856-2.1106-4.562-1.9626-1.88 0.1635-3.352 1.6303-4.611 3.0347-1.911 2.134-3.758 4.3591-5.11 6.8851-2.597 4.854-3.212 10.529-3.098 16.033 0.114 5.503 0.911 10.978 0.93 16.482 0.026 6.771-1.122 13.486-2.283 20.156 10.672-1.314 21.356 1.557 32.051 2.645 6.844 0.704 13.741 0.688 20.621 0.67 1.21 0 2.498-0.031 3.506-0.701 0.615-0.449 1.113-1.041 1.451-1.724 0.95-1.752 1.332-3.751 1.597-5.727 0.672-4.989 0.693-10.041 0.711-15.078 0.047-12.201 0.091-24.446-1.459-36.552-0.382-2.9777-0.87-5.9709-2.012-8.7564-1.143-2.7856-3.007-5.3479-5.614-6.8406-1.675-0.9605-5.556-2.6324-7.53-1.6641-2.214 1.08-3.237 5.9969-4.299 8.0633z" fill="#767D9F"/>
<path d="m141.22 124.19c-0.403-7.528-2.041-15.563 1.446-22.245 0.857-1.641-2.217-3.6894-1.267-5.2782 1.16-1.9371 2.039-4.0286 2.612-6.2123 0.197-0.7503 0.356-1.5447 0.169-2.2975-0.345-1.3733-1.703-2.1911-2.856-3.027-1.273-0.9242-1.927-3.7409-2.337-5.2648-0.41-1.5238 3.264 0.3116 4.741-0.231 2.051-0.7503 4.658-0.2778 6.704 0.4828 1.143 0.4206 2.384 0.4569 3.601 0.4881 2.366 0.0623 4.739 0.122 7.086-0.1687 1.054-0.1324 2.111-0.3323 3.171-0.2726 2.702 0.1531 5.052 2.0015 6.652 4.1874 1.599 2.1859 2.617 4.7326 3.928 7.1002 1.093 1.973 2.397 3.8369 3.329 5.8904 0.825 1.8172 1.347 3.7692 1.864 5.7112l1.332 4.982c0.233 0.713 0.344 1.46 0.327 2.209-0.067 0.797-0.42 1.54-0.779 2.248-1.355 2.627-2.979 5.106-4.847 7.396-2.802 3.435-6.203 6.532-7.868 10.644-0.649 1.602-1.01 3.305-1.339 5.003-1.33 6.79-2.275 13.65-2.831 20.547-3.033-1.403-6.214-2.466-9.482-3.169-1.629-0.349-3.276-0.609-4.933-0.779-1.452-0.151-3.324 0.135-4.705-0.26-2.311-0.657-2.565-4.564-2.916-6.609-0.561-3.258-0.672-6.573-0.693-9.865-0.026-3.744 0.091-7.479-0.109-11.21z" fill="#4C4981"/>
<path d="m90.465 110.11c1.0931 6.23 2.2979 12.479 4.6737 18.333-0.0598 0.057-0.1195 0.109-0.1792 0.161-0.2103 0.179-0.4284 0.348-0.6569 0.519-0.5323 0.374-1.1165 0.691-1.5579 1.179-0.1671 0.186-0.2991 0.402-0.3894 0.636-0.0816 0.182-0.1238 0.38-0.1238 0.58s0.0422 0.397 0.1238 0.58c-1.2386 0.548-2.677 0.379-4.0661 0.327-1.197-0.044-2.3576 0-3.3183 0.657-1.3346 0.919-1.737 2.684-1.9525 4.289-0.0797 0.585-0.148 1.17-0.2052 1.757-0.0553 0.545-0.1004 1.092-0.135 1.641-0.1177 1.815-0.1341 3.635-0.0493 5.452 0.0138 0.332 0.032 0.664 0.0545 0.996-4.2426-0.101-8.1087-2.313-11.767-4.462-0.836-0.491-1.698-1.007-2.2407-1.817-0.5-0.796-0.7118-1.739-0.5998-2.672 0-0.132 0.0234-0.259 0.0415-0.394 0.1163-0.771 0.3157-1.526 0.5946-2.254 1.1446-3.098 2.8318-5.968 4.9827-8.476 0.9295-1.085 1.9759-2.147 2.4095-3.51 0.1895-0.594 0.2596-1.225 0.4518-1.817 0.862-2.565 3.9726-3.777 5.0371-6.267 0.2597-0.594 0.3791-1.246 0.7011-1.817 0.2898-0.475 0.6637-0.893 1.1035-1.233 0.1895-0.158 0.3868-0.312 0.5816-0.465 1.8244-1.429 3.5822-2.939 5.2734-4.53 0.315-0.296 0.6266-0.595 0.9347-0.898-0.0411 1.175 0.0521 2.351 0.2778 3.505z" fill="#4C4981"/>
<path d="m116.63 91.687c-0.374 0.3946-0.779 0.7659-1.177 1.1345l-0.106 0.0961-0.421 0.3894c-0.763 0.6588-1.424 1.4279-1.96 2.2819l-0.044 0.0727c-1.324 2.3702-0.834 5.2883-0.465 7.9803 0.457 3.355 0.663 6.739 0.615 10.124-0.067 4.673-0.617 9.315-0.628 13.983 0 1.059 0.023 2.116 0.07 3.175 0.076 1.721 0.205 3.439 0.361 5.158 0.169 1.885 0.371 3.767 0.561 5.649 0.151 1.456 0.293 2.91 0.413 4.364 0.06 0.753 0.117 1.503 0.163 2.256 0.055 0.883 0.099 1.768 0.125 2.651 0.018 0.56 0.029 1.118 0.029 1.679v0.953c0 0.607-0.017 1.213-0.05 1.817-0.034 0.777-0.087 1.556-0.158 2.337-0.081 0.848-0.223 1.775-0.821 2.372-0.036 0.037-0.075 0.07-0.114 0.104l-0.841-0.104c-5.799-0.694-11.654-0.798-17.474-0.311 0.1272-0.878 0.244-1.753 0.3583-2.633 0.0519-0.415 0.1038-0.833 0.1532-1.251 0.0571-0.478 0.1116-0.955 0.1635-1.433 0.0598-0.519 0.1143-1.038 0.1662-1.557 0.135-1.338 0.2536-2.677 0.3557-4.017 0.1506-1.954 0.2649-3.911 0.3428-5.872 0.038-0.936 0.0675-1.873 0.0882-2.811 0.0295-1.163 0.0433-2.327 0.0416-3.492 0-1.132-0.0095-2.265-0.0286-3.401 0-0.374-0.0156-0.747-0.0467-1.119-0.0224-0.334-0.0684-0.666-0.1376-0.994-0.1928-0.756-0.4535-1.493-0.779-2.201-0.0571-0.135-0.1116-0.26-0.1661-0.403-0.0312-0.07-0.0598-0.143-0.0883-0.213 1.4955-1.331 2.5601-3.115 3.5831-4.87 1.659-2.827 3.357-5.779 3.635-9.044 0.278-3.266-1.345-6.935-4.4659-7.931-0.849-0.26-1.7474-0.333-2.6224-0.486-0.8257-0.145-2.5471-0.475-3.5026-1.067-0.5193 0.533-1.0386 1.057-1.5579 1.571 0.0315-0.785 0.2232-1.554 0.5634-2.261l0.3687 0.018c-0.03-0.083-0.0441-0.171-0.0415-0.26 0-0.278 0.1921-0.592 0.6024-0.94 1.2229-1.038 3.1469-1.269 3.918-2.674 0.322-0.5836 0.3765-1.2794 0.6362-1.892 0.7451-1.7472 2.8846-2.391 4.1726-3.7876 1.288-1.3967 1.61-3.3749 2.651-4.9325 0.778-1.1375 1.856-2.0363 3.116-2.5961 0.103-0.0493 0.21-0.0986 0.316-0.1428 2.155-0.9215 4.716-1.1318 6.949-1.1266 0.867 0 3.115 0.0259 4.216 0.4647 0.179 0.0637 0.342 0.1636 0.481 0.2933 1.173 1.2773-0.652 3.9746-1.519 4.8987z" fill="#4C4981"/>
<path d="m90.852 104.18c2.0057-0.604 4.1115-0.803 6.1949-0.586s4.1032 0.846 5.9412 1.85c1.869 1.038 3.547 2.487 4.575 4.356 1.545 2.804 1.477 6.184 1.368 9.385-0.054 1.602-0.125 3.26-0.831 4.699-0.818 1.664-2.36 2.806-3.933 3.74-0.986 0.629-2.066 1.096-3.199 1.384-1.7451 0.379-3.5574 0.057-5.3152-0.259-1.911-0.353-3.9622-0.779-5.289-2.202-0.779-0.825-1.2048-1.898-1.6254-2.946-0.6041-1.515-1.21-3.027-1.8175-4.538-1.0516-2.625-1.4073-4.808-0.0182-7.365 0.6309-1.166 1.4021-2.256 2.0252-3.43 0.3116-0.597 1.4281-3.935 1.924-4.088z" fill="#4C4981"/>
<path d="m199.98 149.06v7.762c-5.327 2.212-11.04 3.342-16.807 3.323h-70.024c-0.037 0.036-0.076 0.07-0.115 0.104l-0.841-0.104h-124.56c-10.451 0-20.136-2.819-28.078-7.622v-11.851l59.906-6.913h0.0467l34.886 2.954 9.0279 0.779 4.6892 0.397 9.7056 0.823 4.993 0.423 7.2701 0.618 1.023 0.086 5.2396 0.444 7.1094 0.584 9.996 0.846 16.664 1.415 11.723 0.994 19.251 1.633 3.661 0.309 0.394 0.034 0.343 0.028 10.142 0.862 0.615 0.052 23.74 2.02z" fill="#504F60"/>
<path d="m129.62 148.77-75.074-12.811-2.9106 14.717 34.414 4.12 10.596 1.326 29.148-5.74 3.827-1.612z" fill="#9C9CA1"/>
<path d="m107.07 133.16c1.171-0.109 2.358-0.293 3.412-0.813 1.298-0.646 2.308-1.76 3.511-2.58 2.643-1.817 6.179-2.061 9.209-1.018 3.03 1.044 5.559 3.279 7.33 5.948 1.176 1.778 2.059 4.047 1.228 6.01-0.285 0.6-0.644 1.161-1.07 1.672l-2.165 2.829c-0.411 0.595-0.906 1.128-1.47 1.581-0.81 0.59-1.817 0.831-2.809 0.976-2.635 0.385-5.318 0.167-7.974 0.343-4.562 0.304-9.017 1.773-13.59 1.724-2.627-0.029-5.2211-0.558-7.789-1.088l-11.365-2.336c-1.9785-0.405-4.214-0.997-5.1461-2.791-0.4181-0.807-0.496-1.742-0.5453-2.651-0.135-2.502 0-5.285 1.7344-7.089 1.6306-1.693 4.2089-2.228 6.1562-3.479 2.3836-1.534 3.1703-1.039 5.6837 0.114 4.9034 2.22 10.298 3.133 15.659 2.648z" fill="#AE6E79"/>
<path d="m107.07 133.16c1.171-0.109 2.358-0.293 3.412-0.813 1.298-0.646 2.308-1.76 3.511-2.58 2.643-1.817 6.179-2.061 9.209-1.018 3.03 1.044 5.559 3.279 7.33 5.948 1.176 1.778 2.059 4.047 1.228 6.01-0.285 0.6-0.644 1.161-1.07 1.672l-2.165 2.829c-0.411 0.595-0.906 1.128-1.47 1.581-0.81 0.59-1.817 0.831-2.809 0.976-2.635 0.385-5.318 0.167-7.974 0.343-4.562 0.304-9.017 1.773-13.59 1.724-2.627-0.029-5.2211-0.558-7.789-1.088l-11.365-2.336c-1.9785-0.405-4.214-0.997-5.1461-2.791-0.4181-0.807-0.496-1.742-0.5453-2.651-0.135-2.502 0-5.285 1.7344-7.089 1.6306-1.693 4.2089-2.228 6.1562-3.479 2.3836-1.534 3.1703-1.039 5.6837 0.114 4.9034 2.22 10.298 3.133 15.659 2.648z" fill="#000" opacity=".05"/>
<path d="m152.7 129.6c-3.188 1.233-6.395 2.472-9.734 3.206-5.598 1.233-11.455 1.039-17.009 2.448-2.934 0.748-5.85 1.953-8.865 1.709-1.347-0.109-2.648-0.52-3.959-0.831-7.366-1.817-15.74-1.228-21.722 3.445-2.046 1.596-3.7208 3.588-5.2397 5.711-0.325 0.459-0.5447 0.984-0.6433 1.537s-0.0737 1.122 0.0729 1.664c0.1466 0.543 0.4113 1.047 0.7752 1.475 0.3639 0.429 0.8179 0.772 1.3297 1.004 2.3265 1.07 4.8186 1.735 7.3688 1.965 3.4092 0.302 6.8336-0.181 10.225-0.664 5.032-0.714 10.067-1.431 15.086-2.233 1.802-0.288 3.604-0.586 5.416-0.815 13.042-1.648 26.32 0.356 39.396-1.02 1.322-0.14 2.667-0.322 3.869-0.885 3.043-1.428 4.549-5.192 3.921-8.5-0.629-3.307-3.054-6.056-5.972-7.744-2.446-1.42-5.084-1.994-7.808-2.596-2.529-0.589-4.071 0.19-6.507 1.124z" fill="#AE6E79"/>
<path d="m180.68 109.83c1.439 1.885 1.745 4.413 1.589 6.773-0.155 2.36-0.716 4.694-0.799 7.064-0.114 3.25 0.67 6.49 0.537 9.73-0.093 2.266-0.631 4.488-1.267 6.664-0.75 2.567-1.836 5.327-4.206 6.56-3.147 1.638-9.747 0.717-13.058 1.999 0.301-1.877 3.189-4.595 3.49-6.472 0.208-1.298 0.418-2.632 0.195-3.933-0.286-1.659-1.26-3.131-2.415-4.356-1.838-1.95-4.238-3.416-6.873-3.894s-9.088-0.086-11.196 1.578c-0.26-1.718 4.57-3.375 6.268-3.746 0.846-0.189 1.818-0.083 2.495-0.62 1.298-1.018 0.356-3.045 0.418-4.673 0.05-1.298 0.808-2.487 0.961-3.785 0.26-2.077-1.096-4.193-0.564-6.231 0.198-0.752 0.637-1.414 0.94-2.131 0.925-2.194 0.52-4.696 0.026-7.027-0.306-1.465-0.605-3.116 0.211-4.3644 0.755-1.1656 2.9 2.9854 4.273 2.7934 4.536-0.636 8.641-3.998 12.305-1.246 1.867 1.402 2.111 2.856 2.856 4.857 0.725 1.906 2.602 2.882 3.814 4.46z" fill="#000" opacity=".1"/>
<path d="m181.46 109.83c1.438 1.885 1.744 4.413 1.589 6.773-0.156 2.36-0.717 4.694-0.8 7.064-0.114 3.25 0.67 6.49 0.537 9.73-0.093 2.266-0.63 4.488-1.267 6.664-0.75 2.567-1.835 5.327-4.206 6.56-3.147 1.638-9.747 0.717-13.058 1.999 0.302-1.877 3.189-4.595 3.49-6.472 0.208-1.298 0.418-2.632 0.195-3.933-0.286-1.659-1.259-3.131-2.415-4.356-1.838-1.95-4.237-3.417-6.873-3.894-2.635-0.478-9.087-0.086-11.196 1.578-0.259-1.718 4.57-3.375 6.268-3.746 0.847-0.189 1.818-0.083 2.495-0.62 1.299-1.018 0.356-3.046 0.418-4.673 0.05-1.298 0.808-2.487 0.961-3.785 0.26-2.077-1.096-4.193-0.563-6.231 0.197-0.753 0.636-1.415 0.94-2.131 0.924-2.194 0.519-4.696 0.026-7.028-0.307-1.464-0.605-3.115 0.21-4.3635 0.755-1.1657 2.233-1.607 3.606-1.8017 4.599-0.6219 9.259 0.5801 12.983 3.3492 1.867 1.402 2.111 2.855 2.856 4.857 0.714 1.905 2.591 2.882 3.804 4.46z" fill="#4C4981"/>
<path d="m9.6549 97.528 14.117 52.165c0.1732 0.639 0.5371 1.21 1.0432 1.637 0.506 0.428 1.1303 0.69 1.7895 0.754l63.541 6.103c0.5179 0.05 1.0401-0.025 1.5231-0.218 0.483-0.194 0.9125-0.5 1.2528-0.893 0.3402-0.394 0.5811-0.863 0.7026-1.369s0.12-1.033-0.0044-1.539l-15.459-62.922c-0.1839-0.7479-0.6271-1.4064-1.2509-1.8584-0.6237-0.452-1.3875-0.6683-2.1556-0.6104l-62.209 4.6521c-0.4777 0.0371-0.9412 0.1791-1.3576 0.416-0.4165 0.2368-0.7755 0.5626-1.0515 0.9541-0.27601 0.3915-0.46221 0.8391-0.54532 1.3108-0.0831 0.4717-0.06107 0.956 0.06453 1.4182z" fill="#9C9CA1"/>
<path d="m135.61 107.71c3.858 0 6.985-3.167 6.985-7.074 0-3.9072-3.127-7.0744-6.985-7.0744-3.857 0-6.984 3.1672-6.984 7.0744 0 3.907 3.127 7.074 6.984 7.074z" fill="#fff"/>
<path d="m141.35 87.728s1.472 4.3769-2.872 6.2175l-0.555 0.971 2.721 2.6843s3.355-6.1189 2.991-8.2918c0 0-0.519-2.2066-2.285-1.581z" fill="#fff"/>
<path d="m136.42 107.71c3.72 0 6.735-3.015 6.735-6.734 0-3.7193-3.015-6.7342-6.735-6.7342s-6.735 3.0149-6.735 6.7342c0 3.719 3.015 6.734 6.735 6.734z" fill="#03C6AF"/>
<path d="m143.67 90.304-1.07-1.7653-1.558-0.2207c0.333-5.8125-1.176-7.5441-1.176-7.5441l-0.35-0.0337-1.527-0.148-2.872-2.9803v-0.8463c4.035 0.4803 6.265 2.3962 7.47 4.6418 2.129 3.9407 1.083 8.8966 1.083 8.8966z" fill="#03C6AF"/>
<path d="m139.52 79.67v1.0696l-1.526-0.148-2.872-2.9803s4.443 0.9943 4.398 2.0587z" fill="#000" opacity=".1" stroke="#4C4981" stroke-miterlimit="10"/>
<path d="m143.67 90.303-1.069-1.7653v-7.1209c2.116 3.9304 1.069 8.8862 1.069 8.8862z" fill="#000" opacity=".1" stroke="#4C4981" stroke-miterlimit="10"/>
<path d="m123.97 103.74c1.792-1.034 1.715-4.5219-0.172-7.7899-1.887-3.2681-4.87-5.0788-6.662-4.0444-1.792 1.0345-1.715 4.5224 0.173 7.7904 1.887 3.2679 4.869 5.0789 6.661 4.0439z" fill="#fff"/>
<path d="m121.57 97.253c1.888 3.268 4.204 5.452 2.412 6.49-1.791 1.039-7.01 0.519-8.898-2.752-1.888-3.2707-0.174-7.7878 1.618-8.8262 1.791-1.0384 2.978 1.812 4.868 5.0882z" fill="#03C6AF"/>
<path d="m138.37 73.707c0 10.444-7.148 20.509-17.594 20.509-5.016 0-9.827-1.9925-13.375-5.5392-3.547-3.5467-5.54-8.3571-5.54-13.373s1.993-9.8262 5.54-13.373c3.548-3.5468 8.359-5.5393 13.375-5.5393 10.446 0.0104 17.594 6.8691 17.594 17.316z" fill="#000" opacity=".1"/>
<path d="m120.78 93.707c10.447 0 18.916-8.4672 18.916-18.912s-8.469-18.912-18.916-18.912c-10.446 0-18.915 8.4673-18.915 18.912s8.469 18.912 18.915 18.912z" fill="#AE6E79"/>
<path d="m119.12 66.414c2.251 0.8281 3.583 3.1542 5.603 4.4496 2.856 1.8172 6.574 1.3473 9.835 0.4491 1.818-0.4959 3.719-1.1007 5.507-0.5504 0.264 0.1165 0.554 0.1579 0.839 0.1195 0.39-0.1117 0.582-0.5426 0.709-0.9268 2.212-6.594 1.218-14.063-2.121-20.164-0.862-1.5732-1.896-3.0945-3.319-4.1874-1.121-0.8593-2.44-1.4226-3.77-1.9029-2.429-0.8724-4.942-1.4927-7.498-1.851-0.452-0.082-0.913-0.0969-1.369-0.0441-0.625 0.1012-1.186 0.4387-1.744 0.7398-2.391 1.2815-5.043 2.0015-7.753 2.1054-3.636 0.1376-7.79-0.7191-10.591 1.6122-3.376 2.7959-2.535 8.2502-4.7234 12.046-1.4488 2.5104-4.2427 4.3328-4.7022 7.1911-0.1197 0.8736-0.0641 1.7623 0.1635 2.6142 1.0698 4.3977 5.328 7.8037 9.8671 7.8841 0.697 0.0532 1.394-0.0898 2.014-0.4127 0.407-0.2772 0.765-0.6182 1.062-1.0099 2.973-3.5202 6.375-10.228 11.991-8.1619z" fill="#444053"/>
<path d="m141.61 68.042c-0.127 0.3842-0.319 0.8151-0.709 0.9267-0.285 0.0384-0.575-0.0029-0.838-0.1194-1.789-0.5503-3.7 0.0545-5.505 0.5504-3.264 0.8982-6.99 1.3785-9.835-0.4491-2.023-1.2981-3.352-3.6345-5.606-4.4497-5.616-2.0768-9.018 4.6418-11.998 8.162-0.298 0.3917-0.656 0.7327-1.062 1.0099-0.62 0.3229-1.318 0.4659-2.015 0.4127-4.5233-0.0804-8.7841-3.4864-9.8668-7.8841-0.0597-0.2596-0.1117-0.5193-0.1506-0.7789 0 0.0234 0 0.0442-0.013 0.0675-0.1197 0.8737-0.0641 1.7624 0.1636 2.6143 1.0697 4.3976 5.3305 7.8037 9.8668 7.8841 0.697 0.0532 1.395-0.0898 2.015-0.4127 0.406-0.2772 0.764-0.6182 1.062-1.0099 2.98-3.5202 6.382-10.228 11.998-8.162 2.254 0.8282 3.583 3.1542 5.606 4.4497 2.856 1.8172 6.571 1.3473 9.835 0.4491 1.818-0.4959 3.716-1.1007 5.505-0.5504 0.263 0.1165 0.553 0.1578 0.838 0.1194 0.39-0.1116 0.582-0.5425 0.709-0.9268 0.892-2.698 1.286-5.5358 1.163-8.3748-0.076 2.2018-0.468 4.3813-1.163 6.472z" fill="#000" opacity=".1"/>
</g>
</svg>
