<?xml version="1.0" encoding="UTF-8"?>
<svg viewBox="0 0 164 160" xmlns="http://www.w3.org/2000/svg">
<path d="m152.99 82.372c0.011 10.32-2.221 20.519-6.543 29.891-4.322 9.373-10.63 17.696-18.489 24.393-0.233 0.205-0.471 0.403-0.719 0.6-0.611 0.511-1.231 1.009-1.86 1.495-4.055 3.162-8.441 5.874-13.082 8.09l-0.449 0.212c-5.087 2.386-10.44 4.16-15.946 5.283-0.5611 0.115-1.1223 0.223-1.687 0.327l-0.2914 0.05-0.1043 0.018-0.6582 0.108c-3.8502 0.631-7.7455 0.947-11.647 0.945-1.3357 0-2.6546-0.037-3.9567-0.111-1.2374-0.067-2.4651-0.165-3.6833-0.295l-0.3274-0.036c-1.2265-0.136-2.4459-0.302-3.6545-0.503-10.474-1.712-20.43-5.75-29.136-11.816-0.2194-0.148-0.4352-0.302-0.651-0.46-1.6786-1.198-3.2984-2.461-4.8595-3.788-7.902-6.697-14.248-15.034-18.596-24.43-4.3484-9.397-6.5947-19.628-6.5824-29.98 0-2.082 0.0887-4.1425 0.2662-6.1813 3.1329-36.549 33.812-65.238 71.22-65.238 39.43 0.0072 71.436 31.985 71.436 71.427z" fill="#03C6AF" opacity=".1"/>
<path d="m107.42 77.288-3.551 8.8659-12.837 0.1042-4.1797 0.0324-9.9276 0.079-4.1797 0.036-9.9241 0.079-4.1797 0.0324-9.9241 0.0826-4.1797 0.0324-6.7012 0.0539-1.2949-2.6486-1.6834-3.4321-0.928-1.9048-0.5323-1.4159 3.1869-10.084c0.3124-0.985 0.9304-1.845 1.7647-2.4556 0.8342-0.6106 1.8413-0.94 2.8754-0.9406h57.969c1.0046 7e-4 1.9846 0.3119 2.8046 0.891 0.821 0.5791 1.442 1.3977 1.778 2.3434l0.36 1.0386 3.284 9.211z" fill="#6C63FF"/>
<path d="m107.42 77.29h-74.023v18.623h74.023v-18.623z" fill="#6C63FF"/>
<path d="m107.42 77.29h-74.023v18.623h74.023v-18.623z" opacity=".1"/>
<path d="m94.024 53.262h-47.394v59.592h47.394v-59.592z" fill="#F2F2F2"/>
<path d="m70.415 57.515h-13.845v1.9515h13.845v-1.9515z" fill="#3F3D56"/>
<path d="m91.001 65.5h-41.714v0.8877h41.714v-0.8877z" fill="#E6E6E6"/>
<path d="m91.001 68.331h-41.714v0.8876h41.714v-0.8876z" fill="#E6E6E6"/>
<path d="m91.001 71.171h-41.714v0.8877h41.714v-0.8877z" fill="#E6E6E6"/>
<path d="m91.001 74.012h-41.714v0.8877h41.714v-0.8877z" fill="#E6E6E6"/>
<path d="m91.001 76.848h-41.714v0.8877h41.714v-0.8877z" fill="#E6E6E6"/>
<path d="m91.001 79.684h-41.714v0.8877h41.714v-0.8877z" fill="#E6E6E6"/>
<path d="m51.076 61.063c-0.5969 0-1.1804-0.1769-1.6767-0.5082s-0.8831-0.8022-1.1115-1.3532c-0.2284-0.5509-0.2882-1.1572-0.1717-1.7421 0.1164-0.5849 0.4039-1.1222 0.8259-1.5438 0.4221-0.4217 0.9598-0.7089 1.5452-0.8252 0.5854-0.1164 1.1922-0.0567 1.7437 0.1715 0.5514 0.2282 1.0227 0.6147 1.3543 1.1106 0.3316 0.4958 0.5086 1.0788 0.5086 1.6751-9e-4 0.7994-0.3192 1.5658-0.8849 2.1311-0.5658 0.5652-1.3328 0.8832-2.1329 0.8842zm0-5.6747c-0.5265 0-1.0411 0.156-1.4788 0.4482-0.4378 0.2922-0.7789 0.7076-0.9804 1.1935-0.2014 0.486-0.2542 1.0207-0.1514 1.5366 0.1027 0.5158 0.3562 0.9897 0.7284 1.3616 0.3723 0.372 0.8466 0.6253 1.3629 0.7279s1.0515 0.0499 1.5379-0.1514 0.9021-0.5421 1.1945-0.9795c0.2925-0.4373 0.4486-0.9515 0.4486-1.4775 0-0.7053-0.2804-1.3817-0.7796-1.8805-0.4992-0.4987-1.1762-0.7789-1.8821-0.7789z" fill="#6C63FF"/>
<path d="m107.42 114.36h-74.023v-37.066l9.5859 7.4464 55.206-0.3522 9.2302-7.0942v37.066z" fill="#3F3D56"/>
<path d="m51.063 105.75h-13.845v1.952h13.845v-1.952z" fill="#F2F2F2"/>
<path d="m44.482 102.1c-0.3052 0-0.6036-0.091-0.8573-0.26-0.2538-0.169-0.4516-0.41-0.5684-0.692s-0.1473-0.592-0.0878-0.891c0.0596-0.2989 0.2065-0.5736 0.4223-0.7892s0.4908-0.3625 0.7901-0.4219c0.2994-0.0595 0.6096-0.029 0.8916 0.0877s0.523 0.3143 0.6925 0.5678c0.1696 0.2536 0.2601 0.5516 0.2601 0.8566 0 0.409-0.1626 0.801-0.452 1.09s-0.6819 0.452-1.0911 0.452zm0-2.8286c-0.2547 0-0.5037 0.0755-0.7154 0.2168-0.2118 0.1414-0.3769 0.3423-0.4743 0.5778-0.0975 0.235-0.123 0.493-0.0733 0.743s0.1723 0.479 0.3524 0.659 0.4096 0.302 0.6593 0.352c0.2498 0.05 0.5088 0.024 0.7441-0.073 0.2353-0.098 0.4364-0.263 0.5779-0.474 0.1415-0.212 0.217-0.461 0.217-0.715 5e-4 -0.169-0.0325-0.337-0.0971-0.493-0.0645-0.1562-0.1593-0.2983-0.279-0.4178-0.1197-0.1196-0.2618-0.2143-0.4183-0.2788-0.1564-0.0645-0.3241-0.0975-0.4933-0.097z" fill="#fff"/>
<path d="m114.55 44.667s-0.442 3.2739 0.694 3.6513c1.137 0.3774 0.82 3.2776 0.82 3.2776l-3.406 2.5803-3.025 0.2516-0.756-3.9029 0.439-1.0099s1.705-2.0161 0.507-4.0933c-1.197-2.0772 4.727-0.7547 4.727-0.7547z" fill="#FFB9B9"/>
<path d="m114.55 44.667s-0.442 3.2739 0.694 3.6513c1.137 0.3774 0.82 3.2776 0.82 3.2776l-3.406 2.5803-3.025 0.2516-0.756-3.9029 0.439-1.0099s1.705-2.0161 0.507-4.0933c-1.197-2.0772 4.727-0.7547 4.727-0.7547z" opacity=".1"/>
<path d="m111.39 70.172-3.957 9.3224s-3.09-1.7646-4.921-1.5741c-1.83 0.1905-4.0966-2.0161-4.0966-2.0161l2.2696-10.961 4.223-11.651 5.863 3.716 0.619 13.164z" fill="#575A89"/>
<path d="m111.39 70.172-3.957 9.3224s-3.09-1.7646-4.921-1.5741c-1.83 0.1905-4.0966-2.0161-4.0966-2.0161l2.2696-10.961 4.223-11.651 5.863 3.716 0.619 13.164z" opacity=".1"/>
<path d="m117.64 109.8v3.022h-2.838l0.442-3.526 2.396 0.504z" fill="#575A89"/>
<path d="m125.02 104.56 2.079 1.258-1.515 3.468-1.575-0.19-1.511-2.142 2.522-2.394z" fill="#575A89"/>
<path d="m118.2 69.296 3.733 8.7545s-1.323 9.7033-1.262 10.519 0.126 1.1356-0.187 1.8256c-0.338 0.5932-0.429 1.2956-0.252 1.955 0.187 0.8194 0.252 1.1321 0.126 1.4376-0.126 0.3054-1.011 13.297-1.439 14.17s0.256 2.332-0.187 2.458c-0.442 0.126-3.719-0.19-3.91-0.945-0.19-0.755 0.63-2.584 0.191-3.148s0.061-20.977-0.568-22.361c-0.63-1.3836-7.554-2.6486-7.554-2.6486s-0.63-4.0287-0.252-4.672 0.881-4.5964 0.881-4.5964l10.68-2.7493z" fill="#2F2E41"/>
<path d="m114.54 112.31s1.766-2.08 3.277 0c0 0 0.13 2.455 1.201 2.962 1.072 0.507 0.565 2.516-0.946 2.58-1.51 0.065-3.467 0.316-3.532-0.503s0.252-1.322-0.316-1.574c-0.569-0.252 0-1.7 0-1.7l0.316-1.765z" fill="#2F2E41"/>
<path d="m114.74 82.205s-0.064 4.5354-0.507 5.1643c-0.442 0.629-0.691 1.0099-0.439 1.6999s0.63 1.955 0.439 2.2066 0.191 1.5741 0.191 1.5741 4.856 2.3288 7.125 7.1877c0 0 2.331 3.842 3.025 3.906 0.695 0.065 1.515-0.442 1.133 1.007-0.381 1.448-1.827 3.338-2.899 3.148-1.072-0.191-1.892-2.013-1.892-2.013s-8.384-8.5063-9.266-8.7578c-0.881-0.2516-3.406-2.2677-3.845-3.5255-0.439-1.2579-1.388-11.781-0.946-12.474 0.443-0.6936 2.079-1.6351 2.079-1.6351l5.802 2.512z" fill="#2F2E41"/>
<path d="m125.64 104.31s3.91 0.126 3.957 1.079c0.047 0.952-1.64 6.551-1.389 7.874 0.252 1.322-1.953 4.345-3.402 3.716-1.45-0.629-0.317-3.907-0.317-3.907s-1.439-4.471-1.198-4.535c0.241-0.065 2.777-0.82 2.648-1.574-0.13-0.755-0.299-2.653-0.299-2.653z" fill="#2F2E41"/>
<path d="m111.62 48.035c2.16 0 3.91-1.7489 3.91-3.9064s-1.75-3.9064-3.91-3.9064c-2.159 0-3.909 1.7489-3.909 3.9064s1.75 3.9064 3.909 3.9064z" fill="#FFB9B9"/>
<path d="m115.56 50.145s-2.159 2.2677-3.723 1.8867c-1.565-0.3809-2.396-3.0835-2.396-3.0835l-2.834-0.5067s-2.018 8.945-2.018 9.8291 2.018 10.393 2.018 12.093c0 1.6998-1.64 2.7061 0.881 2.645 2.522-0.0611 1.324-0.8805 4.982-0.9452 3.658-0.0646 4.223 0.7547 4.978-0.5678 0.517-0.8617 1.154-1.6457 1.892-2.3288l-1.324-4.6719-0.19-13.164s-1.615-3.1518-2.353-2.9002c-7e-3 0.0108 0.4 1.398 0.087 1.7143z" fill="#6C63FF"/>
<path d="m114.78 47.884s3.36 0.3594 4.317 1.0781c0.956 0.7188 3.597 1.1968 3.532 1.6999s-3.09 7.6836-3.09 7.6836-1.388 5.671-0.191 6.9935c1.198 1.3226 5.677 15.744 4.918 16.941-0.759 1.1967-3.151-3.6513-3.151-3.6513s-3.216-10.393-4.982-12.158-1.892-11.274-1.892-11.716c0-0.4421 0.539-6.8714 0.539-6.8714z" fill="#575A89"/>
<path d="m109.86 48.616s-4.144-1.5597-5.593-0.9308c-0.744 0.3445-1.526 0.5979-2.331 0.7547l-0.504 6.1849s-0.187 8.8803-1.8268 11.022c-1.6403 2.1419-2.7086 11.087-2.4568 11.967s-0.4424 2.3935 0.6295 2.0161c1.0719-0.3773 4.0361-9.0708 4.0361-9.0708s0-4.9738 1.762-6.361c1.763-1.3872 4.676-7.1157 4.791-8.5029 0.116-1.3872 1.339-5.2398 1.339-5.2398l0.154-1.84z" fill="#575A89"/>
<path d="m124.07 68.473s-1.892 3.5255-2.158 4.158-2.018 4.9127-4.539 3.9532c-2.522-0.9596 2.456-5.5417 2.456-5.5417l1.137-3.8453s2.978-0.6146 3.104 1.2758z" fill="#FFB9B9"/>
<path d="m102.57 48.443h-0.629c-0.196-0.1468-0.427-0.241-0.67-0.2737s-0.49-0.0028-0.718 0.0868c-0.7558 0.3127-2.5184-0.1257-2.5184 0.0611 0 0.1869-1.9531-0.5642-2.7733-0.1868-0.8201 0.3773-3.784 0.5031-3.784 0.5031s-1.1979 3.0224-0.3777 3.5938c0.8201 0.5714 2.0179 0.1258 2.5862 0.5678 0.5684 0.442 1.6367-0.0647 2.0144 0.5031 0.3777 0.5679 1.7661 1.5741 2.0827 0.9452 0.3165-0.6289-0.3166-1.1967 1.0071-0.5031 1.324 0.6936 3.406 0.69 3.406 0.69l0.374-5.9873z" fill="#575A89"/>
<path d="m111.96 41.242c-0.54-0.0704-1.088-0.0362-1.615 0.1006-0.531 0.1355-1.094 0.0702-1.579-0.1833-0.311-0.2501-0.558-0.5704-0.72-0.9344-0.079-0.1256-0.132-0.2663-0.155-0.4133 3e-3 -0.1305 0.033-0.2591 0.087-0.3779 0.054-0.1187 0.133-0.2249 0.23-0.3121 0.857-0.8725 1.992-1.4179 3.209-1.5417 0.99-0.1452 2.002-0.0211 2.928 0.3593 0.929 0.3899 1.667 1.1297 2.053 2.0593 0.166 0.4744 0.269 0.9686 0.306 1.4699 0.056 0.3688 0.063 0.7433 0.022 1.1141-0.047 0.2755-0.119 0.5462-0.216 0.8086l-0.594 1.7969c-0.043 0.1696-0.123 0.3279-0.233 0.4636-0.058 0.0652-0.134 0.1103-0.219 0.1284-0.085 0.0182-0.174 0.0084-0.253-0.0278 0.048-0.1943 0.054-0.3962 0.018-0.593-0.018-0.0984-0.065-0.1891-0.136-0.2603-0.071-0.0711-0.161-0.1194-0.259-0.1386-0.216-0.0216-0.403 0.1474-0.612 0.2192-0.192 0.057-0.398 0.0356-0.574-0.0594s-0.307-0.2558-0.365-0.4473c-1e-3 -0.0203-1e-3 -0.0408 0-0.0611 5e-3 -0.2064-0.014-0.4126-0.057-0.6145-0.09-0.2264-0.331-0.3594-0.511-0.5068-0.166-0.1524-0.285-0.349-0.343-0.5668-0.058-0.2177-0.053-0.4475 0.016-0.6622 0.05-0.1474 0.187-0.2157 0.158-0.3882s-0.396-0.3881-0.586-0.4312z" fill="#2F2E41"/>
<path d="m92.12 48.627c0.2732 0.0159 0.5403 0.0872 0.7849 0.2098 0.2447 0.1225 0.4617 0.2937 0.6378 0.5029 0.1761 0.2093 0.3076 0.4523 0.3865 0.7141 0.0788 0.2618 0.1033 0.537 0.072 0.8086-0.1151 1.035-0.5287 2.3216-1.838 2.8175-2.3345 0.8805-2.205-4.0933-1.7661-4.2838 0.2949-0.1258 0.7589-0.8122 1.7229-0.7691z" fill="#FFB9B9"/>
<path d="m121.94 50.312 0.694 0.3378s1.511 3.0871 1.576 3.5256c0.064 0.4384 1.079 2.0808 0.694 2.5156-0.385 0.4349-0.946 1.5777-0.568 2.0162 0.377 0.4384 1.259 2.2066 1.259 2.8355s-0.946 2.3324-0.313 2.5156c0.633 0.1833 0.438 2.6451 0.313 2.8356-0.126 0.1904-1.763 3.2739-1.763 3.2739s-0.317-3.5255-3.406-2.0772c0 0-0.252-1.7646 0-1.8903 0.251-0.1258 0.881-0.8805 0.377-1.0063-0.503-0.1258-1.197-1.6388-1.079-1.8293 0.119-0.1904 0.443-0.4384 0.126-0.6289-0.316-0.1904-0.565-1.2614-0.503-1.4375 0.061-0.1761-0.695-1.0781-0.695-1.0781l3.288-9.9082z" fill="#575A89"/>
</svg>
