<?xml version="1.0" encoding="UTF-8"?>
<svg fill="none" viewBox="0 0 265 253" xmlns="http://www.w3.org/2000/svg">
<path d="m183.21 92.204h-119.64v27.703h119.64v-27.703z" fill="#565661"/>
<path d="m183.21 92.204h-119.64v27.703h119.64v-27.703z" fill="#000" opacity=".1"/>
<path d="m77.883 120.82 0.84 73.956-11.507 29.049-0.8907-103h11.558z" fill="#BCBEC9"/>
<path d="m64.831 97.523 116.49 0.7007v20.633h-116.49v-21.333z" fill="#565661"/>
<path d="m171.35 120.82 9.967 1.405v100.48l-9.967-30.734v-71.149z" fill="#BCBEC9"/>
<path d="m241.24 93.314h-56.139v119.29h56.139v-119.29z" fill="#EFEFF0"/>
<path d="m236.75 96.628h-47.156v91.693h47.156v-91.693z" fill="#565661"/>
<path d="m236.75 96.628h-47.156v91.693h47.156v-91.693z" fill="#000" opacity=".1"/>
<path d="m236.75 98.506h-47.156v20.35h47.156v-20.35z" fill="#565661"/>
<path d="m236.75 120.82h-47.156v43.223h47.156v-43.223z" fill="#565661"/>
<path d="m236.75 166.71h-47.156v43.223h47.156v-43.223z" fill="#565661"/>
<path d="m236.75 166.71h-47.156v43.223h47.156v-43.223z" fill="#000" opacity=".1"/>
<path d="m191.56 220.37c1.678 0 3.039-1.739 3.039-3.884s-1.361-3.883-3.039-3.883c-1.679 0-3.04 1.738-3.04 3.883s1.361 3.884 3.04 3.884z" fill="#565661"/>
<path d="m233.71 220.55c1.679 0 3.04-1.739 3.04-3.883 0-2.145-1.361-3.884-3.04-3.884-1.678 0-3.039 1.739-3.039 3.884 0 2.144 1.361 3.883 3.039 3.883z" fill="#565661"/>
<path d="m63.146 223.82h4.0693l-1.1187-129.48h-6.1799l3.2293 129.48z" fill="#EFEFF0"/>
<path d="m181.32 93.314v129.39h3.787v-128.35l-3.787-1.0342z" fill="#EFEFF0"/>
<path d="M66 150V154.635H181.021V151.266L66 150Z" fill="#EFEFF0"/>
<path d="m74.092 84.615h145.82l21.191 7.0154v4.0691l-181.89-1.4014v-4.1408l14.876-5.5423z" fill="#fff"/>
<path d="m59.216 90.157 181.89 1.4731v4.0691l-181.89-1.4014v-4.1408z" fill="#BCBEC9"/>
<path d="m75.692 138.41-0.8443-0.127v-0.105c-0.0253-0.199-0.0549-0.393-0.0844-0.591 0.3461 0.274 0.6754 0.548 0.9793 0.823h-0.0506z" fill="url(#a)"/>
<path d="m57.346 203.59c0.5488-0.127 1.106-0.232 1.6632-0.308 3.8269-0.545 7.7297 0.029 11.237 1.654-0.3546 2.609-0.7049 5.306 0.0465 7.826 0.5234 1.773 1.5745 3.377 1.7982 5.226 0.5638 0.097 1.0894 0.349 1.5181 0.727 0.4287 0.379 0.7435 0.87 0.9092 1.417 0.1619 0.484 0.2432 0.992 0.2406 1.503-0.0047 0.632-0.0841 1.261-0.2364 1.874-0.0513 0.49-0.2918 0.94-0.6702 1.256-0.3784 0.315-0.8649 0.47-1.356 0.432-3.2673 0.372-6.4713-0.916-9.5106-2.178l-5.9098-2.456c-0.6923-0.287-1.3888-0.579-2.0515-0.933-1.257-0.679-2.3731-1.592-3.2884-2.689-0.1935-0.196-0.3293-0.441-0.3925-0.709-0.1098-0.743 0.7598-1.186 1.3128-1.689 0.1619-0.153 0.3038-0.326 0.4221-0.515 0.6543-0.987 0.7176-2.351 1.1102-3.516 0.9287-2.764 3.7991-4.546 4.8123-7.243 0.0548-0.148 0.1055-0.295 0.1477-0.447" fill="#A26565"/>
<path d="m74.759 221.63c-0.0047 0.632-0.084 1.261-0.2364 1.875-0.0513 0.489-0.2918 0.94-0.6702 1.255-0.3784 0.316-0.8649 0.471-1.356 0.433-3.2673 0.371-6.4712-0.916-9.5106-2.178l-5.9098-2.457c-0.6922-0.287-1.3888-0.578-2.0515-0.933-1.257-0.679-2.3731-1.591-3.2884-2.688-0.1935-0.196-0.3293-0.442-0.3925-0.71-0.1098-0.742 0.7598-1.186 1.3128-1.688 0.1619-0.153 0.3038-0.326 0.4221-0.515 1.6294 0.35 3.6514 1.376 4.8967 1.773 1.2473 0.34 2.445 0.84 3.5627 1.49 1.5535 0.996 2.6721 2.533 3.9892 3.799 1.317 1.266 3.0182 2.419 4.8544 2.262 0.9709-0.146 1.9067-0.469 2.7607-0.954l1.6168-0.764z" fill="#000" opacity=".1"/>
<path d="m67.84 161.65c0.1098 0.383 0.0999 0.79-0.0284 1.167-0.1282 0.377-0.3687 0.706-0.6892 0.943-0.553 0.342-1.2664 0.296-1.8152 0.667-0.6796 0.477-0.7767 1.422-0.8949 2.241-0.4221 2.816-1.8193 5.369-3.014 7.957-1.1946 2.587-2.2035 5.411-1.7644 8.223 0.2997 1.907 1.2368 3.942 0.3588 5.66-0.2153 0.422-0.5361 0.798-0.781 1.207-1.203 2.009-0.5192 4.555-0.5656 6.893 0.0175 0.26-0.0396 0.519-0.1647 0.747-0.1845 0.216-0.4116 0.391-0.6669 0.515-0.4286 0.315-0.7806 0.723-1.0298 1.193s-0.3893 0.99-0.4097 1.521c-0.0355 1.063 0.0926 2.125 0.3799 3.149 0.0465 0.413 0.2292 0.8 0.5193 1.098 0.336 0.222 0.7329 0.334 1.1355 0.32 2.652 0.215 5.2534 0.848 7.708 1.875 1.5999 0.666 3.1533 1.502 4.8545 1.823 0.1645 0.051 0.3377 0.068 0.509 0.05s0.3371-0.071 0.4872-0.155c0.2139-0.194 0.3616-0.449 0.4221-0.731 0.6543-2.152 1.3171-4.373 1.0934-6.61-0.0971-0.962-0.3546-1.904-0.4222-2.866-0.2955-3.799 2.2753-7.226 3.09-10.975 0.3672-1.688 0.3673-3.436 0.629-5.141 0.7091-4.672 3.2841-8.864 4.2761-13.486 0.1381-0.862 0.3528-1.709 0.6417-2.533 0.7387-1.789 2.4483-3.241 2.4863-5.179 0.0234-0.426-0.0889-0.849-0.3208-1.207-0.398-0.437-0.9267-0.733-1.507-0.844-2.2934-0.631-4.6277-1.102-6.9862-1.41-1.081-0.212-2.1842-0.289-3.2842-0.228-1.4284 0.168-2.8013 0.652-4.0186 1.418-1.6295 1.005-0.5826 1.245-0.228 2.698z" fill="#454B69"/>
<path d="m67.84 161.65c0.1098 0.383 0.0999 0.79-0.0284 1.167-0.1282 0.377-0.3687 0.706-0.6892 0.943-0.553 0.342-1.2664 0.296-1.8152 0.667-0.6796 0.477-0.7767 1.422-0.8949 2.241-0.4221 2.816-1.8193 5.369-3.014 7.957-1.1946 2.587-2.2035 5.411-1.7644 8.223 0.2997 1.907 1.2368 3.942 0.3588 5.66-0.2153 0.422-0.5361 0.798-0.781 1.207-1.203 2.009-0.5192 4.555-0.5656 6.893 0.0175 0.26-0.0396 0.519-0.1647 0.747-0.1845 0.216-0.4116 0.391-0.6669 0.515-0.4286 0.315-0.7806 0.723-1.0298 1.193s-0.3893 0.99-0.4097 1.521c-0.0355 1.063 0.0926 2.125 0.3799 3.149 0.0465 0.413 0.2292 0.8 0.5193 1.098 0.336 0.222 0.7329 0.334 1.1355 0.32 2.652 0.215 5.2534 0.848 7.708 1.875 1.5999 0.666 3.1533 1.502 4.8545 1.823 0.1645 0.051 0.3377 0.068 0.509 0.05s0.3371-0.071 0.4872-0.155c0.2139-0.194 0.3616-0.449 0.4221-0.731 0.6543-2.152 1.3171-4.373 1.0934-6.61-0.0971-0.962-0.3546-1.904-0.4222-2.866-0.2955-3.799 2.2753-7.226 3.09-10.975 0.3672-1.688 0.3673-3.436 0.629-5.141 0.7091-4.672 3.2841-8.864 4.2761-13.486 0.1381-0.862 0.3528-1.709 0.6417-2.533 0.7387-1.789 2.4483-3.241 2.4863-5.179 0.0234-0.426-0.0889-0.849-0.3208-1.207-0.398-0.437-0.9267-0.733-1.507-0.844-2.2934-0.631-4.6277-1.102-6.9862-1.41-1.081-0.212-2.1842-0.289-3.2842-0.228-1.4284 0.168-2.8013 0.652-4.0186 1.418-1.6295 1.005-0.5826 1.245-0.228 2.698z" fill="#000" opacity=".05"/>
<path d="m59.579 225.26h-3.6008l-2.3555-48.39-0.1646-2.752 3.0604-1.077 0.2069 2.926 2.8536 49.293z" fill="#565661"/>
<path d="m56.726 175.97-3.1027 0.903-0.1646-2.752 3.0604-1.077 0.2069 2.926z" fill="#000" opacity=".1"/>
<path d="m104.76 235.5-5.9389 0.717-27.362-62.095-7.3788-0.541-12.959 3.782-2.5201 73.932h-5.9394l2.3386-76.633-14.222 0.363-25.378 63.172h-5.399l26.691-73.83 1.03-2.845 39.777-1.364 9.9158 5.56 0.1267 0.32 27.218 69.462z" fill="#565661"/>
<path d="m77.541 166.04c-8.5481 2.575-17.421 5.386-17.421 5.386s-8.0922 2.824-11.52 0c-0.4322-0.337-0.9152-0.603-1.431-0.789 0.4448 0.318 0.925 0.583 1.431 0.789l-21.908-7.061 1.0257-2.841 39.781-1.364 9.9158 5.56 0.1266 0.32z" fill="#000" opacity=".1"/>
<path d="m37.08 153.78 16.197-3.601s38.701 7.201 41.58 10.08c0 0-30.959 6.298-34.378 8.442s-23.762 4.517-23.398-14.921z" fill="#fff"/>
<path d="m30.115 113.31c-1.2664 4.014-4.7236 7.632-8.9323 7.805-0.3062 0.036-0.6162-0.02-0.8906-0.161-0.5277-0.329-0.5404-1.101-0.3251-1.688s0.591-1.114 0.6501-1.731c0.0126-0.125 4e-3 -0.252-0.0253-0.375-0.1098-0.503-0.5192-0.95-1.0005-0.844 0.3277-0.263 0.546-0.637 0.6123-1.052 0.0663-0.414-0.024-0.838-0.2535-1.19-0.191-0.215-0.3633-0.447-0.515-0.692-0.3503-0.718 0.1942-1.524 0.4222-2.292 0.4685-1.688-0.7219-3.377-0.819-5.137-0.0844-1.575 0.7134-3.056 0.9118-4.618 0.3166-2.5325-0.9413-4.9596-1.0891-7.488-0.1013-1.7644 0.3335-3.5119 0.819-5.213 0.4221-1.5195 0.8991-3.056 0.9287-4.6431 0-1.1523-0.1984-2.292-0.2533-3.4401-0.0876-1.0496 0.1031-2.1037 0.553-3.056 0.2922-0.56 0.7899-0.9851 1.3888-1.1861 1.3846-0.4644 2.2921 0.2574 2.4948 1.5702 0.3377 2.2329 0.1435 4.5123 0.5867 6.7536 0.4098 2.0961 1.0307 4.1453 1.8532 6.1163 0.7471 1.7813 1.6547 3.5034 2.2288 5.348 0.4322 1.5204 0.7413 3.0732 0.9244 4.6432 0.5657 4.217 1.0089 8.556-0.2701 12.57z" fill="#03C6AF"/>
<path d="m126.26 215.48c-0.534 0.753-1.221 1.384-2.017 1.853-0.795 0.468-1.68 0.763-2.597 0.866-1.832 0.228-3.736-0.233-5.513 0.27-0.275 0.045-0.535 0.158-0.756 0.328s-0.396 0.392-0.511 0.647c-0.044 0.343-0.07 0.688-0.08 1.034-0.207 1.127-1.688 1.38-2.841 1.372l-4.753-0.03c-0.988 0-2.081-0.055-2.79-0.738-0.337-0.374-0.527-0.857-0.535-1.36s0.167-0.992 0.493-1.376c0.147-0.174 0.328-0.318 0.532-0.422-0.297-0.098-0.561-0.277-0.762-0.516s-0.332-0.529-0.378-0.839c-0.087-0.62-0.057-1.252 0.088-1.861 0-1.765 0.423-4.719 1.664-6.1 1.524-1.718 4.166-3.938 6.467-4.398 0.777-0.149 1.577-0.114 2.338 0.102 0.761 0.217 1.461 0.608 2.043 1.143 1.089 1.013 1.883 2.6 3.377 2.778 0.815 0.101 1.6-0.283 2.406-0.422 0.917-0.118 1.847 0.05 2.664 0.482 0.817 0.431 1.481 1.105 1.9 1.928 0.204 0.417 0.346 0.862 0.422 1.321 0.223 1.375-0.085 2.782-0.861 3.938z" fill="#A26565"/>
<path d="m126.26 215.48c-0.534 0.753-1.221 1.384-2.016 1.853-0.795 0.468-1.68 0.763-2.597 0.866-1.833 0.228-3.736-0.233-5.513 0.27-0.276 0.045-0.535 0.158-0.756 0.328s-0.397 0.392-0.511 0.647c-0.044 0.343-0.071 0.688-0.08 1.034-0.207 1.127-1.689 1.38-2.841 1.372l-4.753-0.03c-0.988 0-2.081-0.055-2.79-0.738-0.338-0.374-0.528-0.857-0.536-1.36-7e-3 -0.503 0.168-0.992 0.493-1.376 2.744-0.114 5.442 0 8.177-0.565 1.11-0.224 2.204-0.519 3.326-0.676 2.432-0.346 5.019-0.05 7.253-1.08 1.861-0.844 3.195-2.562 3.984-4.479 0.229 1.371-0.072 2.777-0.84 3.934z" fill="#000" opacity=".1"/>
<path d="m113.72 208.8c-1.688 1.308-3.668 2.33-5.796 2.44-2.127 0.109-4.386-0.845-5.428-2.693-1.524-2.715-0.173-6.488-2.039-8.979-0.5827-0.78-1.4227-1.333-2.039-2.089-0.6163-0.755-0.9709-1.891-0.4221-2.693-0.6628 0.253-1.3635-0.388-1.5577-1.072-0.1941-0.684-0.0717-1.418-0.1899-2.111-0.3082-1.836-2.1107-3.013-2.976-4.643-0.8654-1.629-0.7472-3.744-0.8443-5.673-0.2158-4.7-1.9654-9.199-4.9811-12.811-0.5741-0.683-1.3086-1.38-2.2035-1.346 0.1562-1.545-0.8738-3.022-2.2077-3.799-1.334-0.777-2.9212-1.038-4.4662-1.19-15.589-1.537-31.833 4.259-46.717-0.617-4.141-1.355-8.1344-3.621-10.667-7.175-0.9866-1.353-1.6925-2.889-2.076-4.519s-0.4369-3.32-0.1571-4.97v-0.059c0.5868-2.997 2.1697-3.736 4.7911-5.104 3.0263-1.599 6.1893-2.926 9.4515-3.963 6.3319-1.98 13.149-2.693 19.684-1.241 3.052 0.684 5.9943 1.815 9.0505 2.478 1.203 0.261 2.4145 0.447 3.6345 0.603 1.8953 0.237 3.7991 0.393 5.7072 0.612 6.1008 0.703 12.109 2.054 17.924 4.031 2.1655 0.735 4.331 1.575 6.1926 2.904 1.4725 1.07 2.7175 2.421 3.6626 3.976 0.945 1.556 1.5713 3.283 1.8423 5.083 0.177 1.241 0.181 2.532 0.451 3.735 0.256 1.011 0.595 2 1.013 2.955 3.607 8.918 6.555 18.088 8.819 27.437 0.128 0.694 0.366 1.364 0.705 1.984 0.54 0.873 1.469 1.46 2.013 2.334 1.267 2.06 0.047 4.934 1.17 7.079 0.388 0.742 1.034 1.329 1.422 2.072 1.266 2.436-0.604 5.348-2.765 7.024z" fill="#454B69"/>
<path d="m92.146 160.3c0.6001-0.474 1.1178-1.045 1.5323-1.688 0.416-0.646 0.5811-1.423 0.4644-2.182 0.1646 0.961 0.1018 1.947-0.1834 2.879-0.2851 0.933-0.7847 1.785-1.4587 2.49-1.0596 1.085-3.0478 2.148-4.597 1.777 0.2195-1.241 3.2588-2.44 4.2424-3.276z" fill="#000" opacity=".1"/>
<path d="m65.772 139.26c-0.1275 0.452-0.3655 0.866-0.6927 1.203-0.3272 0.338-0.7333 0.588-1.1816 0.73-0.9001 0.275-1.8425 0.385-2.7818 0.325h-0.8442c-11.077-0.245-22.272-2.702-33.091-0.359-1.3039 0.269-2.5831 0.646-3.8244 1.127-1.5815 0.623-3.0623 1.477-4.3944 2.533v-0.059c0.5868-2.997 2.1698-3.736 4.7912-5.104 3.0235-1.586 6.1822-2.899 9.4387-3.925 6.332-1.98 13.149-2.693 19.684-1.241 3.052 0.684 5.9942 1.815 9.0504 2.478 1.2031 0.261 2.4146 0.447 3.6345 0.603 0.2366 0.53 0.3101 1.117 0.2111 1.689z" fill="#000" opacity=".1"/>
<path d="m65.772 138.66c-0.1265 0.453-0.3642 0.868-0.6914 1.206-0.3273 0.339-0.7339 0.59-1.1829 0.731-0.8999 0.276-1.8427 0.385-2.7818 0.321h-0.8442c-11.077-0.245-22.272-2.701-33.091-0.359-1.3034 0.27-2.5825 0.645-3.8245 1.123-1.6562 0.661-3.2009 1.572-4.5801 2.702-0.3236-0.889-0.6459-1.78-0.9667-2.672-0.3883-1.064 0.8443-1.3 1.0807-2.254 0.1562-0.646-0.1098-1.38-0.2449-2.069-0.0346-0.168-0.0572-0.339-0.0675-0.51-0.076-1.524 0.4686-2.402 1.7181-3.225 3.7062-2.448 8.2272-4.128 12.457-5.39 2.2487-0.711 4.5715-1.162 6.9229-1.343 3.3264-0.194 6.6486 0.422 9.8863 1.203 3.9806 0.984 7.9191 2.284 11.448 4.365 1.7307 1.009 3.4192 2.275 4.3521 4.073 0.3723 0.632 0.5168 1.372 0.4095 2.098z" fill="#A26565"/>
<path d="m30.115 113.31c-1.2664 4.014-4.7236 7.632-8.9323 7.805-0.3062 0.036-0.6162-0.02-0.8906-0.161-0.5277-0.329-0.5404-1.101-0.3251-1.688s0.591-1.114 0.6501-1.731c0.0126-0.125 4e-3 -0.252-0.0253-0.375 2.233-3.149 4.3985-6.332 5.2555-10.059 0.1734-0.642 0.2264-1.31 0.1561-1.971-0.1139-0.76-0.4981-1.448-0.7091-2.182-0.3715-1.301-0.1984-2.677-0.0929-4.0231 0.4396-5.9291-0.5506-11.877-2.8873-17.344-0.5699-1.3169-1.22-2.6508-1.4184-4.0564 0.2923-0.56 0.79-0.985 1.3888-1.1861 1.3846-0.4643 2.2922 0.2575 2.4948 1.5702 0.3377 2.2329 0.1435 4.5123 0.5867 6.7537 0.4098 2.096 1.0307 4.1452 1.8532 6.1162 0.7471 1.7813 1.6547 3.5035 2.2288 5.3481 0.4322 1.5204 0.7414 3.0731 0.9245 4.6436 0.5783 4.187 1.0215 8.526-0.2575 12.54z" fill="#000" opacity=".1"/>
<path d="m65.772 138.66c-0.1265 0.453-0.3641 0.868-0.6914 1.206-0.3273 0.339-0.7339 0.59-1.1829 0.731-0.8999 0.276-1.8427 0.385-2.7818 0.321h-0.8442c-3.6058-2.394-7.9406-3.441-12.242-2.954-1.3762 0.164-2.7523 0.485-4.1285 0.358-2.7818-0.253-5.0359-2.254-7.5138-3.533-2.8197-1.392-5.991-1.91-9.1071-1.487s-6.0348 1.767-8.3817 3.86l-0.2406 0.211c-0.0347-0.169-0.0572-0.34-0.0675-0.511-0.076-1.524 0.4685-2.402 1.718-3.225 3.7063-2.448 8.2273-4.128 12.457-5.39 2.2487-0.711 4.5715-1.161 6.9229-1.343 3.3264-0.194 6.6485 0.423 9.8862 1.203 3.9807 0.984 7.9192 2.284 11.448 4.365 1.7181 1.026 3.4066 2.292 4.3395 4.09 0.3723 0.632 0.5168 1.372 0.4095 2.098z" fill="#000" opacity=".1"/>
<path d="m75.24 92.424-0.0591 0.152c-0.9455 2.4524-2.6847 4.5249-3.7991 6.914-1.4057 3.0263-1.7519 6.4203-2.0642 9.7463-0.2702 2.849-0.5361 5.715-0.3208 8.573 0.5403 7.041 3.9806 13.718 4.9009 20.624 0.2267 1.595 0.2847 3.209 0.173 4.816-0.0759 1.017-0.2617 2.111-0.9371 2.862s-1.9882 1.047-2.7143 0.325c0.3251-0.62 0.6543-1.237 0.9836-1.857-1.9291-1.499-4.8334-0.422-7.0875-1.359-0.992-0.422-1.7856-1.182-2.6172-1.862-1.898-1.543-4.0852-2.691-6.4332-3.377s-4.8094-0.895-7.2395-0.616c-1.3762 0.169-2.7523 0.49-4.1285 0.363-2.7818-0.257-5.036-2.254-7.5138-3.533-2.8196-1.392-5.9904-1.91-9.1062-1.488-3.1159 0.422-6.0347 1.765-8.3826 3.856-0.591 0.549-1.3846 1.19-2.1106 0.844-0.2807-0.172-0.5074-0.419-0.6543-0.713-2.765-4.723-0.7303-10.814 2.2246-15.415s6.868-8.843 8.0837-14.175c0.1756-0.641 0.2285-1.31 0.1562-1.971-0.114-0.76-0.4981-1.448-0.7092-2.182-0.3714-1.3-0.1984-2.676-0.0928-4.0227 0.4429-5.9298-0.5444-11.879-2.8789-17.348-0.6755-1.5745-1.4775-3.17-1.4775-4.8795 0-2.693 1.9291-4.926 3.5248-7.0913 1.8362-2.4904 3.377-5.2468 5.7029-7.294 2.2035-1.9459 5.3948-3.1362 8.1218-2.1485 4.6336-1.1248 9.4029-1.5895 14.167-1.3803 1.6463 0.076 3.3475 0.2491 4.7911 1.0469 1.545 0.8442 2.6552 2.3468 4.1749 3.2459 1.1102 0.6627 2.3892 0.9751 3.5965 1.4394 3.3337 1.3019 6.0856 3.7629 7.7503 6.9309 1.6885 3.2713 2.1106 7.0323 2.4821 10.696 0.3546 3.4486 0.6923 7.0322-0.5066 10.278z" fill="#03C6AF"/>
<path d="m68.997 117.81c0.5403 7.041 3.9806 13.718 4.9009 20.624-1.8405-1.557-4.4028-3.123-4.7448-4.934-0.3799-1.959-1.5956-4.525-1.7982-6.505-0.2027-1.98 1.1862-4.398-0.2702-5.757-0.7092-0.663 1.1777-0.477 0.4855-1.157-1.5577-1.515-1.9418-3.85-2.0389-6.015-0.1647-3.833 0.3208-7.708-0.3842-11.477-0.4221-2.326-1.3043-4.5417-2.0093-6.8-0.8189-2.6297-1.4099-5.3227-2.0009-8.0199-0.5816-2.3981-1.0047-4.8319-1.2664-7.2855-0.1815-2.1105-0.097-4.3477 0.8443-6.2725 0.9414-1.9248 2.8451-3.4865 4.9811-3.457 7.1424 0.0929 5.9098 9.7759 7.4801 14.25 0.629 1.7813 1.4775 3.5034 1.8194 5.3607 0.1247 0.7281 0.1925 1.4648 0.2026 2.2034-0.9456 2.4524-2.6847 4.5249-3.7991 6.914-1.4057 3.0266-1.7519 6.4206-2.0642 9.7466-0.2871 2.857-0.553 5.723-0.3377 8.581z" fill="#000" opacity=".1"/>
<path d="m73.64 84.894c0.629 1.7813 1.4775 3.5034 1.8194 5.3607 0.5699 3.1109-0.3124 6.416 0.6458 9.4298 0.2495 0.643 0.4582 1.302 0.6248 1.971 0.1646 0.958-0.0253 1.938-0.0253 2.913 0 1.57 0.4939 3.09 0.9329 4.596 1.4846 5.121 2.4671 10.375 2.9337 15.686 0.0698 1.427 0.2948 2.842 0.6712 4.221 0.1773 0.467 0.3295 0.943 0.4559 1.427 0.1134 0.645 0.1404 1.302 0.0802 1.954-0.1139 2.068-0.3461 4.145-0.1139 6.205 0.2321 2.06 0.9835 4.149 2.5327 5.529-1.3846 0.3-2.8493 0.6-4.2001 0.156-1.8996-0.62-3.0394-2.532-4.006-4.271-1.2242-2.22-5.8761-4.221-6.3573-6.716-0.3757-1.954-1.5914-4.521-1.794-6.504-0.2026-1.984 1.1819-4.395-0.2744-5.754-0.705-0.662 1.182-0.481 0.4854-1.156-1.5534-1.516-1.9375-3.85-2.0346-6.019-0.1646-3.829 0.3166-7.704-0.3841-11.473-0.4222-2.326-1.3044-4.5421-2.0094-6.8046-0.8189-2.6254-1.4099-5.3185-2.0009-8.0199-0.5833-2.3977-1.0063-4.8316-1.2663-7.2855-0.1815-2.1105-0.1013-4.3519 0.8442-6.2767 0.9456-1.9248 2.8494-3.4823 4.9811-3.457 7.1129 0.1266 5.8887 9.8139 7.459 14.288z" fill="#03C6AF"/>
<path d="m53.285 86.544c0.6669 0.7808 1.5238 1.6377 2.5327 1.4858-0.0766 0.1214-0.1977 0.2079-0.3374 0.241-0.1397 0.0332-0.2868 0.0103-0.4098-0.0638-0.2421-0.1604-0.4362-0.3836-0.5614-0.6458l-1.4437-2.4355c-0.1899-0.3166-1.4985-2.1612-1.8193-1.0975-0.1267 0.4517 1.7138 2.1359 2.0389 2.5158z" fill="#000" opacity=".1"/>
<path d="m52.508 92.618c-0.0414-0.7958-0.3769-1.5479-0.9413-2.1105-0.5074-0.4602-1.0995-0.8172-1.7434-1.0511-1.583-0.65-3.4572-1.1734-5.1753-1.089 0.6248 0.9118 2.6299 1.4563 3.6345 1.9712 1.424 0.7345 2.8325 1.4943 4.2255 2.2794z" fill="#000" opacity=".1"/>
<path d="m57.004 109.91c-0.2913 2.162-2.06 3.799-3.8498 5.066-1.7898 1.266-3.7992 2.355-4.9685 4.187-0.8104 1.266-1.1735 2.735-1.8615 4.056-0.7599 1.457-1.8954 2.681-2.803 4.048-0.9075 1.368-1.6167 3.001-1.3381 4.622 4e-3 0.075 0.0233 0.148 0.0567 0.215 0.0334 0.066 0.0802 0.126 0.1375 0.174 0.0869 0.036 0.1819 0.05 0.2757 0.04 0.0939-0.01 0.1835-0.045 0.2604-0.099 1.8404-0.963 2.5665-3.162 3.339-5.066 0.811-1.921 1.7241-3.798 2.7354-5.622 0.4559-0.844 0.9582-1.764 1.8067-2.233 0.581-0.242 1.1758-0.449 1.7814-0.62 0.859-0.394 1.6126-0.986 2.1993-1.727 2.3043-2.749 3.5076-6.255 3.377-9.839-0.0253-0.756-0.0676-4.394-1.2031-3.271-1.1355 1.122 0.2491 4.601 0.0549 6.069z" fill="#000" opacity=".1"/>
<path d="m59.786 27.019c3.6303 1.5829 6.7541 5.0652 6.6401 9.0119-0.0971 4.145-3.567 8.0495-2.3724 12.022 0.6923 2.3047 2.7777 3.8496 4.4282 5.6013 6.2855 6.6523 6.2728 18.264-0.0338 24.904-2.4146 2.5326-5.5172 4.335-8.0711 6.7536-9.004 8.4843-9.3881 23.161-4.5674 34.554-3.6936 0.798-7.4583 1.223-11.237 1.266-1.7687 0-3.9342-0.3-4.5758-1.95-0.591-1.524 0.4221-3.584-0.743-4.711-0.5487-0.528-1.3719-0.599-2.1106-0.722-4.7532-0.768-8.6536-4.563-10.435-9.033s-1.6885-9.5013-0.667-14.204c0.7261-3.398 1.8616-7.1378 0.1773-10.177-2.1106-3.8242-8.1808-5.4366-8.088-9.8096 0.076-3.5837 4.3015-5.327 6.6992-7.9904 4.4239-4.9049 2.3175-12.515 2.3091-19.126 0-5.8166 2.0346-11.819 6.3656-15.694 6.4417-5.8124 18.848-3.9256 26.282-0.6965z" fill="#A26565"/>
<g fill="#000" opacity=".1">
<path d="m26.911 76c-1.8532-3.343-6.7203-4.9977-7.8516-8.2859-0.566 0.7674-0.8841 1.6893-0.9118 2.6424-0.0929 4.373 5.9689 5.9854 8.088 9.8139 0.6958 1.3553 0.9888 2.8816 0.8442 4.3983 0.667-2.9378 1.2537-6.0023-0.1688-8.5687z" opacity=".1"/>
<path d="m64.539 42.641c0.7598-2.2161 1.8616-4.4532 1.9164-6.7537 0.0077-0.2492 7e-4 -0.4987-0.0211-0.7471-0.8484 2.5411-2.1486 5.0061-1.8953 7.5008z" opacity=".1"/>
<path d="m27.637 54.447c1.4521-4.5883 0.1984-10.278 0.1942-15.369 0-0.6163 0.0253-1.2368 0.0718-1.8531-0.5002 1.9673-0.7526 3.9894-0.7514 6.0192 0.0084 3.6343 0.6458 7.5768 0.4854 11.203z" opacity=".1"/>
<path d="m69.153 74.24c-2.4146 2.5326-5.5172 4.335-8.0711 6.7536-4.559 4.2928-6.9018 10.173-7.4885 16.407 1.0891-4.6432 3.2883-8.9191 6.8131-12.241 2.5328-2.406 5.6565-4.1999 8.0711-6.7537 2.8721-3.1298 4.54-7.1775 4.7067-11.422-0.729 2.7124-2.1133 5.2041-4.0313 7.256z" opacity=".1"/>
<path d="m45.277 116.8c-1.7687 0-3.9342-0.304-4.5758-1.954-0.591-1.52 0.4221-3.58-0.743-4.711-0.5487-0.528-1.3761-0.599-2.1106-0.722-4.7489-0.764-8.6494-4.563-10.431-9.029-1.3128-3.3004-1.5956-6.9009-1.2664-10.455-0.0337 0.1392-0.0633 0.2785-0.0928 0.4221-1.0047 4.7022-1.1102 9.7379 0.6669 14.208 1.7772 4.47 5.6819 8.265 10.431 9.029 0.7514 0.122 1.5788 0.198 2.1106 0.722 1.1778 1.131 0.152 3.191 0.743 4.71 0.6416 1.651 2.8071 1.976 4.5758 1.955 3.7788-0.044 7.5435-0.468 11.237-1.267-0.521-1.231-0.9761-2.489-1.3635-3.769-3.0315 0.539-6.1024 0.827-9.1813 0.861z" opacity=".1"/>
</g>
<path d="m59.102 98.392c1.0427 0.7851 2.174-2.2076 1.5281-2.9547-0.1731 0.1941-1.6885 2.8449-1.5281 2.9547z" fill="#000" opacity=".1"/>
<path d="m63.547 152.56c1.2284-0.422 2.5327-0.844 3.3348-1.857 0.6627-0.815 1.2073-4.048-0.1942-2.499-1.1904 1.33-1.7518 3.081-3.1406 4.356z" fill="#000" opacity=".1"/>
<path d="m76.055 149.18c-0.1478 0.996-0.4222 2.03-1.1271 2.748-0.1309 0.135-0.4221 0.219-0.4601 0.037 0.7874-0.419 1.5191-0.935 2.1781-1.536 1.4268-1.414 1.621-4.896-0.5529-5.821-0.0211 1.528 0.1941 3.018-0.038 4.572z" fill="#000" opacity=".1"/>
<path d="m91.07 142.9s-11.98-4.706-16.311-4.221 4.9051 7.311 4.9051 7.311l5.5215 3.723s3.377-1.267 3.6007-1.364 2.2837-5.449 2.2837-5.449z" fill="#454B69"/>
<path d="m8.6409 92.407s8.9997-5.2172 20.878 1.2663c11.879 6.4837 13.858 44.638 13.858 44.638s-4.8587 38.871 13.875 30.222c0 0 34.192-10.616 37.616-8.277 0 0 3.242 0-3.2377 1.439-6.4796 1.44-31.512 9.371-31.512 9.371s-8.0922 2.828-11.52 0-13.141 0.363-14.403-19.079c-0.8353-12.252-2.3375-24.449-4.4999-36.537l-3.339-9.899-17.717-13.144z" fill="#565661"/>
<path d="m7.5602 152.52s3.9595-39.416-2.5328-53.637c-5.6481-12.393 16.193-6.5975 21.892-4.9091 0.8819 0.2637 1.6511 0.8131 2.1866 1.5618 3.377 4.7491 15.492 23.781 11.921 49.247 0 0-1.4395 22.679 7.5603 26.276l-27.73-8.932c-2.2499-0.726-4.5336-1.33-6.8385-1.853-2.938-0.667-7.7249-2.562-6.4585-7.754z" fill="#AC9F9F"/>
<path d="m204.78 226.11h3.6l2.36-48.39 0.161-2.752-3.061-1.077-0.203 2.926-2.857 49.293z" fill="#565661"/>
<path d="m207.64 176.82 3.102 0.903 0.161-2.752-3.061-1.077-0.202 2.926z" fill="#000" opacity=".1"/>
<path d="m174.72 207.42c-0.089 0.663-0.259 1.313-0.507 1.934-0.256 0.811-0.805 1.497-1.541 1.924-0.493 0.204-1.023 0.309-1.557 0.309-1.988 0.118-4.091 0.088-5.8-0.925-0.729-0.469-1.396-1.026-1.988-1.659-3.842-3.816-7.335-7.97-10.435-12.409-0.52-0.748-1.056-1.63-0.824-2.533 4.017-1.114 7.832-2.86 11.301-5.171 0.479-0.367 1.015-0.652 1.587-0.844 0.98-0.209 1.988-0.247 2.98-0.11 0.958 0.156 1.001 0.186 1.368 1.267 0.608 1.827 0.506 3.798 1.19 5.626 0.434 1.01 0.963 1.977 1.579 2.887 1.765 2.951 3.12 6.433 2.647 9.704z" fill="#A26565"/>
<path d="m174.72 207.42c-0.089 0.663-0.259 1.313-0.507 1.934-0.256 0.811-0.805 1.497-1.541 1.924-0.493 0.204-1.023 0.309-1.557 0.309-1.988 0.118-4.091 0.088-5.8-0.925-0.729-0.469-1.396-1.026-1.988-1.659-3.842-3.817-7.335-7.97-10.435-12.409-0.52-0.748-1.056-1.63-0.824-2.533 1.311-0.363 2.602-0.794 3.867-1.292l0.063 0.047c1.296 0.924 2.238 2.25 3.154 3.55l2.955 4.157c0.526 0.817 1.148 1.568 1.853 2.237 0.873 0.701 1.837 1.281 2.866 1.723 1.389 0.671 2.778 1.342 4.221 1.882 0.933 0.376 2.512 0.524 3.673 1.055z" fill="#000" opacity=".1"/>
<path d="m177.44 162.34c-0.29 0.701-0.644 1.375-1.055 2.014-3.923 6.588-6.95 13.67-9 21.058-0.582-0.131-0.911 0.663-0.907 1.267 4e-3 0.603 0 1.363-0.557 1.583-0.165 0.063-0.351 0.063-0.511 0.135-0.355 0.16-0.456 0.612-0.507 1l-0.498 3.655c-0.173 1.267-0.325 2.639 0.296 3.757 0.428 0.665 0.983 1.239 1.633 1.689l8.24 6.5c0.338 0.266 0.756 0.549 1.161 0.401 0.925-0.338 0.106-1.992 0.844-2.664 0.49-0.46 1.267-0.114 1.946-0.168 0.887-0.068 1.558-0.883 1.782-1.739 0.157-0.873 0.172-1.765 0.046-2.643-0.056-0.4-9e-3 -0.808 0.135-1.186 0.252-0.4 0.599-0.732 1.009-0.967 1.43-1.044 2.582-2.422 3.355-4.015 0.774-1.592 1.145-3.35 1.082-5.119-0.067-0.538-0.047-1.084 0.059-1.617 0.171-0.487 0.43-0.939 0.764-1.333 2.993-4.048 5.488-8.442 7.965-12.828 1.427-2.533 2.879-5.103 3.377-7.957 0.044-0.106 0.061-0.221 0.053-0.335-9e-3 -0.114-0.044-0.225-0.103-0.323s-0.14-0.182-0.237-0.243c-0.097-0.062-0.206-0.1-0.32-0.112-1.237-0.386-2.497-0.687-3.774-0.903-3.88-0.785-7.624-1.997-11.398-3.162s-3.744 1.208-4.88 4.255z" fill="#454B69"/>
<path d="m159.6 236.34 5.943 0.718 27.358-62.096 7.379-0.54 12.964 3.782 2.515 73.931h5.94l-2.339-76.633 14.222 0.363 25.378 63.172h5.399l-26.691-73.83-1.026-2.845-39.781-1.363-9.916 5.559-0.127 0.321-27.218 69.461z" fill="#565661"/>
<path d="m186.82 166.88c8.548 2.575 17.422 5.386 17.422 5.386s8.092 2.824 11.519 0c0.433-0.337 0.916-0.604 1.431-0.789-0.444 0.317-0.925 0.582-1.431 0.789l21.909-7.062-1.013-2.841-39.782-1.363-9.915 5.559-0.14 0.321z" fill="#000" opacity=".1"/>
<path d="m227.28 154.63-16.197-3.601s-38.701 7.201-41.58 10.08c0 0 30.959 6.298 34.378 8.442 3.42 2.144 23.762 4.517 23.399-14.921z" fill="#fff"/>
<path d="m167.18 212.49c-0.975 1.857-3.377 2.381-5.488 2.41-2.93 0.036-5.841-0.483-8.578-1.532-1.561-0.599-3.06-1.372-4.672-1.811-2.402-0.658-5.066-0.603-7.177-1.925-1.119-0.746-2.044-1.749-2.697-2.925-0.122-0.207-0.241-0.422-0.35-0.641-1.009-1.963-1.478-4.247-0.916-6.366 0.561-2.119 2.6-4.453 4.964-4.419 2.807 0.042 6.154 1.372 8.864 2.06 3.378 0.844 6.755 1.819 9.739 3.604 2.499 1.503 4.707 3.66 5.884 6.294 0.227 0.508 0.413 1.033 0.558 1.57 0.367 1.216 0.451 2.571-0.131 3.681z" fill="#A26565"/>
<path d="m167.18 212.49c-0.975 1.857-3.377 2.38-5.487 2.41-2.931 0.036-5.841-0.484-8.578-1.532-1.562-0.6-3.06-1.372-4.673-1.811-2.402-0.659-5.065-0.604-7.176-1.925-1.119-0.746-2.044-1.749-2.697-2.925-0.123-0.207-0.241-0.422-0.351-0.642 0.422 0.034 0.811 0.076 1.022 0.098 2.592 0.249 5.065 1.194 7.539 1.907 3.434 0.992 6.98 1.545 10.553 1.647 2.533 0.071 5.176-0.114 7.387-1.351 0.661-0.417 1.346-0.793 2.052-1.127 0.226 0.508 0.413 1.033 0.557 1.57 0.351 1.216 0.435 2.571-0.148 3.681z" fill="#000" opacity=".1"/>
<path d="m185.32 132.23c-5.487-0.899-11.076-1.118-16.64-1.338l-6.805-0.27c-0.484-0.056-0.974 3e-3 -1.431 0.173-0.393 0.253-0.767 0.535-1.118 0.844-0.684 0.465-1.558 0.515-2.381 0.562-5.839 0.321-11.647 1.075-17.375 2.254-2.955 0.603-6.024 1.393-8.244 3.431-2.347 2.157-3.377 5.446-3.457 8.628-0.081 3.183 0.755 6.311 1.638 9.367 1.123 3.679 1.743 7.492 1.844 11.337-0.039 1.067 1e-3 2.135 0.123 3.196 0.196 1.012 0.495 2.002 0.89 2.954l3.107 8.295c0.275 0.726 0.545 1.448 0.844 2.157 0.3 0.709 0.587 1.266 0.845 1.933 0.38 0.912 0.679 1.857 0.979 2.798l2.068 6.497 0.271 0.844c0.747 2.338 1.511 4.719 2.921 6.728s3.592 3.63 6.045 3.753c0.791-0.03 1.583-9e-3 2.372 0.063 0.672 0.164 1.325 0.4 1.946 0.705 1.842 0.765 3.819 1.151 5.813 1.135 1.836 0 3.875-0.51 4.871-2.055 0.549-0.844 0.692-1.883 0.844-2.879 0.266-2.001 0.524-4.09-0.156-5.99-0.422-1.135-1.131-2.11-1.621-3.229-0.684-1.524-0.907-3.208-1.351-4.816-0.959-3.461-2.911-6.566-5.614-8.932-0.96-3.801-1.665-7.662-2.111-11.557-0.061-0.862-0.233-1.713-0.51-2.532-0.494-1.267-1.495-2.292-1.913-3.584-0.392-1.199-0.274-2.583-0.987-3.618 5.939 1.634 11.819 1.267 17.986 1.17 1.975 6e-3 3.949-0.107 5.91-0.338 0.915-0.168 1.84-0.266 2.769-0.295 1.908 0 3.698 0.844 5.45 1.587 4.952 2.11 10.169 3.769 15.547 3.997 5.551 0.232 11.039-1.072 16.463-2.364 2.385-0.57 4.863-1.186 6.754-2.752s2.955-4.39 1.79-6.538c-0.887-1.617-2.723-2.411-4.437-3.086-4.744-1.874-9.514-3.702-14.086-5.968-6.982-3.403-12.204-11-19.853-12.267z" fill="#454B69"/>
<path d="m175.53 113.14c-0.662 1.435-1.777 2.609-2.6 3.959-1.377 2.224-1.831 4.897-1.266 7.451 0.296 1.262 0.879 2.439 1.702 3.441 0.824 1.002 1.866 1.801 3.047 2.337 1.054 0.42 2.163 0.687 3.292 0.794 1.486 0.181 3.069 0.219 4.382-0.498 0.982-0.59 1.789-1.433 2.334-2.44 1.136-1.9 1.782-4.04 2.373-6.171 1.093-3.934 2.026-7.97 1.891-12.051-0.047-1.406-0.325-2.989-1.49-3.799-0.602-0.348-1.269-0.566-1.959-0.642l-5.568-0.996c-1.076-0.194-2.955-0.984-3.888-0.207s-1.004 3.073-1.165 4.149c-0.253 1.592-0.409 3.208-1.085 4.673z" fill="#A1616A"/>
<path d="m243.21 96.809-1.456 12.207c-0.302 2.178-0.475 4.371-0.519 6.568 0 1.224 0.038 2.584-0.773 3.5-0.396 0.416-0.898 0.718-1.452 0.873-1.769 0.549-3.698 0.059-5.386-0.696-0.988-0.422-1.997-1.034-2.444-2.018-0.26-0.682-0.368-1.412-0.317-2.14 0-7.281 0.688-14.875 4.491-21.08 0.325-0.6089 0.782-1.1369 1.339-1.5449 1.055-0.6754 2.435-0.4855 3.63-0.1182 0.734 0.2237 2.718 0.4727 3.187 1.127 0.469 0.6542-0.198 2.4819-0.3 3.3219z" fill="#A1616A"/>
<path d="m204.58 52.666c8.393 0 15.197-6.8033 15.197-15.196 0-8.3923-6.804-15.196-15.197-15.196s-15.197 6.8034-15.197 15.196c0 8.3924 6.804 15.196 15.197 15.196z" fill="#A1616A"/>
<path d="m200.51 60.116c-0.055 1.1822-0.377 2.3367-0.942 3.3768 7.759-1.1819 15.498-2.4988 23.217-3.9509-2.561-1.3164-4.497-3.5925-5.386-6.3315-0.42-1.4687-0.65-2.9851-0.684-4.5123-0.122-2.4217-0.076-4.8491 0.139-7.2644-2.701 0.2828-5.259 1.2959-7.834 2.1654-2.589 0.8749-5.223 1.6118-7.89 2.2076-1.287 0.287-2.583 0.5319-3.883 0.7598-1.52 0.2701-2.25 0.2659-1.195 1.5998 2.832 3.5625 4.854 7.1842 4.458 11.95z" fill="#A1616A"/>
<path d="m205.18 58.086c-2.005 0.2997-4.107 0.6374-5.707 1.8784-0.609 0.523-1.188 1.0796-1.735 1.6673-3.178 3.0856-7.666 4.3266-11.524 6.5046-0.629 0.311-1.187 0.7495-1.638 1.2874-0.422 0.5868-0.637 1.3339-1.08 1.9164-0.515 0.6753-1.33 1.0974-1.731 1.8446-0.401 0.7471-0.312 1.5407-0.355 2.3342-0.097 1.7433-0.755 3.3979-1.266 5.0652-2.343 7.982-1.06 16.884-4.605 24.423 0.163 0.434 0.412 0.831 0.733 1.166 0.32 0.335 0.706 0.602 1.132 0.784 0.893 0.321 1.824 0.521 2.77 0.595l7.855 0.975c1.123 0.139 2.314 0.27 3.339-0.199-0.938 2.587-1.602 5.265-1.979 7.991-0.191 1.666-0.487 3.318-0.887 4.947-1.081 3.714-3.799 6.808-7.02 8.923-0.406 0.213-0.748 0.529-0.992 0.916-0.422 0.844 0.203 1.79 0.646 2.617 1.287 2.398 1.11 5.276 1.093 7.995-0.017 2.718 0.258 5.702 2.157 7.653 1.123 1.152 2.66 1.777 4.154 2.372l12.288 4.909c2.028 0.863 4.12 1.569 6.256 2.11 3.238 0.739 6.602 0.709 9.924 0.566 2.195-0.093 4.388-0.234 6.577-0.422 0.871-3e-3 1.727-0.228 2.487-0.654 0.653-0.516 1.156-1.199 1.456-1.976 1.709-3.719 2.284-8.058 4.935-11.173 1.819-2.14 4.643-3.849 4.85-6.648 0.097-1.393-0.524-2.748-0.532-4.145 0-1.718 0.899-3.352 0.844-5.065-0.114-2.79-2.744-4.918-3.162-7.678-1.063-6.999 2.491-13.989 4.673-20.721 0.393-1.2034 0.899-2.533 2.056-3.048s2.786-0.2448 3.2-1.3845c1.043-2.8618 1.292-6.2176 1.156-9.2609-0.075-1.7602-0.7-3.4824-0.628-5.2468 0.05-1.241 0.447-2.4482 0.553-3.6849 0.16-1.8699-0.334-3.7272-0.845-5.5338-0.147-0.645-0.368-1.271-0.658-1.8657-0.312-0.5395-0.68-1.0446-1.098-1.5069l-2.056-2.444c-0.962-1.1439-1.979-2.33-3.377-2.9083-0.451-1.1185-1.895-1.891-2.929-2.5073-1.043-0.5915-2.12-1.1201-3.225-1.5829l-11.626-5.1327c-0.434-0.2188-0.9-0.3697-1.38-0.4475-0.708-0.0237-1.411 0.121-2.052 0.4221-3.545 1.4057-7.247 2.807-11.047 3.3726z" fill="#03C6AF"/>
<path d="m192.87 40.112c-0.448-1.5744-1.591-2.9336-1.765-4.5629-0.156-1.4479 0.482-2.8492 0.845-4.2591 0.363-1.4098 0.35-3.132-0.769-4.069-0.185-0.1604-0.422-0.304-0.489-0.5403-0.135-0.4221 0.291-0.8063 0.422-1.2326 0.24-0.8442-0.802-1.777-0.422-2.5875 0.215-0.4432 0.755-0.5993 1.228-0.7386 1.807-0.5361 3.639-1.7265 4.031-3.571 1.415 0.5909 2.922-0.5192 4.006-1.5956 1.085-1.0764 2.419-2.3047 3.914-1.9797l-0.334 0.6796c2.304-0.8364 4.824-0.8647 7.147-0.0802h-0.709c2.037 0.0345 4.012 0.7029 5.652 1.9122-0.182 0-0.199 0.2701-0.127 0.4221 0.591 1.3802 2.111 2.1105 3.576 2.4524 0.882 0.211 1.84 0.363 2.486 0.9961 0.646 0.6332 0.659 1.9544-0.194 2.2583 1.739 0.677 3.385 1.5704 4.901 2.6593 0.422 0.3081 0.899 0.726 0.844 1.2663-0.06 0.2712-0.148 0.5357-0.262 0.7893-0.084 0.4505-0.054 0.915 0.089 1.3507l0.468 1.9333c0.515 2.1485 0.921 4.736-0.645 6.2935 0.586 1.0953 0.803 2.3503 0.62 3.579s-0.757 2.3656-1.638 3.2422c0.125 0.3771 0.167 0.7763 0.126 1.1712s-0.165 0.7766-0.365 1.1199c-0.199 0.3434-0.469 0.6406-0.792 0.8721-0.322 0.2315-0.69 0.3921-1.079 0.4711 0.519 0.8105 0.042 1.967-0.777 2.4735-0.819 0.5066-1.849 0.5108-2.803 0.4221-0.954-0.0886-1.921-0.3039-2.875-0.1604-1.389 0.2153-2.748 1.1608-4.086 0.7387-0.499-0.2132-0.978-0.4703-1.431-0.7682-0.937-0.5023-2.026-0.6163-3.065-0.8442-1.77-0.3804-3.451-1.0969-4.951-2.1105-0.995-0.5978-1.787-1.48-2.275-2.5326-0.929-2.3469 0.633-5.4241-1.009-7.3362-0.963-1.1144-2.871-1.1312-3.947-0.1773-0.536 0.477-0.608 1.4816-1.165 1.8404-0.778 0.1966-1.582 0.2651-2.381 0.2026z" fill="#464353"/>
<path d="m172.22 161.15c-0.6-0.475-1.118-1.045-1.533-1.688-0.416-0.646-0.581-1.423-0.464-2.182-0.165 0.961-0.102 1.947 0.183 2.879 0.286 0.933 0.785 1.785 1.459 2.49 1.06 1.085 3.048 2.148 4.597 1.777-0.219-1.241-3.259-2.44-4.242-3.276z" fill="#000" opacity=".1"/>
<path d="m255.72 93.251s-9-5.2172-20.879 1.2663c-11.878 6.4837-13.858 44.638-13.858 44.638s4.859 38.871-13.876 30.222c0 0-34.192-10.616-37.615-8.277 0 0-3.242 0 3.237 1.439 6.48 1.44 31.512 9.371 31.512 9.371s8.092 2.828 11.52 0 13.141 0.363 14.403-19.079c0.835-12.252 2.338-24.449 4.5-36.537l3.339-9.899 17.717-13.144z" fill="#565661"/>
<path d="m256.8 153.37s-3.959-39.416 2.533-53.637c5.648-12.393-16.193-6.5975-21.891-4.909-0.882 0.2636-1.651 0.813-2.187 1.5617-3.377 4.7489-15.492 23.781-11.921 49.247 0 0 1.44 22.679-7.56 26.276l27.729-8.932c2.25-0.726 4.534-1.33 6.839-1.853 2.938-0.667 7.725-2.562 6.458-7.754z" fill="#B0AAAA"/>
<path d="m146.72 86.308v0.9624h-28.54v-0.7809c0.783-0.2934 1.523-0.6879 2.204-1.1734 1.212-0.8678 2.199-2.012 2.881-3.3378 0.681-1.3257 1.036-2.7948 1.036-4.2854 1e-3 -0.7788-0.097-1.5546-0.291-2.3089-0.345-1.3575-0.99-2.6206-1.887-3.6965s-2.024-1.9373-3.297-2.5211h27.7c-1.273 0.5838-2.4 1.4452-3.297 2.5211s-1.541 2.339-1.887 3.6965c-0.192 0.7545-0.289 1.5303-0.287 2.3089-1e-3 1.4903 0.354 2.9592 1.034 4.285 0.681 1.3258 1.668 2.4702 2.879 3.3382 0.548 0.3908 1.135 0.7232 1.752 0.9919z" fill="#DFE6F5"/>
<path d="m146.52 69.166c-1.274 0.5838-2.4 1.4452-3.297 2.5211s-1.542 2.339-1.887 3.6965h-17.333c-0.345-1.3575-0.989-2.6206-1.886-3.6965s-2.024-1.9373-3.297-2.5211h27.7z" fill="#000" opacity=".1"/>
<path d="m85.502 64.248v5.4198c0 2.9885 2.1866 5.4156 4.8882 5.4156h83.966c2.701 0 4.892-2.4271 4.892-5.4156v-5.4198h-93.746z" fill="#DFE6F5"/>
<path d="m146.72 86.307v0.9624h-28.54v-0.7809c0.783-0.2935 1.523-0.688 2.204-1.1735h24.584c0.548 0.3908 1.135 0.7233 1.752 0.992z" fill="#000" opacity=".1"/>
<path d="m154.72 85.616h-44.538c-0.791 0-1.431 0.6397-1.431 1.4288s0.64 1.4288 1.431 1.4288h44.538c0.791 0 1.431-0.6397 1.431-1.4288s-0.64-1.4288-1.431-1.4288z" fill="#DFE6F5"/>
<path d="m179.25 4.888c0-0.64225-0.126-1.2782-0.372-1.8715s-0.607-1.1324-1.061-1.5863c-0.454-0.45394-0.994-0.8139-1.587-1.0593-0.594-0.24539-1.23-0.37141-1.872-0.37086h-83.966c-0.6421-5.5517e-4 -1.278 0.1255-1.8713 0.37094s-1.1324 0.60547-1.5865 1.0595c-0.454 0.454-0.814 0.99306-1.0595 1.5863-0.2454 0.59329-0.3715 1.2292-0.3709 1.8712v60.416h93.746v-60.416z" fill="#474157"/>
<path d="m176.69 7.0703v51.919c1e-3 0.3163-0.061 0.6296-0.182 0.922s-0.298 0.5581-0.521 0.782c-0.224 0.2239-0.489 0.4015-0.781 0.5226-0.292 0.1212-0.606 0.1836-0.922 0.1836h-83.818c-0.3163 0-0.6295-0.0624-0.9217-0.1836-0.2922-0.1211-0.5577-0.2987-0.7812-0.5226s-0.4006-0.4896-0.5213-0.782c-0.1206-0.2924-0.1825-0.6057-0.1819-0.922v-51.919c-0.0021-0.4224 0.1087-0.8377 0.3208-1.203 0.2113-0.36598 0.5153-0.66985 0.8814-0.88104 0.3661-0.21118 0.7813-0.32222 1.2039-0.32195h83.818c0.638 0 1.25 0.25349 1.701 0.7047 0.452 0.45121 0.705 1.0632 0.705 1.7013z" fill="#4C4C78"/>
<path d="m132.38 3.4572c0.623 0 1.127-0.50459 1.127-1.127 0-0.62244-0.504-1.127-1.127-1.127-0.622 0-1.127 0.50459-1.127 1.127 0 0.62243 0.505 1.127 1.127 1.127z" fill="#fff"/>
<path d="m132.38 72.673c1.536 0 2.782-1.2454 2.782-2.7816 0-1.5363-1.246-2.7817-2.782-2.7817s-2.782 1.2454-2.782 2.7817c0 1.5362 1.246 2.7816 2.782 2.7816z" fill="#fff"/>
<path d="m176.69 7.0703h-88.622c0-0.6381 0.2535-1.2501 0.7047-1.7013s1.0632-0.7047 1.7014-0.7047h83.81c0.638 0 1.25 0.25349 1.701 0.7047s0.705 1.0632 0.705 1.7013z" fill="#C8CAD7"/>
<path d="m90.466 6.4709c0.3334 0 0.6037-0.27025 0.6037-0.60361 0-0.33337-0.2703-0.60361-0.6037-0.60361-0.3333 0-0.6036 0.27024-0.6036 0.60361 0 0.33336 0.2703 0.60361 0.6036 0.60361z" fill="#EDEDF4"/>
<path d="m92.273 6.4709c0.3334 0 0.6036-0.27025 0.6036-0.60361 0-0.33337-0.2702-0.60361-0.6036-0.60361s-0.6037 0.27024-0.6037 0.60361c0 0.33336 0.2703 0.60361 0.6037 0.60361z" fill="#EDEDF4"/>
<path d="m94.08 6.4709c0.3334 0 0.6037-0.27025 0.6037-0.60361 0-0.33337-0.2703-0.60361-0.6037-0.60361s-0.6036 0.27024-0.6036 0.60361c0 0.33336 0.2702 0.60361 0.6036 0.60361z" fill="#EDEDF4"/>
<defs>
<linearGradient id="a" x1="74.734" x2="75.713" y1="138" y2="138" gradientUnits="userSpaceOnUse">
<stop stop-color="#808080" stop-opacity=".25" offset="0"/>
<stop stop-color="#808080" stop-opacity=".12" offset=".54"/>
<stop stop-color="#808080" stop-opacity=".1" offset="1"/>
</linearGradient>
</defs>
</svg>
