<?xml version="1.0" encoding="UTF-8"?>
<svg fill="none" viewBox="0 0 537 918" xmlns="http://www.w3.org/2000/svg">
<path d="m468.66 327.33c7.325-24.575 0-49.151 0-49.151v-23.119s8.365-45.336-28.885-74.419l-24.725-21.802s-13.865-11.883-17.862-12.646c-0.762-0.165-1.534-0.281-2.311-0.346l-0.739-0.417c-2.122-3.639-3.931-7.452-5.408-11.397 1.6 0.205 3.225 0.04 4.751-0.481s2.913-1.384 4.053-2.525c0.892-1.024 1.596-2.198 2.08-3.467 1.433-3.214 1.664-7.098 2.889-10.52 1.069-2.779 2.635-5.341 4.621-7.559-0.254 0.416-0.508 0.809-0.739 1.225 3.489-4.347 8.064-8.092 11.322-12.692 0.657-0.903 1.259-1.8449 1.803-2.8205l-0.485 0.5779c4.621-7.3055 5.938-16.183 7.255-24.691 0.635-2.905 0.682-5.9078 0.139-8.8314-0.628-1.9458-1.456-3.8208-2.473-5.5947-5.36-11.097-5.245-25.015-13.864-33.869-6.447-6.6352-16.175-8.6696-25.419-9.8025-9.243-1.1328-18.879-1.7801-26.781-6.612-2.215-1.6737-4.659-3.0206-7.256-3.9996-1.314-0.45554-2.745-0.43934-4.048 0.0458-1.303 0.48515-2.396 1.409-3.092 2.6129-0.162 0.70496-0.486 1.3622-0.948 1.9189-0.414 0.23915-0.878 0.37829-1.356 0.40638-0.477 0.0281-0.954-0.05563-1.394-0.24455l-12.247-3.2829 0.139 0.62422h-0.3l0.439 1.942c0.392 0 0.808 0 1.155 0.67045l-1.964 3.0286c-3.802-0.0699-7.557-0.85417-11.069-2.3119-0.011 0.2002-0.011 0.4009 0 0.6011h-0.161c-0.231 3.4678 3.697 5.7104 4.898 8.9701 0.486 1.4239 0.486 2.9688 0 4.3926-0.512 1.3222-1.3 2.5201-2.31 3.5141-4.368 4.3001-9.914 3.4447-14.928 6.1727-0.433 0.1802-0.822 0.4539-1.137 0.8016-0.316 0.3477-0.551 0.7608-0.688 1.2098-0.191 0.3367-0.249 0.7326-0.162 1.1097 0.193 0.5222 0.55 0.9681 1.017 1.2715 1.46 1.176 3.059 2.1697 4.76 2.9592l-1.433 1.3872c-6.344 6.4619-10.991 14.394-13.527 23.09-2.535 8.6953-2.88 17.883-1.004 26.744 1.876 8.8612 5.915 17.12 11.757 24.04s13.304 12.286 21.722 15.619c0.185 0.948 0.324 1.919 0.462 2.96v0.277l0.139 1.318-16.522 6.935c-2.489-0.017-4.923-0.741-7.017-2.087-2.095-1.347-3.764-3.26-4.814-5.519-3.836-7.953-17.4 0-17.4 0s-41.432-3.121-56.752 4.508c0 0-24.726-10.38-28.192-11.073-3.466-0.694-8.711-3.468-11.161-2.775-2.449 0.694-5.569-4.624-7.302-4.161-1.733 0.462-2.311-3.445-7.995-4.832-5.685-1.387-7.672 0.347-13.865-5.895s-57.099-30.795-57.099-30.795l-22.969-18.703-24.379-19.374-0.439 0.8092c-0.1387-0.578-0.3005-1.1791-0.4622-1.8033-2.3966-9.6635-5.4146-19.162-9.0352-28.436-1.5713-3.7452-2.3107-8.4846-4.3672-5.9878-1.2941 1.5027-3.5124-1.7802-6.9323-3.9996-0.7041-0.49092-1.5091-0.81805-2.3559-0.95743-0.8468-0.13938-1.714-0.087471-2.5381 0.15192-0.8242 0.23939-1.5845 0.66019-2.2251 1.2316-0.6405 0.5714-1.1452 1.2789-1.4771 2.0708-18.971 29.754-25.765 31.904-14.766 42.793 9.7746 9.7099 16.291 18.287 24.286 20.807l0.9475 0.3006c-0.1754 0.0355-0.3562 0.0355-0.5316 0l46.215 55.37s33.414 29.084 56.406 38.424 21.236 12.114 21.236 12.114 69.623 35.303 80.415 34.678c10.791-0.624 8.711 72.339 4.182 84.107-4.529 11.767-11.831 96.914-11.831 96.914s-6.932 17.987 0.347 30.448c0 0 1.617 23.859 0.161 29.569-6.354 9.779-15.389 26.379-16.868 43.463 0 0.902-0.185 1.757-0.277 2.636-0.463 0.541-1.019 0.995-1.641 1.341 0 0 0.601-0.139 1.548-0.462-0.691 7.097-2.242 14.084-4.621 20.806-3.701 9.591-5.627 19.775-5.685 30.055v55l-4.598 34.1s-5.569 25.824 0 31.835c2.362 3.003 3.457 6.812 3.05 10.612-0.235 4.405 1.018 8.762 3.558 12.368 0.968 1.061 1.679 2.329 2.08 3.708s0.48 2.831 0.231 4.245c-1.848 5.988 2.727 69.657 2.727 69.657s-1.34 17.548-3.189 18.496c-1.849 0.947 3.097 20.159 3.097 20.159s-18.81 15.698-14.027 24.021l4.807 7.375-1.271 1.248-0.786 0.786c-1.445-0.837-3.133-1.155-4.783-0.901-5.904 6.057-12.228 11.689-18.925 16.853-8.481 6.127-31.565 15.004-31.565 15.004l-18.209 1.48h-0.347s-8.712-0.809-3.836 12.692c4.876 13.502 48.526 9.248 48.526 9.248l25.419-4.023s45.476 0.208 58.485-2.659c5.454-1.225 6.748-4.115 6.401-7.074l-0.139-0.139c-0.617-2.809-1.892-5.432-3.72-7.652-0.099-0.138-0.207-0.27-0.323-0.393l0.831-9.248c19.295-11.12-5.453-33.013-5.453-33.013s8.457-18.495 12.825-24.437c4.367-5.942 4.344-94.14 4.344-94.14s2.311-31.858-3.72-39.302c-0.103-2.401 0.447-4.784 1.59-6.897 1.144-2.113 2.838-3.876 4.903-5.102 4.298-2.936 17.284-43.371 27.475-76.94l6.424 39.557s-1.387 18.911 2.796 24.46c0.777 1.04 1.33 2.231 1.624 3.496 0.294 1.266 0.323 2.578 0.086 3.855-1.019 5.337-0.693 10.843 0.947 16.022 0.467 2.21 1.644 4.208 3.351 5.687 3.72 1.849 3.951 8.438 5.338 9.825 1.386 1.388 9.982-1.965 10.444 3.098 0.264 4.458 0.264 8.928 0 13.386l2.796 82.142s-4.621 6.935-5.569 24.922c-0.392 7.768-1.848 12.184-3.35 14.704-0.835 1.355-1.217 2.941-1.093 4.528 0.125 1.588 0.75 3.094 1.786 4.303l0.809 0.925-3.443 2.658c-1.364 1.062-2.32 2.561-2.707 4.246-0.387 1.684-0.182 3.451 0.581 5.002-1.108 0.967-1.904 2.241-2.286 3.661-0.383 1.42-0.335 2.922 0.137 4.315 0.166 0.446 0.367 0.879 0.601 1.295-2.604 0.411-5.022 1.604-6.933 3.421-3.425 4.719-7.556 8.883-12.247 12.346-6.822 5.211-13.348 10.799-19.549 16.738-2.916 4.042-6.857 7.234-11.415 9.247-1.112 0.45-2.265 0.791-3.443 1.018-9.243 1.872-6.262 11.443 1.155 12.946 7.418 1.503 32.027 9.109 51.184 4.624 0 0 5.684 2.312 14.026-1.942s27.337-9.248 27.337-9.248 10.444 0 11.831-4.161c0.373-1.317 0.575-2.677 0.6-4.046l0.301-0.277-0.277-0.255c0.024-3.097-0.216-6.191-0.717-9.247-0.254-1.572-0.554-3.006-0.832-4.138-0.901-3.468-2.542-7.93-3.258-9.826 0.121-0.153 0.229-0.315 0.324-0.485 3.974-6.728-2.635-23.119-2.635-23.119 2.189-3.431 4.84-6.543 7.88-9.248 3.72-2.751 13.472-74.743 13.472-74.743s-0.462-18.495 4.621-26.772c5.084-8.277-6.932-58.606-6.932-58.606s-5.107-11.56-3.235-15.698-1.872-19.374-1.872-19.374v-18.171c-5e-3 -2.171-0.364-4.326-1.063-6.381-1.432-4.277-3.558-12.484-1.247-18.495 3.258-8.3 10.675-59.531 10.675-59.531s-5.8-22.588 2.681-40.574c0.683-1.441 1.455-2.839 2.31-4.185 6.286-9.894 4.414-27.465 1.318-41.614-0.486-2.196-0.994-4.3-1.502-6.311-0.231-0.855-0.463-1.665-0.67-2.474l0.993-0.416s0-1.364 0.301-3.653c3.437-0.668 6.7-2.04 9.583-4.029s5.324-4.553 7.17-7.53c0 0 21.236-23.882 40.045-33.916 18.81-10.033 20.196-24.575 20.196-24.575-2.796-4.855 4.968-24.575 4.968-24.575l-0.785-21.339zm-61.166 31.835-20.104 23.327c-6e-3 -0.046-6e-3 -0.093 0-0.139-5.222-7.259 4.876-23.535 4.876-23.535l16.614-37.245c-0.138 4.809-0.716 9.017-2.172 11.005-4.621 6.242 8.342 16.622 8.342 16.622-6.955-0.069-7.649 9.965-7.649 9.965h0.093z" fill="url(#a)"/>
<path d="m53.411 53.397-10.953 21.292c-3.4791-0.2857-6.9095-1-10.214-2.1269-5.2397-1.5774-10.086-4.2471-14.22-7.8334-4.1342-3.5862-7.4624-8.0078-9.7655-12.974-9.7976-21.686 6.4239-35.696 13.98-39.811 7.5562-4.1152 14.558-8.8545 20.219 4.6238 3.5654 9.2196 6.5445 18.656 8.9195 28.251 1.2478 5.1324 2.0335 8.5771 2.0335 8.5771z" fill="#CC818C"/>
<path d="m402.15 164.37-17.515 26.148s-82.865 39.533-67.013-6.936c6.933-20.46 7.787-35.441 6.54-45.798v-0.278c-1.618-12.946-6.494-18.495-6.494-18.495s80.762-41.337 68.746-13.062c-2.449 5.879-3.432 12.266-2.866 18.611 0.998 9.138 3.971 17.949 8.712 25.823 2.821 4.982 6.134 9.668 9.89 13.987z" fill="#CC818C"/>
<path d="m377.06 681.75s11.923 49.983 6.932 58.236c-4.991 8.254-4.621 26.587-4.621 26.587s-9.636 71.553-13.31 74.304c-3.01 2.709-5.631 5.821-7.788 9.248 0 0 6.54 16.183 2.611 22.887-0.592 1.037-1.51 1.85-2.611 2.312-6.146 2.59-28.838-8.901-41.755-15.952-1.627-0.869-2.853-2.336-3.42-4.092-0.482-1.377-0.538-2.867-0.163-4.277 0.374-1.409 1.164-2.674 2.266-3.629-0.761-1.55-0.968-3.313-0.585-4.997 0.383-1.683 1.331-3.184 2.687-4.251l3.397-2.636-0.785-0.924c-1.026-1.205-1.645-2.703-1.77-4.281-0.124-1.577 0.253-3.154 1.076-4.505 1.479-2.496 2.912-6.935 3.305-14.588 0.924-17.894 5.499-24.76 5.499-24.76l-2.749-81.633c0.251-4.427 0.251-8.866 0-13.293-0.463-5.04-8.943-1.711-10.306-3.098-1.364-1.387-1.618-7.907-5.269-9.756-1.695-1.467-2.864-3.448-3.327-5.641-1.619-5.151-1.944-10.622-0.948-15.929 0.236-1.268 0.208-2.572-0.083-3.829-0.29-1.257-0.836-2.44-1.604-3.477-4.136-5.502-2.75-24.298-2.75-24.298l-6.331-39.302c-10.075 33.361-22.9 73.541-27.128 76.454-2.047 1.224-3.725 2.979-4.856 5.079-1.13 2.1-1.673 4.467-1.568 6.851 5.961 7.328 3.674 38.978 3.674 38.978s0 87.575-4.298 93.539c-4.298 5.965-12.663 24.298-12.663 24.298s24.563 21.871 5.245 32.898l-0.208 0.116c-19.711 11.005-60.496-19.697-60.496-19.697l4.252-4.254 1.248-1.249-4.621-7.351c-4.738-8.254 13.864-23.836 13.864-23.836s-4.945-19.258-3.119-20.183c1.825-0.924 3.119-18.356 3.119-18.356s-4.506-63.277-2.68-69.218c0.27-1.396 0.214-2.836-0.163-4.208-0.376-1.371-1.064-2.637-2.009-3.699-2.498-3.59-3.734-7.908-3.513-12.276 0.404-3.771-0.673-7.551-3.004-10.542-5.499-5.965 0-31.65 0-31.65l4.622-33.938v-54.052c-3e-3 -10.364 1.876-20.641 5.545-30.332 2.769-7.873 4.448-16.087 4.992-24.414 1.502-17.385 10.837-34.285 17.122-43.926 3.328-5.086 5.801-8.138 5.801-8.138l146.66-5.756s2.311 6.542 4.621 15.628c0.509 1.988 1.017 4.069 1.479 6.265 3.073 14.103 4.922 31.557-1.294 41.406-0.87 1.322-1.642 2.705-2.311 4.138-8.388 17.871-2.657 40.32-2.657 40.32s-7.325 50.861-10.537 59.161c-2.311 5.849-0.185 14.01 1.248 18.264 0.68 2.043 1.031 4.181 1.04 6.335v18.055s3.674 15.12 1.848 19.258c-1.825 4.139 3.143 15.606 3.143 15.606z" fill="#444053"/>
<path d="m383.81 501.9c-0.856 1.33-1.628 2.712-2.311 4.138l-8.249-0.462c0.785-4.254-4.83-44.134-4.83-44.134l16.637-0.948c3.097 14.195 4.969 31.673-1.247 41.406z" fill="#000" opacity=".1"/>
<path d="m385.17 500.63c-0.869 1.321-1.642 2.704-2.31 4.138l-8.273-0.463c0.809-4.253-4.806-44.157-4.806-44.157l16.614-0.924c3.143 14.102 4.991 31.557-1.225 41.406z" fill="#444053"/>
<path d="m385.17 500.63c-0.869 1.321-1.642 2.704-2.31 4.138l-8.273-0.463c0.809-4.253-4.806-44.157-4.806-44.157l16.614-0.924c3.143 14.102 4.991 31.557-1.225 41.406z" fill="#000" opacity=".05"/>
<path d="m360.88 872.94c-0.593 1.037-1.51 1.849-2.611 2.312-6.147 2.589-28.838-8.901-41.755-15.952-1.627-0.87-2.853-2.337-3.42-4.092 7.348-1.341 12.177 6.935 12.177 6.935 1.228-0.773 2.598-1.291 4.029-1.525 1.432-0.233 2.895-0.177 4.304 0.166 1.41 0.342 2.736 0.965 3.9 1.83 1.165 0.865 2.144 1.955 2.88 3.205 6.308 9.248 19.826 5.364 19.826 5.364s0.277 0.624 0.67 1.757z" fill="#000" opacity=".1"/>
<path d="m364.69 901.05c-1.386 4.116-11.692 4.116-11.692 4.116s-18.487 5.294-26.713 9.409-13.865 1.942-13.865 1.942c-18.925 4.369-43.211-3.19-50.536-4.624-7.325-1.433-10.214-11.004-1.155-12.831 1.163-0.234 2.301-0.583 3.396-1.04 4.52-2.015 8.415-5.209 11.277-9.248 6.124-5.895 12.566-11.452 19.295-16.645 4.645-3.433 8.73-7.567 12.108-12.253 10.768-9.525 18.486 3.56 18.486 3.56 1.228-0.773 2.598-1.292 4.029-1.525 1.432-0.234 2.895-0.177 4.305 0.166 1.409 0.342 2.735 0.965 3.9 1.83 1.164 0.864 2.143 1.954 2.879 3.205 6.308 9.247 19.826 5.364 19.826 5.364s2.311 6.195 3.559 10.657c0.277 1.133 0.577 2.566 0.832 4.139 0.905 4.546 0.928 9.223 0.069 13.778z" fill="#FF748F"/>
<path d="m333.18 872.06c0.702 0 1.271-0.57 1.271-1.272s-0.569-1.271-1.271-1.271-1.271 0.569-1.271 1.271 0.569 1.272 1.271 1.272z" fill="#575988"/>
<path d="m322.41 882.14c0.702 0 1.271-0.57 1.271-1.272s-0.569-1.271-1.271-1.271-1.271 0.569-1.271 1.271 0.569 1.272 1.271 1.272z" fill="#575988"/>
<path d="m311.46 891.2c0.702 0 1.271-0.569 1.271-1.271 0-0.703-0.569-1.272-1.271-1.272s-1.271 0.569-1.271 1.272c0 0.702 0.569 1.271 1.271 1.271z" fill="#575988"/>
<path d="m317.12 887.16c0.702 0 1.271-0.569 1.271-1.271s-0.569-1.272-1.271-1.272-1.271 0.57-1.271 1.272 0.569 1.271 1.271 1.271z" fill="#575988"/>
<path d="m328.02 876.78c0.702 0 1.271-0.569 1.271-1.271s-0.569-1.272-1.271-1.272-1.271 0.57-1.271 1.272 0.569 1.271 1.271 1.271z" fill="#575988"/>
<path d="m364.69 901.05c-1.387 4.115-11.693 4.115-11.693 4.115s-18.486 5.295-26.712 9.41-13.865 1.942-13.865 1.942c-18.925 4.369-43.211-3.191-50.536-4.624s-10.214-11.004-1.155-12.831c1.163-0.234 2.301-0.583 3.396-1.04 8 2.727 16.351 4.284 24.795 4.624 18.671 0.786 33.46 0 33.46 0l18.902-6.081c3.577-2.178 7.552-3.624 11.692-4.254 4.164-0.843 8.102-2.561 11.554-5.04 0.936 4.541 0.991 9.218 0.162 13.779z" fill="#DCE6F2"/>
<path d="m317.65 912.91c-1.056-1e-3 -2.109-0.109-3.143-0.323l0.277-1.341c3.847 0.598 7.784 0.051 11.323-1.572 1.687-0.671 3.374-1.457 5.014-2.312 1.641-0.856 3.929-1.85 5.962-2.613l1.872-0.647c1.04-0.347 2.08-0.694 3.073-1.133 0.578-0.231 1.132-0.508 1.687-0.763 1.347-0.709 2.774-1.253 4.252-1.618 0.764-0.146 1.535-0.246 2.311-0.301 0.697-0.047 1.391-0.132 2.079-0.254 1.379-0.335 2.713-0.832 3.975-1.479 1.358-0.692 2.793-1.219 4.275-1.573l1.017-0.185c1.078-0.024 2.119-0.406 2.957-1.086l0.994 0.948c-1.044 0.906-2.363 1.435-3.743 1.502l-0.948 0.162c-1.378 0.336-2.712 0.832-3.974 1.48-1.358 0.691-2.793 1.219-4.275 1.572-0.762 0.151-1.535 0.244-2.311 0.277-0.721 0.054-1.438 0.147-2.149 0.278-1.366 0.348-2.685 0.86-3.929 1.526l-1.733 0.786c-1.063 0.439-2.126 0.809-3.188 1.156l-1.826 0.647c-1.987 0.74-3.951 1.665-5.869 2.543-1.918 0.879-3.351 1.595-5.084 2.312-2.813 1.223-5.831 1.905-8.896 2.011z" fill="#575988" opacity=".5"/>
<path d="m322.06 685.08s9.52-13.871 25.788-13.64c16.267 0.231 23.246-1.827 23.246-1.827s-10.422 6.173-17.631 6.936c-7.21 0.763-31.403 8.531-31.403 8.531z" fill="#000" opacity=".1"/>
<path d="m327.56 688.29s8.596-5.965 13.518-6.196 9.243-0.694 9.243-0.694c-2.304 1.626-4.856 2.867-7.556 3.676-4.206 1.156-15.205 3.214-15.205 3.214z" fill="#000" opacity=".1"/>
<path d="m329.39 692.4s12.963 1.041 13.079 4.485l-13.079-4.485z" fill="#000" opacity=".1"/>
<path d="m208.83 499.08c0.67 0.115 12.224-12.045 13.033-16.854 0.642-3.033 2.451-5.69 5.037-7.398 0 0 7.464 2.982 0.809 12.114s-18.879 12.138-18.879 12.138z" fill="#000" opacity=".1"/>
<path d="m386.35 105.81c-2.634 6.242-4.968 6.704-4.46 12.762-3.076 3.247-6.611 6.027-10.491 8.253-8.203 4.878-17.122 14.403-27.336 14.403-6.833 0.015-13.607-1.264-19.965-3.768-1.618-12.947-6.493-18.495-6.493-18.495s80.715-41.43 68.745-13.155z" fill="#000" opacity=".1"/>
<path d="m398.71 83.799c0 10.814-3.206 21.385-9.211 30.377-6.005 8.991-14.54 15.999-24.526 20.137-9.986 4.139-20.974 5.222-31.575 3.112s-20.338-7.317-27.981-14.964c-7.643-7.646-12.848-17.389-14.957-27.995-2.108-10.606-1.026-21.6 3.11-31.59 4.136-9.9908 11.141-18.53 20.128-24.538s19.553-9.2145 30.362-9.2145c7.178-0.0031 14.285 1.4091 20.917 4.1557 6.632 2.7467 12.658 6.774 17.733 11.852 5.075 5.0777 9.101 11.106 11.846 17.741s4.157 13.746 4.154 20.927z" fill="#CC818C"/>
<path d="m402.15 164.37-17.515 26.147s-82.865 39.534-67.013-6.935c6.933-20.46 7.787-35.442 6.54-45.799h0.138c0.979 3.433 1.53 6.974 1.641 10.542 0.254 7.121 0.439 16.184 18.14 19.143 29.508 4.97 45.36-13.502 48.133-17.131 2.832 5 6.161 9.701 9.936 14.033z" fill="#000" opacity=".1"/>
<path d="m53.412 53.396-10.953 21.292c-3.479-0.2857-6.9094-1-10.214-2.1269l-0.9474-1.1329c4.4828 1.7108 19.595-26.841 19.595-26.841l0.4851 0.393c1.2478 4.9706 2.0335 8.4153 2.0335 8.4153z" fill="#000" opacity=".1"/>
<path d="m384.98 452.96c-35.378 15.374-157.8 2.312-157.8 2.312 0.382-1.3 0.592-2.645 0.624-4 3.327-5.086 5.8-8.138 5.8-8.138l146.66-5.756s2.38 6.496 4.714 15.582z" fill="#000" opacity=".1"/>
<path d="m324.37 139.05-16.314 6.936c-2.466-0.027-4.874-0.755-6.944-2.097s-3.716-3.245-4.748-5.486c-3.767-7.907-17.169 0-17.169 0s-40.924-3.098-56.036 4.485c0 0-24.402-10.334-27.729-11.005-3.328-0.67-8.597-3.444-11-2.751-2.403 0.694-5.499-4.485-7.209-4.138s-2.427-3.445-7.926-4.809c-5.5-1.364-7.556 0.347-13.749-5.849s-56.36-30.609-56.36-30.609l-22.692-18.495-24.055-19.258s-15.135 28.529-19.595 26.818l45.707 55.022s32.998 28.899 55.689 38.17c22.692 9.27 20.959 12.045 20.959 12.045s68.768 35.071 79.421 34.401c10.653-0.671 8.596 71.876 4.113 83.574-4.483 11.699-11.669 96.291-11.669 96.291s-6.932 17.871 0.323 30.262c0 0 1.733 25.431 0 29.916 0 0 123.19 13.178 158.13-2.312 0 0 5.153-57.08 0-64.316-5.153-7.237 4.829-23.374 4.829-23.374l21.837-49.289 53.564-54.029s8.249-45.059-28.515-73.981l-24.425-21.662s-13.657-11.814-17.631-12.554c-3.975-0.739-2.519 0-2.519 0s-15.944 23.119-48.526 17.71c-17.7-2.983-17.885-11.999-18.139-19.143-0.11-3.544-0.653-7.061-1.618-10.473z" fill="#62BD69"/>
<path d="m391.5 324.19s-75.632 3.098-90.744 26.841c0 0 19.595-9.247 37.111-6.542 17.515 2.705 53.633-20.299 53.633-20.299z" fill="#000" opacity=".1"/>
<path d="m307.96 407.12s35.748 2.312 43.327-5.156c7.58-7.467 7.58-12.022 7.58-12.022l-50.907 17.178z" fill="#000" opacity=".1"/>
<path d="m398.71 251.3s-30.248 35.765 6.539 51.231l-6.539-51.231z" fill="#000" opacity=".1"/>
<path d="m219.62 182.17s10.999 22.448 16.499 23.951l-16.499-23.951z" fill="#000" opacity=".1"/>
<path d="m182.52 172.53s27.498 24.761 32.651 27.165c0 0-28.538-27.165-32.651-27.165z" fill="#000" opacity=".1"/>
<path d="m292.16 148.81s-26.481 39.533-9.243 63.623c-0.138 0-9.659-28.552 9.243-63.623z" fill="#000" opacity=".1"/>
<path d="m358.87 448.36-8.088 7.606-1.132 1.063-9.359 8.855c-0.693 0.508-1.34 1.017-2.01 1.479-38.128 27.35-45.776-14.194-45.776-14.194s-16.846 11.004-19.249 2.057 39.283-21.662 45.36-20.969c0.554 0.058 1.111 0.058 1.664 0 3.005-0.503 5.898-1.528 8.55-3.028 0.624-0.324 1.248-0.648 1.849-0.994 2.124-1.185 4.183-2.481 6.169-3.884l22.022 22.009z" fill="#CC818C"/>
<path d="m400.1 83.798c2e-3 9.4788-2.46 18.795-7.143 27.035s-11.427 15.12-19.569 19.966c-0.754-1.278-1.418-2.606-1.988-3.976-1.964-4.624-3.165-9.456-5.129-14.034-2.219-5-5.354-9.54-9.244-13.386-0.618-0.7453-1.412-1.3252-2.31-1.6876-0.886-0.1189-1.787-0.0573-2.649 0.1811s-1.666 0.6486-2.366 1.206c-2.313 1.579-4.898 2.715-7.625 3.352-1.366 0.308-2.788 0.257-4.129-0.148-1.34-0.405-2.553-1.151-3.52-2.164-2.126-2.5427-1.825-6.288-1.201-9.5478 1.317-7.1206 3.558-14.102 3.558-21.339s-2.727-15.05-9.012-18.634c-5.546-3.1442-12.432-2.3119-18.601-4.0458-0.955-0.2542-1.89-0.5787-2.796-0.971 7.591-7.7802 17.328-13.12 27.967-15.338 10.639-2.2181 21.698-1.2136 31.764 2.8851 10.066 4.0988 18.682 11.106 24.749 20.127 6.068 9.0208 9.31 19.646 9.313 30.519h-0.069z" fill="#000" opacity=".1"/>
<path d="m302.6 36.913c-0.994 0.5317-2.08 1.4796-1.78 2.5893 0.185 0.5206 0.533 0.9669 0.994 1.2716 2.543 2.0616 5.486 3.5731 8.642 4.4388 6.17 1.6645 13.079 0.8785 18.625 4.0458 6.262 3.5834 9.035 11.374 9.012 18.611s-2.311 14.241-3.582 21.339c-0.601 3.2829-0.924 6.9357 1.225 9.5713 0.97 1.0093 2.182 1.7524 3.522 2.1574 1.339 0.405 2.76 0.458 4.126 0.154 2.719-0.629 5.297-1.7575 7.603-3.3287 0.698-0.5597 1.502-0.9714 2.364-1.2099s1.764-0.2988 2.65-0.1772c0.941 0.3452 1.782 0.9169 2.45 1.6646 3.899 3.8462 7.035 8.3962 9.243 13.409 1.987 4.624 3.189 9.432 5.13 14.033 1.725 4.729 4.978 8.748 9.243 11.421 2.154 1.3 4.674 1.862 7.176 1.599 2.503-0.263 4.851-1.336 6.688-3.056 3.189-3.514 3.097-8.831 4.622-13.339 2.726-7.792 10.352-12.693 15.112-19.42 5.361-7.5602 6.932-17.108 8.296-26.263 0.634-2.8895 0.682-5.8771 0.138-8.7852-0.63-1.9225-1.443-3.7804-2.426-5.5485-5.315-11.005-5.199-24.853-13.68-33.661-6.377-6.5888-16.036-8.6002-25.141-9.7099-9.104-1.1097-18.648-1.8033-26.458-6.5889-2.188-1.6566-4.6-2.9953-7.163-3.9764-1.298-0.45164-2.712-0.43543-3.999 0.04582-1.287 0.48126-2.366 1.3973-3.049 2.5897-0.161 0.705-0.486 1.3622-0.947 1.9189-0.404 0.2332-0.856 0.3692-1.322 0.3973-0.465 0.028-0.93-0.0525-1.359-0.2355l-12.108-3.2597 1.386 6.1034c-4.4 0.1748-8.785-0.6142-12.848-2.3119-0.231 3.4447 3.651 5.6872 4.853 8.9008 0.437 1.4751 0.453 3.0433 0.044 4.5267-0.408 1.4834-1.224 2.8225-2.355 3.8654-4.483 4.3695-9.982 3.5141-14.927 6.219z" fill="#585268"/>
<path d="m253.55 858.63-0.486 5.503-0.208 0.115c-19.711 11.005-60.496-19.697-60.496-19.697l4.252-4.254c0.693 0.772 1.216 1.682 1.534 2.67 0.319 0.988 0.426 2.031 0.315 3.063l8.342 0.463 9.959 10.773s26.967 3.121 34.269 1.364h2.519z" fill="#000" opacity=".1"/>
<path d="m250.1 888.57c-12.824 2.843-57.769 2.635-57.769 2.635l-25.095 4s-43.188 4.138-47.994-9.248c-4.807-13.386 3.766-12.6 3.766-12.6h0.324l17.977-1.456s22.808-8.832 31.173-14.912c6.605-5.138 12.844-10.731 18.671-16.738 0 0 7.51-1.456 7.371 7.236l8.342 0.463 9.959 10.75s26.967 3.144 34.269 1.387h2.519l-1.156 13.293 0.324 0.416c1.594 2.058 8.781 12.207-2.681 14.774z" fill="#FF748F"/>
<path d="m203.57 856.43c0.702 0 1.271-0.57 1.271-1.272s-0.569-1.271-1.271-1.271-1.271 0.569-1.271 1.271 0.569 1.272 1.271 1.272z" fill="#575988"/>
<path d="m171.26 870.47c0.702 0 1.271-0.569 1.271-1.272 0-0.702-0.569-1.271-1.271-1.271s-1.271 0.569-1.271 1.271c0 0.703 0.569 1.272 1.271 1.272z" fill="#575988"/>
<path d="m154.62 875.53c0.702 0 1.271-0.569 1.271-1.271s-0.569-1.272-1.271-1.272c-0.701 0-1.27 0.57-1.27 1.272s0.569 1.271 1.27 1.271z" fill="#575988"/>
<path d="m179.74 867.78c0.702 0 1.271-0.569 1.271-1.271 0-0.703-0.569-1.272-1.271-1.272s-1.271 0.569-1.271 1.272c0 0.702 0.569 1.271 1.271 1.271z" fill="#575988"/>
<path d="m162.92 873.01c0.702 0 1.271-0.569 1.271-1.272 0-0.702-0.569-1.271-1.271-1.271s-1.271 0.569-1.271 1.271c0 0.703 0.569 1.272 1.271 1.272z" fill="#575988"/>
<path d="m188.31 863.81c0.702 0 1.271-0.57 1.271-1.272s-0.569-1.271-1.271-1.271-1.271 0.569-1.271 1.271 0.569 1.272 1.271 1.272z" fill="#575988"/>
<path d="m196.8 860.13c0.702 0 1.271-0.569 1.271-1.272 0-0.702-0.569-1.271-1.271-1.271s-1.271 0.569-1.271 1.271c0 0.703 0.569 1.272 1.271 1.272z" fill="#575988"/>
<path d="m250.1 888.57c-12.824 2.843-57.769 2.635-57.769 2.635l-25.095 4s-43.188 4.138-47.994-9.248c-4.807-13.386 3.766-12.6 3.766-12.6h0.324c2.749 3.561 8.272 7.63 19.133 7.814l31.056 1.272 32.19-2.312s30.039-0.925 35.054-1.942c4.127-1.116 8.148-2.594 12.016-4.416 1.594 2.081 8.781 12.23-2.681 14.797z" fill="#DCE6F2"/>
<path d="m169.55 892.17c-1.714 8e-3 -3.422-0.201-5.083-0.624l0.462-1.248c4.245 0.926 8.658 0.727 12.802-0.578 1.525-0.393 3.027-0.832 4.621-1.295 7.164-2.441 14.771-3.3 22.299-2.52h0.994c13.776 0.734 27.591 0.114 41.247-1.849 3.242-0.214 6.333-1.453 8.827-3.538l0.993 0.971c-2.7 2.293-6.058 3.669-9.589 3.931-13.772 1.966-27.702 2.585-41.594 1.849h-0.97c-4.554-0.331-9.13-0.2-13.657 0.393-2.773 0.522-5.512 1.209-8.203 2.058-1.525 0.462-3.05 0.925-4.622 1.318-2.783 0.733-5.648 1.114-8.527 1.132z" fill="#575988" opacity=".5"/>
<path d="m358.87 448.36-8.088 7.606-20.103-25.731c2.124-1.185 4.183-2.481 6.169-3.884l22.022 22.009z" fill="#000" opacity=".1"/>
<path d="m449.94 237.19 15.806 22.01v23.119s7.232 24.436 0 48.85l0.808 21.315s-7.671 19.605-4.922 24.414c0 0-1.386 14.449-19.941 24.437-18.556 9.987-39.538 33.522-39.538 33.522s-7.902 15.143-29.208 11.698l-20.288 8.6-23.362-29.915 31.611-17.201s10.999-14.796 17.539-14.102l26.805-31.234s0.693-9.964 7.556-9.964c0 0-12.709-10.311-8.249-16.507 4.459-6.196 0.693-33.708 0.693-33.708l44.69-65.334z" fill="#62BD69"/>
<path d="m420.38 337.6s36.094-0.67 40.554 8.6c4.459 9.271-29.555-13.755-40.554-8.6z" fill="#000" opacity=".1"/>
<path d="m349.79 455.23c0.011 0.605-0.035 1.208-0.138 1.804-0.417 2.768-1.775 5.309-3.847 7.191-2.071 1.883-4.728 2.993-7.522 3.143h-0.647c-3.218 0-6.304-1.279-8.579-3.555s-3.553-5.363-3.553-8.583c8e-3 -1.345 0.235-2.68 0.67-3.953-5.73-4.624-6.031-12.9-5.892-17.038 3.004-0.504 5.898-1.529 8.55-3.029 1.498 4.302 3.507 8.408 5.984 12.23 0.922-0.231 1.869-0.348 2.82-0.347 1.595-3e-3 3.175 0.309 4.649 0.917 1.475 0.609 2.815 1.503 3.944 2.63s2.024 2.466 2.636 3.94c0.611 1.474 0.925 3.055 0.925 4.65z" fill="#000" opacity=".1"/>
<path d="m329.92 428.52s-8.134 1.827-8.134 3.306c0 1.48-1.826 14.912 7.094 20.414 8.919 5.503 8.041-7.675 8.041-7.675s-7.695-11.814-7.001-16.045z" fill="#575988"/>
<path d="m339.02 467.39c6.713 0 12.154-5.445 12.154-12.161s-5.441-12.161-12.154-12.161-12.155 5.445-12.155 12.161 5.442 12.161 12.155 12.161z" fill="#E4AAB4"/>
<path d="m339.02 465.65c5.756 0 10.422-4.668 10.422-10.427 0-5.758-4.666-10.426-10.422-10.426-5.755 0-10.421 4.668-10.421 10.426 0 5.759 4.666 10.427 10.421 10.427z" fill="#DCE6F2"/>
<path d="m291.7 459.92s25.673 21.316 58.67 7.814v10.311s-21.998 15.12-41.94 5.965-16.73-24.09-16.73-24.09z" fill="#000" opacity=".1"/>
<path d="m291.7 457.17s25.742 21.316 58.67 7.745v10.311s-21.998 15.12-41.94 5.964c-19.942-9.155-16.73-24.02-16.73-24.02z" fill="#000" opacity=".1"/>
<path d="m291.7 457.17s25.742 21.316 58.67 7.745v10.311s-21.998 15.12-41.94 5.964c-19.942-9.155-16.73-24.02-16.73-24.02z" fill="#444053"/>
<path d="m292.39 457.17s25.672 21.316 58.67 7.814v10.311s-22.068 15.051-41.94 5.965c-19.873-9.086-16.73-24.09-16.73-24.09z" fill="#000" opacity=".05"/>
<path d="m211.14 840.18s34.384 6.311 39.421 7.675-1.386 3.792-1.386 3.792-31.496-5.618-38.035-11.467z" fill="#000" opacity=".1"/>
<path d="m210.24 821.96c0.554 0 23.361-6.427 28.283-17.432l-28.283 17.432z" fill="#000" opacity=".1"/>
<path d="m243.5 690.35s9.243 12.161 15.205 11.814-9.775-12.276-15.205-11.814z" fill="#000" opacity=".1"/>
<path d="m248.62 710.53s3.882 8.601 9.613 5.849l-9.613-5.849z" fill="#000" opacity=".1"/>
<path d="m270.28 521.72 24.378 64.316s3.443-41.382-3.836-53.774c-2.064-3.533-5.094-6.402-8.734-8.27-3.639-1.867-7.736-2.656-11.808-2.272z" fill="#000" opacity=".05"/>
<g fill="#000" opacity=".1">
<path d="m330.29 12.085-0.208-0.9247-3.928-1.0404 0.439 1.9189c1.23 0.0965 2.465 0.1119 3.697 0.0462z" opacity=".1"/>
<path d="m319.52 27.551 0.416-0.3699c1.129-1.0393 1.944-2.3744 2.352-3.8538 0.409-1.4793 0.395-3.0436-0.041-4.5152-0.473-1.139-1.129-2.1931-1.941-3.1211-1.937-0.3676-3.833-0.9251-5.661-1.6645-0.231 3.4447 3.651 5.6641 4.852 8.9007 0.536 1.4933 0.545 3.1253 0.023 4.6238z" opacity=".1"/>
<path d="m384.45 133.27c-4.26-2.678-7.511-6.695-9.243-11.421-1.964-4.624-3.143-9.479-5.13-14.033-2.204-5.009-5.341-9.5514-9.243-13.386-0.651-0.7611-1.487-1.3423-2.426-1.6877-0.887-0.1229-1.789-0.0633-2.651 0.1752-0.862 0.2386-1.667 0.651-2.364 1.212-2.318 1.5703-4.901 2.7061-7.625 3.3522-1.367 0.2944-2.785 0.2367-4.123-0.1676-1.338-0.4044-2.551-1.1422-3.526-2.1443-2.126-2.543-1.825-6.2883-1.202-9.5481 1.341-7.1206 3.559-14.126 3.582-21.362 0.023-7.2362-2.75-15.027-9.035-18.495-5.546-3.1673-12.432-2.3119-18.486-4.0458-3.159-0.8606-6.102-2.3726-8.642-4.4388l-0.486-0.4393c-0.513 0.2105-1.015 0.4498-1.502 0.7167-0.993 0.5318-2.056 1.4796-1.779 2.5662 0.199 0.5253 0.554 0.9771 1.017 1.2947 2.547 2.05 5.489 3.5532 8.642 4.4157 6.17 1.6877 13.056 0.9016 18.602 4.0689 6.285 3.5603 9.035 11.374 9.035 18.495s-2.311 14.241-3.582 21.339c-0.624 3.2597-0.924 6.9357 1.202 9.5481 0.968 1.0111 2.181 1.7551 3.521 2.1601s2.761 0.457 4.127 0.152c2.723-0.639 5.306-1.7672 7.626-3.3293 0.699-0.5592 1.503-0.9722 2.364-1.2144 0.861-0.2423 1.763-0.3089 2.65-0.1959 0.894 0.3706 1.686 0.9492 2.311 1.6877 3.892 3.8429 7.028 8.3839 9.243 13.386 1.987 4.624 3.166 9.456 5.13 14.033 1.702 4.779 4.957 8.849 9.243 11.56 4.367 2.311 10.422 2.311 13.865-1.457 0.892-1.011 1.589-2.179 2.056-3.445-1.88 1.41-4.139 2.224-6.486 2.34-2.347 0.115-4.675-0.474-6.685-1.692z" opacity=".1"/>
<path d="m404.18 115.82c3.443-4.346 7.949-8.045 11.184-12.623 0.642-0.908 1.236-1.85 1.78-2.82-4.16 5.294-9.868 9.571-12.964 15.443z" opacity=".1"/>
</g>
<path d="m535.65 786.38c0 1.988 0.231 3.606 0.508 3.606 0.463-1.142 0.63-2.382 0.485-3.606 0-1.965-0.277-1.041-0.555-1.041-0.277 0-0.438-0.924-0.438 1.041z" fill="#FFD037"/>
<path d="m532.9 788.76c1.756 0.948 3.258 1.526 3.397 1.272s-1.179-1.202-2.912-2.15-1.062-0.254-1.201 0-1.017-0.069 0.716 0.878z" fill="#FFD037"/>
<defs>
<linearGradient id="a" x1="235.96" x2="235.96" y1="917.86" y2="-.029708" gradientUnits="userSpaceOnUse">
<stop stop-color="#808080" stop-opacity=".25" offset="0"/>
<stop stop-color="#808080" stop-opacity=".12" offset=".54"/>
<stop stop-color="#808080" stop-opacity=".1" offset="1"/>
</linearGradient>
</defs>
</svg>
