<?xml version="1.0" encoding="UTF-8"?>
<svg viewBox="0 0 160 160" xmlns="http://www.w3.org/2000/svg">
<path d="m160 80.008c0.013 11.56-2.486 22.984-7.325 33.483-4.838 10.499-11.9 19.821-20.697 27.323-0.262 0.23-0.528 0.451-0.806 0.672-0.684 0.572-1.378 1.13-2.082 1.675-4.539 3.541-9.45 6.579-14.645 9.062l-0.503 0.237c-5.695 2.673-11.687 4.659-17.851 5.918-0.6282 0.129-1.2564 0.249-1.8886 0.366l-0.3261 0.056-0.1168 0.02-0.4913 0.081-0.2456 0.04c-4.3103 0.706-8.6709 1.061-13.039 1.059-1.4953 0-2.9718-0.042-4.4294-0.125-1.3853-0.075-2.7597-0.185-4.1235-0.33l-0.3664-0.04c-1.3731-0.153-2.7382-0.338-4.0912-0.564-11.726-1.918-22.872-6.441-32.617-13.236-0.2456-0.165-0.4872-0.338-0.7288-0.515-1.8792-1.342-3.6926-2.756-5.4402-4.243-8.8461-7.501-15.95-16.84-20.819-27.365-4.868-10.526-7.3827-21.986-7.3689-33.582 0-2.3321 0.099327-4.6401 0.29798-6.924 3.5073-40.94 37.852-73.076 79.73-73.076 44.142 0.0080511 79.972 35.828 79.972 80.008z" fill="#03C6AF" opacity=".1"/>
<path d="m71.128 35.344c1.953-0.4387 3.8416 1.0346 5.8429 1.0829 1.5624 0.0363 3.012-0.8051 4.5623-0.9983s3.0563 0.2455 4.5865 0.4669c1.5302 0.2215 3.2214 0.1731 4.4295-0.8051l-19.421 0.2536z" fill="#BF655B" opacity=".2"/>
<path d="m81.11 84.255c16.184 0 29.302-13.115 29.302-29.294s-13.119-29.294-29.302-29.294-29.303 13.115-29.303 29.294 13.119 29.294 29.303 29.294z" fill="#FFD9CB"/>
<path d="m85.326 64.727c0 1.103-1.8885 2.0128-4.22 2.0128s-4.2161-0.8937-4.2161-2.0128 1.8886-2.0127 4.2161-2.0127 4.22 0.9017 4.22 2.0127z" fill="#fff"/>
<path d="m69.118 52.078c1.5945 0 2.8872-1.2922 2.8872-2.8863s-1.2927-2.8863-2.8872-2.8863c-1.5946 0-2.8872 1.2922-2.8872 2.8863s1.2926 2.8863 2.8872 2.8863z" fill="#383F4D"/>
<path d="m93.097 52.078c1.5945 0 2.8872-1.2922 2.8872-2.8863s-1.2927-2.8863-2.8872-2.8863c-1.5946 0-2.8872 1.2922-2.8872 2.8863s1.2926 2.8863 2.8872 2.8863z" fill="#383F4D"/>
<path d="m70.012 49.188c0.4892 0 0.8859-0.3965 0.8859-0.8856s-0.3967-0.8856-0.8859-0.8856c-0.4893 0-0.8859 0.3965-0.8859 0.8856s0.3966 0.8856 0.8859 0.8856z" fill="#fff"/>
<path d="m93.982 49.188c0.4893 0 0.8859-0.3965 0.8859-0.8856s-0.3966-0.8856-0.8859-0.8856-0.8859 0.3965-0.8859 0.8856 0.3966 0.8856 0.8859 0.8856z" fill="#fff"/>
<path d="m98.423 42.977h-10.429c-0.7052 0.0021-1.381 0.2831-1.8797 0.7817-0.4987 0.4985-0.7798 1.1741-0.782 1.8791v7.1011c0.0021 0.7055 0.2831 1.3815 0.7817 1.8807s1.1744 0.7811 1.88 0.7843h10.429c0.7059-0.0022 1.3823-0.2838 1.8809-0.7832 0.499-0.4994 0.78-1.176 0.781-1.8818v-7.1011c-1e-3 -0.7053-0.282-1.3815-0.781-1.8803-0.4989-0.4988-1.1753-0.7795-1.8809-0.7805zm0.4429 7.9907c-0.0032 0.7058-0.285 1.3818-0.7843 1.8809-0.4992 0.499-1.1754 0.7808-1.8814 0.784h-5.9959c-0.7056-0.0032-1.3814-0.2851-1.88-0.7843s-0.7795-1.1752-0.7817-1.8806v-3.5506c0.0022-0.7054 0.2831-1.3814 0.7817-1.8806s1.1744-0.7811 1.88-0.7843h5.9999c0.7046 0.0042 1.3792 0.2859 1.8775 0.7841 0.4982 0.4981 0.78 1.1724 0.7842 1.8768v3.5546z" fill="#69F0AE"/>
<path d="m74.224 42.977h-10.429c-0.7056 1e-3 -1.382 0.2817-1.8809 0.7805-0.499 0.4988-0.7797 1.175-0.7808 1.8803v7.1011c0.0011 0.7058 0.2817 1.3824 0.7805 1.8818 0.4989 0.4994 1.1752 0.781 1.8812 0.7832h10.429c0.7059-0.0022 1.3823-0.2838 1.8811-0.7832 0.4989-0.4994 0.7795-1.176 0.7806-1.8818v-7.1011c-0.0011-0.7053-0.2819-1.3815-0.7808-1.8803s-1.1753-0.7795-1.8809-0.7805zm0.451 7.9907c-0.0022 0.7057-0.2838 1.3819-0.7834 1.8806s-1.1764 0.7792-1.8824 0.7803h-5.9958c-0.7053-0.0021-1.3811-0.2832-1.8798-0.7817-0.4987-0.4986-0.7798-1.1742-0.7819-1.8792v-3.5546c0.0031-0.7054 0.2852-1.381 0.7845-1.8794 0.4993-0.4985 1.1755-0.7794 1.8812-0.7815h5.9918c0.7057 0.0021 1.3819 0.283 1.8812 0.7815 0.4994 0.4984 0.7814 1.174 0.7846 1.8794v3.5546z" fill="#69F0AE"/>
<path d="m84.904 50.081c-1.0971-0.7134-2.3777-1.0931-3.6865-1.0931s-2.5894 0.3797-3.6865 1.0931c-0.6161 0.4026-1.4537 0.4791-1.957 0l-0.6242-0.628c-0.4913-0.4508-0.2134-1.5498 0.757-2.1818 1.6387-1.0638 3.5508-1.63 5.5047-1.63 1.9538 0 3.8659 0.5662 5.5046 1.63 0.9785 0.632 1.2523 1.731 0.761 2.1818l-0.6241 0.624c-0.4913 0.4831-1.3329 0.3985-1.949 4e-3z" fill="#69F0AE"/>
<path d="m78.159 76.554c0.2215-0.9017 1.2765-1.3042 2.1986-1.429 1.3691-0.1892 2.9919 0 3.7489 1.1634l-5.9475 0.2656z" fill="#BF655B" opacity=".2"/>
<path d="m111.78 49.414h-1.643c-1.078 0-1.953 0.8741-1.953 1.9524v9.4117c0 1.0783 0.875 1.9524 1.953 1.9524h1.643c1.079 0 1.953-0.8741 1.953-1.9524v-9.4117c0-1.0783-0.874-1.9524-1.953-1.9524z" fill="#FFD9CB"/>
<path d="m52.072 49.41h-1.643c-1.0786 0-1.9529 0.8741-1.9529 1.9524v9.4117c0 1.0783 0.8743 1.9524 1.9529 1.9524h1.643c1.0786 0 1.953-0.8741 1.953-1.9524v-9.4117c0-1.0783-0.8744-1.9524-1.953-1.9524z" fill="#FFD9CB"/>
<path d="m124.62 128.97v10.321c-3e-3 0.706-0.285 1.381-0.784 1.88-0.5 0.498-1.176 0.779-1.882 0.781h-50.85c-10.099-1.647-19.699-5.542-28.091-11.396-0.2134-0.141-0.4228-0.29-0.6282-0.443-1.6107-1.151-3.1717-2.368-4.6831-3.651 0.6526-7.919 4.2545-15.304 10.093-20.695s13.489-8.3955 21.437-8.418h3.2214v-15.535c0.0021-0.7061 0.2836-1.3827 0.7831-1.882 0.4994-0.4993 1.1763-0.7808 1.8826-0.7829h11.984c0.706 0.0032 1.3822 0.285 1.8814 0.784 0.4993 0.4991 0.7811 1.1751 0.7843 1.8809v15.535h3.2214c8.2742 0.023 16.211 3.277 22.12 9.068 5.908 5.79 9.319 13.659 9.506 21.929 0 0.217 4e-3 0.418 4e-3 0.624z" fill="#FFD9CB"/>
<path d="m38.294 142.34c-7.371-42.394 27.536-50.348 43.972-46.963 42.447-2.2845 44.65 31.647 42.447 46.963h-86.419z" fill="#098B5F"/>
</svg>
