<svg width="512" height="420" viewBox="0 0 512 420" fill="none" xmlns="http://www.w3.org/2000/svg">
<path d="M512 55.9648C479.793 57.4492 480.496 57.3281 476.855 57.6328L495.93 3.16015C495.93 3.16015 436.391 25.0625 421.297 28.9805C381.656 -6.64844 322.734 -8.22266 280.609 17.668C246.113 38.875 227.598 75.293 233.773 117.859C166.637 108.543 110.07 76.7187 65.4102 23.0703L51.2852 6.10547L40.7305 25.4883C27.3906 49.9805 22.9609 77.9844 28.2539 104.34C30.4258 115.152 34.1172 125.465 39.2305 135.121L27.1133 130.426L25.6758 150.672C24.2188 171.238 31.0664 195.246 43.9961 214.887C47.6367 220.418 52.3242 226.492 58.2656 232.484L52.0039 231.523L59.6445 254.723C69.6875 285.203 90.5469 308.785 117.617 321.895C90.582 333.367 68.7422 340.688 32.8438 352.496L0 363.293L30.3359 379.879C41.9023 386.203 82.7734 407.324 123.156 413.66C212.922 427.738 313.988 416.273 382.027 354.996C439.336 303.383 458.141 229.965 454.234 153.562C453.645 141.996 456.812 130.957 463.156 122.484C475.863 105.52 511.922 56.0781 512 55.9648V55.9648ZM439.168 104.516C428.633 118.582 423.355 136.547 424.301 155.094C428.242 232.16 407.273 291.926 361.973 332.723C309.055 380.383 223.699 399.09 127.801 384.047C110.434 381.324 92.4844 375.227 77.6289 369.137C107.727 358.781 130.969 349.551 168.504 331.785L220.902 306.984L163.051 303.281C135.34 301.508 112.266 288.078 98.082 266.273C105.613 265.836 112.875 264.617 120.105 262.602L175.281 247.234L119.645 233.609C92.6094 226.988 77.1992 210.812 69.0312 198.406C63.668 190.254 60.1641 181.902 58.0625 174.203C63.6406 175.699 70.1445 176.766 80.6328 177.805L132.129 182.898L91.3281 151.07C61.9297 128.141 50.1484 93.6914 58.7852 60.5742C150.535 155.738 258.262 148.586 269.105 151.102C266.719 127.918 266.656 127.863 266.031 125.656C252.145 76.5664 282.578 51.6406 296.305 43.2031C324.977 25.582 370.488 22.9258 402.012 51.957C408.82 58.2227 418.027 60.6875 426.645 58.5469C434.379 56.625 440.727 54.5898 446.941 52.375L434.004 89.3203L450.52 89.332C447.402 93.5117 443.664 98.5156 439.168 104.516Z" fill="white"/>
</svg>
