<?xml version="1.0" encoding="UTF-8"?>
<svg fill="none" viewBox="0 0 771 578" xmlns="http://www.w3.org/2000/svg">
<path d="m235.86 142.53h-99.62c-4.255 0-7.704 3.449-7.704 7.703v194.08c0 4.254 3.449 7.703 7.704 7.703h99.62c4.254 0 7.703-3.449 7.703-7.703v-194.08c0-4.254-3.449-7.703-7.703-7.703z" fill="url(#p)"/>
<path d="m233.2 145.97h-94.32c-4.255 0-7.704 3.449-7.704 7.703v185.77c0 4.255 3.449 7.704 7.704 7.704h94.32c4.254 0 7.703-3.449 7.703-7.704v-185.77c0-4.254-3.449-7.703-7.703-7.703z" fill="#fff"/>
<path d="m228.83 159.82-84.953 0.119 0.229 163.71 84.953-0.119-0.229-163.71z" fill="#E6E6E6"/>
<path d="m186.6 342.32c3.74-5e-3 6.767-3.117 6.762-6.95-6e-3 -3.834-3.042-6.937-6.781-6.932-3.74 5e-3 -6.767 3.117-6.762 6.95 6e-3 3.834 3.041 6.937 6.781 6.932z" fill="#DBDBDB"/>
<path d="m173.48 153.64c0.749-2e-3 1.355-0.623 1.354-1.389s-0.609-1.386-1.358-1.385-1.355 0.623-1.354 1.389 0.609 1.386 1.358 1.385z" fill="#DBDBDB"/>
<path d="m199.8 151.18-19.459 0.027c-0.425 1e-3 -0.77 0.346-0.769 0.772l1e-3 0.539c0 0.425 0.346 0.77 0.771 0.769l19.459-0.027c0.425-1e-3 0.77-0.346 0.769-0.771l-1e-3 -0.54c0-0.425-0.346-0.769-0.771-0.769z" fill="#DBDBDB"/>
<path d="m210.52 254.81h-48.1v50.504h48.1v-50.504z" fill="url(#i)"/>
<path d="m208.43 257.01h-43.917v46.113h43.917v-46.113z" fill="#03C6AF"/>
<g opacity=".5">
<path d="m189.8 277.91v-0.87h2.311v-4.46c0.7-1.063 1.104-2.294 1.168-3.565 0.065-1.271-0.211-2.536-0.799-3.664-0.588-1.129-1.468-2.08-2.547-2.754-1.079-0.675-2.318-1.049-3.591-1.084-1.272-0.035-2.53 0.271-3.644 0.886-1.115 0.615-2.044 1.516-2.693 2.611s-0.994 2.343-0.998 3.616c-5e-3 1.272 0.33 2.523 0.971 3.622v4.792h2.55v1.024c-3.123 0.862-5.877 2.724-7.841 5.301-1.963 2.577-3.027 5.726-3.028 8.966v12.988h29.65v-12.988c-2e-3 -3.352-1.141-6.604-3.232-9.223-2.091-2.62-5.009-4.453-8.277-5.198z" fill="url(#h)" opacity=".5"/>
</g>
<path d="m191.59 268.86h-10.977v8.781h10.977v-8.781z" fill="#F55F44"/>
<path d="m182.99 278.11h6.933c2.627 0 5.147 1.043 7.005 2.901s2.901 4.378 2.901 7.005v15.238h-26.746v-15.253c4e-3 -2.625 1.05-5.141 2.907-6.995 1.857-1.855 4.375-2.896 7-2.896z" fill="#FDD835"/>
<path d="m187.05 273.72h-1.702c-1.341 0-2.427 1.086-2.427 2.426v3.344c0 1.34 1.086 2.426 2.427 2.426h1.702c1.34 0 2.427-1.086 2.427-2.426v-3.344c0-1.34-1.087-2.426-2.427-2.426z" fill="#FDA57D"/>
<path d="m184.94 281.67 1.225 1.787 1.287-1.787h-2.512z" fill="#FDA57D"/>
<path d="m178.12 288.12s-1.302 12.957-0.462 13.797l0.462-13.797z" fill="#000" opacity=".1"/>
<path d="m194.22 288.12s1.302 12.957 0.462 13.797l-0.462-13.797z" fill="#000" opacity=".1"/>
<path d="m186.2 277.7c1.164 1e-3 2.298-0.371 3.235-1.063-0.122-0.77-0.515-1.472-1.108-1.978-0.593-0.507-1.347-0.786-2.127-0.787-0.78 1e-3 -1.534 0.28-2.127 0.787-0.593 0.506-0.986 1.208-1.109 1.978 0.937 0.692 2.071 1.064 3.236 1.063z" fill="#000" opacity=".05"/>
<path d="m186.2 276.52c3.569 0 6.463-2.894 6.463-6.463 0-3.57-2.894-6.464-6.463-6.464-3.57 0-6.463 2.894-6.463 6.464 0 3.569 2.893 6.463 6.463 6.463z" fill="#F55F44"/>
<path d="m186.2 277.54c3.016 0 5.462-2.445 5.462-5.461 0-3.017-2.446-5.462-5.462-5.462s-5.462 2.445-5.462 5.462c0 3.016 2.446 5.461 5.462 5.461z" fill="#FDA57D"/>
<path d="m180.72 272.42c0.212 0 0.385-0.31 0.385-0.693s-0.173-0.694-0.385-0.694c-0.213 0-0.386 0.311-0.386 0.694s0.173 0.693 0.386 0.693z" fill="#FDA57D"/>
<path d="m191.68 272.42c0.212 0 0.385-0.31 0.385-0.693s-0.173-0.694-0.385-0.694c-0.213 0-0.386 0.311-0.386 0.694s0.173 0.693 0.386 0.693z" fill="#FDA57D"/>
<path d="m223.54 170.46h-74.137v3.22h74.137v-3.22z" fill="#03C6AF"/>
<path d="m223.54 176.9h-74.137v3.22h74.137v-3.22z" fill="#03C6AF"/>
<path d="m191.31 183.35h-41.906v3.22h41.906v-3.22z" fill="#03C6AF"/>
<path d="m210.64 189.8h-61.242v3.22h61.242v-3.22z" fill="#fff"/>
<path d="m200.97 196.24h-51.574v3.22h51.574v-3.22z" fill="#fff"/>
<path d="m223.54 202.69h-74.137v3.22h74.137v-3.22z" fill="#fff"/>
<path d="m217.1 212.36h-64.47v25.783h64.47v-25.783z" fill="#F3FFFE"/>
<path d="m607.45 342.15s10.784 74.099 74.099 98.712l-256.22 0.354c63.214-24.79 73.837-98.92 73.837-98.92l108.28-0.146z" fill="#E0E0E0"/>
<path d="m682.69 440.84-258.63 0.361 0.021 15.654 258.63-0.361-0.022-15.654z" fill="url(#g)"/>
<path d="m681.57 440.84-256.21 0.358 0.017 12.079 256.21-0.358-0.017-12.079z" fill="#F5F5F5"/>
<path d="m761.34 75.508-416.68 0.5778c-2.267 0.0545-4.419 1.007-5.983 2.6481-1.565 1.641-2.414 3.8363-2.36 6.1029l0.324 243.1v8.096c0 18.488 14.351 33.425 32.007 33.402l369.46-0.508c17.648 0 31.938-15.014 31.915-33.487v-8.089l-0.324-243.1c0.026-1.1236-0.171-2.2413-0.577-3.289-0.407-1.0477-1.016-2.005-1.793-2.817-0.777-0.8121-1.707-1.463-2.735-1.9155-1.029-0.4526-2.137-0.6979-3.261-0.7219z" fill="url(#f)"/>
<path d="m349.61 83.65h406.35c2.196 0 4.302 0.8725 5.855 2.4255s2.426 3.6594 2.426 5.8557v231.35h-422.92v-231.35c0-1.0882 0.214-2.1657 0.631-3.1709s1.027-1.9185 1.797-2.6875c0.77-0.7691 1.684-1.3789 2.689-1.7946 1.006-0.4158 2.083-0.6292 3.172-0.6282z" fill="#fff"/>
<path d="m735.28 361.74-363.88 0.501c-3.877 5e-3 -7.717-0.754-11.3-2.233s-6.84-3.649-9.585-6.386c-2.745-2.738-4.923-5.989-6.412-9.569-1.488-3.579-2.256-7.417-2.261-11.293v-10.015l422.92-0.585v10.014c6e-3 3.877-0.752 7.718-2.23 11.302-1.479 3.584-3.649 6.842-6.386 9.588-2.738 2.745-5.99 4.925-9.57 6.413-3.58 1.489-7.418 2.258-11.295 2.263z" fill="#F5F5F5"/>
<path d="m744.92 103.06h-382.71v193.45h382.71v-193.45z" fill="#E6E6E6"/>
<path d="m711.98 115.82h-67.744v71.133h67.744v-71.133z" fill="url(#e)"/>
<path d="m709.04 118.92h-61.859v64.947h61.859v-64.947z" fill="#03C6AF"/>
<g opacity=".5">
<path d="m682.34 147.8-0.771-0.278-0.046 0.07h-0.046v-2.096c0-0.258-0.021-0.515-0.062-0.77 1.248-0.918 2.204-2.179 2.75-3.628 1.079-1.399 1.745-3.072 1.921-4.829 0.177-1.757-0.143-3.529-0.922-5.114s-1.987-2.921-3.486-3.854c-1.499-0.934-3.23-1.429-4.996-1.429-1.767 0-3.498 0.495-4.997 1.429-1.499 0.933-2.707 2.269-3.486 3.854s-1.099 3.357-0.922 5.114c0.176 1.757 0.842 3.43 1.921 4.829 0.547 1.449 1.502 2.71 2.75 3.628-0.041 0.255-0.062 0.512-0.062 0.77v2.311c-4.133 1.142-7.779 3.607-10.377 7.019s-4.005 7.582-4.005 11.87v17.186h39.133v-17.209c2e-3 -4.275-1.395-8.433-3.976-11.84s-6.206-5.877-10.321-7.033z" fill="url(#d)" opacity=".5"/>
</g>
<path d="m675.88 147.37h2.388c4.685 0 9.178 1.861 12.49 5.174 3.313 3.312 5.174 7.805 5.174 12.49v17.718h-37.746v-17.718c0-2.322 0.457-4.622 1.347-6.767s2.194-4.094 3.837-5.734c1.644-1.641 3.594-2.941 5.741-3.827s4.447-1.34 6.769-1.336z" fill="#514ABF"/>
<path d="m676.98 141.22h-0.578c-2.391 0-4.329 1.938-4.329 4.329v2.889c0 2.391 1.938 4.329 4.329 4.329h0.578c2.391 0 4.329-1.938 4.329-4.329v-2.889c0-2.391-1.938-4.329-4.329-4.329z" fill="#FDA57D"/>
<path d="m668.87 149.41 3.097 6.641 3.074-3.074-3.074-4.722-3.097 1.155z" fill="#000" opacity=".05"/>
<path d="m668.98 149.09 3.081 6.64 3.082-3.081-3.082-4.715-1.417 0.432c-0.139 0.043-0.276 0.094-0.408 0.154l-1.256 0.57z" fill="#fff"/>
<path d="m684.52 149.09-3.104 6.964-3.082-3.074 3.166-4.969 3.02 1.079z" fill="#000" opacity=".05"/>
<path d="m684.42 148.77-3.082 6.933-3.081-3.081 3.166-4.969 0.578 0.17c0.627 0.179 1.242 0.398 1.841 0.655l0.578 0.292z" fill="#fff"/>
<path d="m674.92 152.41 1.726 2.511 1.818-2.511h-3.544z" fill="#FDA57D"/>
<path d="m665.3 161.51s-1.833 18.249-0.647 19.435l0.647-19.435z" fill="#000" opacity=".1"/>
<path d="m676.69 146.82c1.64 0 3.238-0.523 4.56-1.494-0.174-1.085-0.728-2.072-1.564-2.785s-1.898-1.105-2.996-1.105c-1.099 0-2.161 0.392-2.996 1.105-0.836 0.713-1.391 1.7-1.565 2.785 1.323 0.971 2.92 1.494 4.561 1.494z" fill="#000" opacity=".05"/>
<path d="m676.69 145.15c5.025 0 9.098-4.073 9.098-9.097 0-5.025-4.073-9.098-9.098-9.098s-9.098 4.073-9.098 9.098c0 5.024 4.073 9.097 9.098 9.097z" fill="#000"/>
<path d="m676.69 146.6c4.25 0 7.696-3.446 7.696-7.696s-3.446-7.696-7.696-7.696-7.696 3.446-7.696 7.696 3.446 7.696 7.696 7.696z" fill="#FDA57D"/>
<path d="m670.49 131.28 1.941 2.372s8.528 0.771 9.498-1.186c0.971-1.957-5.615-3.351-5.615-3.351l-5.824 2.165z" fill="#000" opacity=".05"/>
<path d="m670.49 131.06 1.941 2.372s8.528 0.771 9.498-1.186c0.971-1.957-5.615-3.351-5.615-3.351l-5.824 2.165z" fill="#000"/>
<path d="m668.98 139.38c0.298 0 0.539-0.435 0.539-0.971s-0.241-0.97-0.539-0.97-0.54 0.434-0.54 0.97 0.242 0.971 0.54 0.971z" fill="#FDA57D"/>
<path d="m712.37 201.15h-67.744v71.134h67.744v-71.134z" fill="url(#c)"/>
<path d="m709.43 204.24h-61.858v64.947h61.858v-64.947z" fill="#03C6AF"/>
<g opacity=".5">
<path d="m683.18 233.5v-2.388-0.355c1.31-0.98 2.31-2.318 2.881-3.851 0.948-1.229 1.598-2.661 1.9-4.183s0.247-3.093-0.16-4.59c-0.406-1.498-1.154-2.881-2.184-4.041-1.031-1.16-2.315-2.066-3.754-2.647 0.11-0.489 0.111-0.995 4e-3 -1.485-0.108-0.489-0.321-0.948-0.625-1.346-0.305-0.398-0.693-0.723-1.137-0.955-0.444-0.231-0.934-0.362-1.434-0.383-0.501-0.021-0.999 0.068-1.462 0.261-0.462 0.192-0.876 0.484-1.213 0.855-0.337 0.37-0.589 0.81-0.737 1.288-0.148 0.479-0.19 0.984-0.121 1.48-1.553 0.478-2.967 1.325-4.121 2.469-1.154 1.143-2.013 2.55-2.505 4.098-0.491 1.549-0.6 3.194-0.317 4.793 0.283 1.6 0.95 3.108 1.943 4.393 0.571 1.534 1.571 2.871 2.881 3.852v0.354 2.527c-4.301 0.825-8.181 3.121-10.974 6.495-2.793 3.373-4.325 7.614-4.332 11.993v20.268h41.675v-20.237c-1e-3 -4.541-1.642-8.93-4.619-12.359-2.978-3.429-7.093-5.668-11.589-6.306z" fill="url(#b)" opacity=".5"/>
</g>
<path d="m677.3 233.94h2.388c2.32 0 4.617 0.457 6.76 1.345s4.09 2.189 5.73 3.829c1.641 1.64 2.942 3.587 3.829 5.731 0.888 2.143 1.345 4.44 1.345 6.759v17.718h-37.747v-17.718c0-4.685 1.861-9.177 5.174-12.49s7.805-5.174 12.49-5.174h0.031z" fill="#fff"/>
<path d="m678.4 227.78h-0.577c-2.392 0-4.33 1.939-4.33 4.33v2.888c0 2.391 1.938 4.33 4.33 4.33h0.577c2.391 0 4.33-1.939 4.33-4.33v-2.888c0-2.391-1.939-4.33-4.33-4.33z" fill="#FDB797"/>
<path d="m676.34 238.97 1.726 2.512 1.81-2.512h-3.536z" fill="#FDB797"/>
<path d="m666.73 248.06s-1.833 18.25-0.647 19.436l0.647-19.436z" fill="#000" opacity=".1"/>
<path d="m678.14 233.38c1.641 0 3.239-0.524 4.561-1.495-0.174-1.084-0.728-2.072-1.564-2.784-0.836-0.713-1.898-1.105-2.997-1.106-1.108-0.014-2.186 0.371-3.034 1.085-0.849 0.715-1.412 1.71-1.588 2.805 1.34 0.984 2.961 1.508 4.622 1.495z" fill="#000" opacity=".05"/>
<path d="m678.11 231.72c5.024 0 9.097-4.074 9.097-9.098 0-5.025-4.073-9.098-9.097-9.098-5.025 0-9.098 4.073-9.098 9.098 0 5.024 4.073 9.098 9.098 9.098z" fill="#FDD835"/>
<path d="m678.11 233.17c4.25 0 7.696-3.446 7.696-7.696s-3.446-7.696-7.696-7.696-7.696 3.446-7.696 7.696 3.446 7.696 7.696 7.696z" fill="#FDB797"/>
<path d="m670.4 225.94c0.298 0 0.539-0.435 0.539-0.971s-0.241-0.97-0.539-0.97-0.539 0.434-0.539 0.97 0.241 0.971 0.539 0.971z" fill="#FDB797"/>
<path d="m678.5 216.61c1.706 0 3.089-1.383 3.089-3.089s-1.383-3.089-3.089-3.089-3.089 1.383-3.089 3.089 1.383 3.089 3.089 3.089z" fill="#FDD835"/>
<path d="m672.31 216.61s3.082 6.163 12.372 3.082l-3.081-3.082h-9.291z" fill="#FDD835"/>
<path d="m563.17 127.34h-170.23v7.403h170.23v-7.403z" fill="#03C6AF"/>
<path d="m563.17 142.14h-170.23v7.403h170.23v-7.403z" fill="#03C6AF"/>
<path d="m489.16 156.94h-96.216v7.403h96.216v-7.403z" fill="#03C6AF"/>
<path d="m533.57 171.74h-140.63v7.403h140.63v-7.403z" fill="#fff"/>
<path d="m511.36 186.54h-118.42v7.403h118.42v-7.403z" fill="#fff"/>
<path d="m563.17 201.34h-170.23v7.403h170.23v-7.403z" fill="#fff"/>
<path d="m548.37 223.55h-148.02v59.208h148.02v-59.208z" fill="#fff"/>
<path d="M120.726 460H29V25H571V61.2506" stroke="#FBFFFE" stroke-dasharray="12 12" stroke-miterlimit="10" stroke-width="6"/>
<g opacity=".5">
<path d="m31.498 54.74c17.396 0 31.498-12.254 31.498-27.37 0-15.116-14.102-27.37-31.498-27.37s-31.498 12.254-31.498 27.37c0 15.116 14.102 27.37 31.498 27.37z" fill="url(#a)" opacity=".5"/>
</g>
<path d="m31.5 53c16.292 0 29.5-11.417 29.5-25.5s-13.208-25.5-29.5-25.5-29.5 11.417-29.5 25.5 13.208 25.5 29.5 25.5z" fill="#FBFFFE"/>
<path d="M19.7522 26.2015L31.1522 34.9979L47.2956 15L53 19.0011L31.1522 43L15 27.8049L19.7522 26.2015Z" fill="#03C6AF"/>
<path d="m390.85 245.78-187.05 0.261c-7.305 0.01-13.218 5.94-13.208 13.245l0.425 304.52c0.01 7.304 5.94 13.218 13.245 13.208l187.05-0.261c7.305-0.011 13.218-5.941 13.208-13.246l-0.425-304.52c-0.01-7.305-5.941-13.219-13.245-13.208z" fill="url(#o)"/>
<path d="m389.93 271.06-184.38 0.258 0.388 277.59 184.38-0.257-0.387-277.59z" fill="url(#n)"/>
<path d="m387.82 250.78-180.98 0.253c-5.394 8e-3 -9.762 4.387-9.754 9.782l0.414 296.19c7e-3 5.394 4.386 9.762 9.781 9.754l180.98-0.253c5.395-7e-3 9.762-4.387 9.755-9.781l-0.414-296.19c-8e-3 -5.395-4.387-9.762-9.781-9.755z" fill="#fff"/>
<path d="m384.3 274.91-173.16 0.242 0.369 264.81 173.16-0.241-0.37-264.81z" fill="#E6E6E6"/>
<path d="m326.71 560.78c3.94 0 7.133-3.273 7.133-7.31 0-4.038-3.193-7.311-7.133-7.311s-7.133 3.273-7.133 7.311c0 4.037 3.193 7.31 7.133 7.31z" fill="#DBDBDB"/>
<path d="m267.74 266.05c1.315-2e-3 2.379-1.093 2.377-2.438-2e-3 -1.344-1.069-2.433-2.384-2.431-1.314 2e-3 -2.379 1.093-2.377 2.438 2e-3 1.344 1.069 2.433 2.384 2.431z" fill="#DBDBDB"/>
<path d="m309.97 262.1-29.751 0.041c-0.323 1e-3 -0.585 0.263-0.584 0.587l1e-3 1.263c1e-3 0.323 0.263 0.585 0.587 0.585l29.75-0.042c0.323 0 0.585-0.263 0.585-0.586l-2e-3 -1.264c0-0.323-0.263-0.585-0.586-0.584z" fill="#DBDBDB"/>
<path d="m364.6 438.18h-67.743v71.133h67.743v-71.133z" fill="url(#m)"/>
<path d="m361.66 441.28h-61.858v64.948h61.858v-64.948z" fill="#03C6AF"/>
<g opacity=".5">
<path d="m335.99 470.17-0.77-0.277-0.047 0.069h-0.046v-2.095c0-0.258-0.02-0.516-0.061-0.771 1.248-0.918 2.203-2.178 2.75-3.628 1.079-1.398 1.744-3.071 1.921-4.829 0.176-1.757-0.143-3.529-0.922-5.114-0.78-1.585-1.987-2.92-3.487-3.854-1.499-0.934-3.23-1.429-4.996-1.429s-3.497 0.495-4.997 1.429c-1.499 0.934-2.707 2.269-3.486 3.854s-1.098 3.357-0.922 5.114c0.177 1.758 0.842 3.431 1.921 4.829 0.547 1.45 1.502 2.71 2.75 3.628-0.041 0.255-0.062 0.513-0.062 0.771v2.311c-4.133 1.141-7.779 3.607-10.376 7.018-2.598 3.412-4.005 7.582-4.006 11.87v17.187h39.172v-17.217c-3e-3 -4.279-1.405-8.439-3.994-11.845-2.589-3.407-6.221-5.872-10.342-7.021z" fill="url(#l)" opacity=".5"/>
</g>
<path d="m358.54 469.74h2.388c4.685 0 9.178 1.861 12.49 5.173 3.313 3.313 5.174 7.806 5.174 12.491v17.718h-37.747v-17.718c0-2.323 0.458-4.622 1.348-6.767 0.889-2.145 2.193-4.094 3.837-5.734 1.643-1.641 3.594-2.942 5.741-3.827 2.146-0.886 4.447-1.34 6.769-1.336z" fill="#3AD29F"/>
<path d="m330.64 463.58h-0.578c-2.391 0-4.33 1.938-4.33 4.329v2.889c0 2.391 1.939 4.329 4.33 4.329h0.578c2.391 0 4.329-1.938 4.329-4.329v-2.889c0-2.391-1.938-4.329-4.329-4.329z" fill="#BE7C5E"/>
<path d="m357.57 474.78 1.725 2.511 1.818-2.511h-3.543z" fill="#BE7C5E"/>
<path d="m347.96 483.87s-1.833 18.249-0.647 19.435l0.647-19.435z" fill="#000" opacity=".1"/>
<path d="m370.64 483.87s1.833 18.249 0.647 19.435l-0.647-19.435z" fill="#000" opacity=".1"/>
<path d="m330.34 469.15c1.64 0 3.238-0.523 4.56-1.494-0.174-1.085-0.728-2.072-1.564-2.785s-1.898-1.105-2.996-1.105c-1.099 0-2.161 0.392-2.997 1.105-0.835 0.713-1.39 1.7-1.564 2.785 1.322 0.971 2.92 1.494 4.561 1.494z" fill="#000" opacity=".05"/>
<path d="m330.34 467.52c5.024 0 9.097-4.073 9.097-9.098 0-5.024-4.073-9.097-9.097-9.097-5.025 0-9.098 4.073-9.098 9.097 0 5.025 4.073 9.098 9.098 9.098z" fill="#444"/>
<path d="m330.34 468.97c4.25 0 7.695-3.445 7.695-7.695 0-4.251-3.445-7.696-7.695-7.696-4.251 0-7.696 3.445-7.696 7.696 0 4.25 3.445 7.695 7.696 7.695z" fill="#BE7C5E"/>
<path d="m324.14 453.64 1.941 2.373s8.527 0.77 9.498-1.187c0.971-1.956-5.616-3.351-5.616-3.351l-5.823 2.165z" fill="#000" opacity=".05"/>
<path d="m324.14 453.43 1.941 2.372s8.527 0.771 9.498-1.186-5.616-3.351-5.616-3.351l-5.823 2.165z" fill="#444"/>
<path d="m322.63 461.74c0.298 0 0.54-0.435 0.54-0.971s-0.242-0.971-0.54-0.971c-0.297 0-0.539 0.435-0.539 0.971s0.242 0.971 0.539 0.971z" fill="#BE7C5E"/>
<path d="m338.07 461.74c0.298 0 0.539-0.435 0.539-0.971s-0.241-0.971-0.539-0.971-0.539 0.435-0.539 0.971 0.241 0.971 0.539 0.971z" fill="#BE7C5E"/>
<path d="m324.33 449.96c0.602-0.769 1.433-1.327 2.372-1.595 1.703-0.677 3.474-1.371 5.3-1.247 0.178-3e-3 0.352 0.048 0.501 0.146 0.122 0.13 0.223 0.278 0.3 0.439 0.555 0.824 2.111 0.77 2.311 1.741 0.054 0.316-0.077 0.655 0 0.963 0.201 0.77 1.287 0.693 1.926 1.132 0.341 0.308 0.547 0.736 0.576 1.194s-0.123 0.908-0.422 1.256c-0.634 0.672-1.455 1.139-2.357 1.34-1.583 0.607-3.304 0.759-4.969 0.439-2.334-0.608-7.796-2.118-5.538-5.808z" fill="#444"/>
<path d="m295.27 437.41h-67.744v71.133h67.744v-71.133z" fill="url(#k)"/>
<path d="m292.33 440.51h-61.858v64.947h61.858v-64.947z" fill="#03C6AF"/>
<g opacity=".5">
<path d="m266.66 469.4-0.77-0.278-0.047 0.07h-0.046v-2.096c0-0.258-0.02-0.515-0.061-0.77 1.247-0.918 2.203-2.178 2.75-3.628 1.078-1.399 1.744-3.071 1.92-4.829 0.177-1.757-0.142-3.529-0.921-5.114-0.78-1.585-1.987-2.921-3.487-3.854-1.499-0.934-3.23-1.429-4.996-1.429-1.767 0-3.497 0.495-4.997 1.429-1.499 0.933-2.707 2.269-3.486 3.854s-1.099 3.357-0.922 5.114c0.177 1.758 0.842 3.43 1.921 4.829 0.547 1.45 1.502 2.71 2.75 3.628-0.041 0.255-0.062 0.512-0.062 0.77v2.311c-4.133 1.142-7.779 3.607-10.376 7.019-2.598 3.412-4.005 7.582-4.006 11.87v17.187h39.172v-17.218c-3e-3 -4.278-1.405-8.438-3.994-11.844-2.589-3.407-6.221-5.873-10.342-7.021z" fill="url(#j)" opacity=".5"/>
</g>
<path d="m289.2 468.97h2.388c2.32 0 4.617 0.457 6.76 1.345s4.09 2.189 5.731 3.829c1.64 1.64 2.941 3.587 3.829 5.731 0.887 2.143 1.344 4.44 1.344 6.759v17.718h-37.746v-17.718c0-2.322 0.458-4.621 1.347-6.767 0.89-2.145 2.194-4.093 3.837-5.734 1.644-1.641 3.595-2.941 5.741-3.827 2.147-0.886 4.447-1.34 6.769-1.336z" fill="#514ABF"/>
<path d="m261.31 462.81h-0.578c-2.391 0-4.329 1.939-4.329 4.33v2.889c0 2.391 1.938 4.329 4.329 4.329h0.578c2.391 0 4.329-1.938 4.329-4.329v-2.889c0-2.391-1.938-4.33-4.329-4.33z" fill="#FDA57D"/>
<path d="m278.63 483.1s-1.834 18.249-0.647 19.436l0.647-19.436z" fill="#000" opacity=".1"/>
<path d="m301.31 483.1s1.834 18.249 0.647 19.436l-0.647-19.436z" fill="#000" opacity=".1"/>
<path d="m261.01 468.38c1.641 0 3.238-0.524 4.56-1.495-0.173-1.084-0.728-2.071-1.564-2.784-0.835-0.713-1.898-1.105-2.996-1.106-1.098 1e-3 -2.161 0.393-2.996 1.106-0.836 0.713-1.39 1.7-1.564 2.784 1.322 0.971 2.92 1.495 4.56 1.495z" fill="#000" opacity=".05"/>
<path d="m261.01 466.75c5.025 0 9.098-4.074 9.098-9.098 0-5.025-4.073-9.098-9.098-9.098-5.024 0-9.097 4.073-9.097 9.098 0 5.024 4.073 9.098 9.097 9.098z" fill="#444"/>
<path d="m261.01 468.2c4.25 0 7.696-3.445 7.696-7.696 0-4.25-3.446-7.695-7.696-7.695s-7.696 3.445-7.696 7.695c0 4.251 3.446 7.696 7.696 7.696z" fill="#FDA57D"/>
<path d="m254.81 452.88 1.941 2.373s8.528 0.77 9.499-1.187c0.97-1.956-5.616-3.351-5.616-3.351l-5.824 2.165z" fill="#000" opacity=".05"/>
<path d="m254.81 452.66 1.941 2.373s8.528 0.77 9.499-1.186c0.97-1.957-5.616-3.351-5.616-3.351l-5.824 2.164z" fill="#444"/>
<path d="m253.3 460.97c0.298 0 0.539-0.434 0.539-0.97s-0.241-0.971-0.539-0.971-0.539 0.435-0.539 0.971 0.241 0.97 0.539 0.97z" fill="#FDA57D"/>
<path d="m268.74 460.97c0.298 0 0.54-0.434 0.54-0.97s-0.242-0.971-0.54-0.971c-0.297 0-0.539 0.435-0.539 0.971s0.242 0.97 0.539 0.97z" fill="#FDA57D"/>
<path d="m355.94 308.79h-125.82v5.47h125.82v-5.47z" fill="#fff"/>
<path d="m355.94 319.73h-125.82v5.469h125.82v-5.469z" fill="#fff"/>
<path d="m301.23 330.67h-71.117v5.469h71.117v-5.469z" fill="#03C6AF"/>
<path d="m334.06 341.62h-103.94v5.469h103.94v-5.469z" fill="#03C6AF"/>
<path d="m317.64 352.55h-87.526v5.47h87.526v-5.47z" fill="#fff"/>
<path d="m355.94 363.49h-125.82v5.47h125.82v-5.47z" fill="#fff"/>
<path d="m345 379.91h-109.41v43.763h109.41v-43.763z" fill="#fff"/>
<path d="m255.67 457.6c0.388-0.687 0.711-1.409 0.963-2.157 0.409-0.886 1.055-1.641 1.866-2.183s1.757-0.849 2.731-0.887c0.975-0.038 1.942 0.194 2.793 0.67 0.851 0.477 1.554 1.179 2.031 2.03 0.632 1.133 0.84 2.473 1.541 3.567 0.099 0.074 0.213 0.128 0.334 0.156 0.121 0.029 0.247 0.032 0.369 9e-3 0.122-0.022 0.239-0.07 0.342-0.139 0.103-0.07 0.19-0.16 0.257-0.265 0.122-0.222 0.192-0.469 0.207-0.722s-0.027-0.506-0.122-0.741c-0.162-0.478-0.432-0.917-0.609-1.387-0.177-0.765-0.435-1.509-0.77-2.219-0.412-0.537-0.939-0.977-1.541-1.286-1.703-1.048-3.675-2.134-5.6-1.541-0.65 0.222-1.265 0.536-1.826 0.932l-2.45 1.541c-0.788 0.441-1.492 1.017-2.08 1.702-0.531 0.694-1.54 2.766-1.07 3.66 0.554 1.016 2.149-0.101 2.634-0.74z" fill="#444"/>
<path d="m288.08 473.77v30.606h4.521l-0.67-30.606h-3.851z" fill="#fff"/>
<path d="m287.33 473.36 2.619 3.814 2.758-3.814h-5.377z" fill="#FDA57D"/>
<defs>
<linearGradient id="p" x1="186.05" x2="186.05" y1="353.36" y2="143.2" gradientUnits="userSpaceOnUse">
<stop stop-color="#808080" stop-opacity=".25" offset="0"/>
<stop stop-color="#808080" stop-opacity=".12" offset=".54"/>
<stop stop-color="#808080" stop-opacity=".1" offset="1"/>
</linearGradient>
<linearGradient id="i" x1="7809.4" x2="7809.4" y1="20927" y2="17616" gradientUnits="userSpaceOnUse">
<stop stop-color="#808080" stop-opacity=".25" offset="0"/>
<stop stop-color="#808080" stop-opacity=".12" offset=".54"/>
<stop stop-color="#808080" stop-opacity=".1" offset="1"/>
</linearGradient>
<linearGradient id="h" x1="9089" x2="9089" y1="21216" y2="18725" gradientUnits="userSpaceOnUse">
<stop stop-color="#808080" stop-opacity=".25" offset="0"/>
<stop stop-color="#808080" stop-opacity=".12" offset=".54"/>
<stop stop-color="#808080" stop-opacity=".1" offset="1"/>
</linearGradient>
<linearGradient id="g" x1="201332" x2="201332" y1="10728" y2="10410" gradientUnits="userSpaceOnUse">
<stop stop-color="#808080" stop-opacity=".25" offset="0"/>
<stop stop-color="#808080" stop-opacity=".12" offset=".54"/>
<stop stop-color="#808080" stop-opacity=".1" offset="1"/>
</linearGradient>
<linearGradient id="f" x1="337268" x2="337268" y1="171844" y2="59464" gradientUnits="userSpaceOnUse">
<stop stop-color="#808080" stop-opacity=".25" offset="0"/>
<stop stop-color="#808080" stop-opacity=".12" offset=".54"/>
<stop stop-color="#808080" stop-opacity=".1" offset="1"/>
</linearGradient>
<linearGradient id="e" x1="54649" x2="54649" y1="18302" y2="11734" gradientUnits="userSpaceOnUse">
<stop stop-color="#808080" stop-opacity=".25" offset="0"/>
<stop stop-color="#808080" stop-opacity=".12" offset=".54"/>
<stop stop-color="#808080" stop-opacity=".1" offset="1"/>
</linearGradient>
<linearGradient id="d" x1="36354" x2="38344" y1="16544" y2="16544" gradientUnits="userSpaceOnUse">
<stop stop-color="#808080" stop-opacity=".25" offset="0"/>
<stop stop-color="#808080" stop-opacity=".12" offset=".54"/>
<stop stop-color="#808080" stop-opacity=".1" offset="1"/>
</linearGradient>
<linearGradient id="c" x1="54684" x2="54684" y1="26267" y2="19699" gradientUnits="userSpaceOnUse">
<stop stop-color="#808080" stop-opacity=".25" offset="0"/>
<stop stop-color="#808080" stop-opacity=".12" offset=".54"/>
<stop stop-color="#808080" stop-opacity=".1" offset="1"/>
</linearGradient>
<linearGradient id="b" x1="39810" x2="39810" y1="28580" y2="23076" gradientUnits="userSpaceOnUse">
<stop stop-color="#808080" stop-opacity=".25" offset="0"/>
<stop stop-color="#808080" stop-opacity=".12" offset=".54"/>
<stop stop-color="#808080" stop-opacity=".1" offset="1"/>
</linearGradient>
<linearGradient id="a" x1="2286.8" x2="2286.8" y1="3973.6" gradientUnits="userSpaceOnUse">
<stop stop-color="#808080" stop-opacity=".25" offset="0"/>
<stop stop-color="#808080" stop-opacity=".12" offset=".54"/>
<stop stop-color="#808080" stop-opacity=".1" offset="1"/>
</linearGradient>
<linearGradient id="o" x1="95530" x2="95331" y1="280093" y2="137246" gradientUnits="userSpaceOnUse">
<stop stop-color="#808080" stop-opacity=".25" offset="0"/>
<stop stop-color="#808080" stop-opacity=".12" offset=".54"/>
<stop stop-color="#808080" stop-opacity=".1" offset="1"/>
</linearGradient>
<linearGradient id="n" x1="298.14" x2="297.75" y1="551.6" y2="272.73" gradientUnits="userSpaceOnUse">
<stop stop-opacity=".09" offset="0"/>
<stop stop-opacity=".07" offset=".55"/>
<stop stop-opacity=".02" offset="1"/>
</linearGradient>
<linearGradient id="m" x1="23753" x2="23753" y1="48392" y2="41824" gradientUnits="userSpaceOnUse">
<stop stop-color="#808080" stop-opacity=".25" offset="0"/>
<stop stop-color="#808080" stop-opacity=".12" offset=".54"/>
<stop stop-color="#808080" stop-opacity=".1" offset="1"/>
</linearGradient>
<linearGradient id="l" x1="18432" x2="20424" y1="41142" y2="41142" gradientUnits="userSpaceOnUse">
<stop stop-color="#808080" stop-opacity=".25" offset="0"/>
<stop stop-color="#808080" stop-opacity=".12" offset=".54"/>
<stop stop-color="#808080" stop-opacity=".1" offset="1"/>
</linearGradient>
<linearGradient id="k" x1="17587" x2="17587" y1="48320" y2="41752" gradientUnits="userSpaceOnUse">
<stop stop-color="#808080" stop-opacity=".25" offset="0"/>
<stop stop-color="#808080" stop-opacity=".12" offset=".54"/>
<stop stop-color="#808080" stop-opacity=".1" offset="1"/>
</linearGradient>
<linearGradient id="j" x1="14837" x2="16829" y1="41083" y2="41083" gradientUnits="userSpaceOnUse">
<stop stop-color="#808080" stop-opacity=".25" offset="0"/>
<stop stop-color="#808080" stop-opacity=".12" offset=".54"/>
<stop stop-color="#808080" stop-opacity=".1" offset="1"/>
</linearGradient>
</defs>
</svg>
